<svg version="1.1" id="Calque_1" xmlns="http://www.w3.org/2000/svg" xmlns:xlink="http://www.w3.org/1999/xlink" x="0px" y="0px"
	 width="90.000488px" height="59.999023px" viewBox="0 0 90.000488 59.999023" enable-background="new 0 0 90.000488 59.999023"
	 xml:space="preserve">
<g>
	<path d="M42.111328,38.957031h-2.07373c-0.811035,0-1.470215,0.65332-1.470215,1.457031v2.053711
		c0,0.803711,0.65918,1.457031,1.470215,1.457031h2.07373c0.811035,0,1.472168-0.65332,1.472168-1.457031v-2.053711
		C43.583496,39.610352,42.922363,38.957031,42.111328,38.957031z M41.626465,41.986328h-1.103027v-1.091797h1.103027V41.986328z"/>
	<path d="M65.383301,26.560059c1.151367-0.669922,2.466797-1.024902,3.807617-1.024902
		c4.147461,0,7.522461,3.341797,7.522461,7.450195c0,0.535156,0.436523,0.96875,0.977539,0.96875
		s0.979492-0.433594,0.979492-0.96875c0-5.177246-4.253906-9.388184-9.479492-9.388184
		c-1.688477,0-3.348633,0.446777-4.799805,1.293945c-0.464844,0.270996-0.620117,0.864746-0.345703,1.325684
		C64.318848,26.679199,64.916504,26.831055,65.383301,26.560059z"/>
	<path d="M90.000488,27.892578h-6.00293c-0.054688,0-0.102539,0.022461-0.155273,0.030762
		c-0.739258-2.120117-1.944336-4.115234-3.650391-5.805176c-2.916016-2.88916-6.792969-4.47998-10.917969-4.47998
		s-8.001953,1.59082-10.919922,4.47998c-1.698242,1.681641-2.899414,3.666016-3.639648,5.774902H35.822754l1.08252-5.533691
		l0.018066-0.172852c2.047852-0.366699,3.609375-2.13623,3.609375-4.268066c0-2.346191-1.890137-4.251953-4.239746-4.332031
		c0.037109-0.433105-0.008789-0.870117-0.109375-1.301758c1.181641-1.356934,1.39209-3.301758,0.464355-4.877441l-0.130371-0.17334
		c-0.050781-0.059082-0.126953-0.169922-0.197754-0.268066c-0.117188-0.163086-0.229004-0.304688-0.273926-0.352539
		c-0.787109-0.816406-1.849121-1.279297-2.990234-1.305176c-1.149902-0.03125-2.224121,0.38916-3.046875,1.168945
		c-0.085938,0.081055-0.207031,0.115723-0.324219,0.09375c-0.117676-0.022949-0.21582-0.100098-0.273926-0.226074
		c-0.043945-0.097656-0.043945-0.210938,0.001953-0.306641c1.007324-2.108398,0.094238-4.634277-2.032715-5.630859
		c-2.131348-0.995117-4.680176-0.092285-5.686035,2.013672c-0.243164,0.509277-0.369141,1.055176-0.394531,1.603027
		c-0.332031-0.080566-0.671387-0.135254-1.021973-0.135254c-0.358398,0-0.70459,0.058105-1.042969,0.14209
		c-0.024902-0.549805-0.150879-1.098145-0.394531-1.608887c-0.487305-1.020508-1.347168-1.791016-2.422363-2.172363
		c-1.072754-0.380859-2.23291-0.324707-3.262695,0.158203c-2.128906,0.996094-3.041016,3.521973-2.03418,5.630859
		c0.045898,0.097168,0.046875,0.207031-0.006836,0.324219c-0.049316,0.10791-0.147949,0.186035-0.266113,0.208984
		c-0.116211,0.020996-0.23584-0.01416-0.322754-0.095215c-1.702148-1.61084-4.410156-1.548828-6.037109,0.13623
		C4.441895,6.660645,4.32959,6.802734,4.212891,6.966797C4.141602,7.064453,4.065918,7.174805,4.032715,7.214844L3.884766,7.406738
		c-0.916016,1.558594-0.721191,3.477539,0.464844,4.879395c-0.100586,0.430664-0.146484,0.867188-0.109863,1.300293
		C1.890137,13.666016,0,15.572266,0,17.918457c0,2.131836,1.562012,3.901855,3.61084,4.268066l7.381836,37.8125H29.05957h0.480957
		H43.4375v-3.173828h0.262695c0.689941,0,1.25-0.555664,1.25-1.238281v-1.664062h26.028809v1.664062
		c0,0.682617,0.560547,1.238281,1.25,1.238281h0.262695v3.173828h14.378906v-3.173828h0.262695
		c0.69043,0,1.250977-0.555664,1.250977-1.238281v-1.664062h1.616211V27.892578z M59.736816,23.488281
		c2.546875-2.523438,5.933594-3.912109,9.537109-3.912109c3.601562,0,6.987305,1.388672,9.535156,3.912109
		c5.255859,5.208008,5.255859,13.680664,0,18.887695c-2.547852,2.523438-5.933594,3.912109-9.535156,3.912109
		c-3.603516,0-6.990234-1.388672-9.537109-3.912109C54.480957,37.168945,54.480957,28.696289,59.736816,23.488281z
		 M54.164551,29.830078c-1.011719,4.873047,0.379883,10.143555,4.189453,13.916016
		c2.917969,2.889648,6.794922,4.479492,10.919922,4.479492s8.001953-1.589844,10.917969-4.479492
		c3.80957-3.772461,5.201172-9.042969,4.189453-13.916016h3.662109v22.155273h-0.905273
		c-0.001953,0-0.00293-0.000977-0.004883-0.000977H72.229004c-0.001953,0-0.00293,0.000977-0.004883,0.000977H43.700195H31.108398
		l1.622559-8.292969c0.229004,0.145508,0.499512,0.232422,0.791504,0.232422h2.075195
		c0.811035,0,1.470703-0.65332,1.470703-1.457031v-2.053711c0-0.803711-0.659668-1.457031-1.470703-1.457031h-1.939941
		l0.248535-1.270508h14.543457c0.908203,0,1.647461-0.732422,1.647461-1.630859v-1.826172
		c0-0.899414-0.739258-1.630859-1.647461-1.630859H34.901855l0.541504-2.768555H54.164551z M42.994141,54.887695H30.540527
		l0.188965-0.964844h12.264648V54.887695z M34.522949,34.536133h13.617188v1.212891H34.285645L34.522949,34.536133z
		 M34.009277,41.986328v-1.091797h1.103027v1.091797H34.009277z M38.575684,17.918457
		c0,1.191895-0.898438,2.174316-2.038574,2.366699c-0.522461-1.219238-1.540527-2.17041-2.796875-2.638672
		c0.138672-1.19873,1.157715-2.136719,2.40332-2.136719C37.484375,15.509766,38.575684,16.59082,38.575684,17.918457z
		 M12.43457,19.305664c-0.852539-1.14209-2.190918-1.89502-3.71582-1.960938c-0.195801-1.450195-1.105469-2.666016-2.376465-3.29834
		c-0.176758-0.454102-0.208008-0.943848-0.077637-1.415527c0.091797-0.131836,0.149902-0.277344,0.168457-0.432617
		c0.499023-0.975586,1.64502-1.489258,2.734375-1.157715c1.219238,0.369141,1.90918,1.651855,1.544434,2.836914l-0.033203,0.11084
		c-0.153809,0.55127-0.085449,1.124512,0.166016,1.627441c0.009277,1.352539,0.67627,2.612793,1.814941,3.415527
		C12.58252,19.120605,12.505371,19.209961,12.43457,19.305664z M16.345703,19.261719
		c1.623047,0,2.942871,1.306641,2.942871,2.913574c0,0.000977,0.000488,0.001465,0.000488,0.002441v35.883789h-2.571777
		l-3.3125-35.88623C13.404785,20.568359,14.723633,19.261719,16.345703,19.261719z M20.266602,19.295898
		c-0.596191-0.794434-1.429199-1.39209-2.397949-1.708496c0.165039-1.17041,1.171875-2.077637,2.397949-2.077637
		c1.226562,0,2.232422,0.907227,2.397461,2.077637C21.695801,17.904297,20.863281,18.501465,20.266602,19.295898z
		 M21.245117,22.175293c0-1.606934,1.318848-2.913574,2.941895-2.913574c1.62207,0,2.940918,1.306641,2.944824,2.825684
		l-3.315918,35.974121h-2.570801V22.175293z M28.106445,19.294922c-0.069824-0.092773-0.146973-0.179688-0.223145-0.26709
		c1.117676-0.78418,1.798828-2.056641,1.808105-3.41748c0.249512-0.501953,0.316406-1.071289,0.165039-1.61377l-0.027832-0.095215
		c-0.37207-1.208984,0.316895-2.491699,1.537109-2.86084c1.098145-0.334961,2.255859,0.194336,2.746582,1.187988
		c0.023926,0.123047,0.072266,0.241211,0.144043,0.348633c0.147461,0.48877,0.117676,0.999023-0.064941,1.46875
		c-1.271484,0.631836-2.181641,1.848145-2.377441,3.29834C30.294434,17.410156,28.959473,18.15918,28.106445,19.294922z
		 M23.462891,3.25c0.544922-1.141113,1.926758-1.631836,3.080078-1.09082c1.152832,0.540039,1.646973,1.907715,1.100586,3.051758
		c-0.289551,0.609863-0.296875,1.312988-0.008789,1.947266c0.308105,0.679688,0.935059,1.171875,1.674805,1.314941
		c0.734375,0.14209,1.505371-0.079102,2.052246-0.596191c0.443848-0.420898,1.045898-0.641113,1.648926-0.631836
		c0.619141,0.013672,1.193848,0.264648,1.586914,0.669922c0.030273,0.037109,0.076172,0.103027,0.12793,0.174805
		c0.088379,0.12207,0.185059,0.25293,0.266113,0.352051c0.327148,0.597656,0.359375,1.28418,0.132812,1.888672
		c-0.312988-0.325195-0.666504-0.614746-1.079102-0.832031c-1.008789-0.530762-2.165039-0.64209-3.251953-0.312012
		c-1.467773,0.444824-2.505859,1.609375-2.866699,2.992676c-1.193848-0.858398-2.795898-1.09668-4.240723-0.461426
		c-0.156738,0.072266-0.348633,0.02002-0.449707-0.12207c-0.101074-0.141113-0.086914-0.335938,0.060059-0.489258
		c0.804688-0.797852,1.25-1.859863,1.25-2.990723c0-0.882324-0.279297-1.71875-0.781738-2.424805
		c-0.004883-0.006348-0.005371-0.014648-0.010742-0.020996C23.199707,4.989258,23.085938,4.039062,23.462891,3.25z
		 M21.913086,6.495605c0.10498,0.104492,0.197754,0.217773,0.279785,0.337402
		c0.005371,0.006836,0.009766,0.014648,0.015137,0.021973c0.247559,0.370605,0.381348,0.805176,0.381348,1.260742
		c0,0.61377-0.240234,1.188965-0.65625,1.601074l-0.083984,0.084961c-0.759766,0.794922-0.848145,2.019043-0.210938,2.914062
		c0.638184,0.89209,1.833984,1.21582,2.845215,0.771973c1.143555-0.504883,2.48877-0.010254,3.026855,1.104004l0.02002,0.082031
		c0.062988,0.254883,0.121094,0.477051,0.192871,0.663086c0.106934,0.98291-0.438965,1.931641-1.359863,2.338867
		c-0.057129,0.024902-0.105469,0.060547-0.15918,0.089844c-0.496582-0.223633-1.038086-0.353516-1.605957-0.401367
		c-0.27832-2.133301-2.103027-3.79248-4.331543-3.79248c-2.228027,0-4.053711,1.65918-4.332031,3.79248
		c-0.566895,0.047852-1.10791,0.177246-1.603027,0.401855c-0.055176-0.029785-0.10498-0.064941-0.163574-0.091309
		c-0.959961-0.423828-1.505859-1.420898-1.344727-2.443359c0.041016-0.119629,0.087891-0.273438,0.129883-0.417969
		c0.023926-0.085938,0.044922-0.163574,0.042969-0.164551c0.250977-0.558105,0.707031-0.986328,1.286133-1.205078
		c0.577148-0.220215,1.205078-0.204102,1.768066,0.043945c0.688965,0.304199,1.483887,0.256836,2.132812-0.123047
		c0.648926-0.381836,1.071289-1.053223,1.131836-1.816895c0.054199-0.673828-0.190918-1.333984-0.672852-1.811035
		c-0.437012-0.432129-0.676758-1.007324-0.676758-1.621094c0-0.612793,0.239746-1.187988,0.676758-1.620117
		C19.513184,5.631836,21.041016,5.631836,21.913086,6.495605z M5.541504,8.442383
		c0.080078-0.099609,0.178223-0.229492,0.265137-0.352539C5.858887,8.017578,5.905762,7.95166,5.901855,7.95166
		c0.881836-0.913086,2.347656-0.945801,3.270996-0.074707c0.543945,0.515625,1.310059,0.73877,2.049805,0.595703
		c0.740234-0.143066,1.366211-0.632812,1.684082-1.332031c0.279785-0.616211,0.272949-1.319824-0.018066-1.931152
		c-0.544922-1.14209-0.049805-2.510742,1.102051-3.050781c0.559082-0.26123,1.185059-0.291016,1.768066-0.083984
		c0.583008,0.206055,1.047852,0.624023,1.312012,1.175781c0.375977,0.788086,0.261719,1.738281-0.291992,2.419434
		c-0.022949,0.02832-0.029297,0.063477-0.048828,0.09375c-0.468262,0.689941-0.720703,1.501465-0.720703,2.352051
		c0,1.130859,0.443848,2.192871,1.250977,2.990723c0.074707,0.075195,0.112793,0.180176,0.103027,0.30957
		c-0.010254,0.115723-0.077148,0.22168-0.179199,0.282715c-0.102051,0.060059-0.22998,0.066895-0.337891,0.019043
		c-1.040039-0.458984-2.200195-0.489258-3.266113-0.083984c-0.354004,0.134277-0.671387,0.325195-0.970215,0.539062
		c-0.362305-1.374023-1.401367-2.541016-2.870117-2.986328c-1.088867-0.330078-2.245117-0.21875-3.251953,0.312012
		C6.075684,9.71582,5.722168,10.004883,5.40918,10.330078C5.182129,9.724609,5.213867,9.039062,5.541504,8.442383z
		 M1.957031,17.918457c0-1.327637,1.091309-2.408691,2.432129-2.408691c1.245605,0,2.265625,0.937988,2.404297,2.13623
		c-1.255371,0.468262-2.273926,1.418945-2.796875,2.637695C2.868652,20.088867,1.957031,19.108887,1.957031,17.918457z
		 M5.566406,22.088379c0.046875-1.566895,1.348145-2.82666,2.939941-2.82666c1.62207,0,2.941895,1.306641,2.941895,2.913574
		c0,0.01416,0.007324,0.025879,0.008301,0.040039c-0.000488,0.016602-0.004883,0.031738-0.004883,0.04834l3.299805,35.797852
		h-2.14502L5.566406,22.088379z M25.78125,58.061523l3.303711-35.88623c0-0.000977-0.000488-0.001465-0.000488-0.002441
		c0.001465-1.605957,1.319824-2.911133,2.940918-2.911133c1.593262,0,2.894043,1.259766,2.940918,2.82666l-7.041016,35.973145
		H25.78125z M41.481445,58.061523h-10.46582v-1.236328h10.46582V58.061523z M84.913574,58.061523h-10.46582v-1.236328h10.46582
		V58.061523z M86.427246,54.887695H72.934082v-0.964844h13.493164V54.887695z"/>
	<path d="M52.61377,17.982422c0.19043,0.188965,0.44043,0.28418,0.69043,0.28418s0.5-0.095215,0.692383-0.28418
		c0.381836-0.378906,0.381836-0.990723,0-1.370117l-3.53418-3.5c-0.381836-0.378906-1.000977-0.378906-1.383789,0
		c-0.380859,0.379395-0.380859,0.991211,0,1.370117L52.61377,17.982422z"/>
	<path d="M85.059082,18.266602c0.25,0,0.5-0.095215,0.691406-0.28418l3.53418-3.5
		c0.380859-0.378906,0.380859-0.991699,0-1.370117c-0.383789-0.378906-1.001953-0.378906-1.383789,0l-3.533203,3.5
		c-0.382812,0.379395-0.382812,0.992188,0,1.370117C84.559082,18.171387,84.809082,18.266602,85.059082,18.266602z"/>
	<path d="M69.189941,42.373047c1.689453,0,3.349609-0.447266,4.800781-1.292969
		c0.464844-0.272461,0.619141-0.866211,0.345703-1.327148c-0.275391-0.462891-0.874023-0.615234-1.339844-0.342773
		c-1.150391,0.670898-2.466797,1.024414-3.806641,1.024414c-4.147461,0-7.521484-3.341797-7.521484-7.449219
		c0-0.535156-0.4375-0.96875-0.978516-0.96875s-0.978516,0.433594-0.978516,0.96875
		C59.711426,38.162109,63.963379,42.373047,69.189941,42.373047z"/>
	<path d="M69.189941,11.843262c0.541016,0,0.978516-0.434082,0.978516-0.969238V0.970215
		c0-0.535156-0.4375-0.969238-0.978516-0.969238s-0.978516,0.434082-0.978516,0.969238v9.903809
		C68.211426,11.40918,68.648926,11.843262,69.189941,11.843262z"/>
</g>
</svg>
