<?xml version="1.0" encoding="utf-8"?>
<!-- Generator: Adobe Illustrator 15.1.0, SVG Export Plug-In . SVG Version: 6.00 Build 0)  -->
<!DOCTYPE svg PUBLIC "-//W3C//DTD SVG 1.1//EN" "http://www.w3.org/Graphics/SVG/1.1/DTD/svg11.dtd">
<svg version="1.1" id="Calque_1" xmlns="http://www.w3.org/2000/svg" xmlns:xlink="http://www.w3.org/1999/xlink" x="0px" y="0px"
	 width="90.000488px" height="59.999512px" viewBox="0 0 90.000488 59.999512" enable-background="new 0 0 90.000488 59.999512"
	 xml:space="preserve">
<path d="M31.668457,59.662598h-1.100098c-0.541016,0-0.979004-0.430664-0.979004-0.962891
	s0.437988-0.962891,0.979004-0.962891h1.100098c0.541016,0,0.979004,0.430664,0.979004,0.962891
	S32.209473,59.662598,31.668457,59.662598"/>
<path d="M66.146973,55.849121h-1.100586c-0.541016,0-0.979492-0.431641-0.979492-0.962891
	c0-0.532227,0.438477-0.962891,0.979492-0.962891h1.100586c0.541016,0,0.978516,0.430664,0.978516,0.962891
	C67.125488,55.41748,66.687988,55.849121,66.146973,55.849121"/>
<path d="M66.146973,59.649902h-1.100586c-0.541016,0-0.979492-0.431641-0.979492-0.962891
	c0-0.533203,0.438477-0.963867,0.979492-0.963867h1.100586c0.541016,0,0.978516,0.430664,0.978516,0.963867
	C67.125488,59.218262,66.687988,59.649902,66.146973,59.649902"/>
<path d="M22.164062,28.26416c-0.541016,0-0.979004-0.431152-0.979004-0.962891v-1.444336
	c0-0.531738,0.437988-0.962891,0.979004-0.962891s0.978027,0.431152,0.978027,0.962891v1.444336
	C23.14209,27.833008,22.705078,28.26416,22.164062,28.26416"/>
<path d="M34.610352,28.26416c-0.541016,0-0.979004-0.431152-0.979004-0.962891v-1.444336
	c0-0.531738,0.437988-0.962891,0.979004-0.962891s0.978027,0.431152,0.978027,0.962891v1.444336
	C35.588379,27.833008,35.151367,28.26416,34.610352,28.26416"/>
<path d="M28.211426,35.916504c-2.004883,0-3.873047-0.885742-5.124023-2.432617
	c-0.335938-0.414062-0.266113-1.020508,0.155762-1.352539c0.42334-0.331055,1.040039-0.261719,1.375,0.154297
	c0.877441,1.083984,2.187012,1.705078,3.593262,1.705078c1.359863,0,2.643066-0.588867,3.518066-1.614258
	c0.344727-0.40625,0.962891-0.461914,1.37793-0.118164c0.414062,0.342773,0.466797,0.949219,0.120117,1.356445
	C31.979492,35.077637,30.150391,35.916504,28.211426,35.916504"/>
<path d="M69.893066,37.492676c-0.541016,0-0.978516-0.430664-0.978516-0.961914V35.51123
	c0-0.533203,0.4375-0.963867,0.978516-0.963867s0.978516,0.430664,0.978516,0.963867v1.019531
	C70.871582,37.062012,70.434082,37.492676,69.893066,37.492676"/>
<path d="M62.08252,36.530762V35.51123c0-0.533203-0.4375-0.963867-0.978516-0.963867
	s-0.978516,0.430664-0.978516,0.963867v1.019531c0,0.53125,0.4375,0.961914,0.978516,0.961914
	S62.08252,37.062012,62.08252,36.530762z"/>
<path d="M65.375488,42.896973c1.455078,0,2.826172-0.628906,3.761719-1.725586
	c0.347656-0.407227,0.293945-1.015625-0.119141-1.357422c-0.415039-0.341797-1.033203-0.287109-1.378906,0.119141
	c-0.564453,0.660156-1.388672,1.039062-2.263672,1.039062c-0.905273,0-1.748047-0.401367-2.313477-1.099609
	c-0.337891-0.414062-0.954102-0.482422-1.375977-0.151367s-0.491211,0.936523-0.155273,1.352539
	C62.471191,42.23291,63.871582,42.896973,65.375488,42.896973z"/>
<path d="M89.021973,48.178223h-0.207031c-0.31543,0-0.572266-0.25293-0.573242-0.523438l0.018555-6.972656
	c0-3.814453-3.152344-6.916992-7.029297-6.916992h-2.470703c-0.052734,0-0.098633,0.021484-0.148438,0.029297
	c-0.056641-0.069336-0.111328-0.140625-0.173828-0.206055c0.28418-1.020508,0.4375-2.071777,0.4375-3.137207
	c0-6.87207-6-12.461914-13.376953-12.461914c-7.375,0-13.376953,5.589844-13.376953,12.461914
	c0,1.126465,0.169922,2.236816,0.488281,3.311035c-0.008789,0.010742-0.018555,0.021484-0.027344,0.032227
	c-0.050781-0.007812-0.095703-0.029297-0.148438-0.029297h-2.47168c-3.875977,0-7.027832,3.102539-7.027832,6.916992
	l0.000488,4.314453l-7.950684-2.569336v-2.683594c3.020996-1.869141,5.259277-4.857422,6.094727-8.375977h0.993164
	c2.635254,0,4.777832-2.108887,4.777832-4.702148c0-1.84082-1.089844-3.421875-2.659668-4.193848l0.572266-7.256348
	c0-3.333008-2.192871-6.317383-5.381836-7.395508C36.569824,2.98584,31.380859,0,25.740723,0
	c-8.663086,0-15.710938,6.936035-15.710938,15.462402c0,0.039551,0.00293,0.078613,0.008301,0.117676l0.883789,7.065918
	c-1.39209,0.822266-2.335449,2.307617-2.335449,4.019043c0,2.593262,2.143066,4.702148,4.777832,4.702148h0.979004
	c0.784668,3.321777,2.77832,6.115723,5.465332,7.979004l-0.000977,3.102539L4.677246,47.335449
	c-1.30957,0.455078-4.035645,1.398438-4.031738,4.157227l-0.64209,7.463867c-0.044922,0.529297,0.354004,0.995117,0.893066,1.041016
	c0.026855,0.001953,0.055176,0.001953,0.083008,0.001953c0.50293,0,0.931152-0.378906,0.974121-0.880859l0.644043-7.543945
	c0-1.09082,0.714844-1.723633,2.709961-2.415039l12.615723-4.075195l-2.957031,7.780273
	c-0.13916,0.364258-0.041992,0.774414,0.24707,1.041016c0.287598,0.265625,0.710938,0.333984,1.070801,0.173828l5.447754-2.414062
	l4.054199,3.908203c0.188965,0.182617,0.436523,0.275391,0.685547,0.275391v2.850586
	c0,0.532227,0.437012,0.962891,0.978027,0.962891s0.979004-0.430664,0.979004-0.962891v-2.858398
	c0.233887-0.009766,0.464355-0.095703,0.643555-0.266602l4.054199-3.910156l5.447754,2.415039
	c0.362305,0.161133,0.78418,0.09082,1.071289-0.173828c0.289062-0.267578,0.385742-0.677734,0.248047-1.040039l-2.95752-7.78125
	l5.999512,1.938477v0.204102l0.015625,0.387695c0,0.310547-0.256836,0.563477-0.571777,0.563477h-0.207031
	c-0.541016,0-0.978027,0.430664-0.978027,0.962891s0.437012,0.962891,0.978027,0.962891h2.999023
	c1.386719,0,2.689453-0.425781,3.797852-1.132812l0.5625,0.180664c2.013672,0.698242,2.729492,1.332031,2.733398,2.503906
	l0.084961,1.00293c-0.223633,0.357422-0.373047,0.785156-0.37207,1.313477l-0.397461,4.632812
	c-0.044922,0.530273,0.353516,0.996094,0.892578,1.041016c0.027344,0.001953,0.054688,0.003906,0.083008,0.003906
	c0.50293,0,0.930664-0.378906,0.973633-0.882812l0.401367-4.713867c0-0.373047,0.106445-0.694336,1.426758-1.15332
	l5.185547-1.674805c1.487305,1.013672,3.22168,1.553711,5.050781,1.553711c1.831055,0,3.566406-0.540039,5.052734-1.556641
	l5.176758,1.671875c1.339844,0.464844,1.446289,0.786133,1.450195,1.240234l0.397461,4.632812
	c0.042969,0.503906,0.47168,0.882812,0.973633,0.882812c0.027344,0,0.055664-0.001953,0.083984-0.003906
	c0.539062-0.044922,0.9375-0.510742,0.891602-1.041016l-0.393555-4.551758c0-2.022461-1.929688-2.69043-2.774414-2.983398
	l-5.635742-1.819336v-2.808594c2.460938-1.455078,4.233398-3.904297,4.772461-6.776367h0.162109
	c1.225586,0,2.304688-0.598633,2.973633-1.507812c0.170898,0.154297,0.280273,0.368164,0.280273,0.605469l0.000977,3.216797
	l0.120117,2.494141c0.00293,0.051758,0.010742,0.103516,0.020508,0.154297c0.685547,3.171875,3.576172,5.475586,6.876953,5.475586
	h2.998047c0.541016,0,0.978516-0.430664,0.978516-0.962891S89.562988,48.178223,89.021973,48.178223z M44.893066,26.665527
	c0,1.53125-1.265625,2.777344-2.820801,2.777344h-0.681152c0.032715-0.378418,0.059082-0.758789,0.059082-1.145508
	l-0.000488-4.408691h0.622559C43.627441,23.888672,44.893066,25.134766,44.893066,26.665527z M25.740723,1.92627
	c5.053223,0,9.695312,2.740723,12.114258,7.153809c0.125,0.228027,0.337891,0.396973,0.591797,0.469238
	c2.565918,0.720703,4.358887,3.051758,4.362305,5.59082l-0.543457,6.841797c-0.06543-0.00293-0.126953-0.019531-0.193359-0.019531
	h-0.622559l-0.000488-2.568359c0-0.385742-0.233887-0.734863-0.594727-0.885742
	c-2.096191-0.876953-3.643066-2.62793-4.232422-4.753906c0.123047-0.088379,0.243164-0.177246,0.363281-0.268555
	c0.426758-0.324707,0.505859-0.928711,0.175781-1.349609c-0.328613-0.419922-0.943848-0.5-1.37207-0.173828
	c-0.240723,0.182617-0.491699,0.36084-0.75293,0.532715c-0.038086,0.020996-0.07373,0.044922-0.108887,0.070801
	c-3.34082,2.161133-8.233887,3.431152-13.347168,3.431152c-0.890625,0-1.788574-0.038086-2.725586-0.115723l-2.01709-0.053223
	c-0.272949-0.022949-0.52002,0.092285-0.708008,0.272949c-0.188965,0.181152-0.295898,0.430176-0.295898,0.689941v5.693848
	c-0.163086-0.30957-0.491211-0.521484-0.870117-0.521484h-1.599121c-0.187988,0-0.366699,0.033691-0.549316,0.054688
	l-0.828125-6.61377C12.02002,7.967285,18.175781,1.92627,25.740723,1.92627z M16.108398,30.243164
	c-0.079102-0.460938-0.485352-0.799316-0.960938-0.800293l-1.783203-0.000977c-1.556152,0-2.821777-1.244629-2.821777-2.776855
	c0-1.530762,1.265625-2.776855,2.821777-2.776855h0.620117v1.766113c0,0.370605,0.216797,0.709961,0.558105,0.868652
	c0.338867,0.15918,0.744629,0.113281,1.037598-0.12207l1.848145-1.480469c0.228027-0.183105,0.36084-0.457031,0.36084-0.74707
	v-6.394043l0.955078,0.023926c0.934082,0.080078,1.88916,0.120117,2.835938,0.120117
	c5.035156,0,9.753418-1.110352,13.333008-3.093262c0.780273,2.233887,2.414062,4.090332,4.579102,5.177246l0.000977,8.290039
	c0,6.390625-5.281738,11.59082-11.775879,11.59082C21.960449,39.888184,17.078125,35.831543,16.108398,30.243164z
	 M21.537109,49.63916l-3.916992,1.736328l2.081055-5.47168l2.285156,3.650391
	C21.834961,49.549316,21.680176,49.575684,21.537109,49.63916z M27.554199,54.381348
	c-0.022949,0.037109-0.02832,0.078125-0.045898,0.116211c-0.020508-0.000977-0.037598-0.011719-0.058594-0.011719
	c-0.03418,0-0.062988,0.015625-0.096191,0.019531c-0.017578-0.041016-0.023926-0.084961-0.04834-0.124023l-5.541504-8.854492
	l0.001465-5.050781c1.808594,0.855469,3.827148,1.337891,5.952148,1.337891c1.884277,0,3.675293-0.385742,5.310059-1.06543v4.888672
	L27.554199,54.381348z M37.238281,51.374512l-3.916992-1.736328c-0.128906-0.056641-0.26709-0.083984-0.401855-0.083984
	c-0.016113,0-0.03125,0-0.045898,0l2.284668-3.650391L37.238281,51.374512z M50.23291,41.88916l-0.117188,2.411133
	c-0.521484,2.25293-2.587891,3.87793-4.944336,3.87793h-0.334961c0.045898-0.192383,0.069824-0.394531,0.069824-0.601562
	l-0.016113-6.894531c0-2.751953,2.276367-4.992188,5.072266-4.992188h1.836914
	c-0.011719,0.118164-0.036133,0.233398-0.036133,0.354492c0,0.086914,0.020508,0.168945,0.026367,0.253906
	c-0.943359,0.462891-1.556641,1.411133-1.556641,2.464844V41.88916z M60.384277,49.250488l-5.65625,1.827148
	c-0.148438,0.051758-0.339844,0.12207-0.542969,0.203125c-0.166992-2.310547-2.196289-3.285156-3.549805-3.782227
	c0.673828-0.822266,1.177734-1.790039,1.411133-2.870117c0.010742-0.050781,0.018555-0.102539,0.020508-0.154297l0.121094-2.540039
	v-3.170898c0-0.237305,0.109375-0.451172,0.280273-0.605469c0.669922,0.90918,1.75,1.507812,2.975586,1.507812h0.140625
	c0.538086,2.882812,2.332031,5.335938,4.799805,6.791016V49.250488z M53.720215,36.044434
	c0-0.923828,0.754883-1.673828,1.689453-1.691406v3.382812C54.475098,37.718262,53.720215,36.966309,53.720215,36.044434z
	 M65.594238,50.852051c-1.160156,0-2.270508-0.27832-3.269531-0.804688c0.003906-0.03418,0.016602-0.06543,0.016602-0.100586
	v-2.604492c1.022461,0.34082,2.114258,0.53418,3.25293,0.53418c1.143555,0,2.239258-0.194336,3.265625-0.538086v2.608398
	c0,0.032227,0.011719,0.0625,0.015625,0.094727C67.873535,50.572754,66.758301,50.852051,65.594238,50.852051z M73.820801,37.854004
	c0,4.463867-3.689453,8.09668-8.226562,8.09668s-8.228516-3.632812-8.228516-8.09668v-6.430176
	c0.818359,0.364746,1.685547,0.674316,2.59375,0.924316c0.5,0.135742,1.021484-0.133789,1.189453-0.616211l0.663086-1.905273
	l0.272461,2.256836c0.052734,0.4375,0.402344,0.78418,0.847656,0.839844c3.490234,0.435547,6.951172,0.015625,9.914062-1.09668
	c0.503906-0.188477,0.757812-0.745605,0.56543-1.242676s-0.758789-0.74707-1.262695-0.557129
	c-2.455078,0.921875-5.298828,1.320312-8.214844,1.066895l-0.686523-5.687012
	c-0.053711-0.445801-0.413086-0.795898-0.868164-0.842773c-0.451172-0.046875-0.880859,0.219727-1.029297,0.64502
	l-1.745117,5.016113c-0.977539-0.326172-1.891602-0.732422-2.723633-1.210938
	c-0.303711-0.175293-0.677734-0.177246-0.979492-0.004395c-0.305664,0.171387-0.492188,0.490234-0.492188,0.834961v2.580566
	c-0.379883,0.003906-0.740234,0.077148-1.084961,0.186523c-0.15918-0.707031-0.246094-1.429688-0.246094-2.160645
	c0-5.810059,5.123047-10.537109,11.419922-10.537109s11.419922,4.727051,11.419922,10.537109
	c0,0.711426-0.083984,1.414551-0.234375,2.104004c-0.291992-0.076172-0.591797-0.12793-0.90625-0.129883v-0.869141
	c0-0.532227-0.4375-0.963379-0.978516-0.963379s-0.978516,0.431152-0.978516,0.963379V37.854004z M75.777832,37.736816v-3.384766
	c0.333008,0.004883,0.642578,0.103516,0.904297,0.269531c0.011719,0.010742,0.029297,0.014648,0.041016,0.024414
	c0.453125,0.305664,0.751953,0.818359,0.751953,1.398438C77.475098,36.969238,76.715332,37.723145,75.777832,37.736816z
	 M86.023926,48.178223c-2.357422,0-4.423828-1.625977-4.946289-3.87793l-0.116211-2.366211v-3.170898
	c0-1.055664-0.614258-2.00293-1.557617-2.464844c0.006836-0.085938,0.026367-0.166992,0.026367-0.253906
	c0-0.121094-0.024414-0.236328-0.036133-0.354492h1.836914c2.796875,0,5.074219,2.240234,5.074219,4.992188v6.46582
	l-0.018555,0.466797c0,0.193359,0.022461,0.382812,0.06543,0.563477H86.023926z"/>
</svg>
