<?xml version="1.0" encoding="utf-8"?>
<!-- Generator: Adobe Illustrator 15.1.0, SVG Export Plug-In . SVG Version: 6.00 Build 0)  -->
<!DOCTYPE svg PUBLIC "-//W3C//DTD SVG 1.1//EN" "http://www.w3.org/Graphics/SVG/1.1/DTD/svg11.dtd">
<svg version="1.1" id="Calque_1" xmlns="http://www.w3.org/2000/svg" xmlns:xlink="http://www.w3.org/1999/xlink" x="0px" y="0px"
	 width="90px" height="60px" viewBox="0 0 90 60" enable-background="new 0 0 90 60" xml:space="preserve">
<path d="M43.078613,21.141113h-1.94043V5.380859c0-0.533691-0.437988-0.967773-0.979004-0.967773
	c-0.540039,0-0.978027,0.434082-0.978027,0.967773v15.760254h-1.941406c-1.304199,0-2.365234,1.049805-2.365234,2.339844v5.775879
	c0,1.290039,1.061035,2.338867,2.365234,2.338867h1.941406v8.174805c0,0.53418,0.437988,0.967773,0.978027,0.967773
	c0.541016,0,0.979004-0.433594,0.979004-0.967773v-8.174805h1.94043c1.304199,0,2.365234-1.048828,2.365234-2.338867v-5.775879
	C45.443848,22.190918,44.382812,21.141113,43.078613,21.141113z M43.487793,29.256836c0,0.219238-0.187988,0.40332-0.40918,0.40332
	h-5.838867c-0.221191,0-0.408203-0.184082-0.408203-0.40332v-5.775879c0-0.21875,0.187012-0.403809,0.408203-0.403809h5.838867
	c0.221191,0,0.40918,0.185059,0.40918,0.403809V29.256836z"/>
<path d="M58.382812,8.518066h-1.941406V5.380859c0-0.53418-0.438477-0.968262-0.978516-0.968262
	c-0.541016,0-0.978516,0.434082-0.978516,0.968262v3.137207h-1.941406c-1.303711,0-2.364258,1.048828-2.364258,2.338867v5.775879
	c0,1.290039,1.060547,2.340332,2.364258,2.340332h1.941406v20.797363c0,0.53418,0.4375,0.967773,0.978516,0.967773
	c0.540039,0,0.978516-0.433594,0.978516-0.967773V18.973145h1.941406c1.303711,0,2.365234-1.050293,2.365234-2.340332v-5.775879
	C60.748047,9.566895,59.686523,8.518066,58.382812,8.518066z M58.791016,16.632812c0,0.219238-0.1875,0.404297-0.408203,0.404297
	h-5.839844c-0.220703,0-0.407227-0.185059-0.407227-0.404297v-5.775879c0-0.21875,0.186523-0.403809,0.407227-0.403809h5.839844
	c0.220703,0,0.408203,0.185059,0.408203,0.403809V16.632812z"/>
<path d="M14.359375,32.239258H5.990234c-0.540039,0-0.978027-0.432617-0.978027-0.967773
	c0-0.53418,0.437988-0.968262,0.978027-0.968262h8.369141c0.540039,0,0.978027,0.434082,0.978027,0.968262
	C15.337402,31.806641,14.899414,32.239258,14.359375,32.239258"/>
<path d="M86.34082,33.367188h-0.203125v-0.041016c0-1.448242-0.869141-2.690918-2.114258-3.269531V0H26.902344
	v23.290527H26.59082c-3.555664,0-6.449707,2.862793-6.449707,6.380859v18.400879c0,2.451172-2.016113,4.445312-4.494141,4.445312
	s-4.494141-1.994141-4.494141-4.445312v-2.939453h2.47998l0.978516-3.441406h0.726074V24.453125
	c2.046875-1.407227,3.461914-3.645996,3.750977-6.217773h0.282715c0.541016,0,0.979004-0.433105,0.979004-0.967773
	c0-0.53418-0.437988-0.968262-0.979004-0.968262h-0.278809c-0.489258-4.369629-4.242188-7.78125-8.788086-7.78125
	s-8.298828,3.411621-8.788086,7.78125H0.978027C0.437988,16.299316,0,16.733398,0,17.267578
	c0,0.534668,0.437988,0.967773,0.978027,0.967773h0.540039c0.276855,2.459961,1.588867,4.611816,3.494141,6.026367v17.429688
	h0.725586l0.979004,3.441406h2.479004v2.939453c0,3.518555,2.894043,6.380859,6.451172,6.380859
	s6.450195-2.862305,6.450195-6.380859V29.671387c0-2.450684,2.015625-4.445801,4.493652-4.445801h0.311523v25.557617
	c0,1.290039,1.060547,2.339844,2.364746,2.339844h35.428223C66.580078,56.331055,69.542969,60,73.246094,60h3.519531
	c0.541016,0,0.978516-0.432617,0.978516-0.967773c0-0.53418-0.4375-0.967773-0.978516-0.967773h-3.519531
	c-4.138672,0-7.782227-7.168945-8.925781-10.140625V38.9375c0-0.929688,0.762695-1.685547,1.701172-1.685547h0.786133v8.769531
	c0,0.535156,0.438477,0.967773,0.979492,0.967773c0.539062,0,0.977539-0.432617,0.977539-0.967773v-9.732422
	c0-0.001953,0.000977-0.00293,0.000977-0.004883s-0.000977-0.00293-0.000977-0.004883V23.452148
	c0-0.928711,0.764648-1.684082,1.703125-1.684082h0.250977c0.939453,0,1.703125,0.755371,1.703125,1.684082v8.194336v7.27832
	v0.000977c0,0.533203,0.4375,0.966797,0.977539,0.966797c0,0,0,0,0.000977,0c0.386719,0,0.712891-0.226562,0.87207-0.547852
	c0.007812-0.015625,0.022461-0.026367,0.029297-0.042969c0.017578-0.041016,0.015625-0.088867,0.027344-0.132812
	c0.021484-0.079102,0.049805-0.157227,0.049805-0.243164v-0.000977v-7.27832c0-0.735352,0.420898-1.368652,1.033203-1.696289
	C75.688477,29.802246,76,29.710449,76.335938,29.710449h0.273438c1.080078,0,1.957031,0.869141,1.957031,1.936035v1.679688v2.40918
	v3.189453c0,0.53418,0.438477,0.967773,0.979492,0.967773c0.540039,0,0.977539-0.433594,0.977539-0.967773v-3.189453v-2.40918
	c0-0.929688,0.763672-1.68457,1.703125-1.68457h0.250977c0.938477,0,1.703125,0.754883,1.703125,1.68457v7.587891
	c0,0.533203,0.438477,0.967773,0.977539,0.967773c0.541016,0,0.979492-0.43457,0.979492-0.967773v-5.610352h0.203125
	c0.938477,0,1.702148,0.754883,1.702148,1.68457v14.054688c0,2.841797-1.316406,5.474609-3.613281,7.222656
	c-0.427734,0.326172-0.507812,0.933594-0.177734,1.357422C84.444336,59.871094,84.735352,60,85.027344,60
	c0.208984,0,0.417969-0.06543,0.595703-0.201172C88.405273,57.681641,90,54.489258,90,51.042969V36.988281
	C90,34.992188,88.357422,33.367188,86.34082,33.367188z M10.304199,10.453125c3.464844,0,6.333496,2.546875,6.811523,5.846191
	H3.493652C3.971191,13,6.839355,10.453125,10.304199,10.453125z M3.493652,18.235352h13.62207
	c-0.478027,3.299805-3.34668,5.84668-6.811523,5.84668S3.97168,21.535156,3.493652,18.235352z M6.968262,25.366211
	c1.030762,0.416992,2.155762,0.650879,3.335938,0.650879c1.083008,0,2.116211-0.203125,3.076172-0.557129v14.295898H6.968262
	V25.366211z M8.19873,43.196289l-0.428223-1.504883h4.808105l-0.427734,1.504883H8.19873z M29.26709,51.1875
	c-0.221191,0-0.408203-0.185547-0.408203-0.404297v-4.837891h33.504395v2.327148l0.060547,0.162109
	c0.053711,0.142578,0.478516,1.263672,1.222656,2.75293H29.26709z M74.095703,22.060059
	c-0.552734-1.306641-1.857422-2.228027-3.376953-2.228027h-0.250977c-1.257812,0-2.369141,0.631836-3.02832,1.590332v-3.748047
	c0-0.21875,0.186523-0.403809,0.408203-0.403809h2.916016c0.000977,0,0.001953,0.000488,0.00293,0.000488
	s0.001953-0.000488,0.00293-0.000488h2.916016c0.22168,0,0.410156,0.185059,0.410156,0.403809V22.060059z M82.066406,29.722168
	c-0.663086,0.028809-1.280273,0.227051-1.806641,0.561035c-0.55957-1.461426-1.977539-2.507812-3.649414-2.507812h-0.000977
	h-0.273438h-0.000977c-0.71582,0-1.37793,0.205078-1.956055,0.538086v-2.638184
	c0.964844-0.29541,1.671875-1.175293,1.671875-2.225098v-5.775879c0-1.289551-1.060547-2.339844-2.365234-2.339844h-1.939453
	V5.380859c0-0.53418-0.438477-0.966797-0.979492-0.966797c-0.540039,0-0.977539,0.432617-0.977539,0.966797v9.953613h-1.941406
	c-1.304688,0-2.365234,1.050293-2.365234,2.339844v5.775879c0,0.901855,0.52832,1.708496,1.325195,2.096191v9.77002h-0.786133
	c-2.017578,0-3.658203,1.624023-3.658203,3.621094v5.072266H28.858887V1.936035h53.20752V29.722168z"/>
</svg>
