<?xml version="1.0" encoding="utf-8"?>
<!-- Generator: Adobe Illustrator 15.1.0, SVG Export Plug-In . SVG Version: 6.00 Build 0)  -->
<!DOCTYPE svg PUBLIC "-//W3C//DTD SVG 1.1//EN" "http://www.w3.org/Graphics/SVG/1.1/DTD/svg11.dtd">
<svg version="1.1" id="Calque_1" xmlns="http://www.w3.org/2000/svg" xmlns:xlink="http://www.w3.org/1999/xlink" x="0px" y="0px"
	 width="90px" height="60px" viewBox="0 0 90 60" enable-background="new 0 0 90 60" xml:space="preserve">
<g>
	<path d="M18.691895,22.555664c0,0.532715,0.437988,0.964844,0.979004,0.964844h3.092773
		c0.541016,0,0.978027-0.432129,0.978027-0.964844c0-0.533203-0.437012-0.964355-0.978027-0.964355h-3.092773
		C19.129883,21.591309,18.691895,22.022461,18.691895,22.555664z"/>
	<path d="M14.483887,26.570801c0.541016,0,0.978027-0.432129,0.978027-0.964355v-2.085938h1.01709
		c0.540039,0,0.978027-0.431641,0.978027-0.964844s-0.437988-0.963867-0.978027-0.963867h-2.974121v4.014648
		C13.504883,26.138672,13.942871,26.570801,14.483887,26.570801z"/>
	<path d="M25.984863,23.520508h1.01709v2.085938c0,0.532227,0.437988,0.964355,0.979004,0.964355
		s0.978027-0.432129,0.978027-0.964355v-4.014648h-2.974121c-0.541016,0-0.978027,0.430664-0.978027,0.963867
		S25.443848,23.520508,25.984863,23.520508z"/>
	<path d="M22.778809,31.097168h-3.093262c-0.540527,0-0.977539,0.431152-0.977539,0.964355
		c0,0.532227,0.437012,0.964844,0.977539,0.964844h3.093262c0.541016,0,0.979004-0.432617,0.979004-0.964844
		C23.757812,31.52832,23.319824,31.097168,22.778809,31.097168z"/>
	<path d="M25.984863,33.026367h2.974121V29.01123c0-0.531738-0.437012-0.963867-0.978027-0.963867
		s-0.979004,0.432129-0.979004,0.963867v2.085938h-1.01709c-0.541016,0-0.978027,0.431152-0.978027,0.964355
		C25.006836,32.59375,25.443848,33.026367,25.984863,33.026367z"/>
	<path d="M17.45752,32.061523c0-0.533203-0.437988-0.964355-0.979004-0.964355h-1.01709V29.01123
		c0-0.531738-0.437012-0.963867-0.978027-0.963867s-0.978027,0.432129-0.978027,0.963867v4.015137h2.973145
		C17.019531,33.026367,17.45752,32.59375,17.45752,32.061523z"/>
	<path d="M22.209961,6.812012H6.725098V18.24707h15.484863V6.812012z M20.253906,16.317383H8.682129V8.740234
		h11.571777V16.317383z"/>
	<path d="M22.209961,36.548828H6.725098v11.435547h15.484863V36.548828z M20.253906,46.054688H8.682129v-7.576172
		h11.571777V46.054688z"/>
	<path d="M0,0v54.617188h50.514648C52.237305,57.287109,54.739258,60,57.797852,60h3.186523
		c0.541016,0,0.977539-0.431641,0.977539-0.964844s-0.436523-0.963867-0.977539-0.963867h-3.186523
		c-3.761719,0-7.086914-6.667969-8.055664-9.250977l-3.027344-7.717773l-0.045898-0.100586
		c-0.180664-0.335938-0.213867-0.72168-0.098633-1.087891c0.115234-0.367188,0.367188-0.664062,0.708984-0.841797l0.201172-0.103516
		c0.707031-0.365234,1.583984-0.095703,1.957031,0.600586l6.386719,12.003906V34.541016
		c0.041016-0.15625,0.041016-0.316406,0-0.472656v-7.14502c0-0.788086,0.652344-1.429199,1.449219-1.429199h0.229492
		c0.797852,0,1.448242,0.641113,1.448242,1.429199v14.869629v0.000977c0,0.532227,0.4375,0.963867,0.978516,0.963867
		s0.978516-0.431641,0.978516-0.963867v-0.000977V26.92334v-3.558105c0-0.913086,0.75293-1.65625,1.679688-1.65625h0.248047
		c0.925781,0,1.679688,0.743164,1.679688,1.65625v2.68457v11.958008v3.785156c0,0.533203,0.4375,0.96582,0.977539,0.96582
		c0.541016,0,0.979492-0.432617,0.979492-0.96582v-3.785156V26.049805c0-0.788086,0.649414-1.429199,1.449219-1.429199h0.226562
		c0.798828,0,1.449219,0.641113,1.449219,1.429199v16.894531c0,0.533203,0.4375,0.96582,0.978516,0.96582
		s0.978516-0.432617,0.978516-0.96582V31.462402h0.09082c0.799805,0,1.449219,0.641113,1.449219,1.429199v18.932617
		c0,0.000977,0.000977,0.001953,0.000977,0.003906c-0.001953,2.533203-1.180664,4.881836-3.236328,6.443359
		c-0.427734,0.325195-0.506836,0.930664-0.176758,1.353516C69.875,59.871094,70.164062,60,70.457031,60
		c0.208984,0,0.417969-0.064453,0.59668-0.201172c1.813477-1.375,3.060547-3.253906,3.634766-5.355469
		c0.154297,0.100586,0.329102,0.173828,0.52832,0.173828H90V0H0z M71.554688,29.533203v-3.483398
		c0-1.851074-1.527344-3.358398-3.40625-3.358398h-0.226562c-0.533203,0-1.032227,0.132324-1.482422,0.349121
		c-0.169922-1.822754-1.710938-3.260254-3.603516-3.260254h-0.248047c-2.005859,0-3.636719,1.60791-3.636719,3.584961v0.530273
		c-0.441406-0.206543-0.928711-0.331055-1.448242-0.331055h-0.229492c-1.876953,0-3.40625,1.506836-3.40625,3.358887v4.429688
		c-0.772461-1.408691-1.18457-2.991699-1.18457-4.63916c0-5.386719,4.444336-9.77002,9.908203-9.77002
		c5.462891,0,9.907227,4.383301,9.907227,9.77002c0,0.979492-0.148438,1.937988-0.43457,2.86084
		c-0.138672-0.016602-0.274414-0.041504-0.417969-0.041504H71.554688z M88.042969,52.6875H75.216797
		c-0.077148,0-0.146484,0.026367-0.21875,0.042969c0.027344-0.297852,0.051758-0.59668,0.052734-0.899414
		c0-0.00293,0.000977-0.004883,0.000977-0.006836V32.891602c0-1.016602-0.469727-1.917969-1.196289-2.534668
		c0.390625-1.172852,0.599609-2.393066,0.599609-3.643066c0-6.451172-5.323242-11.69873-11.864258-11.69873
		c-6.541992,0-11.865234,5.247559-11.865234,11.69873c0,2.961426,1.120117,5.745117,3.141602,7.90918v9.121094l-2.697266-5.070312
		c-0.874023-1.640625-2.935547-2.273438-4.599609-1.414062l-0.200195,0.104492
		c-0.804199,0.416016-1.395996,1.117188-1.666992,1.975586c-0.265137,0.839844-0.192383,1.726562,0.20459,2.506836
		l3.004395,7.655273c0.056641,0.151367,0.571289,1.501953,1.469727,3.185547H1.957031V1.929199h86.085938V52.6875z"/>
	<path d="M43.384277,27.679199c0.541016,0,0.979004-0.431641,0.979004-0.964844
		c0-9.910156,8.175781-17.973145,18.226562-17.973145c10.048828,0,18.226562,8.062988,18.226562,17.973145
		c0,3.197754-0.866211,6.338379-2.503906,9.084473c-0.273438,0.458984-0.118164,1.050781,0.347656,1.320312
		c0.15625,0.089844,0.327148,0.132812,0.495117,0.132812c0.334961,0,0.662109-0.169922,0.844727-0.475586
		c1.814453-3.041992,2.773438-6.520996,2.773438-10.062012c0-10.974121-9.054688-19.901855-20.183594-19.901855
		S42.40625,15.740234,42.40625,26.714355C42.40625,27.247559,42.843262,27.679199,43.384277,27.679199z"/>
	<path d="M62.589844,10.914062c-8.835938,0-16.023438,7.087891-16.023438,15.800293
		c0,1.656738,0.259766,3.291992,0.773438,4.856934c0.167969,0.504883,0.722656,0.787109,1.232422,0.620117
		c0.515625-0.164062,0.794922-0.708008,0.628906-1.215332c-0.451172-1.373047-0.679688-2.807129-0.679688-4.261719
		c0-7.647949,6.311523-13.871094,14.068359-13.871094c7.755859,0,14.067383,6.223145,14.067383,13.871094
		c0,1.478027-0.235352,2.932129-0.699219,4.319824c-0.167969,0.506836,0.111328,1.051758,0.624023,1.21875
		c0.101562,0.032227,0.204102,0.047852,0.306641,0.047852c0.410156,0,0.792969-0.256836,0.928711-0.664062
		c0.52832-1.583496,0.795898-3.239258,0.795898-4.922363C78.613281,18.001953,71.425781,10.914062,62.589844,10.914062z"/>
</g>
</svg>
