<?xml version="1.0" encoding="utf-8"?>
<!-- Generator: Adobe Illustrator 15.1.0, SVG Export Plug-In . SVG Version: 6.00 Build 0)  -->
<!DOCTYPE svg PUBLIC "-//W3C//DTD SVG 1.1//EN" "http://www.w3.org/Graphics/SVG/1.1/DTD/svg11.dtd">
<svg version="1.1" id="Calque_1" xmlns="http://www.w3.org/2000/svg" xmlns:xlink="http://www.w3.org/1999/xlink" x="0px" y="0px"
	 width="90px" height="60px" viewBox="0 0 90 60" enable-background="new 0 0 90 60" xml:space="preserve">
<path d="M52.367188,9.143555c-0.461914-0.277832-1.064453-0.131836-1.345703,0.323242
	c-0.25,0.406738-0.476562,0.839844-0.665039,1.283691c-0.106445,0.244141-0.200195,0.491211-0.28418,0.740234
	c-0.169922,0.506836,0.107422,1.053223,0.621094,1.222168c0.101562,0.032715,0.206055,0.048828,0.308594,0.048828
	c0.410156,0,0.792969-0.255859,0.930664-0.662109C52,11.899414,52.075195,11.700684,52.15918,11.503906
	c0.155273-0.359375,0.333984-0.706055,0.536133-1.033203C52.976562,10.014648,52.830078,9.420898,52.367188,9.143555z"/>
<path d="M68.992188,11.448242c-0.064453-0.187988-0.135742-0.375-0.212891-0.564453
	c-1.001953-2.435547-2.904297-4.34082-5.355469-5.361816c-3.302734-1.378906-7.259766-0.836914-10.054688,1.331055
	c-0.424805,0.330078-0.498047,0.937012-0.164062,1.356934c0.333984,0.417969,0.953125,0.492188,1.376953,0.161133
	c2.240234-1.741211,5.419922-2.180176,8.078125-1.070312c1.970703,0.820312,3.498047,2.351562,4.302734,4.307129
	c0.0625,0.152344,0.121094,0.304199,0.172852,0.457031c0.137695,0.404297,0.517578,0.658203,0.927734,0.658203
	c0.102539,0,0.208984-0.01709,0.311523-0.05127C68.888672,12.501953,69.164062,11.954102,68.992188,11.448242z"/>
<path d="M89.020508,55.158203H66.708984c-0.941406,0-1.705078-0.753906-1.705078-1.680664v-0.200195h2.003906
	c0.541016,0,0.978516-0.433594,0.978516-0.966797s-0.4375-0.96582-0.978516-0.96582h-3.026367
	c-0.941406,0-1.705078-0.753906-1.705078-1.680664v-0.248047c0-0.927734,0.763672-1.681641,1.705078-1.681641h1.458008h1.568359
	c0.541016,0,0.978516-0.432617,0.978516-0.96582c0-0.53418-0.4375-0.96582-0.978516-0.96582h-1.568359h-1.458008h-0.720703
	c-1.080078,0-1.959961-0.866211-1.959961-1.931641v-0.273438c0-1.064453,0.879883-1.929688,1.959961-1.929688h3.74707
	c0.541016,0,0.978516-0.433594,0.978516-0.966797s-0.4375-0.96582-0.978516-0.96582h-2.420898
	c-0.001953,0-0.00293-0.000977-0.004883-0.000977h-1.436523c-0.94043,0-1.704102-0.753906-1.704102-1.680664v-0.248047
	c0-0.927734,0.763672-1.681641,1.704102-1.681641h14.02832c0.541016,0,0.979492-0.432617,0.979492-0.96582
	s-0.438477-0.966797-0.979492-0.966797h-5.055664l-0.839844-2.055664h6.499023
	c3.007812,1.125977,10.263672,4.71875,10.263672,8.8125c0,0.533203,0.4375,0.96582,0.979492,0.96582S90,41.481445,90,40.948242
	c0-6.354492-11.229492-10.511719-11.707031-10.68457l-0.164062-0.060059h-7.639648l-0.147461-0.36084
	c-0.320312-0.77832-1.202148-0.986816-2.25-0.887695l-0.746094-1.996582c2.539062-1.555664,4.597656-3.860352,5.814453-6.700684
	c1.537109-3.583984,1.564453-7.546875,0.078125-11.156738c-1.484375-3.609863-4.304688-6.434082-7.939453-7.94873
	C63.467773,0.388184,61.535156,0,59.555664,0c-5.962891,0-11.313477,3.495117-13.632812,8.904297
	c-0.137207,0.320312-0.248047,0.646973-0.361328,0.972656H22.743652v-0.79248H8.41748
	c-2.117188,0-3.837891,1.698242-3.837891,3.785156s1.720703,3.784668,3.837891,3.784668h14.326172v-0.79248h2.355957v4.060059
	h-6.272461c-1.36084,0-2.506836,0.87793-2.918945,2.084961l-5.588379-0.000977L0,18.091797v26.868164l10.318848-3.913086h5.589844
	c0.412598,1.206055,1.558105,2.083008,2.918457,2.083008H30.38623v0.864258c0,0.813477,0.42627,1.529297,1.068848,1.947266
	l-5.081543,12.739258c-0.196777,0.49707,0.050293,1.056641,0.553223,1.25293C27.044434,59.979492,27.165527,60,27.285645,60
	c0.390137,0,0.758789-0.231445,0.912109-0.612305l5.208008-13.05957h3.430664l5.209961,13.05957
	C42.19873,59.768555,42.567383,60,42.95752,60c0.120117,0,0.241211-0.020508,0.358887-0.066406
	c0.50293-0.196289,0.750977-0.755859,0.553223-1.25293l-5.081543-12.739258c0.64209-0.417969,1.067383-1.134766,1.067383-1.947266
	v-0.864258h8.09375c1.706055,0,3.091797-1.368164,3.091797-3.049805v-1.669922h0.000977V26.505371
	c0.850586,0.587891,1.764648,1.098145,2.743164,1.505859c1.830078,0.763672,3.761719,1.150879,5.742188,1.150879
	c1.080078,0,2.139648-0.118164,3.165039-0.338379l0.749023,1.995605c-0.020508,0.016602-0.045898,0.032715-0.066406,0.049316
	c-1.09668,0.894043-1.091797,1.649902-0.896484,2.123535l0.496094,1.21582c-1.939453,0.09082-3.492188,1.662109-3.492188,3.597656
	v0.248047c0,1.054688,0.46875,1.996094,1.201172,2.657227c-0.81543,0.708984-1.341797,1.733398-1.341797,2.886719v0.273438
	c0,1.371094,0.733398,2.570312,1.828125,3.255859c-0.524414,0.625-0.852539,1.416016-0.852539,2.289062v0.248047
	c0,1.673828,1.166016,3.072266,2.735352,3.480469c-0.000977,0.02832-0.007812,0.055664-0.007812,0.083984v0.249023
	c0,1.992188,1.642578,3.613281,3.664062,3.613281h6.202148l0.8125,1.987305c0.272461,0.663086,0.951172,0.919922,1.793945,0.919922
	c0.875,0,1.926758-0.275391,2.894531-0.664062c1.339844-0.537109,2.628906-1.342773,3.086914-2.243164h7.521484
	C89.5625,57.09082,90,56.658203,90,56.125C90,55.59082,89.5625,55.158203,89.020508,55.158203z M68.643555,30.850586
	l0.282227,0.691406c0.000977,0.001953,0.001953,0.003906,0.00293,0.006836l1.078125,2.642578h-4.928711l-0.669922-1.642578
	c0.255859-0.267578,0.933594-0.753906,1.985352-1.174316C67.439453,30.955566,68.260742,30.834473,68.643555,30.850586z
	 M44.811523,15.861816c0.125488,1.375488,0.45752,2.739746,0.98584,4.060059H41.67627v-4.060059H44.811523z M20.784668,14.723633
	H8.41748c-1.037109,0-1.878906-0.832031-1.878906-1.854004s0.841797-1.853027,1.878906-1.853027h12.367188V14.723633z
	 M22.743652,11.809082h22.285156c-0.13916,0.70166-0.214844,1.410156-0.246582,2.120605H22.743652V11.809082z M27.057617,15.861816
	h12.660645v4.060059H27.057617V15.861816z M1.958984,20.904785l7.200684,2.731934v1.97168
	c0,0.532715,0.437012,0.96582,0.979004,0.96582c0.541016,0,0.979004-0.433105,0.979004-0.96582v-1.669434h4.616699v15.175293
	h-4.616699v-9.616211c0-0.53418-0.437988-0.966309-0.979004-0.966309c-0.541992,0-0.979004,0.432129-0.979004,0.966309v9.917969
	l-7.200684,2.730469V20.904785z M37.896484,43.994141c0,0.216797-0.187012,0.402344-0.408203,0.402344h-4.73291
	c-0.222168,0-0.410156-0.185547-0.410156-0.402344v-0.864258h5.55127V43.994141z M49.082031,40.080078
	c0,0.615234-0.507812,1.117188-1.132812,1.117188h-29.12207c-0.625,0-1.133789-0.501953-1.133789-1.117188V22.97168
	c0-0.615723,0.508789-1.117676,1.133789-1.117676h27.921875c0.59082,1.015137,1.290039,1.95166,2.097656,2.788086H29.498047
	c-2.855957,0-5.181152,2.291016-5.181152,5.108887v3.551758c0,2.81543,2.325195,5.107422,5.181152,5.107422h19.583984V40.080078z
	 M49.082031,36.478516H29.498047c-1.775879,0-3.222168-1.425781-3.222168-3.175781v-3.551758
	c0-1.751953,1.446289-3.176758,3.222168-3.176758h19.583984V36.478516z M54.547852,26.231934
	c-3.151367-1.312988-5.59668-3.761719-6.885742-6.896973c-1.291016-3.134766-1.266602-6.571777,0.064453-9.677734
	c2.011719-4.693359,6.655273-7.725098,11.829102-7.725098c1.714844,0,3.391602,0.335938,4.979492,0.999023
	c3.15332,1.313965,5.599609,3.763184,6.887695,6.896973c1.291016,3.131836,1.266602,6.568848-0.066406,9.677734
	c-2.010742,4.692383-6.655273,7.724121-11.829102,7.724121C57.810547,27.22998,56.135742,26.894043,54.547852,26.231934z
	 M64.579102,28.283203c0.34668-0.123535,0.6875-0.258789,1.022461-0.407227l0.568359,1.522461
	c-0.172852,0.060059-0.34668,0.119141-0.515625,0.187012c-0.172852,0.069336-0.338867,0.14502-0.504883,0.221191
	L64.579102,28.283203z M77.671875,57.544922c-1.044922,0.417969-1.864258,0.544922-2.248047,0.524414l-0.400391-0.978516h3.600586
	C78.348633,57.243164,78.041992,57.396484,77.671875,57.544922z"/>
<path d="M37.581055,32.53418h2.077148c0.812012,0,1.47168-0.651367,1.47168-1.452148V29.03418
	c0-0.800781-0.659668-1.452148-1.47168-1.452148h-2.077148c-0.812012,0-1.473145,0.651367-1.473145,1.452148v2.047852
	C36.10791,31.882812,36.769043,32.53418,37.581055,32.53418z M38.066895,29.51416h1.104004v1.088379h-1.104004V29.51416z"/>
<path d="M44.104004,32.53418h2.075684c0.813477,0,1.472656-0.651367,1.472656-1.452148V29.03418
	c0-0.800781-0.65918-1.452148-1.472656-1.452148h-2.075684c-0.812012,0-1.473145,0.651367-1.473145,1.452148v2.047852
	C42.630859,31.882812,43.291992,32.53418,44.104004,32.53418z M44.589844,29.51416h1.104004v1.088379h-1.104004V29.51416z"/>
</svg>
