<?xml version="1.0" encoding="utf-8"?>
<!-- Generator: Adobe Illustrator 15.1.0, SVG Export Plug-In . SVG Version: 6.00 Build 0)  -->
<!DOCTYPE svg PUBLIC "-//W3C//DTD SVG 1.1//EN" "http://www.w3.org/Graphics/SVG/1.1/DTD/svg11.dtd">
<svg version="1.1" id="Calque_1" xmlns="http://www.w3.org/2000/svg" xmlns:xlink="http://www.w3.org/1999/xlink" x="0px" y="0px"
	 width="78.470703px" height="75.443848px" viewBox="0 0 78.470703 75.443848" enable-background="new 0 0 78.470703 75.443848"
	 xml:space="preserve">
<g>
	<defs>
		<rect id="SVGID_1_" width="78.470703" height="75.443848"/>
	</defs>
	<clipPath id="SVGID_2_">
		<use xlink:href="#SVGID_1_"  overflow="visible"/>
	</clipPath>
	<path clip-path="url(#SVGID_2_)" fill="#6666D5" d="M21.92627,33.661621c-3.152832,0-5.718262-2.564941-5.718262-5.718262
		c0-3.152832,2.56543-5.717773,5.718262-5.717773s5.717773,2.564941,5.717773,5.717773
		C27.644043,31.09668,25.079102,33.661621,21.92627,33.661621 M21.92627,24.225586c-2.050293,0-3.718262,1.667969-3.718262,3.717773
		c0,2.050293,1.667969,3.718262,3.718262,3.718262c2.049805,0,3.717773-1.667969,3.717773-3.718262
		C25.644043,25.893555,23.976074,24.225586,21.92627,24.225586"/>
	<path clip-path="url(#SVGID_2_)" fill="#6666D5" d="M77.431641,39.09375H22.58252c-0.551758,0-1-0.448242-1-1
		c0-0.552246,0.448242-1,1-1h54.849121c0.552734,0,1,0.447754,1,1C78.431641,38.645508,77.984375,39.09375,77.431641,39.09375"/>
	<path clip-path="url(#SVGID_2_)" fill="#6666D5" d="M32.460449,38.65625c-0.255859,0-0.512207-0.098145-0.707031-0.292969
		c-0.391113-0.391113-0.391113-1.022949,0-1.414062l9.227051-9.228027c0.390625-0.390137,1.022461-0.390137,1.414062,0
		c0.390625,0.391113,0.390625,1.023926,0,1.414062l-9.227051,9.228027C32.972168,38.558105,32.716309,38.65625,32.460449,38.65625"
		/>
	<path clip-path="url(#SVGID_2_)" fill="#6666D5" d="M42.740234,38.65625c-0.255859,0-0.511719-0.098145-0.707031-0.292969
		c-0.390625-0.391113-0.390625-1.022949,0-1.414062l9.227539-9.228027c0.390625-0.390137,1.023438-0.390137,1.414062,0
		c0.390625,0.391113,0.390625,1.023926,0,1.414062l-9.227539,9.228027C43.251953,38.558105,42.996094,38.65625,42.740234,38.65625"
		/>
	<path clip-path="url(#SVGID_2_)" fill="#6666D5" d="M22.115234,38.65625c-0.255859,0-0.512207-0.098145-0.707031-0.292969
		c-0.391113-0.391113-0.391113-1.022949,0-1.414062l9.228027-9.228027c0.390137-0.390137,1.022949-0.390137,1.414062,0
		c0.390137,0.391113,0.390137,1.023926,0,1.414062l-9.228027,9.228027C22.627441,38.558105,22.371094,38.65625,22.115234,38.65625"
		/>
	<path clip-path="url(#SVGID_2_)" fill="#6666D5" d="M53.019531,38.65625c-0.255859,0-0.511719-0.098145-0.707031-0.292969
		c-0.390625-0.391113-0.390625-1.022949,0-1.414062l9.227539-9.228027c0.390625-0.390137,1.023438-0.390137,1.414062,0
		c0.390625,0.391113,0.390625,1.023926,0,1.414062l-9.227539,9.228027C53.53125,38.558105,53.275391,38.65625,53.019531,38.65625"/>
	<path clip-path="url(#SVGID_2_)" fill="#6666D5" d="M63.299805,38.65625c-0.255859,0-0.511719-0.098145-0.707031-0.292969
		c-0.390625-0.391113-0.390625-1.022949,0-1.414062l9.226562-9.228027c0.390625-0.390137,1.023438-0.390137,1.414062,0
		c0.390625,0.391113,0.390625,1.023926,0,1.414062l-9.226562,9.228027C63.811523,38.558105,63.555664,38.65625,63.299805,38.65625"
		/>
	<path clip-path="url(#SVGID_2_)" fill="#6666D5" d="M63.355469,38.65625c-0.255859,0-0.511719-0.098145-0.707031-0.292969
		c-0.390625-0.391113-0.390625-1.022949,0-1.414062l9.227539-9.228027c0.390625-0.390137,1.023438-0.390137,1.414062,0
		c0.390625,0.391113,0.390625,1.023926,0,1.414062L64.0625,38.363281C63.867188,38.558105,63.611328,38.65625,63.355469,38.65625"/>
	<path clip-path="url(#SVGID_2_)" fill="#6666D5" d="M73.635742,38.65625c-0.255859,0-0.511719-0.098145-0.707031-0.292969
		c-0.390625-0.391113-0.390625-1.022949,0-1.414062l3.805664-3.806152c0.390625-0.390625,1.023438-0.390625,1.414062,0
		c0.390625,0.390137,0.390625,1.022949,0,1.414062l-3.805664,3.806152C74.147461,38.558105,73.891602,38.65625,73.635742,38.65625"
		/>
	<path clip-path="url(#SVGID_2_)" fill="#6666D5" d="M70.631836,12.59082c-0.15625,0-0.314453-0.037109-0.462891-0.11377
		c-0.489258-0.256348-0.678711-0.861328-0.421875-1.350098l2.49707-4.768066C72.5,5.869629,73.102539,5.680664,73.59375,5.937012
		c0.489258,0.255859,0.678711,0.86084,0.421875,1.349609l-2.49707,4.768066
		C71.339844,12.395996,70.992188,12.59082,70.631836,12.59082"/>
	<path clip-path="url(#SVGID_2_)" fill="#6666D5" d="M44.631836,55.855957V43.896973l11.958984,5.979492L44.631836,55.855957z
		 M46.631836,47.133301v5.487305l5.486328-2.744141L46.631836,47.133301z"/>
	<path clip-path="url(#SVGID_2_)" fill="#6666D5" d="M31.241699,25.010254c-0.155762,0-0.313965-0.037109-0.461914-0.11377
		c-0.490234-0.256348-0.679199-0.860352-0.422852-1.349121l6.047852-11.563965
		c0.255859-0.489258,0.859863-0.678223,1.349121-0.42334c0.48877,0.256348,0.678711,0.861328,0.422852,1.350098l-6.047852,11.562988
		C31.949707,24.81543,31.601562,25.010254,31.241699,25.010254"/>
	<path clip-path="url(#SVGID_2_)" fill="#6666D5" d="M41.051758,21.937988c-0.15625,0-0.314453-0.037109-0.462891-0.114258
		c-0.489258-0.255859-0.677734-0.859863-0.421875-1.348633l6.047852-11.563965
		c0.254883-0.489258,0.858398-0.678223,1.349609-0.42334c0.489258,0.256348,0.677734,0.861328,0.421875,1.350098
		l-6.047852,11.562988C41.760742,21.743164,41.412109,21.937988,41.051758,21.937988"/>
	<path clip-path="url(#SVGID_2_)" fill="#6666D5" d="M23.438965,24.145996c-0.15625,0-0.313965-0.037109-0.461914-0.114258
		c-0.490234-0.255859-0.679199-0.859863-0.42334-1.348633l3.978027-7.608398c0.256348-0.48877,0.861328-0.677734,1.350098-0.422852
		c0.489258,0.255859,0.679199,0.861328,0.422852,1.350098l-3.979004,7.606934
		C24.146973,23.951172,23.798828,24.145996,23.438965,24.145996"/>
	<path clip-path="url(#SVGID_2_)" fill="#6666D5" d="M50.861328,18.865723c-0.15625,0-0.314453-0.037109-0.462891-0.11377
		c-0.489258-0.256348-0.677734-0.860352-0.421875-1.349121l6.047852-11.563965
		c0.254883-0.489258,0.857422-0.678223,1.349609-0.42334c0.489258,0.256348,0.677734,0.861328,0.421875,1.350098
		l-6.047852,11.562988C51.570312,18.670898,51.22168,18.865723,50.861328,18.865723"/>
	<path clip-path="url(#SVGID_2_)" fill="#6666D5" d="M60.670898,15.793457c-0.15625,0-0.314453-0.037109-0.462891-0.11377
		c-0.489258-0.256348-0.677734-0.860352-0.421875-1.349121l6.047852-11.563965
		c0.254883-0.489258,0.859375-0.678223,1.349609-0.42334c0.489258,0.256348,0.677734,0.861328,0.421875,1.350098
		l-6.047852,11.562988C61.379883,15.598633,61.03125,15.793457,60.670898,15.793457"/>
	<path clip-path="url(#SVGID_2_)" fill="#6666D5" d="M26.462402,26.966309c-0.424805,0-0.819824-0.273926-0.954102-0.702148
		c-0.165039-0.526855,0.128906-1.087891,0.65625-1.25293L73.1875,10.28418l-2.435547-7.776855l-50.337402,15.76416
		c-0.196289,0.061035-0.355957,0.187988-0.452148,0.355957c-0.047852,0.083984-0.119141,0.25293-0.060059,0.442871
		l1.201172,3.833008c0.165039,0.525879-0.128906,1.086914-0.65625,1.251953c-0.525879,0.166016-1.087891-0.126953-1.25293-0.654785
		l-1.199707-3.832031c-0.212402-0.677246-0.130371-1.396973,0.229004-2.030273
		c0.34668-0.609863,0.911621-1.062988,1.592773-1.275879L72.0625,0.000488l3.630859,11.594727L26.76123,26.92041
		C26.662598,26.951172,26.561523,26.966309,26.462402,26.966309"/>
	<path clip-path="url(#SVGID_2_)" fill="#6666D5" d="M22.09082,49.424316c-0.552246,0-1-0.448242-1-1V32.833008
		c0-0.553223,0.447754-1,1-1c0.551758,0,1,0.446777,1,1v15.591309C23.09082,48.976074,22.642578,49.424316,22.09082,49.424316"/>
	<path clip-path="url(#SVGID_2_)" fill="#6666D5" d="M78.470703,63.320801H21.09082v-6.791992c0-0.553711,0.447754-1,1-1
		c0.551758,0,1,0.446289,1,1v4.791992h53.379883V28.943359H26.644531c-0.551758,0-1-0.448242-1-1c0-0.552246,0.448242-1,1-1
		h51.826172V63.320801z"/>
	<path clip-path="url(#SVGID_2_)" fill="#6666D5" d="M12.361816,67.300293c-0.24707,0-0.494141-0.091797-0.687012-0.274414
		c-0.400879-0.379883-0.418945-1.012695-0.039062-1.413086l10.544922-11.136719h13.01416
		c1.273926,0,2.310059-1.036133,2.310059-2.30957v-0.310547c0-1.273438-1.036133-2.30957-2.310059-2.30957H19.432617
		c-0.551758,0-1-0.447266-1-1s0.448242-1,1-1h15.762207c2.376953,0,4.310059,1.933594,4.310059,4.30957v0.310547
		c0,2.375977-1.933105,4.30957-4.310059,4.30957H23.041992l-9.954102,10.511719
		C12.890625,67.194824,12.626953,67.300293,12.361816,67.300293"/>
	<path clip-path="url(#SVGID_2_)" fill="#6666D5" d="M0.999512,56.812012c-0.22998,0-0.460938-0.079102-0.649902-0.240234
		c-0.418945-0.358398-0.468262-0.989258-0.108887-1.410156l13.964844-16.319336h7.850098c0.551758,0,1,0.447754,1,1
		c0,0.551758-0.448242,1-1,1h-6.929199L1.759277,56.462402C1.561523,56.692871,1.281738,56.812012,0.999512,56.812012"/>
	<path clip-path="url(#SVGID_2_)" fill="#6666D5" d="M9.641113,75.443848H1.437012c-0.551758,0-1-0.448242-1-1s0.448242-1,1-1
		h7.99707c1.174805-0.259766,13.143066-3.100586,16.21582-11.155273c0.196289-0.516602,0.775391-0.775391,1.290039-0.578125
		c0.516113,0.197266,0.775391,0.775391,0.578125,1.291016c-3.61084,9.463867-17.203125,12.306641-17.778809,12.422852
		L9.641113,75.443848z"/>
</g>
</svg>
