<?xml version="1.0" encoding="utf-8"?>
<!-- Generator: Adobe Illustrator 25.4.1, SVG Export Plug-In . SVG Version: 6.00 Build 0)  -->
<svg version="1.1" id="Calque_1" xmlns="http://www.w3.org/2000/svg" xmlns:xlink="http://www.w3.org/1999/xlink" x="0px" y="0px"
	 width="250px" height="105px" viewBox="0 0 250 105" style="enable-background:new 0 0 250 105;" xml:space="preserve">
<style type="text/css">
	.st0{fill:#1E1E1E;}
</style>
<path class="st0" d="M159.7,93.9V80.1c0-7.1,4-11,10.5-11c6.7,0,10.5,3.9,10.8,10.9h-6.2c-0.2-3.5-1.7-5.1-4.7-5.1
	c-2.6,0-4.1,1.6-4.1,5.2v13.8c0,3.4,1.6,5.1,4.2,5.1c3.1,0,4.6-1.5,4.8-5h6.2c-0.3,7-4.2,10.8-11,10.8
	C163.7,104.9,159.7,101,159.7,93.9"/>
<rect x="188.8" y="69.8" class="st0" width="6.2" height="34.5"/>
<path class="st0" d="M224.6,69.8v34.5h-6.1l-6.8-15c-1.1-2.7-2.3-5.9-3.3-8.4l-0.1,0.1c0.5,3.9,0.8,9.7,0.8,13.3v9.9H203V69.8h6.1
	l7.3,16.2c0.9,2.2,2,4.9,2.8,7l0.2-0.1c-0.5-3.9-0.9-9.5-0.9-12.6V69.8H224.6z"/>
<path class="st0" d="M250,98.6v5.7h-18.1V69.8h17.6v5.7H238V84h10.5v5.5H238v9H250z M241.5,66.5h-4.3l4.7-6.5h5.2L241.5,66.5z"/>
<path class="st0" d="M20.1,93.7V80.6c0-6.9,3.8-11.3,10.1-11.3c6.3,0,10.1,4.4,10.1,11.3v13.1c0,6.9-3.8,11.3-10.1,11.3
	C23.9,105,20.1,100.6,20.1,93.7 M37.1,93.7V80.6c0-5.3-2.4-8.4-6.9-8.4s-6.9,3.1-6.9,8.4v13.1c0,5.3,2.4,8.4,6.9,8.4
	S37.1,99,37.1,93.7"/>
<path class="st0" d="M54,90.9h-3.9v13.4H47V69.9h8c6.5,0,10,3.7,10,10.1c0,6-2.9,9.8-7.7,10.7l8.6,13.6h-3.6L54,90.9z M50.2,88.1H55
	c4.6,0,6.9-2.8,6.9-7.9c0-4.9-2.4-7.4-6.9-7.4h-4.9V88.1z"/>
<path class="st0" d="M96.2,69.9v34.5h-3.1V86.1c0-3.6,0.1-6.7,0.3-9.7l-0.2-0.1c-0.9,2.5-2.3,5.8-3.6,9.1l-4.3,10.8h-3.1l-4.3-10.8
	c-1.3-3.3-2.7-6.6-3.6-9.1l-0.2,0.1c0.2,3.1,0.3,6.1,0.3,9.7v18.2h-3.1V69.9h3.3l6.3,14.9c0.9,2.2,2.2,5.8,2.8,7.7h0.2
	c0.7-1.9,1.9-5.5,2.8-7.7l6.3-14.9H96.2z"/>
<path class="st0" d="M117.2,96.3H106l-2.1,8.1h-3.3l9.2-34.5h3.4l9.2,34.5h-3.3L117.2,96.3z M116.5,93.5l-3.6-14.3
	c-0.6-2.1-1.1-4.6-1.2-5.4h-0.1c-0.1,0.8-0.7,3.3-1.2,5.4l-3.6,14.3H116.5z"/>
<path d="M129,23.8h-2.1c-5.1,0-9.6,3.1-11.6,7.5c-0.8,1.6-1.2,3.4-1.2,5.3V50h27.7V36.6C141.8,29.6,136,23.8,129,23.8"/>
<path d="M137.3,9.4c0,5.2-4.2,9.4-9.4,9.4c-5.2,0-9.4-4.2-9.4-9.4s4.2-9.4,9.4-9.4C133.1,0,137.3,4.2,137.3,9.4"/>
<polygon points="151.2,69.9 148.9,80.4 146.7,80.4 147.8,69.9 "/>
<path d="M113.3,11.5c0,5.2-4.2,9.4-9.4,9.4c-5.2,0-9.4-4.2-9.4-9.4c0-5.2,4.2-9.4,9.4-9.4C109,2.1,113.3,6.3,113.3,11.5"/>
<polygon points="144.2,41 144.2,36 160,30 160,47 "/>
<path d="M114.1,36.6c0-1.9,0.5-3.7,1.2-5.3c-2.3-3.2-6.1-5.4-10.4-5.4h-2.1c-7.1,0-12.8,5.8-12.8,12.8V50h24.1V36.6z"/>
<polygon id="F" class="st0" points="15.8,72.7 15.8,69.9 0,69.9 0,104.4 3.1,104.4 3.1,88.8 15,88.8 15,85.9 3.1,85.9 3.1,72.7 "/>
<polygon id="T" class="st0" points="122.3,69.9 122.3,72.8 130,72.8 130,104.4 133.1,104.4 133.1,72.8 140.8,72.8 140.8,69.9 "/>
</svg>
