<?xml version="1.0" encoding="utf-8"?>
<!-- Generator: Adobe Illustrator 15.1.0, SVG Export Plug-In . SVG Version: 6.00 Build 0)  -->
<!DOCTYPE svg PUBLIC "-//W3C//DTD SVG 1.1//EN" "http://www.w3.org/Graphics/SVG/1.1/DTD/svg11.dtd">
<svg version="1.1" id="Calque_1" xmlns="http://www.w3.org/2000/svg" xmlns:xlink="http://www.w3.org/1999/xlink" x="0px" y="0px"
	 width="506.426758px" height="416.571777px" viewBox="0 0 506.426758 416.571777"
	 enable-background="new 0 0 506.426758 416.571777" xml:space="preserve">
<g>
	<defs>
		<rect id="SVGID_1_" width="506.426758" height="416.571777"/>
	</defs>
	<clipPath id="SVGID_2_">
		<use xlink:href="#SVGID_1_"  overflow="visible"/>
	</clipPath>
	<g clip-path="url(#SVGID_2_)">
		<defs>
			<rect id="SVGID_3_" width="506.426758" height="416.571777"/>
		</defs>
		<clipPath id="SVGID_4_">
			<use xlink:href="#SVGID_3_"  overflow="visible"/>
		</clipPath>
		<path clip-path="url(#SVGID_4_)" fill="#FF960A" d="M204.98877,390.510254c0,2.65625-2.151855,4.808594-4.806152,4.808594
			h-14.687012c-2.652832,0-4.805664-2.152344-4.805664-4.808594H204.98877z"/>
		<path clip-path="url(#SVGID_4_)" fill="#FFC80A" d="M192.682617,390.510254v4.808594h7.5
			c2.654297,0,4.806152-2.152344,4.806152-4.808594H192.682617z"/>
		<path clip-path="url(#SVGID_4_)" fill="#FF960A" d="M207.068848,390.722168h-14.385742l-0.419922-2.74707l0.419922-2.949219
			C192.683105,385.025879,198.676758,386.227051,207.068848,390.722168"/>
		<path clip-path="url(#SVGID_4_)" fill="#FFC80A" d="M224.012207,350.283691v-9.501953
			c0-12.099609-6.884766-22.572266-16.942871-27.768555l-0.112793,0.405273l-8.547363,30.818359l-1.675781,6.046875
			c5.900879-5.90625,15.467773-5.90625,21.369141-0.003906"/>
		<path clip-path="url(#SVGID_4_)" fill="#FF960A" d="M167.398438,350.278809
			c5.900879-5.900391,15.467773-5.900391,21.368652,0.004883l-1.675781-6.046875l-8.549805-30.818359l-0.113281-0.405273
			c-10.055176,5.196289-16.939941,15.668945-16.939941,27.768555v9.501953"/>
		<path clip-path="url(#SVGID_4_)" fill="#6A4012" d="M197.256836,313.692871c0-4.71875,0.216309-10.389648-4.504883-10.389648
			c-4.719727,0-8.546875,3.826172-8.546875,8.547852l8.541992,30.818359L197.256836,313.692871z"/>
		<path clip-path="url(#SVGID_4_)" fill="#FFC80A" d="M192.747559,342.669434l8.550781-30.819336
			c0-4.720703-3.826172-8.545898-8.546875-8.545898L192.747559,342.669434z"/>
		<path clip-path="url(#SVGID_4_)" fill="#231E5A" d="M230.709473,350.26416l0.021973-15.888672v-0.137695
			c0-18.65332-13.494141-34.207031-31.254883-37.413086v-8.106445h-6.793945v7.486328
			c-20.90918,0.008789-37.937988,16.975586-38.013184,37.898438l-0.032227,9.50293l1.79834,0.008789l-0.003906-0.003906
			l0.031738-9.50293c0.069824-19.930664,16.311035-36.106445,36.23584-36.106445h0.062988
			c20.000977,0.070312,36.177246,16.3125,36.171387,36.236328c0,0.025391,0,0.087891,0.005859,0.175781l-0.036133,21.444336
			l0.896973,0.00293h0.303223l0.598633,0.00293v-0.00293h7.489258v-5.59668H230.709473z"/>
		<path clip-path="url(#SVGID_4_)" fill="#170035" d="M185.88916,288.718262v8.110352
			c-17.680176,3.210938-31.15332,18.672852-31.220215,37.274414l-0.022949,15.900391h-7.500977v5.595703h8.391113l0.898926,0.004883
			l-0.003906-11.994141l0.031738-9.501953c0.071289-19.925781,16.305176-36.094727,36.220215-36.103516v-0.895508v-0.902344
			v-7.488281H185.88916z"/>
		<path clip-path="url(#SVGID_4_)" fill="#6A4012" d="M178.294922,390.722168h14.388184v-5.696289
			C192.683105,385.025879,186.687012,386.227051,178.294922,390.722168"/>
		
			<path clip-path="url(#SVGID_4_)" fill="none" stroke="#FFFFFF" stroke-width="1.196" stroke-linecap="round" stroke-linejoin="round" d="
			M192.751953,306.703613c2.702637,0,4.921875,2.092773,5.134766,4.739258"/>
		<path clip-path="url(#SVGID_4_)" fill="#170035" d="M160.912598,359.855957h-7.192871c0,0,8.241211,21.579102,2.794922,21.579102
			h-2.794922v3.597656h9.188965C162.908691,385.032715,159.516602,375.416504,160.912598,359.855957"/>
		<g opacity="0.300003" clip-path="url(#SVGID_4_)">
			<g>
				<defs>
					<rect id="SVGID_5_" x="222.455078" y="359.855957" width="9.190918" height="25.175781"/>
				</defs>
				<clipPath id="SVGID_6_">
					<use xlink:href="#SVGID_5_"  overflow="visible"/>
				</clipPath>
				<path clip-path="url(#SVGID_6_)" fill="#77678F" d="M224.451172,359.855957h7.195312c0,0-8.243164,21.579102-2.797363,21.579102
					h2.797363v3.597656h-9.191406C222.455078,385.032715,225.847168,375.416504,224.451172,359.855957"/>
			</g>
		</g>
		<path clip-path="url(#SVGID_4_)" fill="#4648AA" d="M224.451172,359.855957h7.195312c0,0-8.243164,21.579102-2.797363,21.579102
			h2.797363v3.597656h-9.191406C222.455078,385.032715,225.847168,375.416504,224.451172,359.855957"/>
		<path clip-path="url(#SVGID_4_)" fill="#FFC80A" d="M181.893066,412.102051c5.958984,0,10.790039-4.830078,10.790039-10.790039
			c0,5.959961,4.829102,10.790039,10.789062,10.790039C197.51123,418.064941,187.852051,418.059082,181.893066,412.102051"/>
		<path clip-path="url(#SVGID_4_)" fill="#6A4012" d="M192.682617,401.312012v15.259766
			c-3.905762,0-7.812012-1.489258-10.790039-4.469727C187.851562,412.102051,192.682617,407.271973,192.682617,401.312012"/>
		<path clip-path="url(#SVGID_4_)" fill="#FF960A" d="M466.060547,407.528809c13.948242,0,25.254883-11.307617,25.254883-25.256836
			l3.581055,3.582031c2.480469,2.478516,3.719727,5.728516,3.71875,8.978516c0,7.012695-5.683594,12.697266-12.695312,12.697266
			L466.060547,407.528809z"/>
		<path clip-path="url(#SVGID_4_)" fill="#925A00" d="M501.951172,340.58252
			c-3.31543,3.314453-4.973633,7.660156-4.973633,12.005859c0,4.6875,1.901367,8.932617,4.973633,12.005859
			c-4.009766-1.674805-7.380859-4.878906-9.162109-9.21582c-1.651367-4.019531-1.768555-8.668945,0.039062-12.995117
			c0.249023-0.598633,0.410156-1.208008,0.515625-1.821289c0.280273-1.602539,0.099609-3.222656-0.49707-4.676758
			c-0.890625-2.167969-2.576172-3.770508-4.581055-4.608398c-2.163086-0.902344-4.488281-0.84375-6.498047-0.018555
			c-6.211914,2.551758-12.921875,3.889648-19.745117,3.87207v-13.811523h21.841797l15.208008,14.495117L501.951172,340.58252z"/>
		<path clip-path="url(#SVGID_4_)" fill="#925A00" d="M462.022461,312.968262v-23.429688
			c11.217773,0,22.436523,4.279297,30.996094,12.838867v16.601562L462.022461,312.968262z"/>
		<path clip-path="url(#SVGID_4_)" fill="#6A4012" d="M462.022461,312.968262v-23.429688
			c-11.217773,0-22.436523,4.279297-30.996094,12.838867v16.601562L462.022461,312.968262z"/>
		<path clip-path="url(#SVGID_4_)" fill="#FFEE81" d="M484.239258,309.621582h-22.216797v5.849609h22.216797
			c1.615234,0,2.924805-1.310547,2.924805-2.925781C487.164062,310.931152,485.854492,309.621582,484.239258,309.621582"/>
		<path clip-path="url(#SVGID_4_)" fill="#FFC80A" d="M484.239258,315.470215h-22.216797v5.848633h22.216797
			c1.615234,0,2.924805-1.30957,2.924805-2.924805C487.164062,316.779785,485.854492,315.470215,484.239258,315.470215"/>
		<path clip-path="url(#SVGID_4_)" fill="#FF960A" d="M439.805664,321.318848h22.216797v-5.847656h-22.216797
			c-1.615234,0-2.923828,1.308594-2.923828,2.923828S438.19043,321.318848,439.805664,321.318848"/>
		<path clip-path="url(#SVGID_4_)" fill="#FFC80A" d="M439.805664,315.470215h22.216797v-5.848633h-22.216797
			c-1.615234,0-2.923828,1.30957-2.923828,2.924805S438.19043,315.470215,439.805664,315.470215"/>
		<path clip-path="url(#SVGID_4_)" fill="#FFEE81" d="M484.239258,297.230957h-22.216797v5.848633h22.216797
			c1.615234,0,2.924805-1.30957,2.924805-2.924805S485.854492,297.230957,484.239258,297.230957"/>
		<path clip-path="url(#SVGID_4_)" fill="#FFC80A" d="M484.239258,303.07959h-22.216797v5.847656h22.216797
			c1.615234,0,2.924805-1.308594,2.924805-2.923828S485.854492,303.07959,484.239258,303.07959"/>
		<path clip-path="url(#SVGID_4_)" fill="#FF960A" d="M439.805664,308.928223h22.216797v-5.848633h-22.216797
			c-1.615234,0-2.923828,1.30957-2.923828,2.924805C436.881836,307.618652,438.19043,308.928223,439.805664,308.928223"/>
		<path clip-path="url(#SVGID_4_)" fill="#FFC80A" d="M439.805664,303.07959h22.216797v-5.848633h-22.216797
			c-1.615234,0-2.923828,1.30957-2.923828,2.924805S438.19043,303.07959,439.805664,303.07959"/>
		<path clip-path="url(#SVGID_4_)" fill="#FF960A" d="M501.949219,310.966309c0-2.473633-2.003906-4.476562-4.476562-4.476562
			c-2.472656-0.000977-4.477539,2.003906-4.476562,4.476562l-0.000977,8.270508c0,2.473633,2.003906,4.476562,4.477539,4.476562
			c2.472656,0.000977,4.478516-2.003906,4.476562-4.476562V310.966309z"/>
		<path clip-path="url(#SVGID_4_)" fill="#FFEE81" d="M497.472656,313.891113c0.748047,0,1.496094-0.286133,2.066406-0.857422
			c1.143555-1.140625,1.143555-2.993164,0-4.134766l-6.520508-6.522461l-6.710938-6.709961
			c-1.142578-1.142578-2.993164-1.142578-4.134766,0c-1.142578,1.141602-1.142578,2.993164,0,4.135742l4.134766,4.134766
			l9.09668,9.09668C495.976562,313.60498,496.724609,313.891113,497.472656,313.891113"/>
		<path clip-path="url(#SVGID_4_)" fill="#FFC80A" d="M497.472656,322.160645c0.748047,0,1.496094-0.286133,2.067383-0.856445
			c1.142578-1.141602,1.142578-2.993164,0-4.135742l-13.232422-13.231445c-1.142578-1.143555-2.993164-1.143555-4.134766,0
			c-1.142578,1.140625-1.142578,2.993164,0,4.134766l13.232422,13.232422
			C495.976562,321.874512,496.724609,322.160645,497.472656,322.160645"/>
		<path clip-path="url(#SVGID_4_)" fill="#170035" d="M422.09375,310.966309c0-2.473633,2.003906-4.476562,4.477539-4.476562
			c2.472656-0.000977,4.477539,2.003906,4.477539,4.476562v8.270508c0,2.473633-2.003906,4.476562-4.477539,4.476562
			c-2.472656,0.000977-4.478516-2.003906-4.477539-4.476562V310.966309z"/>
		<path clip-path="url(#SVGID_4_)" fill="#FFC80A" d="M426.571289,313.891113c-0.748047,0-1.496094-0.286133-2.067383-0.857422
			c-1.142578-1.140625-1.142578-2.993164,0-4.134766l13.232422-13.232422c1.142578-1.142578,2.993164-1.142578,4.134766,0
			c1.142578,1.141602,1.142578,2.993164,0,4.135742l-4.134766,4.134766l-9.09668,9.09668
			C428.067383,313.60498,427.319336,313.891113,426.571289,313.891113"/>
		<path clip-path="url(#SVGID_4_)" fill="#FF960A" d="M426.571289,322.160645c-0.748047,0-1.496094-0.286133-2.067383-0.856445
			c-1.142578-1.141602-1.142578-2.993164,0-4.135742l13.232422-13.231445c1.142578-1.143555,2.993164-1.143555,4.134766,0
			c1.142578,1.140625,1.142578,2.993164,0,4.134766l-13.231445,13.232422
			C428.067383,321.874512,427.319336,322.160645,426.571289,322.160645"/>
		<path clip-path="url(#SVGID_4_)" fill="#170035" d="M417.617188,327.834473c0-2.473633,2.003906-4.476562,4.476562-4.476562
			c2.472656-0.000977,4.478516,2.003906,4.478516,4.476562v8.270508c0,2.473633-2.004883,4.476562-4.478516,4.476562
			c-2.47168,0.000977-4.477539-2.003906-4.476562-4.476562V327.834473z"/>
		<path clip-path="url(#SVGID_4_)" fill="#FFC80A" d="M422.09375,330.759277c-0.748047,0-1.496094-0.286133-2.067383-0.857422
			c-1.142578-1.140625-1.142578-2.993164,0-4.134766l4.462891-4.462891l13.24707-13.24707
			c1.142578-1.142578,2.993164-1.142578,4.134766,0c1.142578,1.141602,1.142578,2.994141,0,4.134766l-4.134766,4.134766
			l-13.574219,13.575195C423.589844,330.473145,422.841797,330.759277,422.09375,330.759277"/>
		<path clip-path="url(#SVGID_4_)" fill="#FF960A" d="M422.09375,339.028809c-0.748047,0-1.496094-0.286133-2.066406-0.856445
			c-1.143555-1.141602-1.143555-2.993164,0-4.135742l17.708984-17.709961c1.142578-1.141602,2.993164-1.141602,4.134766,0
			c1.142578,1.142578,1.142578,2.994141,0,4.135742l-17.708984,17.709961
			C423.589844,338.742676,422.841797,339.028809,422.09375,339.028809"/>
		<path clip-path="url(#SVGID_4_)" fill="#FF960A" d="M506.426758,327.834473c0-2.473633-2.003906-4.476562-4.476562-4.476562
			c-2.472656-0.000977-4.478516,2.003906-4.478516,4.476562v8.270508c0,2.473633,2.004883,4.476562,4.478516,4.476562
			c2.472656,0.000977,4.477539-2.003906,4.476562-4.476562V327.834473z"/>
		<path clip-path="url(#SVGID_4_)" fill="#FFEE81" d="M501.949219,330.759277c0.748047,0,1.496094-0.286133,2.068359-0.857422
			c1.142578-1.140625,1.142578-2.993164,0-4.134766l-17.709961-17.709961c-1.142578-1.142578-2.993164-1.142578-4.134766,0
			c-1.143555,1.141602-1.143555,2.994141,0,4.134766l4.134766,4.134766l13.575195,13.575195
			C500.454102,330.473145,501.202148,330.759277,501.949219,330.759277"/>
		<path clip-path="url(#SVGID_4_)" fill="#FFC80A" d="M501.949219,339.028809c0.748047,0,1.496094-0.286133,2.068359-0.856445
			c1.142578-1.141602,1.142578-2.993164,0-4.135742l-17.709961-17.709961c-1.142578-1.141602-2.993164-1.141602-4.134766,0
			c-1.143555,1.142578-1.143555,2.994141,0,4.135742l17.708984,17.709961
			C500.454102,338.742676,501.202148,339.028809,501.949219,339.028809"/>
		<path clip-path="url(#SVGID_4_)" fill="#FF960A" d="M488.716797,310.124512c0-2.473633-2.003906-4.476562-4.476562-4.476562
			c-2.472656-0.000977-4.478516,2.003906-4.478516,4.476562v8.270508c0,2.473633,2.004883,4.476562,4.478516,4.476562
			c2.472656,0.000977,4.477539-2.003906,4.476562-4.476562V310.124512z"/>
		<path clip-path="url(#SVGID_4_)" fill="#FF960A" d="M488.716797,297.733887c0-2.473633-2.003906-4.476562-4.476562-4.476562
			c-2.472656-0.000977-4.478516,2.003906-4.478516,4.476562v8.270508c0,2.473633,2.004883,4.476562,4.478516,4.476562
			c2.472656,0.000977,4.477539-2.003906,4.476562-4.476562V297.733887z"/>
		<path clip-path="url(#SVGID_4_)" fill="#6A4012" d="M422.09375,340.58252c3.31543,3.314453,4.973633,7.660156,4.973633,12.005859
			c0,4.6875-1.901367,8.932617-4.973633,12.005859c4.009766-1.674805,7.379883-4.878906,9.162109-9.21582
			c1.651367-4.019531,1.768555-8.668945-0.038086-12.995117c-0.25-0.598633-0.411133-1.208008-0.516602-1.821289
			c-0.280273-1.602539-0.099609-3.222656,0.49707-4.676758c0.890625-2.167969,2.577148-3.770508,4.581055-4.608398
			c2.163086-0.902344,4.487305-0.84375,6.498047-0.018555c6.212891,2.551758,12.921875,3.889648,19.745117,3.87207v-13.811523
			h-21.841797l-15.208008,14.495117L422.09375,340.58252z"/>
		<path clip-path="url(#SVGID_4_)" fill="#170035" d="M449.300781,344.581543
			c-2.225586-0.908203-4.673828-0.897461-6.892578,0.03418l-7.876953,3.302734h9.264648
			c1.335938-0.556641,2.806641-0.567383,4.150391-0.019531l6.46875,2.550781l0.81543,0.333984
			c0.328125,0.133789,0.671875,0.201172,1.022461,0.201172c1.104492,0,2.087891-0.660156,2.505859-1.682617l0.333008-0.814453
			L449.300781,344.581543z"/>
		<path clip-path="url(#SVGID_4_)" fill="#231E5A" d="M474.739258,344.581543c2.225586-0.908203,4.674805-0.897461,6.892578,0.03418
			l7.876953,3.302734h-9.264648c-1.335938-0.556641-2.807617-0.567383-4.150391-0.019531l-6.46875,2.550781l-0.81543,0.333984
			c-0.328125,0.133789-0.671875,0.201172-1.022461,0.201172c-1.104492,0-2.087891-0.660156-2.505859-1.682617l-0.333008-0.814453
			L474.739258,344.581543z"/>
		<path clip-path="url(#SVGID_4_)" fill="#231E5A" d="M470.051758,373.525879
			c2.851562,0.348633,5.634766,1.080078,8.274414,2.164062l-4.060547,4.05957
			c-3.851562-1.581055-8.011719-2.411133-12.243164-2.400391v-6.407227c1.503906,0,2.724609-1.21875,2.724609-2.723633
			L470.051758,373.525879z"/>
		<path clip-path="url(#SVGID_4_)" fill="#170035" d="M453.993164,373.525879
			c-2.851562,0.348633-5.634766,1.080078-8.274414,2.164062l4.060547,4.05957
			c3.851562-1.581055,8.012695-2.411133,12.243164-2.400391v-6.407227c-1.503906,0-2.724609-1.21875-2.724609-2.723633
			L453.993164,373.525879z"/>
		<path clip-path="url(#SVGID_4_)" fill="#6A4012" d="M425.424805,382.271973
			c0.214844,9.02832,1.694336,16.735352,4.910156,25.256836h6.269531
			C429.589844,400.515137,425.862305,391.45752,425.424805,382.271973"/>
		<path clip-path="url(#SVGID_4_)" fill="#925A00" d="M436.603516,407.528809h14.078125
			c-11.658203,0-21.445312-7.910156-24.353516-18.648438C427.865234,395.714355,431.28418,402.209473,436.603516,407.528809"/>
		<path clip-path="url(#SVGID_4_)" fill="#6A4012" d="M461.19043,401.80127l-2.848633,1.045898
			c-9.061523,3.105469-18.530273,4.68457-28.007812,4.68457h26.404297h6.621094h2.699219
			c13.948242,0,25.256836-11.30957,25.256836-25.260742C482.469727,391.119629,472.166016,397.603027,461.19043,401.80127"/>
		<path clip-path="url(#SVGID_4_)" fill="#925B9F" d="M444.28125,297.733887c0.000977-2.472656-2.004883-4.477539-4.476562-4.476562
			c-2.474609,0-4.478516,2.00293-4.478516,4.476562v8.270508c0,0.74707,0.201172,1.44043,0.524414,2.060547
			c-0.323242,0.619141-0.524414,1.3125-0.524414,2.05957v8.270508c0,2.472656,2.004883,4.477539,4.478516,4.476562
			c2.472656,0,4.476562-2.00293,4.476562-4.476562v-8.270508c0-0.746094-0.200195-1.44043-0.524414-2.060547
			c0.324219-0.619141,0.524414-1.311523,0.524414-2.05957V297.733887z"/>
		<path clip-path="url(#SVGID_4_)" fill="#170035" d="M444.28125,297.733887c0.000977-2.472656-2.004883-4.477539-4.476562-4.476562
			c-2.474609,0-4.478516,2.00293-4.478516,4.476562v8.270508c0,0.74707,0.201172,1.44043,0.524414,2.060547
			c-0.323242,0.619141-0.524414,1.3125-0.524414,2.05957v8.270508c0,2.472656,2.004883,4.477539,4.478516,4.476562
			c2.472656,0,4.476562-2.00293,4.476562-4.476562v-8.270508c0-0.746094-0.200195-1.44043-0.524414-2.060547
			c0.324219-0.619141,0.524414-1.311523,0.524414-2.05957V297.733887z"/>
		<path clip-path="url(#SVGID_4_)" fill="#985EB5" d="M368.700195,37.754395
			c-2.069336-2.068848-5.420898-2.067871-7.491211-0.000977c-9.024414,9.024902-20.880859,13.538086-32.736328,13.538086v10.589844
			c14.568359,0,29.136719-5.544922,40.227539-16.634766C370.769531,43.17627,370.769531,39.822266,368.700195,37.754395"/>
		<path clip-path="url(#SVGID_4_)" fill="#813A8D" d="M295.734375,37.753418
			c-2.070312-2.066895-5.421875-2.067871-7.491211,0.000977c-2.068359,2.067871-2.068359,5.421875,0,7.491211
			c11.091797,11.09082,25.65918,16.635742,40.229492,16.635742V51.291504
			C316.616211,51.291504,304.759766,46.77832,295.734375,37.753418"/>
		<path clip-path="url(#SVGID_4_)" fill="#985EB5" d="M362.1875,35.503418v-0.12793v-1.214355
			c0-18.619629-15.095703-33.714844-33.71582-33.714844v40.833984v8.572754v0.114258
			c12.027344,0,23.320312-4.669922,31.800781-13.149902C360.833984,36.256348,361.487305,35.826172,362.1875,35.503418"/>
		<path clip-path="url(#SVGID_4_)" fill="#231E5A" d="M364.546875,49.507324
			c-2.399414,1.776855-4.904297,3.336914-7.490234,4.687012c2.714844,4.063965,4.109375,8.850098,3.933594,13.832031
			l-0.216797,6.147949l-0.171875,4.870117c-0.102539,2.86377-1.354492,5.415527-3.296875,7.225586
			c0,0,15.005859-1.615723,15.581055-17.903809C373.239258,58.362305,368.364258,52.529297,364.546875,49.507324"/>
		<path clip-path="url(#SVGID_4_)" fill="#170035" d="M319.896484,104.223145
			c2.368164,2.368164,5.470703,3.552246,8.575195,3.552246c3.103516,0,6.208008-1.184082,8.576172-3.552246l4.827148-7.187012
			c-1.835938,0.76123-3.960938,0.821289-5.941406,0c-4.973633-2.060059-10.313477-1.908691-14.923828,0
			c-1.834961,0.76123-3.959961,0.821289-5.941406,0l0.000977,0.001953L319.896484,104.223145z"/>
		<path clip-path="url(#SVGID_4_)" fill="#E63E48" d="M334.894531,99.547852L334.894531,99.547852
			c-2.056641-0.851074-4.212891-1.282715-6.415039-1.282715c-2.210938,0-4.374023,0.431641-6.430664,1.282715l1.829102,6.621094
			c1.301758,1.041016,2.904297,1.605957,4.594727,1.605957c1.688477,0,3.291992-0.564941,4.592773-1.605957L334.894531,99.547852z"
			/>
		<path clip-path="url(#SVGID_4_)" fill="#B80B29" d="M328.479492,98.265137c-2.210938,0-4.374023,0.431152-6.430664,1.283203
			l1.829102,6.621094c1.301758,1.039551,2.904297,1.605957,4.594727,1.605957L328.479492,98.265137z"/>
		<path clip-path="url(#SVGID_4_)" fill="#4648AA" d="M337.046875,104.223145
			c-2.367188,2.368164-5.47168,3.552246-8.574219,3.552246v4.35791c3.102539,0,6.207031-1.183105,8.574219-3.552246
			L341.875,97.036133L337.046875,104.223145z"/>
		<path clip-path="url(#SVGID_4_)" fill="#231E5A" d="M319.896484,104.223145c2.368164,2.368164,5.47168,3.552246,8.576172,3.552246
			v4.35791c-3.104492,0-6.208008-1.183105-8.576172-3.552246l-4.828125-11.544922L319.896484,104.223145z"/>
		<path clip-path="url(#SVGID_4_)" fill="#231E5A" d="M334.764648,72.554199v-3.712891
			c4.12793,0,8.003906-0.212891,10.913086-3.12207c1.878906-1.880859,5.048828-2.827148,7.71582-1.619141
			c-1.931641,0.470215-3.692383,1.457031-5.09082,2.85498C344.692383,70.56543,339.884766,72.554199,334.764648,72.554199"/>
		<path clip-path="url(#SVGID_4_)" fill="#170035" d="M322.18457,72.554199v-3.712891
			c-4.12793,0-8.004883-0.212891-10.912109-3.12207c-1.879883-1.880859-5.049805-2.827148-7.717773-1.619141
			c1.932617,0.470215,3.693359,1.457031,5.091797,2.85498C312.256836,70.56543,317.06543,72.554199,322.18457,72.554199"/>
		
			<path clip-path="url(#SVGID_4_)" fill="none" stroke="#D3A3FB" stroke-linecap="round" stroke-linejoin="round" stroke-miterlimit="10" d="
			M348.111328,13.238281c-5.139648-4.827148-12.050781-7.787109-19.639648-7.787109"/>
		<path clip-path="url(#SVGID_4_)" fill="#170035" d="M322.423828,80.250977l-3.538086-1.702637
			c-0.356445-0.169922-0.788086-0.020996-0.960938,0.335938c-0.608398,1.262695-1.670898,2.212891-2.993164,2.675781
			c-1.320312,0.466309-2.745117,0.384277-4.009766-0.224609c-1.263672-0.608398-2.214844-1.672363-2.677734-2.994141
			c-0.463867-1.323242-0.382812-2.748047,0.225586-4.010254c0.081055-0.171875,0.09375-0.368652,0.029297-0.549805
			c-0.061523-0.180176-0.194336-0.328125-0.364258-0.410156l-3.539062-1.702637
			c-0.358398-0.169434-0.788086-0.021484-0.959961,0.335938c-0.173828,0.35791-0.023438,0.787598,0.334961,0.959961
			l2.925781,1.406738c-0.432617,1.208008-0.483398,2.498047-0.19043,3.746094l-3.084961,1.080078
			c-0.374023,0.130859-0.573242,0.541992-0.439453,0.916016c0.103516,0.295898,0.380859,0.481934,0.677734,0.481934
			c0.079102,0,0.15918-0.013184,0.238281-0.041016l3.09375-1.083008c0.548828,1.15625,1.402344,2.109863,2.489258,2.785156
			l-1.423828,2.954102c-0.171875,0.35791-0.021484,0.786621,0.336914,0.959961
			c0.100586,0.047852,0.206055,0.070801,0.311523,0.070801c0.267578,0,0.525391-0.149902,0.648438-0.407227l1.426758-2.962891
			c0.71875,0.256348,1.458984,0.42627,2.210938,0.42627c0.508789,0,1.014648-0.081055,1.516602-0.199219l1.080078,3.084961
			c0.103516,0.295898,0.379883,0.480957,0.677734,0.480957c0.079102,0,0.15918-0.012695,0.238281-0.040039
			c0.374023-0.130859,0.573242-0.541016,0.44043-0.916992l-1.080078-3.083984c1.158203-0.549805,2.134766-1.394043,2.80957-2.483887
			l2.924805,1.408203c0.359375,0.174805,0.790039,0.022949,0.960938-0.335938
			C322.931641,80.853027,322.782227,80.42334,322.423828,80.250977"/>
		<path clip-path="url(#SVGID_4_)" fill="#813A8D" d="M296.750977,36.736816
			c8.458008,8.458984,19.724609,13.116699,31.720703,13.116699V0.445801c-18.620117,0-33.71582,15.094727-33.71582,33.71582
			v1.212891C295.487305,35.705566,296.166016,36.152832,296.750977,36.736816"/>
		
			<line clip-path="url(#SVGID_4_)" fill="none" stroke="#231E5A" stroke-width="0.75" stroke-linecap="round" stroke-linejoin="round" x1="328.47168" y1="99.480957" x2="328.47168" y2="102.022949"/>
		<path clip-path="url(#SVGID_4_)" fill="#FFFFFF" d="M328.47168,100.105469c2.980469,0,5.950195-0.933105,8.470703-2.766113
			c-0.337891-0.087891-0.676758-0.166016-1.008789-0.302734c-4.974609-2.060059-10.313477-1.910156-14.923828,0
			c-0.323242,0.133789-0.665039,0.217773-1.003906,0.306641C322.524414,99.174316,325.494141,100.105469,328.47168,100.105469"/>
		<g clip-path="url(#SVGID_4_)">
			<g>
				<defs>
					<rect id="SVGID_7_" x="314.485352" y="94.956543" width="27.972656" height="3.258301"/>
				</defs>
				<clipPath id="SVGID_8_">
					<use xlink:href="#SVGID_7_"  overflow="visible"/>
				</clipPath>
				<path clip-path="url(#SVGID_8_)" fill="#281E35" d="M338.905273,98.215332c-1.081055,0-2.164062-0.213379-3.194336-0.63916
					c-4.666992-1.937012-9.810547-1.937012-14.477539,0c-2.05957,0.852051-4.328125,0.852051-6.387695,0
					c-0.296875-0.123047-0.439453-0.464844-0.316406-0.763184c0.124023-0.297852,0.466797-0.438965,0.762695-0.315918
					c1.772461,0.734863,3.723633,0.734863,5.494141,0c4.958984-2.053223,10.417969-2.053223,15.371094,0
					c1.771484,0.734863,3.723633,0.734863,5.494141,0c0.294922-0.124023,0.636719,0.01709,0.762695,0.315918
					c0.123047,0.29834-0.018555,0.638184-0.31543,0.763184C341.068359,98.001953,339.986328,98.215332,338.905273,98.215332"/>
			</g>
		</g>
		<path clip-path="url(#SVGID_4_)" fill="#A5E4DB" d="M320.337891,125.178711h8.134766l-7.385742-7.384766h-1.19043
			c-6.615234,0-12.833008-2.574219-17.510742-7.250977l-4.066406,4.065918c5.474609,5.477051,12.666016,8.614746,20.362305,8.913086
			L320.337891,125.178711z"/>
		<path clip-path="url(#SVGID_4_)" fill="#FFFFFF" d="M338.262695,123.521973
			c7.695312-0.297852,14.886719-3.436035,20.362305-8.913086l-4.067383-4.065918
			c-4.676758,4.676758-10.895508,7.250977-17.509766,7.250977h-1.191406l-7.384766,7.384766h8.133789L338.262695,123.521973z"/>
		<path clip-path="url(#SVGID_4_)" fill="#170035" d="M295.956055,68.158203c0-4.983887,1.563477-9.717285,4.418945-13.682129
			c-2.537109-1.439941-4.986328-3.087891-7.322266-4.949219c-3.920898,2.88623-8.996094,8.543457-8.996094,18.55127
			c0,16.297852,14.938477,18.442871,14.938477,18.442871c-1.876953-1.87793-3.039062-4.47168-3.039062-7.337891v-4.873047V68.158203
			z"/>
		<path clip-path="url(#SVGID_4_)" fill="#170035" d="M18.060059,78.53418l3.453125-3.453125
			c3.036133-3.036133,4.914062-7.230957,4.914062-11.865234l0.012695,0.042969
			c0.074219-1.083008,0.189941-2.158691,0.396973-3.216797l0.300293-1.526855l3.212891-16.395996l-4.856934,2.062988
			c-4.592285,4.591797-7.433105,10.937012-7.433105,17.944824v0.680176c0,6.367676-1.630859,12.556641-4.111816,18.421875
			c-0.971191,2.294922-1.507324,4.818848-1.507324,7.467773c0,4.374023,1.495117,8.741211,4.467285,12.291992
			c-2.508301-3.074707-3.762207-6.833008-3.762207-10.589844C13.14502,85.765137,15.023926,81.569824,18.060059,78.53418"/>
		<g opacity="0.699997" clip-path="url(#SVGID_4_)">
			<g>
				<defs>
					<rect id="SVGID_9_" x="26.353516" y="63.258789" width="0.086426" height="1.895996"/>
				</defs>
				<clipPath id="SVGID_10_">
					<use xlink:href="#SVGID_9_"  overflow="visible"/>
				</clipPath>
				<path clip-path="url(#SVGID_10_)" fill="#493351" d="M26.439941,63.258789L26.439941,63.258789
					c-0.042969,0.629883-0.087891,1.26123-0.085938,1.895996C26.352051,64.52002,26.396973,63.888672,26.439941,63.258789"/>
			</g>
		</g>
		<g opacity="0.699997" clip-path="url(#SVGID_4_)">
			<g>
				<defs>
					<rect id="SVGID_11_" x="16.908203" y="100.989746" width="1.152344" height="1.273926"/>
				</defs>
				<clipPath id="SVGID_12_">
					<use xlink:href="#SVGID_11_"  overflow="visible"/>
				</clipPath>
				<path clip-path="url(#SVGID_12_)" fill="#493351" d="M16.908203,100.989258
					c0.35791,0.438965,0.743164,0.865234,1.151855,1.274902C17.651367,101.854492,17.273438,101.425293,16.908203,100.989258"/>
			</g>
		</g>
		<path clip-path="url(#SVGID_4_)" fill="#231E5A" d="M33.969238,95.703125l-3.026855-6.14209
			c-0.282227-0.573242-0.487793-1.180176-0.612793-1.805176L27.13623,71.794922l-0.298828-1.527832
			c-0.328125-1.674316-0.48877-3.38623-0.483887-5.112305c-0.000977-0.634766,0.042969-1.265625,0.085938-1.895996
			l-0.012207-0.042969c0,4.634277-1.87793,8.829102-4.914062,11.865234l-3.452637,3.453125
			c-3.037109,3.035645-4.915039,7.230957-4.915039,11.864746c0,3.756836,1.253906,7.515137,3.762695,10.589844
			c0.365234,0.436035,0.742188,0.865234,1.152344,1.275391L33.969238,95.703125z"/>
		<path clip-path="url(#SVGID_4_)" fill="#6A4012" d="M28.832031,44.22168h29.541992V0.629883H34.770996
			c-4.350098,0-8.290039,2.570801-10.041016,6.554199L28.832031,44.22168z"/>
		<path clip-path="url(#SVGID_4_)" fill="#925A00" d="M87.916016,44.22168H58.374023V0.629883h23.603027
			c4.349609,0,8.290039,2.570801,10.041016,6.554199L87.916016,44.22168z"/>
		
			<path clip-path="url(#SVGID_4_)" fill="none" stroke="#FF960A" stroke-linecap="round" stroke-linejoin="round" stroke-miterlimit="10" d="
			M64.187988,5.87793h17.790039c1.765625,0,3.405762,0.799316,4.497559,2.189941"/>
		<polygon clip-path="url(#SVGID_4_)" fill="#FF960A" points="58.374023,29.108887 58.374023,47.128906 25.626953,41.692871 
			24.23291,29.108887 		"/>
		<polygon clip-path="url(#SVGID_4_)" fill="#FFC80A" points="58.374023,29.108887 58.374023,47.128906 91.180664,41.145996 
			92.515137,29.108887 89.588867,29.108887 		"/>
		<path clip-path="url(#SVGID_4_)" fill="#813A8D" d="M50.191406,75.583984l-7.585938,7.585938
			c-3.437988,3.437988-5.158203,7.946289-5.158203,12.453125c0-6.447266,2.459961-12.894043,7.378906-17.812988h-7.378906
			c2.468262-5.957031,7.207031-10.972168,13.634277-13.634277c-4.493164,1.861328-7.806152,5.367188-9.53125,9.53125
			l-0.776855,1.876953H50.191406z"/>
		<g opacity="0.699997" clip-path="url(#SVGID_4_)">
			<g>
				<defs>
					<rect id="SVGID_13_" x="93.350586" y="46.597656" width="1.624023" height="2.364258"/>
				</defs>
				<clipPath id="SVGID_14_">
					<use xlink:href="#SVGID_13_"  overflow="visible"/>
				</clipPath>
				<path clip-path="url(#SVGID_14_)" fill="#493351" d="M93.350586,46.598145c0.580078,0.758301,1.125,1.544922,1.624023,2.364258
					C94.475586,48.14209,93.936523,47.353027,93.350586,46.598145"/>
			</g>
		</g>
		<g opacity="0.699997" clip-path="url(#SVGID_4_)">
			<g>
				<defs>
					<rect id="SVGID_15_" x="86.396973" y="42.118652" width="4.856445" height="2.062988"/>
				</defs>
				<clipPath id="SVGID_16_">
					<use xlink:href="#SVGID_15_"  overflow="visible"/>
				</clipPath>
				<polygon clip-path="url(#SVGID_16_)" fill="#493351" points="86.396973,42.119141 86.396973,42.119141 91.253418,44.181152 				
					"/>
			</g>
		</g>
		<g opacity="0.699997" clip-path="url(#SVGID_4_)">
			<g>
				<defs>
					<rect id="SVGID_17_" x="91.253418" y="44.181641" width="1.942871" height="2.209961"/>
				</defs>
				<clipPath id="SVGID_18_">
					<use xlink:href="#SVGID_17_"  overflow="visible"/>
				</clipPath>
				<path clip-path="url(#SVGID_18_)" fill="#493351" d="M91.253418,44.181641
					c0.693848,0.694336,1.337891,1.435059,1.942871,2.209961C92.586426,45.621582,91.947266,44.875977,91.253418,44.181641"/>
			</g>
		</g>
		<path clip-path="url(#SVGID_4_)" fill="#231E5A" d="M104.306152,88.697266c0-2.648926-0.537109-5.172852-1.507812-7.468262
			c-2.47998-5.864746-4.112305-12.053711-4.112305-18.421875v-0.679688c0.000977-4.827148-1.37207-9.323242-3.711914-13.165039
			c-0.549805,0.220703-1.100098,0.440918-1.653809,0.651855l-0.833008,0.314941
			c-1.415039,0.524902-2.840332,1.013184-4.270996,1.471191l1.394043,7.11377l0.298828,1.527832
			c0.208008,1.058105,0.324219,2.134277,0.397949,3.217285l0.012207-0.042969c0,4.633789,1.87793,8.828125,4.915039,11.864746
			l3.452637,3.453125c3.036133,3.036133,4.914062,7.230957,4.914062,11.865234c0,4.293945-1.637695,8.587891-4.915039,11.864746
			C102.433105,98.518066,104.306152,93.606934,104.306152,88.697266"/>
		<g clip-path="url(#SVGID_4_)">
			<g>
				<defs>
					<rect id="SVGID_19_" x="82.777344" y="88.677734" width="15.90918" height="13.585938"/>
				</defs>
				<clipPath id="SVGID_20_">
					<use xlink:href="#SVGID_19_"  overflow="visible"/>
				</clipPath>
				<path clip-path="url(#SVGID_20_)" fill="#281E35" d="M85.804688,89.560547
					c0.140625-0.285645,0.262695-0.581055,0.365723-0.881836C86.067383,88.979492,85.945312,89.274902,85.804688,89.560547
					l-3.027344,6.14209l15.90918,6.561035l-15.90918-6.561035L85.804688,89.560547z"/>
			</g>
		</g>
		<g clip-path="url(#SVGID_4_)">
			<g>
				<defs>
					<rect id="SVGID_21_" x="86.169922" y="70.267578" width="3.739258" height="18.410156"/>
				</defs>
				<clipPath id="SVGID_22_">
					<use xlink:href="#SVGID_21_"  overflow="visible"/>
				</clipPath>
				<path clip-path="url(#SVGID_22_)" fill="#281E35" d="M89.610352,71.794922l0.298828-1.527832L89.610352,71.794922
					l-3.192383,15.961426c-0.062988,0.3125-0.145996,0.620605-0.247559,0.921875
					c0.101562-0.30127,0.18457-0.609375,0.247559-0.921875L89.610352,71.794922z"/>
			</g>
		</g>
		<g clip-path="url(#SVGID_4_)">
			<g>
				<defs>
					<rect id="SVGID_23_" x="90.307129" y="63.258789" width="0.085938" height="1.895996"/>
				</defs>
				<clipPath id="SVGID_24_">
					<use xlink:href="#SVGID_23_"  overflow="visible"/>
				</clipPath>
				<path clip-path="url(#SVGID_24_)" fill="#281E35" d="M90.307129,63.258789
					c0.042969,0.629883,0.087891,1.26123,0.085938,1.895996C90.39502,64.52002,90.350098,63.888672,90.307129,63.258789z"/>
			</g>
		</g>
		<path clip-path="url(#SVGID_4_)" fill="#170035" d="M98.687012,78.53418l-3.453125-3.453125
			c-3.036133-3.036133-4.915039-7.230957-4.914062-11.865234l-0.012695,0.042969
			c0.042969,0.630371,0.087891,1.26123,0.085938,1.895996c0.004883,1.726074-0.155273,3.437988-0.483398,5.112305
			l-0.299805,1.527832l-3.191895,15.960938c-0.062988,0.312988-0.14502,0.621094-0.248047,0.922363
			c-0.102051,0.301758-0.224121,0.59668-0.365234,0.882812l-3.026855,6.14209l15.90918,6.561035
			c3.275879-3.276367,4.914062-7.571289,4.914062-11.865234C103.602051,85.765137,101.722656,81.569824,98.687012,78.53418"/>
		<g clip-path="url(#SVGID_4_)">
			<g>
				<defs>
					<rect id="SVGID_25_" x="93.196289" y="46.391602" width="0.154297" height="0.206055"/>
				</defs>
				<clipPath id="SVGID_26_">
					<use xlink:href="#SVGID_25_"  overflow="visible"/>
				</clipPath>
				<path clip-path="url(#SVGID_26_)" fill="#281E35" d="M93.196289,46.391602
					c0.052734,0.066895,0.101562,0.138672,0.154785,0.206543C93.297852,46.529297,93.249023,46.459473,93.196289,46.391602"/>
			</g>
		</g>
		<g clip-path="url(#SVGID_4_)">
			<g>
				<defs>
					<rect id="SVGID_27_" x="86.396973" y="42.118652" width="1.818848" height="9.28125"/>
				</defs>
				<clipPath id="SVGID_28_">
					<use xlink:href="#SVGID_27_"  overflow="visible"/>
				</clipPath>
				<path clip-path="url(#SVGID_28_)" fill="#281E35" d="M86.396973,42.119141l1.819336,9.280273L86.396973,42.119141z"/>
			</g>
		</g>
		<g clip-path="url(#SVGID_4_)">
			<g>
				<defs>
					<path id="SVGID_29_" d="M94.974609,48.961914L94.974609,48.961914z"/>
				</defs>
				<clipPath id="SVGID_30_">
					<use xlink:href="#SVGID_29_"  overflow="visible"/>
				</clipPath>
				<path clip-path="url(#SVGID_30_)" fill="#281E35" d="M94.974609,48.961914"/>
			</g>
		</g>
		<path clip-path="url(#SVGID_4_)" fill="#170035" d="M93.319824,49.614746c0.554199-0.210938,1.10498-0.431152,1.655273-0.65332
			c-0.499023-0.818848-1.044922-1.60498-1.624023-2.362793c-0.053223-0.067871-0.102051-0.140137-0.155273-0.207031
			c-0.604004-0.773926-1.249023-1.516113-1.942871-2.209961l-4.855957-2.062012l1.818848,9.279785
			c1.432129-0.458008,2.855957-0.944824,4.270996-1.470703L93.319824,49.614746z"/>
		<path clip-path="url(#SVGID_4_)" fill="#6A4012" d="M92.016113,40.57373
			c-10.59375,4.316895-22.021973,6.581055-33.644043,6.554199C46.75,47.154785,35.322266,44.890625,24.729004,40.57373
			l-10.59375-4.316895l-2.847168-1.160156c-0.643066,1.573242,0.114258,3.368164,1.686035,4.009277l10.594238,4.316895
			C34.613281,47.923828,46.25,50.20459,58.148438,50.20459c0.145996-0.000977,0.291992-0.000977,0.433594,0
			c10.934082,0,21.63916-1.922852,31.867188-5.719727c0.269043-0.100098,0.537109-0.201172,0.805176-0.303223
			c0.642578-0.245605,1.283691-0.499023,1.923828-0.758789l10.59375-4.316895
			c1.572266-0.641113,2.329102-2.436035,1.686035-4.009277l-2.847656,1.160156L92.016113,40.57373z"/>
		<path clip-path="url(#SVGID_4_)" fill="#FF960A" d="M101.44873,33.408691l-10.591797,4.316895
			c-10.305176,4.19873-21.162109,6.32666-32.286133,6.32666h-0.197266v3.076172
			c11.62207,0.025879,23.049316-2.237793,33.64209-6.554688l10.594238-4.316406l2.847656-1.160645
			C104.818848,33.523438,103.024902,32.765625,101.44873,33.408691"/>
		<path clip-path="url(#SVGID_4_)" fill="#925A00" d="M15.297363,33.408691l10.591797,4.317383
			c10.305176,4.19873,21.162109,6.32666,32.286133,6.32666h0.196777v3.076172
			c-11.621582,0.025879-23.048828-2.237793-33.641602-6.555176L14.13623,36.257812l-2.848145-1.161133
			C11.927246,33.523926,13.721191,32.766113,15.297363,33.408691"/>
		<path clip-path="url(#SVGID_4_)" fill="#170035" d="M92.294922,20.257324l3.73877-1.913086l0.725098-6.543945
			c-4.429199,4.428711-7.168945,10.548828-7.168945,17.309082l0.098633-0.094238l5.806152-5.806152l0.327148-2.95166H92.294922z"/>
		<path clip-path="url(#SVGID_4_)" fill="#FFEE81" d="M76.364258,107.222168
			c-4.467285,4.467285-6.701172,10.323242-6.701172,16.178223l5.370117-0.00293c0-7.648926,2.917969-15.297363,8.753906-21.133301
			C80.991211,103.42334,78.471191,105.115234,76.364258,107.222168"/>
		<path clip-path="url(#SVGID_4_)" fill="#48205C" d="M108.806641,112.627441
			c-6.90918-6.90918-15.964355-10.362793-25.019043-10.362793c-5.836426,5.834961-8.754395,13.483887-8.754395,21.132812
			l35.891113-0.00293c0-5.086914,1.940918-10.175293,5.823242-14.056152L108.806641,112.627441z"/>
		<path clip-path="url(#SVGID_4_)" fill="#FFC80A" d="M40.382812,107.222168
			c-2.106934-2.106934-4.626953-3.798828-7.422852-4.958008c5.835938,5.835938,8.753906,13.484375,8.753906,21.133301
			l5.370117,0.00293C47.083984,117.54541,44.849609,111.689453,40.382812,107.222168"/>
		<path clip-path="url(#SVGID_4_)" fill="#170035" d="M32.959961,102.26416c-9.055176,0-18.110352,3.453613-25.019043,10.362793
			L0,109.337891c3.881836,3.882324,5.821777,8.969238,5.821777,14.056152l35.89209,0.00293
			C41.713867,115.749023,38.795898,108.100098,32.959961,102.26416"/>
		<path clip-path="url(#SVGID_4_)" fill="#170035" d="M38.928223,52.935059c0.958008,0,1.916016,0.116699,2.851074,0.352051
			l9.48291,2.381836c0.935059,0.234863,1.893066,0.352051,2.851074,0.352051c0.930176,0.930176,0.930176,2.437012,0,3.366211
			c-0.704102,0.703613-1.739746,0.875-2.60498,0.511719l-8.48291-3.549805c-4.112793-1.704102-8.527832-1.579102-12.339844,0
			C32.79541,54.239746,35.709473,52.935059,38.928223,52.935059"/>
		<path clip-path="url(#SVGID_4_)" fill="#985EB5" d="M66.555664,75.583984l7.585938,7.585938
			c3.437988,3.437988,5.158203,7.946289,5.158203,12.453125c0-6.447266-2.459961-12.894043-7.379395-17.812988h7.379395
			c-2.468262-5.957031-7.207031-10.972168-13.634277-13.634277c4.493164,1.861328,7.806152,5.367188,9.53125,9.53125
			l0.776855,1.876953H66.555664z"/>
		<path clip-path="url(#SVGID_4_)" fill="#231E5A" d="M77.818359,52.935059c-0.95752,0-1.915527,0.116699-2.850586,0.352051
			l-9.483398,2.381836c-0.93457,0.234863-1.892578,0.352051-2.850586,0.352051c-0.930176,0.930176-0.930176,2.437012,0,3.366211
			c0.703613,0.703613,1.739746,0.875,2.60498,0.511719l8.48291-3.549805c4.112793-1.704102,8.527832-1.579102,12.339844,0
			C83.95166,54.239746,81.037598,52.935059,77.818359,52.935059"/>
		<path clip-path="url(#SVGID_4_)" fill="#170035" d="M58.373535,93.23584v-2.008789l-1.629883-1.032227
			c-0.848145,0-2.256348,0.687988-2.256348,0.687988c-1.827637,0.757324-3.59375,1.65918-5.278809,2.696289l-1.054199,0.647949
			h1.67041L51.619629,93.875C53.831543,93.441895,56.092285,93.22998,58.373535,93.23584"/>
		<path clip-path="url(#SVGID_4_)" fill="#231E5A" d="M58.373535,93.23584c-2.28125-0.005859-4.541992,0.206055-6.753906,0.63916
			l-1.794922,0.352051l1.117676,0.839844c0.670898,0.503906,1.40625,0.941895,2.217285,1.277832
			c1.266602,0.524902,2.578613,0.77002,3.869629,0.772949h1.344238V93.23584z"/>
		<path clip-path="url(#SVGID_4_)" fill="#231E5A" d="M58.373535,93.23584v-2.008789l1.629883-1.032227
			c0.848145,0,2.255859,0.687988,2.255859,0.687988c1.828125,0.757324,3.594238,1.65918,5.279297,2.696289l1.053711,0.647949
			h-1.669922L65.127441,93.875C62.915527,93.441895,60.654297,93.22998,58.373535,93.23584"/>
		<path clip-path="url(#SVGID_4_)" fill="#4648AA" d="M58.373535,93.23584c2.280762-0.005859,4.541992,0.206055,6.753906,0.63916
			l1.794922,0.352051l-1.117676,0.839844c-0.671387,0.503906-1.40625,0.941895-2.217285,1.277832
			c-1.26709,0.524902-2.579102,0.77002-3.870117,0.772949h-1.34375V93.23584z"/>
		<polygon clip-path="url(#SVGID_4_)" fill="#A5E4DB" points="60.437988,404.005371 55.606934,408.848145 74.400879,408.848145 		
			"/>
		<path clip-path="url(#SVGID_4_)" fill="#FFFFFF" d="M60.437988,404.005371l10.095703,10.121094l15.464355-20.735352
			C78.939941,400.467285,69.688965,404.005371,60.437988,404.005371"/>
		<polygon clip-path="url(#SVGID_4_)" fill="#009696" points="52.391602,404.005371 57.234863,408.848145 38.393555,408.848145 		
			"/>
		<path clip-path="url(#SVGID_4_)" fill="#170035" d="M20.623047,349.16748
			c11.008789-3.152344,22.413086-2.285156,32.453125,1.873047h-0.005371c1.083984,0.449219,2.207031,0.65625,3.311035,0.655273
			v2.708008c-1.82666,0-3.308594,1.480469-3.308594,3.308594c0,3.834961-1.554199,7.308594-4.068359,9.822266
			c-2.712891,2.712891-6.268066,4.069336-9.822754,4.069336h-4.950195c-5.454102,0-9.875-4.421875-9.875-9.875v-1.655273
			c0-2.066406-0.789062-4.132812-2.364746-5.709961h-1.385254v-5.196289H20.623047z"/>
		<path clip-path="url(#SVGID_4_)" fill="#231E5A" d="M92.141602,349.16748
			c-11.008789-3.152344-22.412598-2.285156-32.452637,1.873047h0.004883c-1.083984,0.449219-2.207031,0.65625-3.311035,0.655273
			v2.708008c1.827148,0,3.309082,1.480469,3.309082,3.308594c0,3.834961,1.553711,7.308594,4.067871,9.822266
			c2.712891,2.712891,6.268066,4.069336,9.823242,4.069336h4.949707c5.454102,0,9.875-4.421875,9.875-9.875v-1.655273
			c0-2.066406,0.789062-4.132812,2.365234-5.709961h1.384766v-5.196289H92.141602z"/>
		<path clip-path="url(#SVGID_4_)" fill="#56CCBB" d="M60.591797,353.205566c0,0-0.358887,0.143555-0.540039,0.208008
			c1.188965,1.015625,1.952148,2.516602,1.98291,4.19043c0.029297,1.539062,0.175293,3.09082,0.804199,4.495117
			c2.025879,4.53125,6.184082,7.15918,10.745117,7.15918h4.94873c4.15918,0,7.530273-3.371094,7.530273-7.530273v-8.586914
			c0-1.695312-1.279297-3.131836-2.966309-3.300781c-1.487793-0.149414-2.981934-0.227539-4.47998-0.227539
			C72.416016,349.612793,66.349609,350.820801,60.591797,353.205566"/>
		<path clip-path="url(#SVGID_4_)" fill="#009696" d="M52.174316,353.205566c0,0,0.358887,0.143555,0.539551,0.208008
			c-1.188965,1.015625-1.95166,2.516602-1.98291,4.191406c-0.028809,1.539062-0.174805,3.088867-0.802734,4.494141
			c-2.027344,4.53125-6.185059,7.15918-10.746094,7.15918h-4.948242c-4.158691,0-7.530762-3.371094-7.530762-7.530273v-8.586914
			c0-1.695312,1.278809-3.131836,2.96582-3.300781c1.488281-0.149414,2.983398-0.228516,4.480957-0.228516
			C40.351074,349.611816,46.416016,350.819824,52.174316,353.205566"/>
		<path clip-path="url(#SVGID_4_)" fill="#813A8D" d="M56.383301,329.371582h33.407715l-11.434082-31.364258l0.005371,0.004883
			c-1.455078-3.512695-4.197266-6.103516-7.453125-7.453125h0.006836c-3.512695-1.455078-7.283691-1.347656-10.540039,0
			c-1.306641,0.541992-2.660645,0.793945-3.992676,0.792969V329.371582z"/>
		<path clip-path="url(#SVGID_4_)" fill="#48205C" d="M56.383301,329.371582H22.975098l11.434082-31.364258l-0.004883,0.004883
			c1.45459-3.512695,4.196777-6.103516,7.452637-7.453125h-0.006836c3.513184-1.455078,7.28418-1.347656,10.540039,0
			c1.307129,0.541992,2.661133,0.793945,3.993164,0.792969V329.371582z"/>
		<path clip-path="url(#SVGID_4_)" fill="#985EB5" d="M75.109863,304.635254c-0.225098,0-0.437012-0.138672-0.519043-0.363281
			l-1.550293-4.251953c-0.82666-1.896484-2.36084-3.402344-4.307617-4.210938l-0.197266-0.081055
			c-1.941895-0.743164-4.076172-0.708984-5.984863,0.082031l-1.160156,0.432617
			c-1.561035,0.519531-3.27002,0.796875-5.00293,0.796875c-0.305176,0-0.551758-0.24707-0.551758-0.552734
			c0-0.303711,0.246582-0.551758,0.551758-0.551758c1.61377,0,3.206055-0.257812,4.730957-0.767578l1.01123-0.37793
			c2.241699-0.928711,4.759766-0.935547,7.025879-0.001953l0.548828,0.224609l-0.009766,0.021484
			c1.956055,0.959961,3.496094,2.566406,4.369629,4.577148l1.564453,4.283203
			c0.104004,0.286133-0.042969,0.603516-0.330078,0.708008C75.23584,304.624512,75.172852,304.635254,75.109863,304.635254"/>
		<polygon clip-path="url(#SVGID_4_)" fill="#170035" points="56.383301,329.371582 22.169922,329.371582 19.199219,337.522949 
			56.383301,337.522949 		"/>
		<polygon clip-path="url(#SVGID_4_)" fill="#56CCBB" points="56.383301,329.371582 90.596191,329.371582 93.566895,337.522949 
			56.383301,337.522949 		"/>
		<path clip-path="url(#SVGID_4_)" fill="#48205C" d="M56.383301,337.522949H10.490234
			c14.431641,5.977539,30.025879,9.135742,45.893066,9.141602V337.522949z"/>
		<path clip-path="url(#SVGID_4_)" fill="#813A8D" d="M56.383301,337.522949h45.892578
			c-14.431641,5.977539-30.025879,9.135742-45.892578,9.141602V337.522949z"/>
		<path clip-path="url(#SVGID_4_)" fill="#A5E4DB" d="M75.170898,364.367676l10.89209-10.892578v-0.333984
			c0-1.415039-0.895996-2.637695-2.170898-3.105469l-14.332031,14.332031H75.170898z"/>
		<path clip-path="url(#SVGID_4_)" fill="#FFFFFF" d="M88.850586,352.321777c-0.95166,0-1.722656-0.386719-1.722656-0.862305
			s0.770996-0.861328,1.722656-0.861328c0.952148,0,1.723145,0.385742,1.723145,0.861328S89.802734,352.321777,88.850586,352.321777
			"/>
		<path clip-path="url(#SVGID_4_)" fill="#A5E4DB" d="M52.391602,404.005371l-10.120605,10.121094l-15.503418-20.735352
			C33.84375,400.467285,43.117676,404.005371,52.391602,404.005371"/>
		<path clip-path="url(#SVGID_4_)" fill="#170035" d="M58.235352,414.338379l2.745117-5.489258l-2.778809-2.78125
			c-1.004395-1.00293-2.631348-1.00293-3.635254,0l-2.779785,2.78125l2.743652,5.489258H58.235352z"/>
		<path clip-path="url(#SVGID_4_)" fill="#231E5A" d="M95.885254,369.942871c1.390137-2.196289,2.273926-4.707031,2.566895-7.348633
			l-6.293945-6.293945v9.967773l0.021973,0.022461c-0.21875,5.68457-1.934082,11.117188-4.895996,15.775391
			c-1.028809,1.617188-0.550781,3.762695,1.066895,4.791992c1.618164,1.02832,3.763184,0.550781,4.791992-1.067383
			c2.881348-4.530273,4.03418-10.160156,2.775391-15.814453L95.885254,369.942871z"/>
		<path clip-path="url(#SVGID_4_)" fill="#72C4C6" d="M41.234375,360.01123l7.924316-7.923828
			c-1.439941-0.485352-2.896973-0.900391-4.368164-1.244141l-9.166992,9.167969H41.234375z"/>
		<path clip-path="url(#SVGID_4_)" fill="#170035" d="M25.772949,382.093262
			c-2.955078-4.647461-4.664062-10.070312-4.874023-15.743164l-0.025879,0.025391v-9.916016l-6.263184,6.262695
			c0.293945,2.639648,1.178223,5.150391,2.573242,7.34375c-1.251953,5.625977-0.10498,11.225586,2.760742,15.734375
			c1.023926,1.609375,3.158203,2.084961,4.768066,1.060547C26.320801,385.836426,26.796875,383.702637,25.772949,382.093262"/>
		<path clip-path="url(#SVGID_4_)" fill="#170035" d="M327.998047,291.557129v-0.097656
			c-3.147461-1.850586-6.808594-2.917969-10.728516-2.881836c-8.720703,0.079102-16.47168,4.126953-21.55957,10.414062
			c-3.975586,4.887695-6.336914,11.138672-6.275391,17.935547c0,1.671875-0.675781,3.186523-1.767578,4.287109
			c-1.101562,1.089844-2.613281,1.764648-4.285156,1.764648c-3.365234,0-6.094727-2.729492-6.094727-6.094727
			c0,0.433594,0.044922,0.853516,0.088867,1.274414c-0.081055-0.398438-0.125-0.80957-0.125-1.231445
			c0,4.662109,2.62207,8.708008,6.46875,10.756836c-0.000977,3.370117-1.368164,6.416992-3.572266,8.62793
			c-0.266602,0.267578-0.547852,0.522461-0.838867,0.764648c-2.115234,1.74707-4.824219,2.796875-7.78125,2.796875
			c-0.009766,0.009766-0.017578,0.019531-0.02832,0.030273h-0.001953c-9.875,9.875977-9.875,25.881836-0.003906,35.754883
			l14.329102,14.329102c1.498047,1.49707,3.567383,2.421875,5.851562,2.421875c0.007812,0,0.014648-0.000977,0.021484-0.000977
			s0.013672,0.000977,0.022461,0.000977c4.574219,0,8.28125-3.708008,8.28125-8.282227
			c-1.268555-1.267578-1.935547-2.914062-1.999023-4.577148v-4.804688l-7.885742-13.972656
			c1.327148-0.007812,2.59082-0.280273,3.741211-0.770508c3.483398-1.46582,5.928711-4.910156,5.928711-8.927734
			c-4.385742-4.390625-4.397461-11.490234-0.037109-15.897461c2.494141,2.441406,6.303711,2.709961,9.088867,0.826172
			c0.413086-0.274414,0.807617-0.591797,1.169922-0.959961c2.795898-2.847656,2.753906-7.420898-0.094727-10.21875
			c-1.319336-1.296875-2.144531-3.098633-2.163086-5.09375c-0.044922-4.851562,1.613281-9.31543,4.404297-12.84668
			c0.055664-0.069336,0.105469-0.144531,0.161133-0.214844c0.244141-0.298828,0.510742-0.578125,0.770508-0.863281
			c0.192383-0.209961,0.373047-0.429688,0.573242-0.631836c0.091797-0.091797,0.194336-0.173828,0.287109-0.263672
			c3.625977-3.509766,8.541992-5.697266,13.991211-5.746094c0.030273,0,0.05957,0.00293,0.09082,0.00293v-7.594727
			C328.017578,291.566895,328.007812,291.562012,327.998047,291.557129"/>
		<path clip-path="url(#SVGID_4_)" fill="#A5E4DB" d="M346.453125,301.263184c0-4.87793-3.952148-8.828125-8.826172-8.828125
			c-2.188477,0-4.186523,0.798828-5.727539,2.115234c3.592773,3.493164,5.938477,8.265625,6.274414,13.602539
			c0.000977,0.02832,0.00293,0.056641,0.003906,0.084961c0.016602,0.293945,0.048828,0.583984,0.052734,0.880859
			c0.000977,0.054688,0.007812,0.109375,0.007812,0.164062c0,2.311523-0.775391,4.435547-2.069336,6.146484
			c4.353516-0.628906,8.935547,0.71582,12.286133,4.066406c0,5.073242,4.112305,9.186523,9.182617,9.186523
			c3.587891,3.585938,3.587891,9.400391-0.000977,12.988281l-0.000977-0.001953c4.851562,4.850586,4.851562,12.716797,0,17.567383
			l3.50293,3.50293l-7.891602,12.209961v4.801758c-0.0625,1.663086-0.728516,3.308594-1.996094,4.576172
			c0,4.331055,3.337891,7.845703,7.578125,8.206055c-1.31543-0.352539-2.286133-1.541992-2.286133-2.967773
			c0-5.15918,4.185547-9.34668,9.345703-9.34668c3.617188,0,6.550781-2.932617,6.550781-6.551758
			s-2.933594-6.550781-6.550781-6.550781c9.658203,0,17.484375-7.827148,17.484375-17.483398v-11.448242
			C383.373047,317.791504,366.844727,301.263184,346.453125,301.263184"/>
		<path clip-path="url(#SVGID_4_)" fill="none" stroke="#FFFFFF" stroke-linecap="round" stroke-linejoin="round" d="
			M368.375,316.260254c-5.864258-5.865234-13.650391-9.094727-21.922852-9.094727 M340.551758,301.263184
			c0-1.614258-1.3125-2.926758-2.925781-2.926758c-0.381836,0-0.69043-0.307617-0.69043-0.688477"/>
		<path clip-path="url(#SVGID_4_)" fill="#808080" d="M338.230469,309.117676
			c-0.005859-0.325195-0.022461-0.647461-0.056641-0.964844c0.001953,0.02832,0.00293,0.056641,0.003906,0.084961
			C338.210938,308.527832,338.223633,308.821777,338.230469,309.117676"/>
		<path clip-path="url(#SVGID_4_)" fill="#3D3D3D" d="M338.240234,309.281738c0-0.054688-0.008789-0.108398-0.009766-0.164062
			v0.000977C338.231445,309.17334,338.240234,309.227051,338.240234,309.281738"/>
		<path clip-path="url(#SVGID_4_)" fill="#3D3D3D" d="M338.230469,309.118652v-0.000977
			c-0.006836-0.294922-0.019531-0.589844-0.052734-0.878906C338.194336,308.531738,338.226562,308.821777,338.230469,309.118652"/>
		<path clip-path="url(#SVGID_4_)" fill="#170035" d="M335.855469,381.97998c0,1.219727-3.672852,2.208008-8.202148,2.208008
			s-8.201172-0.988281-8.201172-2.208008s3.671875-2.208008,8.201172-2.208008S335.855469,380.760254,335.855469,381.97998"/>
		<path clip-path="url(#SVGID_4_)" fill="#170035" d="M353.736328,352.131348h-5.145508
			c-1.302734-1.914062-3.499023-3.172852-5.989258-3.172852c-3.996094,0-7.240234,3.240234-7.240234,7.236328
			c3.996094-3.99707,10.480469-3.99707,14.480469,0c0-0.116211-0.02832-0.225586-0.03418-0.34082l0.103516,0.102539
			L353.736328,352.131348z"/>
		<path clip-path="url(#SVGID_4_)" fill="#56CCBB" d="M350.124023,340.605957l-13.430664,2.93457
			c0.50293,1.322266,2.787109,1.955078,4.24707,0.926758c0,0,5.385742-2.604492,9.707031-1.40625
			c2.588867,0.71582,5.34375,2.331055,5.34375,2.331055L350.124023,340.605957z"/>
		<path clip-path="url(#SVGID_4_)" fill="#009696" d="M306.023438,340.605957l13.427734,2.93457
			c-0.5,1.322266-2.790039,1.955078-4.246094,0.926758c0,0-4.494141-2.604492-8.81543-1.40625
			c-2.588867,0.71582-6.233398,2.331055-6.233398,2.331055L306.023438,340.605957z"/>
		<path clip-path="url(#SVGID_4_)" fill="#170035" d="M312.210938,348.958496c-2.490234,0-4.68457,1.258789-5.988281,3.172852
			h-5.147461l3.827148,3.825195l0.103516-0.103516c-0.004883,0.115234-0.03418,0.224609-0.03418,0.341797
			c3.998047-3.998047,10.483398-3.998047,14.479492,0C319.451172,352.19873,316.207031,348.958496,312.210938,348.958496"/>
		<path clip-path="url(#SVGID_4_)" fill="#F4AEAA" d="M327.857422,388.524902c4.681641,0,8.876953-4.155273,11.27832-6.558594
			l-3.464844,0.006836l-7.813477,1.305664"/>
		<path clip-path="url(#SVGID_4_)" fill="#EA6B74" d="M326.34668,383.026855l-6.306641-1.053711l-3.463867-0.006836
			c2.402344,2.404297,6.594727,6.557617,11.28125,6.557617v-1.462891v-3.782227L326.34668,383.026855z"/>
		<path clip-path="url(#SVGID_4_)" fill="#E5334A" d="M325.894531,380.681152c-0.855469,0.856445-1.975586,1.28418-3.094727,1.28418
			l-6.21582,0.000977c0.116211-0.399414,3.637695-4.387695,7.34375-4.387695c2.024414,0,3.224609,0.550781,3.933594,0.557617
			l-0.001953,3.363281C327.148438,381.496582,326.4375,381.224121,325.894531,380.681152"/>
		<path clip-path="url(#SVGID_4_)" fill="#E7445B" d="M329.825195,380.681152c0.851562,0.856445,1.97168,1.28418,3.092773,1.28418
			l6.217773,0.000977c-0.119141-0.399414-3.640625-4.387695-7.345703-4.387695c-2.023438,0-3.224609,0.550781-3.932617,0.557617
			l0.000977,3.363281C328.570312,381.496582,329.28125,381.224121,329.825195,380.681152"/>
		<polygon clip-path="url(#SVGID_4_)" fill="#FFFFFF" points="357.572266,341.851074 357.572266,341.850098 357.571289,341.848145 
					"/>
		<path clip-path="url(#SVGID_4_)" fill="#170035" d="M340.283203,374.990723c0,0.399414-0.321289,0.72168-0.719727,0.72168
			c-0.397461,0-0.719727-0.322266-0.719727-0.72168c0-0.397461,0.322266-0.719727,0.719727-0.719727
			C339.961914,374.270996,340.283203,374.593262,340.283203,374.990723"/>
		<path clip-path="url(#SVGID_4_)" fill="#FFEE81" d="M295.148438,375.912598c0,1.005859-0.817383,1.824219-1.825195,1.824219
			c-1.006836,0-1.821289-0.818359-1.821289-1.824219c0-1.006836,0.814453-1.824219,1.821289-1.824219
			C294.331055,374.088379,295.148438,374.905762,295.148438,375.912598"/>
		<path clip-path="url(#SVGID_4_)" fill="#FFFFFF" d="M355.860352,376.197754c0,1.008789,0.81543,1.824219,1.824219,1.824219
			c1.006836,0,1.821289-0.81543,1.821289-1.824219c0-1.005859-0.814453-1.824219-1.821289-1.824219
			C356.675781,374.373535,355.860352,375.191895,355.860352,376.197754"/>
		<path clip-path="url(#SVGID_4_)" fill="#D3A3FB" d="M348.527344,405.254395c0-2.097656-1.704102-3.803711-3.803711-3.803711
			s-3.801758,1.706055-3.801758,3.803711c0,2.099609,1.702148,3.801758,3.801758,3.801758
			S348.527344,407.354004,348.527344,405.254395"/>
		<path clip-path="url(#SVGID_4_)" fill="#FFFFFF" d="M346.435547,405.945801c-0.381836,0-0.691406-0.308594-0.691406-0.691406
			c0-0.560547-0.458984-1.018555-1.021484-1.018555c-0.380859,0-0.691406-0.308594-0.691406-0.691406
			c0-0.381836,0.310547-0.69043,0.691406-0.69043c1.325195,0,2.404297,1.077148,2.404297,2.400391
			C347.126953,405.637207,346.817383,405.945801,346.435547,405.945801"/>
		<path clip-path="url(#SVGID_4_)" fill="#D3A3FB" d="M342.383789,409.67041c0-2.100586-1.704102-3.804688-3.801758-3.804688
			c-2.099609,0-3.803711,1.704102-3.803711,3.804688c0,2.098633,1.704102,3.800781,3.803711,3.800781
			C340.679688,413.471191,342.383789,411.769043,342.383789,409.67041"/>
		<path clip-path="url(#SVGID_4_)" fill="#FFFFFF" d="M340.293945,410.36084c-0.382812,0-0.691406-0.308594-0.691406-0.69043
			c0-0.563477-0.457031-1.021484-1.019531-1.021484c-0.382812,0-0.691406-0.30957-0.691406-0.691406
			s0.308594-0.69043,0.691406-0.69043c1.324219,0,2.401367,1.077148,2.401367,2.40332
			C340.984375,410.052246,340.675781,410.36084,340.293945,410.36084"/>
		<path clip-path="url(#SVGID_4_)" fill="#D3A3FB" d="M335.125977,411.934082c0-2.098633-1.704102-3.802734-3.801758-3.802734
			c-2.100586,0-3.802734,1.704102-3.802734,3.802734c0,2.097656,1.702148,3.801758,3.802734,3.801758
			C333.421875,415.73584,335.125977,414.031738,335.125977,411.934082"/>
		<path clip-path="url(#SVGID_4_)" fill="#FFFFFF" d="M333.036133,412.624512c-0.381836,0-0.691406-0.308594-0.691406-0.69043
			c0-0.564453-0.456055-1.023438-1.018555-1.023438c-0.380859,0-0.691406-0.308594-0.691406-0.69043
			c0-0.382812,0.310547-0.691406,0.691406-0.691406c1.324219,0,2.401367,1.079102,2.401367,2.405273
			C333.727539,412.315918,333.417969,412.624512,333.036133,412.624512"/>
		<path clip-path="url(#SVGID_4_)" fill="#985EB5" d="M306.516602,405.254395c0-2.097656,1.704102-3.803711,3.801758-3.803711
			c2.101562,0,3.802734,1.706055,3.802734,3.803711c0,2.099609-1.701172,3.801758-3.802734,3.801758
			C308.220703,409.056152,306.516602,407.354004,306.516602,405.254395"/>
		<path clip-path="url(#SVGID_4_)" fill="#985EB5" d="M312.660156,409.67041c0-2.100586,1.704102-3.804688,3.801758-3.804688
			c2.100586,0,3.802734,1.704102,3.802734,3.804688c0,2.098633-1.702148,3.800781-3.802734,3.800781
			C314.364258,413.471191,312.660156,411.769043,312.660156,409.67041"/>
		<path clip-path="url(#SVGID_4_)" fill="#985EB5" d="M319.916992,411.934082c0-2.098633,1.704102-3.802734,3.803711-3.802734
			s3.800781,1.704102,3.800781,3.802734c0,2.097656-1.701172,3.801758-3.800781,3.801758
			S319.916992,414.031738,319.916992,411.934082"/>
		<path clip-path="url(#SVGID_4_)" fill="#56CCBB" d="M338.230469,309.118652
			c-0.003906-0.296875-0.036133-0.586914-0.052734-0.879883c-0.530273-4.779297-4.352539-8.546875-9.131836-9.019531
			c-0.335938-0.032227-0.675781-0.051758-1.019531-0.051758v20.328125c3.330078,0,6.279297-1.600586,8.143555-4.067383
			c1.292969-1.710938,2.069336-3.834961,2.069336-6.144531C338.239258,309.228027,338.231445,309.174316,338.230469,309.118652"/>
		<path clip-path="url(#SVGID_4_)" fill="#009696" d="M338.173828,308.152832
			c-0.335938-5.336914-2.681641-10.109375-6.274414-13.602539c-1.168945-1.134766-2.466797-2.138672-3.874023-2.977539v7.594727
			c0.345703,0,0.68457,0.019531,1.020508,0.051758c4.780273,0.472656,8.601562,4.240234,9.131836,9.018555
			C338.176758,308.209473,338.174805,308.181152,338.173828,308.152832"/>
		<path clip-path="url(#SVGID_4_)" fill="#009696" d="M327.93457,299.164551
			c-11.154297,0.099609-20.12207,9.125-20.223633,20.229492c5.652344-5.535156,14.708984-5.504883,20.314453,0.100586v-20.326172
			C327.996094,299.168457,327.96582,299.164551,327.93457,299.164551"/>
		<path clip-path="url(#SVGID_4_)" fill="#231E5A" d="M506.111328,64.812988c0-2.009766-0.192383-4.004883-0.572266-5.995117
			c-2.259766-14.07666-10.547852-32.654785-13.676758-39.332031c-0.050781-0.120605-0.114258-0.233887-0.165039-0.353516
			c-0.650391-1.378418-1.043945-2.17041-1.043945-2.17041l-0.004883,0.027344C485.237305,6.840332,474.537109-0.056152,462.238281,0
			c-17.69043-0.080078-32.09668,14.203125-32.175781,31.894043c0.003906,4.347168-2.558594,7.991211-4.994141,11.999023
			c-8.668945,14.282227-9.158203,26.26123-0.211914,42.074219l17.417969,7.411621
			c-13.371094-34.733887-7.438477-55.992676-7.438477-55.992676l1.099609-8.310059l0.646484,14.63916l15.216797,0.064941
			l1.516602-24.361328l1.316406,24.374023l4.776367,0.021973h5.665039l4.774414-0.021973l2.830078-0.012695l4.333984-0.019043
			l1.3125-11.496094l0.981445,11.487793l8.588867-0.037598l0.651367-14.63916l1.100586,8.310059
			c0,0,5.928711,21.258789-7.439453,55.992676l17.412109-7.411621c3.524414-6.220215,5.5625-11.846191,6.237305-17.256348H505.875
			C506.06543,67.518066,506.132812,66.205078,506.111328,64.812988"/>
		<path clip-path="url(#SVGID_4_)" fill="#170035" d="M447.228516,46.461914l10.830078,3.384766
			c-1.145508,1.615234-3.37793,1.999023-4.991211,0.861328c0,0-4.227539-2.90332-9.066406-1.825195l-4.841797,1.075195
			L447.228516,46.461914z"/>
		<path clip-path="url(#SVGID_4_)" fill="#170035" d="M477.248047,46.461914l-10.829102,3.384766
			c1.143555,1.615234,3.375,1.999023,4.985352,0.861328c0,0,4.231445-2.90332,9.068359-1.825195l4.841797,1.075195
			L477.248047,46.461914z"/>
		<path clip-path="url(#SVGID_4_)" fill="#EA6B74" d="M451.667969,79.84668c2.654297,2.653809,6.316406,4.294922,10.354492,4.294922
			c4.03418,0,7.700195-1.641113,10.354492-4.294922l-10.354492-2.540039L451.667969,79.84668z"/>
		<path clip-path="url(#SVGID_4_)" fill="#F4AEAA" d="M462.021484,77.306152l10.356445,2.540039
			c-2.655273,2.653809-6.321289,4.294922-10.356445,4.294922V77.306152z"/>
		<path clip-path="url(#SVGID_4_)" fill="#E7445B" d="M462.021484,76.974609c0.783203-0.01123,2.535156-1.05127,3.442383-1.05127
			c2.883789,0,7.663086,3.643066,7.663086,3.643066c-0.554688,0.555176-1.322266,0.900391-2.170898,0.900391l-6.767578-0.593262
			c-0.553711,0.554199-1.322266,0.896973-2.166992,0.896973V76.974609z"/>
		<path clip-path="url(#SVGID_4_)" fill="#E5334A" d="M462.021484,76.974609c-0.785156-0.01123-2.537109-1.05127-3.445312-1.05127
			c-2.880859,0-7.65918,3.643066-7.65918,3.643066c0.556641,0.555176,1.324219,0.900391,2.169922,0.900391l6.763672-0.593262
			c0.557617,0.554199,1.328125,0.896973,2.170898,0.896973V76.974609z"/>
		<path clip-path="url(#SVGID_4_)" fill="#FFFFFF" d="M441.719727,112.778809l-21.179688,2.161621l16.478516-14.779785
			c2.262695-0.849121,4.84375-0.833008,7.211914,0.242188c2.365234,1.07666,4.072266,3.014648,4.918945,5.277832l7.568359,19.149902
			L441.719727,112.778809z"/>
		<path clip-path="url(#SVGID_4_)" fill="#FFEE81" d="M441.719727,112.778809l14.998047,12.051758l-7.568359-19.149902
			c-0.84668-2.263184-2.553711-4.201172-4.918945-5.277832L441.719727,112.778809z"/>
		<path clip-path="url(#SVGID_4_)" fill="#FFFFFF" d="M483.446289,112.778809l21.183594,2.161621l-16.483398-14.779785
			c-2.261719-0.849121-4.84375-0.833008-7.211914,0.242188c-2.362305,1.07666-4.072266,3.014648-4.918945,5.277832
			l-7.56543,19.149902L483.446289,112.778809z"/>
		<path clip-path="url(#SVGID_4_)" fill="#FFC80A" d="M483.446289,112.778809l-14.996094,12.051758l7.56543-19.149902
			c0.84668-2.263184,2.556641-4.201172,4.918945-5.277832L483.446289,112.778809z"/>
		<path clip-path="url(#SVGID_4_)" fill="#170035" d="M433.831055,16.975586v-0.013184c0,0-0.370117,0.749023-0.986328,2.046387
			c-0.080078,0.183594-0.177734,0.358887-0.254883,0.544922c-3.145508,6.71582-11.359375,25.157715-13.633789,39.178711
			c-0.396484,2.054199-0.595703,4.110352-0.583008,6.183105c-0.015625,1.35498,0.050781,2.631836,0.234375,3.795898h0.018555
			c0.672852,5.410156,2.708984,11.035156,6.230469,17.256348l17.416992,7.411621
			c-13.370117-34.734863-7.4375-55.992676-7.4375-55.992676l1.099609-8.310059l0.646484,14.63916l15.217773,0.063965
			l1.514648-24.360352l1.317383,24.374023l4.777344,0.020996h2.612305V0.007812
			C449.819336,0.038574,439.214844,6.900391,433.831055,16.975586"/>
		<path clip-path="url(#SVGID_4_)" fill="none" stroke="#4648AA" stroke-miterlimit="10" d="M496.988281,83.416504
			c7.618164-13.865234,6.636719-23.532227,1.398438-37.682129"/>
		<path clip-path="url(#SVGID_4_)" fill="none" stroke="#4648AA" stroke-miterlimit="10" d="M482.272461,12.342773
			c-5.375-5.523926-12.567383-8.565918-20.250977-8.565918"/>
		<path clip-path="url(#SVGID_4_)" fill="#56CCBB" d="M216.294434,82.826172c-13.231445-13.230957-34.682129-13.230957-47.913086,0
			c-2.165039,2.163574-2.165039,5.674805,0,7.839844s5.674805,2.165039,7.839844,0
			c4.443848-4.442871,10.280762-6.665039,16.117188-6.665039c5.835938,0,11.672852,2.222168,16.116699,6.665039
			c2.165039,2.165039,5.675293,2.165039,7.840332,0C218.459961,88.500977,218.459961,84.989746,216.294434,82.826172"/>
		<path clip-path="url(#SVGID_4_)" fill="#009696" d="M168.381348,82.825684c-2.165039,2.165039-2.165039,5.674805,0,7.839844
			s5.674805,2.165039,7.839844,0c4.443848-4.442871,10.280762-6.664062,16.117188-6.664062V72.902832
			C183.666992,72.902832,174.99707,76.210449,168.381348,82.825684"/>
		<path clip-path="url(#SVGID_4_)" fill="#A5E4DB" d="M228.551758,17.066406l-3.039062,3.039062h-0.001953
			c-2.657227-0.852051-5.458008-1.293945-8.328125-1.293945c-7.254883,0-14.077148,2.826172-19.207031,7.956055
			c-2.416016,2.416016-4.299805,5.216797-5.63916,8.251953v14.59082c3.174316,0,6.348145-1.210938,8.77002-3.632812
			c-0.000977-4.115234,1.569336-8.230957,4.708008-11.370117c6.279297-6.278809,16.458008-6.278809,22.737305,0
			C233.394531,29.763672,233.394531,21.910645,228.551758,17.066406"/>
		<path clip-path="url(#SVGID_4_)" fill="#A5E4DB" d="M223.836426,13.942383
			c-17.397949-17.397949-45.603027-17.396973-63.000977,0.000977c2.178711-0.449219,4.405762-0.675293,6.653809-0.675293
			c8.737305,0,16.949219,3.402344,23.12793,9.579102c0.598145,0.599121,1.171387,1.219238,1.719238,1.859375
			c0.547852-0.640137,1.121094-1.260254,1.717773-1.859375c6.179199-6.176758,14.391113-9.579102,23.128418-9.579102
			C219.432617,13.268066,221.65918,13.494141,223.836426,13.942383"/>
		<path clip-path="url(#SVGID_4_)" fill="#A5E4DB" d="M192.335938,0.894531v23.812012
			c0.547852-0.640137,1.121094-1.260254,1.719238-1.859375c6.177734-6.176758,14.389648-9.578613,23.12793-9.578613
			c2.249023,0,4.476074,0.226074,6.652832,0.673828C215.138184,5.243652,203.736816,0.894531,192.335938,0.894531"/>
		<path clip-path="url(#SVGID_4_)" fill="#231E5A" d="M192.337402,67.106445c-10.658691,0-19.811035,6.402344-23.854004,15.564941
			c13.205078-13.098633,34.501953-13.099609,47.708008,0C212.148438,73.508789,202.996582,67.106445,192.337402,67.106445"/>
		<path clip-path="url(#SVGID_4_)" fill="#231E5A" d="M168.381348,82.763672v0.000977v0.061035
			c0-0.021973,0.00293-0.042969,0.00293-0.064941C168.383301,82.761719,168.382324,82.762695,168.381348,82.763672"/>
		<path clip-path="url(#SVGID_4_)" fill="#231E5A" d="M216.290527,82.76123c0,0.021973,0.004395,0.042969,0.004395,0.064941
			V82.76416C216.293457,82.763184,216.291504,82.762207,216.290527,82.76123"/>
		<path clip-path="url(#SVGID_4_)" fill="#56CCBB" d="M192.337402,58.869141c-13.230957,0-23.957031,10.726074-23.957031,23.957031
			v0.061035c3.994141-9.278809,13.212891-15.780762,23.957031-15.780762s19.963867,6.501953,23.957031,15.781738v-0.062012
			C216.294434,69.595215,205.568359,58.869141,192.337402,58.869141"/>
		<path clip-path="url(#SVGID_4_)" fill="#A5E4DB" d="M192.337402,58.869141v8.237305
			c10.744141,0,19.963867,6.501953,23.957031,15.781738v-0.062012C216.294434,69.595215,205.568359,58.869141,192.337402,58.869141"
			/>
		<path clip-path="url(#SVGID_4_)" fill="#009696" d="M228.357422,104.255371
			c-5.320801,4.951172-12.433105,8.001953-20.273926,8.001953c6.817871,0,12.344727,5.527344,12.344727,12.345215
			c4.821289-4.821289,12.638184-4.821289,17.458984,0c0-6.102051,4.432129-11.157227,10.249023-12.153809L228.357422,104.255371z"/>
		<path clip-path="url(#SVGID_4_)" fill="#A5E4DB" d="M248.137695,94.608398c-5.818359-0.99707-10.25-6.052246-10.25-12.154297
			l-0.002441,0.000977c0,7.433105-2.763672,14.192383-7.266602,19.410156L248.137695,94.608398z"/>
		<path clip-path="url(#SVGID_4_)" fill="#56CCBB" d="M248.883789,96.416016l-17.170898,7.112305l17.173828,7.11377
			C245.876465,106.38916,245.876465,100.668945,248.883789,96.416016"/>
		<path clip-path="url(#SVGID_4_)" fill="#170035" d="M156.319336,104.255371
			c5.320801,4.951172,12.432617,8.001953,20.273926,8.001953c-6.818848,0-12.345215,5.527344-12.345215,12.345215
			c-4.820801-4.821289-12.637695-4.821289-17.458984,0c0-6.102051-4.431641-11.157227-10.249023-12.153809L156.319336,104.255371z"
			/>
		<path clip-path="url(#SVGID_4_)" fill="#56CCBB" d="M136.539062,94.608398c5.817871-0.99707,10.25-6.052246,10.25-12.154297
			l0.000977,0.000977c0,7.433105,2.765137,14.192383,7.268066,19.410156L136.539062,94.608398z"/>
		<path clip-path="url(#SVGID_4_)" fill="#009696" d="M135.792969,96.416016l17.170898,7.112305l-17.173828,7.11377
			C138.799805,106.38916,138.799805,100.668945,135.792969,96.416016"/>
		<path clip-path="url(#SVGID_4_)" fill="none" stroke="#FFFFFF" stroke-linecap="round" stroke-linejoin="round" d="
			M192.335938,6.437988c5.005859,0,9.868164,0.937012,14.387207,2.727051"/>
		<path clip-path="url(#SVGID_4_)" fill="#009696" d="M186.696777,26.767578
			c-5.129883-5.130859-11.952148-7.956055-19.207031-7.956055c-2.870117,0-5.670898,0.441895-8.328125,1.293945h-0.001953
			l-3.039062-3.039062c-4.84375,4.844238-4.84375,12.697266,0,17.540039c6.27832-6.277832,16.458008-6.277832,22.737305,0
			c3.138672,3.140137,4.708984,7.256348,4.708008,11.371094c2.421875,2.421875,5.595703,3.633301,8.77002,3.633301V35.019531
			C190.996582,31.984375,189.112793,29.183594,186.696777,26.767578"/>
		<path clip-path="url(#SVGID_4_)" fill="none" stroke="#FFFFFF" stroke-linecap="round" stroke-linejoin="round" d="
			M197.30957,44.130859c-1.439941,1.038086-3.163086,1.599121-4.973145,1.599121"/>
		<path clip-path="url(#SVGID_4_)" fill="#170035" d="M180.140137,94.585449c-2.095215,2.09375-4.87793,3.248047-7.839844,3.248047
			c5.533691,5.532715,12.785645,8.299805,20.037598,8.298828V89.544434
			C187.724121,89.544434,183.39209,91.335449,180.140137,94.585449"/>
		<path clip-path="url(#SVGID_4_)" fill="#009696" d="M204.536133,94.585449c2.094727,2.09375,4.87793,3.248047,7.839844,3.248047
			c-5.532715,5.532715-12.786133,8.299805-20.038086,8.298828V89.544434
			C196.952148,89.544434,201.28418,91.335449,204.536133,94.585449"/>
	</g>
</g>
</svg>
