<svg version="1.1" id="Calque_1" xmlns="http://www.w3.org/2000/svg" xmlns:xlink="http://www.w3.org/1999/xlink" x="0px" y="0px"
	 width="77px" height="74.638184px" viewBox="0 0 77 74.638184" enable-background="new 0 0 77 74.638184" xml:space="preserve">
<g>
	<defs>
		<rect id="SVGID_1_" width="77" height="74.638184"/>
	</defs>
	<clipPath id="SVGID_2_">
		<use xlink:href="#SVGID_1_"  overflow="visible"/>
	</clipPath>
	<path clip-path="url(#SVGID_2_)" fill="#6666D5" d="M52.919922,64.95166h-2.225586c-2.206055,0-4-1.793945-4-4v-0.282227
		c0-2.206055,1.793945-4,4-4h3.826172c0.552734,0,1,0.448242,1,1c0,0.552734-0.447266,1-1,1h-3.826172c-1.102539,0-2,0.897461-2,2
		v0.282227c0,1.102539,0.897461,2,2,2h2.225586c0.552734,0,1,0.448242,1,1S53.472656,64.95166,52.919922,64.95166"/>
	<path clip-path="url(#SVGID_2_)" fill="#6666D5" d="M54.520508,70.689941h-3.09082c-2.0625,0-3.740234-1.677734-3.740234-3.741211
		v-0.256836c0-2.0625,1.677734-3.740234,3.740234-3.740234h3.09082c0.552734,0,1,0.447266,1,1s-0.447266,1-1,1h-3.09082
		c-0.959961,0-1.740234,0.780273-1.740234,1.740234v0.256836c0,0.959961,0.780273,1.741211,1.740234,1.741211h3.09082
		c0.552734,0,1,0.448242,1,1S55.073242,70.689941,54.520508,70.689941"/>
	<path clip-path="url(#SVGID_2_)" fill="#6666D5" d="M76,74.638184H54.214844c-2.0625,0-3.741211-1.677734-3.741211-3.740234
		v-0.257812c0-0.445312,0.078125-0.881836,0.233398-1.298828c0.191406-0.519531,0.766602-0.78125,1.286133-0.588867
		c0.517578,0.191406,0.78125,0.767578,0.588867,1.286133c-0.072266,0.192383-0.108398,0.395508-0.108398,0.601562v0.257812
		c0,0.958984,0.78125,1.740234,1.741211,1.740234H76c0.552734,0,1,0.448242,1,1S76.552734,74.638184,76,74.638184"/>
	<path clip-path="url(#SVGID_2_)" fill="#6666D5" d="M52.516602,58.665527H38.529297c-2.0625,0-3.740723-1.677734-3.740723-3.741211
		V54.66748c0-2.063477,1.678223-3.740234,3.740723-3.740234H59.19043l-0.001953-8.047852
		c-0.022461-2.124023,1.695312-3.878906,3.828125-3.901367l0.269531-0.00293h0.041016
		c1.864258,0,3.334961,1.382812,3.84375,3.618164l1.506836,7.711914c1.65918,0.464844,5.975586,1.996094,7.808594,5.683594
		c0.246094,0.494141,0.043945,1.09375-0.450195,1.34082c-0.49707,0.245117-1.094727,0.043945-1.34082-0.451172
		c-1.816406-3.65332-7.027344-4.768555-7.080078-4.780273l-0.650391-0.134766l-1.75-8.956055
		c-0.134766-0.591797-0.602539-2.032227-1.888672-2.032227h-0.018555l-0.269531,0.00293
		c-1.03125,0.011719-1.860352,0.859375-1.849609,1.890625l0.001953,8.554688l-0.008789,1.503906H38.529297
		c-0.959473,0-1.740723,0.780273-1.740723,1.740234v0.256836c0,0.959961,0.78125,1.741211,1.740723,1.741211h13.987305
		c0.552734,0,1,0.448242,1,1S53.069336,58.665527,52.516602,58.665527"/>
	<path clip-path="url(#SVGID_2_)" fill="#6666D5" d="M32.5,43.519043v-13.23584l13.236328,6.617676L32.5,43.519043z M34.5,33.519043
		v6.763672l6.763672-3.381836L34.5,33.519043z"/>
	<path clip-path="url(#SVGID_2_)" fill="#6666D5" d="M26.305664,17.96875h-3.826172c-0.552734,0-1-0.447754-1-1
		c0-0.551758,0.447266-1,1-1h3.826172c1.103027,0,2-0.896973,2-2v-0.281738c0-1.103027-0.896973-2-2-2H24.07959
		c-0.551758,0-1-0.447266-1-1c0-0.552246,0.448242-1,1-1h2.226074c2.206055,0,4,1.794922,4,4v0.281738
		C30.305664,16.174805,28.511719,17.96875,26.305664,17.96875"/>
	<path clip-path="url(#SVGID_2_)" fill="#6666D5" d="M25.570312,11.687012h-3.09082c-0.553223,0-1-0.448242-1-1
		c0-0.552246,0.446777-1,1-1h3.09082c0.959961,0,1.739746-0.78125,1.739746-1.741211V7.688965
		c0-0.959961-0.779785-1.741211-1.739746-1.741211h-3.09082c-0.553223,0-1-0.447754-1-1c0-0.551758,0.446777-1,1-1h3.09082
		c2.062988,0,3.739746,1.678223,3.739746,3.741211v0.256836C29.310059,10.008789,27.633301,11.687012,25.570312,11.687012"/>
	<path clip-path="url(#SVGID_2_)" fill="#6666D5" d="M25.355469,5.949219c-0.116211,0-0.233887-0.020996-0.349121-0.062988
		c-0.51709-0.192871-0.780762-0.769043-0.587891-1.287109c0.072266-0.191895,0.10791-0.39502,0.10791-0.601074V3.741211
		C24.526367,2.78125,23.745605,2,22.785645,2H1.000488c-0.553223,0-1-0.447754-1-1c0-0.551758,0.446777-1,1-1h21.785156
		c2.062012,0,3.740723,1.678223,3.740723,3.741211v0.256836c0,0.446289-0.079102,0.883301-0.233887,1.300293
		C26.142578,5.700195,25.760742,5.949219,25.355469,5.949219"/>
	<path clip-path="url(#SVGID_2_)" fill="#6666D5" d="M13.670898,35.662598c-1.861816,0-3.333008-1.381836-3.841797-3.618164
		c-0.916992-4.691895-1.323242-6.771973-1.504395-7.710938c-1.655762-0.463867-5.977051-1.994141-7.811035-5.684082
		c-0.245605-0.493652-0.043945-1.09375,0.450195-1.34082c0.49707-0.246094,1.096191-0.042969,1.34082,0.451172
		c1.816406,3.652832,7.027344,4.769043,7.080078,4.779785l0.651367,0.135254l1.748535,8.955566
		c0.135254,0.592285,0.603027,2.032227,1.88916,2.032227h0.018066l0.271973-0.001953
		c1.027832-0.012207,1.85791-0.859863,1.848145-1.891113l-0.001953-8.555176l0.007812-1.50293h22.652832
		c0.959961,0,1.740234-0.780762,1.740234-1.740723v-0.257324c0-0.959961-0.780273-1.740723-1.740234-1.740723H24.483887
		c-0.553223,0-1-0.448242-1-1c0-0.552246,0.446777-1,1-1h13.986816c2.0625,0,3.740234,1.677734,3.740234,3.740723v0.257324
		c0,2.062988-1.677734,3.740723-3.740234,3.740723H17.810059l0.001953,8.047363
		c0.021973,2.124023-1.696289,3.878906-3.829102,3.901855l-0.270996,0.001953H13.670898z"/>
	<path clip-path="url(#SVGID_2_)" fill="#6666D5" d="M33.166992,55.848145h-2c-0.553223,0-1-0.448242-1-1c0-0.552734,0.446777-1,1-1
		h2c0.553223,0,1,0.447266,1,1C34.166992,55.399902,33.720215,55.848145,33.166992,55.848145 M27.166992,55.848145h-2
		c-0.553223,0-1-0.448242-1-1c0-0.552734,0.446777-1,1-1h2c0.553223,0,1,0.447266,1,1
		C28.166992,55.399902,27.720215,55.848145,27.166992,55.848145 M21.166992,55.848145h-2c-0.553223,0-1-0.448242-1-1
		c0-0.552734,0.446777-1,1-1h2c0.553223,0,1,0.447266,1,1C22.166992,55.399902,21.720215,55.848145,21.166992,55.848145
		 M15.166992,55.848145h-2c-0.553223,0-1-0.448242-1-1c0-0.552734,0.446777-1,1-1h2c0.553223,0,1,0.447266,1,1
		C16.166992,55.399902,15.720215,55.848145,15.166992,55.848145 M12.666992,52.348145c-0.553223,0-1-0.448242-1-1v-2
		c0-0.552734,0.446777-1,1-1s1,0.447266,1,1v2C13.666992,51.899902,13.220215,52.348145,12.666992,52.348145 M12.666992,46.348145
		c-0.553223,0-1-0.448242-1-1v-2c0-0.552734,0.446777-1,1-1s1,0.447266,1,1v2
		C13.666992,45.899902,13.220215,46.348145,12.666992,46.348145 M12.666992,40.348145c-0.553223,0-1-0.448242-1-1v-2.000488
		c0-0.551758,0.446777-1,1-1s1,0.448242,1,1v2.000488C13.666992,39.899902,13.220215,40.348145,12.666992,40.348145"/>
	<path clip-path="url(#SVGID_2_)" fill="#6666D5" d="M65,37.485352c-0.552734,0-1-0.447754-1-1v-2c0-0.551758,0.447266-1,1-1
		s1,0.448242,1,1v2C66,37.037598,65.552734,37.485352,65,37.485352 M65,31.485352c-0.552734,0-1-0.447754-1-1v-2
		c0-0.551758,0.447266-1,1-1s1,0.448242,1,1v2C66,31.037598,65.552734,31.485352,65,31.485352 M65,25.485352
		c-0.552734,0-1-0.447754-1-1v-2c0-0.551758,0.447266-1,1-1s1,0.448242,1,1v2C66,25.037598,65.552734,25.485352,65,25.485352
		 M63.833008,20.652344h-2c-0.552734,0-1-0.447754-1-1c0-0.551758,0.447266-1,1-1h2c0.552734,0,1,0.448242,1,1
		C64.833008,20.20459,64.385742,20.652344,63.833008,20.652344 M57.833008,20.652344h-2c-0.552734,0-1-0.447754-1-1
		c0-0.551758,0.447266-1,1-1h2c0.552734,0,1,0.448242,1,1C58.833008,20.20459,58.385742,20.652344,57.833008,20.652344
		 M51.833008,20.652344h-2c-0.552734,0-1-0.447754-1-1c0-0.551758,0.447266-1,1-1h2c0.552734,0,1,0.448242,1,1
		C52.833008,20.20459,52.385742,20.652344,51.833008,20.652344 M45.833008,20.652344h-2c-0.552734,0-1-0.447754-1-1
		c0-0.551758,0.447266-1,1-1h2c0.552734,0,1,0.448242,1,1C46.833008,20.20459,46.385742,20.652344,45.833008,20.652344"/>
</g>
</svg>
