<?xml version="1.0" encoding="utf-8"?>
<!-- Generator: Adobe Illustrator 15.1.0, SVG Export Plug-In . SVG Version: 6.00 Build 0)  -->
<!DOCTYPE svg PUBLIC "-//W3C//DTD SVG 1.1//EN" "http://www.w3.org/Graphics/SVG/1.1/DTD/svg11.dtd">
<svg version="1.1" id="Calque_1" xmlns="http://www.w3.org/2000/svg" xmlns:xlink="http://www.w3.org/1999/xlink" x="0px" y="0px"
	 width="90px" height="59.999512px" viewBox="0 0 90 59.999512" enable-background="new 0 0 90 59.999512" xml:space="preserve">
<path d="M25.820801,29.63623c-0.541016,0-0.979004-0.439453-0.979004-0.982422V17.205566
	c0-0.541992,0.437988-0.982422,0.979004-0.982422s0.978027,0.44043,0.978027,0.982422v11.448242
	C26.798828,29.196777,26.361816,29.63623,25.820801,29.63623"/>
<path d="M89.708984,53.030762l-8.716797-8.649414c-0.000977-0.000977-0.000977-0.000977-0.000977-0.000977
	l-0.003906-0.003906c-0.016602-0.016602-0.038086-0.021484-0.055664-0.036133
	c-0.079102-0.069336-0.164062-0.132812-0.262695-0.172852c-0.079102-0.033203-0.164062-0.040039-0.249023-0.050781
	c-0.041016-0.004883-0.078125-0.024414-0.121094-0.024414c-4.832031,0-6.984375-3.035156-7.109375-3.212891l-4.052734-5.216797
	v-5.647949l6.355469,2.084473c0.748047,1.431641,3.572266,6.451172,7.174805,8.203125
	c0.135742,0.067383,0.282227,0.098633,0.424805,0.098633c0.363281,0,0.712891-0.204102,0.881836-0.553711
	c0.235352-0.488281,0.032227-1.076172-0.455078-1.3125c-3.519531-1.712891-6.431641-7.615234-6.460938-7.675781l-0.181641-0.373047
	l-10.292969-3.376953l-0.109375-0.027344c-0.345703-0.071289-0.645508-0.275391-0.841797-0.574219
	c-0.197266-0.297852-0.266602-0.654297-0.196289-1.001953l0.041992-0.211914c0.147461-0.72168,0.855469-1.188477,1.570312-1.041992
	l13.621094,2.792969c0.530273,0.109375,1.045898-0.235352,1.15332-0.767578c0.107422-0.53125-0.232422-1.049805-0.762695-1.158203
	l-11.922852-2.443848v-4.050781l12.445312,2.493652l6.68457,8.167969c0.192383,0.237305,0.472656,0.358398,0.755859,0.358398
	c0.217773,0,0.438477-0.072266,0.620117-0.223633c0.417969-0.34375,0.478516-0.962891,0.134766-1.381836l-7.126953-8.709961
	l-13.513672-2.707031V8.523438h-4.736328V5.038574l-3.832031,0.915527v-4.97168c0-0.542969-0.4375-0.981934-0.978516-0.981934
	c-0.540039,0-0.978516,0.438965-0.978516,0.981934v0.019043c0,2.109375-0.885742,4.10791-2.378906,5.548828V0.982422
	c0-0.000488,0-0.000488,0-0.000488C56.232422,0.439941,55.794922,0,55.253906,0s-0.978516,0.439941-0.978516,0.981934
	c0,4.250977-3.446289,7.708008-7.681641,7.708008H10.779297v10.830566L0,32.068848v26.949219
	c0,0.541992,0.437012,0.981445,0.978027,0.981445s0.979004-0.439453,0.979004-0.981445v-26.21875l8.822266-10.271484v9.788086
	l-4.470703,5.251953c-0.352051,0.412109-0.303223,1.032227,0.10791,1.385742c0.409668,0.351562,1.026855,0.303711,1.37793-0.109375
	l9.030762-10.607422c0.476074-0.55957,1.31543-0.626953,1.876953-0.146484l0.164062,0.141602
	c0.268066,0.229492,0.431152,0.553711,0.458008,0.910156c0.02832,0.357422-0.083008,0.702148-0.312012,0.97168l-6.115723,9.105469
	l0.084961,0.40625c0.013184,0.06543,1.336914,6.507812-0.394043,10.040039c-0.237793,0.486328-0.039062,1.075195,0.445801,1.314453
	c0.13916,0.069336,0.286133,0.101562,0.431152,0.101562c0.36084,0,0.708984-0.202148,0.878906-0.548828
	c1.76709-3.605469,0.917969-9.304688,0.631348-10.896484l1.069336-1.59375h3.816895h2.245605v6.949219
	c-0.050293,0.306641-0.484375,2.330078-3.51709,4.045898l-0.498047,0.28125v9.699219
	c0,0.541992,0.437012,0.981445,0.978027,0.981445s0.979004-0.439453,0.979004-0.981445v-8.56543
	c3.702148-2.317383,4-5.185547,4.015137-5.395508V38.04248h8.868652c0.077637,0.019531,0.152344,0.047852,0.23584,0.047852
	h30.253906h0.978516h4.140625l3.067383,3.945312c0.107422,0.15918,2.662109,3.825195,8.272461,4.004883l8.453125,8.387695
	c0.19043,0.189453,0.439453,0.283203,0.6875,0.283203c0.251953,0,0.504883-0.09668,0.695312-0.291992
	C90.097656,54.033691,90.09375,53.411621,89.708984,53.030762z M46.59375,36.078613H23.089355
	c-0.001953,0-0.003418-0.000977-0.004883-0.000977s-0.00293,0.000977-0.004883,0.000977h-3.21875h-2.499512l3.17627-4.734375
	c0.542969-0.661133,0.804688-1.494141,0.737793-2.353516c-0.067871-0.880859-0.472168-1.681641-1.13916-2.25293l-0.162598-0.140625
	c-1.379395-1.183594-3.458008-1.018555-4.634277,0.362305l-2.603027,3.057617V10.654785H46.59375
	c3.137695,0,5.920898-1.518555,7.681641-3.854004v21.568848C54.275391,32.620605,50.829102,36.078613,46.59375,36.078613z
	 M52.666016,35.872559c2.173828-1.774414,3.566406-4.477539,3.566406-7.50293V9.043945
	c0.919922-0.614258,1.728516-1.361328,2.378906-2.227051v21.552734C58.611328,32.020996,56.066406,35.080566,52.666016,35.872559z
	 M62.443359,36.125488h-5.77832c2.363281-1.764648,3.90332-4.579102,3.90332-7.755859V7.973633l1.875-0.448242V36.125488z
	 M64.400391,10.487793h2.779297v11.803711c-1.0625-0.129395-2.081055,0.269531-2.779297,1.008301V10.487793z M67.179688,36.125488
	h-2.779297v-8.036133c0.44043,0.451172,0.999023,0.764648,1.623047,0.904297l1.15625,0.379395V36.125488z"/>
</svg>
