<?xml version="1.0" encoding="utf-8"?>
<!-- Generator: Adobe Illustrator 15.1.0, SVG Export Plug-In . SVG Version: 6.00 Build 0)  -->
<!DOCTYPE svg PUBLIC "-//W3C//DTD SVG 1.1//EN" "http://www.w3.org/Graphics/SVG/1.1/DTD/svg11.dtd">
<svg version="1.1" id="Calque_1" xmlns="http://www.w3.org/2000/svg" xmlns:xlink="http://www.w3.org/1999/xlink" x="0px" y="0px"
	 width="89.999512px" height="60.000977px" viewBox="0 0 89.999512 60.000977" enable-background="new 0 0 89.999512 60.000977"
	 xml:space="preserve">
<path d="M85.866699,32.566406l-2.40918-0.779297l-6.129883-6.630371
	c-0.185547-0.201172-0.447266-0.314941-0.724609-0.314941h-8.65625c-0.250977,0-0.493164,0.094727-0.675781,0.265625
	l-6.898438,6.472656l-2.382812,0.814453c-0.099609,0.03418-0.180664,0.091797-0.259766,0.151367l-4.787109-2.421875
	c1.773438-4.709961-0.942383-10.430176-6.396484-13.101074c-1.848145-0.904785-3.870117-1.382812-5.849121-1.382812
	c-3.547363,0-6.659668,1.522949-8.411621,4.033203l-3.820312-1.933105c0.084473-0.278809,0.056641-0.587402-0.129883-0.84082
	l-1.480957-2.01709l-1.89502-9.208008c-0.049805-0.241699-0.191895-0.45752-0.398926-0.600098l-7.094238-4.899902
	c-0.224609-0.155762-0.506836-0.209961-0.775879-0.150879L7.820312,1.987793L5.392578,1.261719L0.30127,6.091309
	c-0.389648,0.370117-0.402832,0.98291-0.027832,1.368164s0.996094,0.397949,1.384766,0.027832l4.26416-4.044922L18.876465,7.31543
	l4.593262,6.253906l-4.155273-0.740723c-0.026855-0.088379-0.066895-0.174316-0.121094-0.256348l-1.35498-2.038574
	c-0.125977-0.189941-0.315918-0.329102-0.535156-0.39502l-4.349609-1.30127c-0.254395-0.075684-0.53125-0.046875-0.76123,0.081055
	l-3.930176,2.162109c-0.361816,0.19873-0.557617,0.602051-0.489746,1.003906c0.066895,0.403809,0.383789,0.722168,0.791992,0.793945
	l15.172852,2.705078c0.858887,0.153809,1.431152,0.968262,1.275879,1.812988l-0.043945,0.233887
	c-0.07373,0.407227-0.306641,0.763184-0.654785,1.000977c-0.349121,0.239258-0.77002,0.327148-1.181152,0.255371
	c-0.038086-0.006348-0.074707-0.01123-0.111816-0.01416l-11.52832-0.731934c-0.265625-0.01709-0.525879,0.072754-0.719727,0.249023
	c-0.055176,0.047852-5.490234,4.865723-9.864258,5.173828c-0.539551,0.038086-0.945801,0.501953-0.906738,1.035156
	c0.036133,0.508789,0.466797,0.897949,0.976074,0.897949c0.022949,0,0.046875,0,0.070801-0.001953
	c4.433105-0.312012,9.419922-4.293945,10.722168-5.395996l11.071777,0.703125
	c0.913086,0.146484,1.826172-0.058105,2.586914-0.579102c0.485352-0.332031,0.855957-0.774902,1.118164-1.276855l4.821289,2.439453
	c-0.842773,2.142578-0.781738,4.562012,0.203613,6.899902c1.128906,2.680664,3.312012,4.920898,6.147949,6.310547
	c1.849121,0.90332,3.871094,1.380859,5.850098,1.380859c3.592285,0,6.73291-1.564453,8.472168-4.131836l6.234375,3.15332
	c-0.095703,0.586914-0.052734,1.189453,0.163086,1.763672c0.321289,0.859375,0.955078,1.544922,1.783203,1.939453l9.482422,5.689453
	c0.419922,1.615234,2.146484,7.535156,5.492188,10.357422l2.496094,4.731445c0.174805,0.331055,0.516602,0.521484,0.871094,0.521484
	c0.151367,0,0.306641-0.035156,0.451172-0.110352c0.480469-0.24707,0.666016-0.831055,0.416016-1.304688l-2.586914-4.904297
	c-0.061523-0.118164-0.147461-0.220703-0.251953-0.303711c-3.397461-2.72168-5.061523-9.750977-5.077148-9.823242
	c-0.060547-0.253906-0.22168-0.474609-0.447266-0.609375l-9.871094-5.925781
	c-0.033203-0.018555-0.066406-0.037109-0.099609-0.052734c-0.381836-0.171875-0.672852-0.484375-0.820312-0.875977
	c-0.147461-0.393555-0.130859-0.81543,0.042969-1.192383l0.100586-0.21582c0.365234-0.782227,1.30957-1.125,2.09668-0.764648
	l14.003906,6.371094c0.376953,0.171875,0.819336,0.09082,1.110352-0.201172c0.290039-0.291992,0.363281-0.732422,0.182617-1.101562
	l-1.964844-3.994141c-0.117188-0.236328-0.324219-0.416016-0.576172-0.498047l-4.319336-1.395508
	c-0.219727-0.071289-0.456055-0.063477-0.668945,0.020508l-2.294922,0.904297
	c-0.091797,0.036133-0.173828,0.083984-0.245117,0.141602l-3.835938-1.745117l7.394531-2.524414l12.862305,4.157227
	l3.889648,19.444336c0.092773,0.460938,0.50293,0.780273,0.960938,0.780273c0.063477,0,0.125977-0.005859,0.19043-0.019531
	c0.53125-0.102539,0.876953-0.611328,0.772461-1.135742L85.866699,32.566406z M11.609375,11.45459l1.172852-0.64502
	l3.613281,1.080078l0.315918,0.473633L11.609375,11.45459z M20.076172,5.652344l-8.444824-2.525391l5.066406-1.121582
	l6.418945,4.433105l0.959473,4.661133L20.076172,5.652344z M43.571289,34.041992c-1.678223,0-3.399902-0.407227-4.978027-1.181641
	c-2.413086-1.180664-4.263184-3.070312-5.210938-5.319336c-0.87207-2.069824-0.855957-4.19873,0.045898-5.995117
	c1.229004-2.44873,4.015137-3.969727,7.269043-3.969727c1.678223,0,3.399902,0.408203,4.978027,1.180664
	c4.800781,2.351562,7.118164,7.42627,5.166016,11.314453C49.61084,32.519531,46.82373,34.041992,43.571289,34.041992z
	 M70.683105,35.047852l3.585938,1.15918l0.585938,1.193359l-4.707031-2.142578L70.683105,35.047852z M71.286621,27.852539
	l-6.4375,2.19873l3.490234-3.274902h7.832031l3.500977,3.787598L71.286621,27.852539z"/>
<path d="M46.112793,24.858887H43.11377v-2.959961c0-0.534668-0.437988-0.967773-0.97998-0.967773
	s-0.97998,0.433105-0.97998,0.967773v2.959961h-2.998047c-0.541992,0-0.97998,0.433105-0.97998,0.968262
	c0,0.533691,0.437988,0.966797,0.97998,0.966797h2.998047v2.959961c0,0.535156,0.437988,0.968262,0.97998,0.968262
	s0.97998-0.433105,0.97998-0.968262v-2.959961h2.999023c0.541992,0,0.980469-0.433105,0.980469-0.966797
	C47.093262,25.291992,46.654785,24.858887,46.112793,24.858887z"/>
</svg>
