<?xml version="1.0" encoding="utf-8"?>
<!-- Generator: Adobe Illustrator 15.1.0, SVG Export Plug-In . SVG Version: 6.00 Build 0)  -->
<!DOCTYPE svg PUBLIC "-//W3C//DTD SVG 1.1//EN" "http://www.w3.org/Graphics/SVG/1.1/DTD/svg11.dtd">
<svg version="1.1" id="Calque_1" xmlns="http://www.w3.org/2000/svg" xmlns:xlink="http://www.w3.org/1999/xlink" x="0px" y="0px"
	 width="74.986328px" height="74.483887px" viewBox="0 0 74.986328 74.483887" enable-background="new 0 0 74.986328 74.483887"
	 xml:space="preserve">
<path fill="#6666D5" d="M2,2h70.987305v44.809082H2V2z M0,48.809082h74.986328V0H0V48.809082z"/>
<g>
	<defs>
		<rect id="SVGID_1_" width="74.986328" height="74.483887"/>
	</defs>
	<clipPath id="SVGID_2_">
		<use xlink:href="#SVGID_1_"  overflow="visible"/>
	</clipPath>
	<path clip-path="url(#SVGID_2_)" fill="#6666D5" d="M70.073242,6.487305h-1.154297c-0.552734,0-1-0.448242-1-1
		c0-0.552246,0.447266-1,1-1h1.154297c0.551758,0,1,0.447754,1,1C71.073242,6.039062,70.625,6.487305,70.073242,6.487305"/>
	<path clip-path="url(#SVGID_2_)" fill="#6666D5" d="M70.073242,10.6875h-1.154297c-0.552734,0-1-0.448242-1-1
		c0-0.552246,0.447266-1,1-1h1.154297c0.551758,0,1,0.447754,1,1C71.073242,10.239258,70.625,10.6875,70.073242,10.6875"/>
	<path clip-path="url(#SVGID_2_)" fill="#6666D5" d="M70.073242,14.888184h-1.154297c-0.552734,0-1-0.447754-1-1
		c0-0.551758,0.447266-1,1-1h1.154297c0.551758,0,1,0.448242,1,1C71.073242,14.44043,70.625,14.888184,70.073242,14.888184"/>
	<path clip-path="url(#SVGID_2_)" fill="#6666D5" d="M70.073242,19.088867h-1.154297c-0.552734,0-1-0.447754-1-1
		c0-0.551758,0.447266-1,1-1h1.154297c0.551758,0,1,0.448242,1,1C71.073242,18.641113,70.625,19.088867,70.073242,19.088867"/>
	<path clip-path="url(#SVGID_2_)" fill="#6666D5" d="M70.073242,23.289551h-1.154297c-0.552734,0-1-0.447754-1-1
		c0-0.551758,0.447266-1,1-1h1.154297c0.551758,0,1,0.448242,1,1C71.073242,22.841797,70.625,23.289551,70.073242,23.289551"/>
	<path clip-path="url(#SVGID_2_)" fill="#6666D5" d="M70.073242,27.490234h-1.154297c-0.552734,0-1-0.448242-1-1
		c0-0.552246,0.447266-1,1-1h1.154297c0.551758,0,1,0.447754,1,1C71.073242,27.041992,70.625,27.490234,70.073242,27.490234"/>
	<path clip-path="url(#SVGID_2_)" fill="#6666D5" d="M70.073242,31.690918h-1.154297c-0.552734,0-1-0.448242-1-1
		c0-0.552246,0.447266-1,1-1h1.154297c0.551758,0,1,0.447754,1,1C71.073242,31.242676,70.625,31.690918,70.073242,31.690918"/>
	<path clip-path="url(#SVGID_2_)" fill="#6666D5" d="M70.073242,35.891602h-1.154297c-0.552734,0-1-0.448242-1-1
		c0-0.552246,0.447266-1,1-1h1.154297c0.551758,0,1,0.447754,1,1C71.073242,35.443359,70.625,35.891602,70.073242,35.891602"/>
	<path clip-path="url(#SVGID_2_)" fill="#6666D5" d="M70.073242,40.092285h-1.154297c-0.552734,0-1-0.448242-1-1s0.447266-1,1-1
		h1.154297c0.551758,0,1,0.448242,1,1S70.625,40.092285,70.073242,40.092285"/>
	<path clip-path="url(#SVGID_2_)" fill="#6666D5" d="M70.073242,44.293457h-1.154297c-0.552734,0-1-0.448242-1-1
		c0-0.552734,0.447266-1,1-1h1.154297c0.551758,0,1,0.447266,1,1C71.073242,43.845215,70.625,44.293457,70.073242,44.293457"/>
	<path clip-path="url(#SVGID_2_)" fill="#6666D5" d="M64.493164,47.999512c-0.551758,0-1-0.447266-1-1V1c0-0.552246,0.448242-1,1-1
		s1,0.447754,1,1v45.999512C65.493164,47.552246,65.044922,47.999512,64.493164,47.999512"/>
	<path clip-path="url(#SVGID_2_)" fill="#6666D5" d="M31.719238,31.256836V17.543945l13.713379,6.855957L31.719238,31.256836z
		 M33.719238,20.779785v7.241211l7.240723-3.621094L33.719238,20.779785z"/>
	<path clip-path="url(#SVGID_2_)" fill="#6666D5" d="M6.067871,6.487305H4.914062c-0.553223,0-1-0.448242-1-1
		c0-0.552246,0.446777-1,1-1h1.153809c0.552246,0,1,0.447754,1,1C7.067871,6.039062,6.620117,6.487305,6.067871,6.487305"/>
	<path clip-path="url(#SVGID_2_)" fill="#6666D5" d="M6.067871,10.6875H4.914062c-0.553223,0-1-0.448242-1-1
		c0-0.552246,0.446777-1,1-1h1.153809c0.552246,0,1,0.447754,1,1C7.067871,10.239258,6.620117,10.6875,6.067871,10.6875"/>
	<path clip-path="url(#SVGID_2_)" fill="#6666D5" d="M6.067871,14.888184H4.914062c-0.553223,0-1-0.447754-1-1
		c0-0.551758,0.446777-1,1-1h1.153809c0.552246,0,1,0.448242,1,1C7.067871,14.44043,6.620117,14.888184,6.067871,14.888184"/>
	<path clip-path="url(#SVGID_2_)" fill="#6666D5" d="M6.067871,19.088867H4.914062c-0.553223,0-1-0.447754-1-1
		c0-0.551758,0.446777-1,1-1h1.153809c0.552246,0,1,0.448242,1,1C7.067871,18.641113,6.620117,19.088867,6.067871,19.088867"/>
	<path clip-path="url(#SVGID_2_)" fill="#6666D5" d="M6.067871,23.289551H4.914062c-0.553223,0-1-0.447754-1-1
		c0-0.551758,0.446777-1,1-1h1.153809c0.552246,0,1,0.448242,1,1C7.067871,22.841797,6.620117,23.289551,6.067871,23.289551"/>
	<path clip-path="url(#SVGID_2_)" fill="#6666D5" d="M6.067871,27.490234H4.914062c-0.553223,0-1-0.448242-1-1
		c0-0.552246,0.446777-1,1-1h1.153809c0.552246,0,1,0.447754,1,1C7.067871,27.041992,6.620117,27.490234,6.067871,27.490234"/>
	<path clip-path="url(#SVGID_2_)" fill="#6666D5" d="M6.067871,31.690918H4.914062c-0.553223,0-1-0.448242-1-1
		c0-0.552246,0.446777-1,1-1h1.153809c0.552246,0,1,0.447754,1,1C7.067871,31.242676,6.620117,31.690918,6.067871,31.690918"/>
	<path clip-path="url(#SVGID_2_)" fill="#6666D5" d="M6.067871,35.891602H4.914062c-0.553223,0-1-0.448242-1-1
		c0-0.552246,0.446777-1,1-1h1.153809c0.552246,0,1,0.447754,1,1C7.067871,35.443359,6.620117,35.891602,6.067871,35.891602"/>
	<path clip-path="url(#SVGID_2_)" fill="#6666D5" d="M6.067871,40.092285H4.914062c-0.553223,0-1-0.448242-1-1s0.446777-1,1-1
		h1.153809c0.552246,0,1,0.448242,1,1S6.620117,40.092285,6.067871,40.092285"/>
	<path clip-path="url(#SVGID_2_)" fill="#6666D5" d="M6.067871,44.293457H4.914062c-0.553223,0-1-0.448242-1-1
		c0-0.552734,0.446777-1,1-1h1.153809c0.552246,0,1,0.447266,1,1C7.067871,43.845215,6.620117,44.293457,6.067871,44.293457"/>
	<path clip-path="url(#SVGID_2_)" fill="#6666D5" d="M9.493164,47.999512c-0.551758,0-1-0.447266-1-1V1c0-0.552246,0.448242-1,1-1
		c0.552246,0,1,0.447754,1,1v45.999512C10.493164,47.552246,10.04541,47.999512,9.493164,47.999512"/>
	<path clip-path="url(#SVGID_2_)" fill="#6666D5" d="M10.234375,64.916504c-0.03125,0-0.074219-0.001953-0.114258-0.006836
		c-2.178711-0.03125-4.017578-1.436523-4.654785-3.405273H5.16748c-1.185059,0-2.150391-0.964844-2.150391-2.150391
		c0-0.729492,0.367188-1.375977,0.930176-1.762695c-0.038086-0.265625-0.057129-0.53125-0.057129-0.795898
		c0-3.293945,2.817383-5.975586,6.279297-5.975586c0.007812,0,0.01709,0.000977,0.024902,0
		c3.460938,0,6.277832,2.681641,6.277832,5.975586c0,0.264648-0.019043,0.530273-0.056641,0.795898
		c0.562988,0.386719,0.929688,1.033203,0.929688,1.762695c0,1.185547-0.963867,2.150391-2.149902,2.150391h-0.296875
		C14.253418,63.500488,12.382324,64.916504,10.234375,64.916504 M10.17334,62.910645c0.031738,0,0.068848,0.00293,0.10498,0.005859
		c1.430176-0.022461,2.643066-1.108398,2.833008-2.542969c0.064941-0.49707,0.48877-0.869141,0.991211-0.869141h1.092773
		c0.080078,0,0.149902-0.070312,0.149902-0.150391c0-0.073242-0.064941-0.135742-0.14502-0.139648
		c-0.310059-0.016602-0.594727-0.173828-0.772949-0.428711c-0.175781-0.254883-0.225098-0.577148-0.130859-0.87207
		c0.116699-0.371094,0.175781-0.74707,0.175781-1.118164c0-2.180664-1.898926-3.956055-4.240723-3.975586
		c-0.035156,0.001953-0.065918,0.001953-0.100098,0c-2.342285,0.019531-4.241211,1.794922-4.241211,3.975586
		c0,0.371094,0.059082,0.74707,0.177246,1.118164c0.092773,0.294922,0.043945,0.617188-0.132324,0.87207
		c-0.177734,0.254883-0.462891,0.412109-0.772949,0.428711c-0.07959,0.003906-0.14502,0.066406-0.14502,0.139648
		c0,0.080078,0.070312,0.150391,0.150391,0.150391h1.092773c0.500977,0,0.92627,0.37207,0.991211,0.869141
		c0.189941,1.43457,1.402832,2.520508,2.832031,2.542969C10.118164,62.913574,10.147461,62.910645,10.17334,62.910645"/>
	<path clip-path="url(#SVGID_2_)" fill="#6666D5" d="M17.084473,74.483887c-0.551758,0-1-0.448242-1-1v-2.456055
		c0-3.288086-2.675781-5.962891-5.963867-5.962891c-3.289062,0-5.963867,2.674805-5.963867,5.962891v2.456055
		c0,0.551758-0.448242,1-1,1c-0.552246,0-1-0.448242-1-1v-2.456055c0-4.390625,3.572754-7.962891,7.963867-7.962891
		s7.963867,3.572266,7.963867,7.962891v2.456055C18.084473,74.035645,17.636719,74.483887,17.084473,74.483887"/>
	<path clip-path="url(#SVGID_2_)" fill="#6666D5" d="M28.483398,64.916504c-0.032227,0-0.074219-0.001953-0.11377-0.006836
		c-2.180176-0.03125-4.019043-1.436523-4.655273-3.405273h-0.297852c-1.186035,0-2.149902-0.964844-2.149902-2.150391
		c0-0.729492,0.365723-1.375977,0.929688-1.762695c-0.039062-0.265625-0.058105-0.53125-0.058105-0.795898
		c0-3.293945,2.817383-5.975586,6.279297-5.975586c0.007812,0,0.01709,0.000977,0.024902,0
		c3.461914,0,6.278809,2.681641,6.278809,5.975586c0,0.264648-0.018555,0.530273-0.057617,0.795898
		c0.563965,0.386719,0.929688,1.033203,0.929688,1.762695c0,1.185547-0.963867,2.150391-2.149902,2.150391h-0.296875
		C32.502441,63.500488,30.630371,64.916504,28.483398,64.916504 M28.422363,62.910645c0.032227,0,0.068848,0.00293,0.10498,0.005859
		c1.430176-0.022461,2.643066-1.108398,2.833008-2.542969c0.064941-0.49707,0.489258-0.869141,0.991211-0.869141h1.091797
		c0.081055,0,0.149902-0.070312,0.149902-0.150391c0-0.073242-0.064941-0.135742-0.14502-0.139648
		c-0.310059-0.016602-0.594727-0.173828-0.771973-0.428711c-0.176758-0.254883-0.226074-0.577148-0.131836-0.87207
		c0.117188-0.371094,0.176758-0.74707,0.176758-1.118164c0-2.180664-1.899902-3.956055-4.240723-3.975586
		c-0.035156,0.001953-0.065918,0.001953-0.100098,0c-2.341797,0.019531-4.242188,1.794922-4.242188,3.975586
		c0,0.371094,0.060059,0.74707,0.177246,1.118164c0.09375,0.294922,0.044922,0.617188-0.131836,0.87207
		c-0.177246,0.254883-0.462402,0.412109-0.771973,0.428711c-0.080078,0.003906-0.14502,0.066406-0.14502,0.139648
		c0,0.080078,0.069824,0.150391,0.149902,0.150391h1.092773c0.501953,0,0.92627,0.37207,0.991211,0.869141
		c0.189941,1.43457,1.401855,2.520508,2.832031,2.542969C28.367188,62.913574,28.396484,62.910645,28.422363,62.910645"/>
	<path clip-path="url(#SVGID_2_)" fill="#6666D5" d="M35.333008,74.483887c-0.552246,0-1-0.448242-1-1v-2.456055
		c0-3.288086-2.675781-5.962891-5.963867-5.962891c-3.289062,0-5.964355,2.674805-5.964355,5.962891v2.456055
		c0,0.551758-0.447754,1-1,1c-0.551758,0-1-0.448242-1-1v-2.456055c0-4.390625,3.573242-7.962891,7.964355-7.962891
		c4.390625,0,7.963867,3.572266,7.963867,7.962891v2.456055C36.333008,74.035645,35.884766,74.483887,35.333008,74.483887"/>
	<path clip-path="url(#SVGID_2_)" fill="#6666D5" d="M46.731445,64.916504c-0.03125,0-0.073242-0.001953-0.112305-0.006836
		c-2.180664-0.03125-4.020508-1.436523-4.65625-3.405273h-0.297852c-1.186523,0-2.150391-0.964844-2.150391-2.150391
		c0-0.729492,0.366211-1.375977,0.930664-1.762695c-0.038086-0.265625-0.058594-0.53125-0.058594-0.795898
		c0-3.293945,2.817383-5.975586,6.279297-5.975586c0.007812,0,0.017578,0.000977,0.024414,0
		c3.462891,0,6.279297,2.681641,6.279297,5.975586c0,0.264648-0.018555,0.530273-0.057617,0.795898
		c0.563477,0.386719,0.930664,1.033203,0.930664,1.762695c0,1.185547-0.964844,2.150391-2.150391,2.150391h-0.297852
		C50.750977,63.500488,48.878906,64.916504,46.731445,64.916504 M46.670898,62.910645
		c0.032227,0,0.069336,0.00293,0.105469,0.005859c1.428711-0.022461,2.642578-1.108398,2.833008-2.542969
		c0.064453-0.49707,0.488281-0.869141,0.990234-0.869141h1.092773c0.080078,0,0.150391-0.070312,0.150391-0.150391
		c0-0.073242-0.06543-0.135742-0.145508-0.139648c-0.310547-0.016602-0.595703-0.173828-0.772461-0.428711
		s-0.225586-0.577148-0.131836-0.87207c0.117188-0.371094,0.176758-0.74707,0.176758-1.118164
		c0-2.180664-1.899414-3.956055-4.241211-3.975586c-0.03418,0.001953-0.06543,0.001953-0.099609,0
		c-2.341797,0.019531-4.242188,1.794922-4.242188,3.975586c0,0.370117,0.060547,0.746094,0.177734,1.119141
		c0.09375,0.294922,0.044922,0.617188-0.132812,0.871094c-0.177734,0.254883-0.461914,0.412109-0.771484,0.428711
		c-0.080078,0.003906-0.145508,0.066406-0.145508,0.139648c0,0.080078,0.070312,0.150391,0.150391,0.150391h1.092773
		c0.501953,0,0.925781,0.37207,0.991211,0.869141c0.189453,1.43457,1.402344,2.520508,2.832031,2.542969
		C46.616211,62.913574,46.644531,62.910645,46.670898,62.910645"/>
	<path clip-path="url(#SVGID_2_)" fill="#6666D5" d="M53.581055,74.483887c-0.551758,0-1-0.448242-1-1v-2.456055
		c0-3.288086-2.674805-5.962891-5.963867-5.962891c-3.288086,0-5.963867,2.674805-5.963867,5.962891v2.456055
		c0,0.551758-0.448242,1-1,1s-1-0.448242-1-1v-2.456055c0-4.390625,3.573242-7.962891,7.963867-7.962891
		c4.391602,0,7.963867,3.572266,7.963867,7.962891v2.456055C54.581055,74.035645,54.133789,74.483887,53.581055,74.483887"/>
	<path clip-path="url(#SVGID_2_)" fill="#6666D5" d="M64.980469,64.916504c-0.032227,0-0.074219-0.001953-0.113281-0.006836
		c-2.179688-0.03125-4.018555-1.436523-4.65625-3.405273h-0.297852c-1.185547,0-2.149414-0.964844-2.149414-2.150391
		c0-0.729492,0.366211-1.375977,0.929688-1.762695c-0.038086-0.265625-0.057617-0.53125-0.057617-0.795898
		c0-3.293945,2.816406-5.975586,6.27832-5.975586c0.007812,0,0.017578,0.000977,0.025391,0
		c3.461914,0,6.279297,2.681641,6.279297,5.975586c0,0.264648-0.019531,0.530273-0.058594,0.795898
		c0.564453,0.386719,0.931641,1.033203,0.931641,1.762695c0,1.185547-0.96582,2.150391-2.151367,2.150391h-0.296875
		C68.999023,63.500488,67.126953,64.916504,64.980469,64.916504 M64.918945,62.910645
		c0.032227,0,0.069336,0.00293,0.105469,0.005859c1.428711-0.022461,2.642578-1.108398,2.833008-2.542969
		c0.06543-0.49707,0.489258-0.869141,0.991211-0.869141h1.091797c0.081055,0,0.151367-0.070312,0.151367-0.150391
		c0-0.073242-0.066406-0.135742-0.146484-0.139648c-0.30957-0.016602-0.594727-0.173828-0.771484-0.428711
		c-0.177734-0.254883-0.226562-0.577148-0.132812-0.87207c0.117188-0.371094,0.177734-0.74707,0.177734-1.118164
		c0-2.180664-1.900391-3.956055-4.242188-3.975586c-0.033203,0.001953-0.06543,0.001953-0.099609,0
		c-2.341797,0.019531-4.241211,1.794922-4.241211,3.975586c0,0.370117,0.05957,0.746094,0.177734,1.119141
		c0.092773,0.294922,0.043945,0.617188-0.132812,0.871094c-0.178711,0.254883-0.461914,0.412109-0.772461,0.428711
		c-0.080078,0.003906-0.144531,0.066406-0.144531,0.139648c0,0.080078,0.069336,0.150391,0.149414,0.150391h1.09375
		c0.500977,0,0.925781,0.37207,0.990234,0.869141c0.19043,1.43457,1.40332,2.520508,2.832031,2.542969
		C64.864258,62.913574,64.894531,62.910645,64.918945,62.910645"/>
	<path clip-path="url(#SVGID_2_)" fill="#6666D5" d="M71.830078,74.483887c-0.551758,0-1-0.448242-1-1v-2.456055
		c0-3.288086-2.674805-5.962891-5.963867-5.962891c-3.288086,0-5.963867,2.674805-5.963867,5.962891v2.456055
		c0,0.551758-0.448242,1-1,1s-1-0.448242-1-1v-2.456055c0-4.390625,3.573242-7.962891,7.963867-7.962891
		s7.963867,3.572266,7.963867,7.962891v2.456055C72.830078,74.035645,72.381836,74.483887,71.830078,74.483887"/>
</g>
</svg>
