<?xml version="1.0" encoding="utf-8"?>
<!-- Generator: Adobe Illustrator 15.1.0, SVG Export Plug-In . SVG Version: 6.00 Build 0)  -->
<!DOCTYPE svg PUBLIC "-//W3C//DTD SVG 1.1//EN" "http://www.w3.org/Graphics/SVG/1.1/DTD/svg11.dtd">
<svg version="1.1" id="Calque_1" xmlns="http://www.w3.org/2000/svg" xmlns:xlink="http://www.w3.org/1999/xlink" x="0px" y="0px"
	 width="90px" height="60px" viewBox="0 0 90 60" enable-background="new 0 0 90 60" xml:space="preserve">
<g>
	<path d="M51.875977,41.101562c0.027344,0,0.055664-0.00293,0.083008-0.004883
		c0.087891,0.003906,0.173828,0.012695,0.261719,0.012695c3.267578,0,5.925781-2.568359,5.925781-5.726562
		c0-3.157227-2.658203-5.726562-5.925781-5.726562c-3.268555,0-5.927734,2.569336-5.927734,5.726562
		c0,3.023438,2.438477,5.5,5.513672,5.706055C51.831055,41.09082,51.851562,41.101562,51.875977,41.101562z M52.795898,39.164062
		c-0.004883-0.133789-0.024414-0.268555-0.024414-0.402344c0-2.238281,0.716797-4.432617,2.030273-6.269531
		c0.84375,0.704102,1.389648,1.732422,1.389648,2.890625C56.191406,37.307617,54.710938,38.892578,52.795898,39.164062z
		 M48.249023,35.382812c0-2.115234,1.782227-3.835938,3.97168-3.835938c0.283203,0,0.55957,0.03125,0.826172,0.085938
		c-1.443359,2.107422-2.232422,4.591797-2.232422,7.128906c0,0.067383,0.011719,0.134766,0.012695,0.202148
		C49.325195,38.415039,48.249023,37.022461,48.249023,35.382812z"/>
	<path d="M68.571289,38.762695c0-2.329102-1.960938-4.223633-4.371094-4.223633
		s-4.371094,1.894531-4.371094,4.223633s1.960938,4.222656,4.371094,4.222656S68.571289,41.091797,68.571289,38.762695z
		 M64.200195,41.095703c-1.332031,0-2.415039-1.046875-2.415039-2.333008c0-1.287109,1.083008-2.333008,2.415039-2.333008
		c1.331055,0,2.415039,1.045898,2.415039,2.333008C66.615234,40.048828,65.53125,41.095703,64.200195,41.095703z"/>
	<path d="M64.200195,32.474609c3.268555,0,5.928711-2.568359,5.928711-5.725586
		c0-3.158203-2.660156-5.727051-5.928711-5.727051s-5.928711,2.568848-5.928711,5.727051
		C58.271484,29.90625,60.931641,32.474609,64.200195,32.474609z M64.200195,30.584961
		c-1.618164,0-3.006836-0.941895-3.625977-2.285156c2.342773-0.755371,4.910156-0.755371,7.251953,0.000977
		C67.207031,29.643555,65.818359,30.584961,64.200195,30.584961z M64.200195,22.912109
		c2.068359,0,3.751953,1.539551,3.935547,3.492188c-2.553711-0.756836-5.317383-0.756836-7.871094-0.000488
		C60.448242,24.45166,62.131836,22.912109,64.200195,22.912109z"/>
	<path d="M56.27832,42.734375c-3.268555,0-5.928711,2.569336-5.928711,5.726562
		c0,3.158203,2.660156,5.726562,5.928711,5.726562s5.926758-2.568359,5.926758-5.726562
		C62.205078,45.303711,59.546875,42.734375,56.27832,42.734375z M60.25,48.460938c0,0.21582-0.030273,0.424805-0.066406,0.630859
		c-2.204102-0.805664-4.123047-2.272461-5.451172-4.164062C55.208008,44.732422,55.730469,44.625,56.27832,44.625
		C58.466797,44.625,60.25,46.345703,60.25,48.460938z M56.27832,52.297852c-2.19043,0-3.97168-1.720703-3.97168-3.836914
		c0-0.899414,0.335938-1.716797,0.874023-2.371094c1.529297,2.133789,3.708008,3.795898,6.204102,4.732422
		C58.65625,51.713867,57.541016,52.297852,56.27832,52.297852z"/>
	<path d="M71.650391,42.734375c-3.268555,0-5.925781,2.569336-5.925781,5.726562
		c0,3.158203,2.657227,5.726562,5.925781,5.726562s5.927734-2.568359,5.927734-5.726562
		C77.578125,45.303711,74.918945,42.734375,71.650391,42.734375z M71.650391,44.625c0.686523,0,1.323242,0.18457,1.886719,0.481445
		c-1.416992,1.9375-3.453125,3.397461-5.773438,4.137695c-0.054688-0.25293-0.083984-0.514648-0.083984-0.783203
		C67.679688,46.345703,69.461914,44.625,71.650391,44.625z M71.650391,52.297852c-1.199219,0-2.263672-0.527344-2.992188-1.342773
		c2.519531-0.866211,4.741211-2.461914,6.333008-4.550781C75.385742,47,75.62207,47.703125,75.62207,48.460938
		C75.62207,50.577148,73.839844,52.297852,71.650391,52.297852z"/>
	<path d="M76.162109,41.109375c3.269531,0,5.928711-2.568359,5.928711-5.726562
		c0-3.157227-2.65918-5.726562-5.928711-5.726562c-3.267578,0-5.926758,2.569336-5.926758,5.726562
		C70.235352,38.541016,72.894531,41.109375,76.162109,41.109375z M73.580078,32.493164
		c0.359375,0.5,0.691406,1.016602,0.959961,1.564453c0.166992,0.34082,0.517578,0.541016,0.883789,0.541016
		c0.140625,0,0.283203-0.029297,0.417969-0.09082c0.488281-0.222656,0.697266-0.786133,0.464844-1.257812
		c-0.275391-0.5625-0.605469-1.098633-0.962891-1.619141c0.264648-0.053711,0.538086-0.083984,0.818359-0.083984
		c2.189453,0,3.972656,1.720703,3.972656,3.835938c0,1.633789-1.068359,3.022461-2.560547,3.575195
		c0.000977-0.06543,0.011719-0.129883,0.011719-0.195312c0-0.561523-0.039062-1.125-0.113281-1.678711
		c-0.069336-0.517578-0.5625-0.878906-1.095703-0.814453c-0.535156,0.068359-0.914062,0.541992-0.84375,1.060547
		c0.0625,0.470703,0.095703,0.952148,0.095703,1.432617c0,0.134766-0.018555,0.268555-0.023438,0.40332
		c-1.923828-0.264648-3.414062-1.852539-3.414062-3.783203C72.191406,34.224609,72.737305,33.197266,73.580078,32.493164z"/>
	<path d="M89.960938,58.081055c-0.151367-0.500977-0.693359-0.788086-1.212891-0.643555
		c-0.710938,0.199219-1.451172,0.300781-2.201172,0.300781c-2.875977,0-5.473633-1.49707-6.867188-3.912109
		c4.013672-3.849609,6.503906-9.180664,6.503906-15.063477c0-11.710938-9.861328-21.239258-21.983398-21.239258
		c-5.213867,0-10.006836,1.766602-13.779297,4.708008H8.75l39.978516-12.096191L45.444336,0L1.934082,13.165039
		c-1.268066,0.384277-1.977051,1.694336-1.579102,2.918945l1.281738,3.953125C0.648926,20.757812,0,21.890625,0,23.176758
		c0,1.848633,1.328125,3.392578,3.106934,3.818359v26.780273h45.559082C52.646484,57.619141,58.140625,60,64.200195,60
		c5.318359,0,10.201172-1.834961,14.006836-4.881836c1.786133,2.791992,4.901367,4.510742,8.339844,4.510742
		c0.93457,0,1.859375-0.126953,2.748047-0.376953C89.813477,59.107422,90.111328,58.582031,89.960938,58.081055z
		 M43.76123,30.961426h-1.02002l1.858887-1.795898C44.292969,29.749512,44.012695,30.348145,43.76123,30.961426z
		 M8.038086,24.121582h2.354004l-5.329102,5.149414v-2.275879C6.526855,26.644531,7.674805,25.535645,8.038086,24.121582z
		 M9.743652,12.782227l6.195801-1.874512l-4.574219,8.447754c-0.02002,0.037109-0.02002,0.07666-0.03418,0.114746
		l-4.085938,1.236328c-0.336426-0.400879-0.748535-0.733398-1.220703-0.981934l3.67041-6.780273
		C9.723145,12.892578,9.726074,12.836426,9.743652,12.782227z M37.529297,11.542969l-6.125,1.853516l4.543945-8.395996
		c0.02832-0.051758,0.03125-0.10791,0.048828-0.161621l6.140137-1.85791l-4.573242,8.446777
		C37.543945,11.464844,37.543945,11.504883,37.529297,11.542969z M28.831055,14.070312
		c-0.02002,0.037109-0.02002,0.077148-0.034668,0.115234l-6.125,1.853516l4.544922-8.395996
		c0.02832-0.052246,0.03125-0.10791,0.048828-0.162109l6.13916-1.85791L28.831055,14.070312z M20.098633,16.712891
		c-0.02002,0.037109-0.02002,0.07666-0.034668,0.114746l-6.125,1.853516l4.544434-8.39502
		c0.02832-0.052246,0.031738-0.108398,0.048828-0.163086l6.13916-1.857422L20.098633,16.712891z M13.012695,24.262207
		c0.042969-0.041504,0.063477-0.094238,0.09668-0.140625h6.491699L12.625,30.862305
		c-0.030273,0.029297-0.042969,0.067383-0.068359,0.099121H6.079102L13.012695,24.262207z M22.22168,24.262207
		c0.042969-0.041504,0.063477-0.094238,0.097168-0.140625h6.433594l-6.975586,6.740723
		c-0.030273,0.029297-0.042969,0.067383-0.068359,0.099121h-6.421387L22.22168,24.262207z M31.374023,24.262207
		c0.042969-0.041504,0.063477-0.094238,0.09668-0.140625h6.433105l-6.976074,6.740723
		c-0.030273,0.029297-0.04248,0.067383-0.068359,0.099121h-6.42041L31.374023,24.262207z M40.524902,24.262207
		c0.042969-0.041504,0.063477-0.094238,0.09668-0.140625h6.433105l-6.975586,6.740723
		c-0.030273,0.029297-0.042969,0.067383-0.068359,0.099121H33.59082L40.524902,24.262207z M46.27832,8.895996l-6.141113,1.858398
		l4.217285-7.79248L46.27832,8.895996z M2.221191,15.519043c-0.074219-0.227051,0.063965-0.47998,0.297852-0.550781
		l4.630859-1.401367l-3.065918,5.662598c-0.219238,0-0.430176,0.030273-0.640137,0.0625L2.221191,15.519043z M1.956055,23.176758
		c0-1.134277,0.955078-2.057129,2.128906-2.057129s2.128906,0.922852,2.128906,2.057129
		c0,1.133789-0.955078,2.055664-2.128906,2.055664S1.956055,24.310547,1.956055,23.176758z M5.062988,32.851562H43.09082
		c-0.563965,1.87793-0.872559,3.859375-0.872559,5.911133c0,4.950195,1.76709,9.506836,4.717285,13.12207H5.062988V32.851562z
		 M49.826172,52.203125c-0.018555-0.019531-0.03418-0.040039-0.054688-0.058594
		c-3.458008-3.478516-5.597168-8.189453-5.597168-13.381836c0-10.668945,8.983887-19.349121,20.025879-19.349121
		s20.026367,8.680176,20.026367,19.349121c0,10.667969-8.984375,19.347656-20.026367,19.347656
		C58.561523,58.110352,53.46875,55.838867,49.826172,52.203125z"/>
	<path d="M22.258301,47.320312l10.931152-5.279297l-10.931152-5.28125V47.320312z M24.215332,39.818359
		l4.601074,2.222656l-4.601074,2.22168V39.818359z"/>
</g>
</svg>
