<?xml version="1.0" standalone="no"?>
<!DOCTYPE svg PUBLIC "-//W3C//DTD SVG 20010904//EN"
 "http://www.w3.org/TR/2001/REC-SVG-20010904/DTD/svg10.dtd">
<svg version="1.0" xmlns="http://www.w3.org/2000/svg"
 width="700.000000pt" height="700.000000pt" viewBox="0 0 700.000000 700.000000"
 preserveAspectRatio="xMidYMid meet">
<metadata>
Created by potrace 1.11, written by Peter Selinger 2001-2013
</metadata>
<g transform="translate(0.000000,700.000000) scale(0.100000,-0.100000)"
fill="#000000" stroke="none">
<path d="M3669 5746 c-2 -2 -25 -7 -50 -10 -98 -13 -240 -72 -338 -139 -242
-165 -385 -470 -359 -762 27 -303 202 -558 473 -690 181 -89 374 -110 570 -64
208 49 407 196 522 384 75 123 114 256 119 410 6 200 -41 359 -154 520 -43 61
-145 162 -203 202 -68 46 -207 109 -284 129 -61 15 -285 30 -296 20z"/>
<path d="M1420 5539 c-112 -23 -255 -89 -339 -158 -214 -172 -321 -388 -325
-651 -1 -132 5 -184 34 -272 115 -349 434 -588 790 -590 240 -2 443 79 610
243 103 100 199 263 224 379 22 100 27 135 27 210 1 74 -6 136 -25 230 -10 49
-57 155 -97 222 -81 134 -222 260 -364 326 -159 74 -358 97 -535 61z"/>
<path d="M3568 3605 c-2 -1 -23 -5 -48 -8 -57 -7 -176 -34 -215 -49 -238 -90
-396 -204 -538 -388 -56 -71 -110 -157 -126 -197 l-13 -32 -41 52 c-114 145
-284 273 -457 344 -180 74 -304 92 -590 87 -179 -3 -188 -4 -300 -29 -386 -87
-725 -406 -839 -790 -47 -158 -49 -189 -50 -782 l-2 -563 2330 0 c1854 0 2330
3 2333 12 2 7 3 301 2 653 -1 542 -4 654 -18 733 -49 278 -210 548 -426 713
-25 18 -46 37 -48 41 -2 5 -8 8 -13 8 -5 0 -32 15 -61 34 -100 63 -274 129
-378 143 -19 3 -52 8 -72 13 -34 7 -422 12 -430 5z"/>
<path d="M6630 3043 c-8 -2 -24 -9 -35 -14 -11 -5 -81 -31 -155 -59 -74 -28
-144 -54 -155 -59 -11 -5 -171 -66 -355 -136 -184 -70 -373 -142 -420 -160
-47 -18 -129 -50 -183 -70 l-97 -37 2 -226 3 -226 165 -63 c91 -35 183 -70
205 -78 63 -22 438 -164 460 -174 17 -8 162 -63 523 -197 l62 -24 0 765 c0
421 -1 765 -2 764 -2 0 -10 -3 -18 -6z"/>
</g>
</svg>
