<?xml version="1.0" encoding="utf-8"?>
<!-- Generator: Adobe Illustrator 15.1.0, SVG Export Plug-In . SVG Version: 6.00 Build 0)  -->
<!DOCTYPE svg PUBLIC "-//W3C//DTD SVG 1.1//EN" "http://www.w3.org/Graphics/SVG/1.1/DTD/svg11.dtd">
<svg version="1.1" id="Calque_1" xmlns="http://www.w3.org/2000/svg" xmlns:xlink="http://www.w3.org/1999/xlink" x="0px" y="0px"
	 width="500px" height="500px" viewBox="0 0 500 500" enable-background="new 0 0 500 500" xml:space="preserve">
<g>
	<path fill="#343571" d="M275.68457,242.244141h-13.425781c-33.068359,0-61.566406,19.84082-74.683594,48.118164
		c-4.87793,10.483398-7.77832,22.061523-7.77832,34.342773v86.003906h178.350586v-86.003906
		C358.147461,279.355469,321.037109,242.244141,275.68457,242.244141"/>
	<path fill="#343571" d="M329.322266,149.761719c0,33.398438-27.071289,60.489258-60.470703,60.489258
		c-33.398438,0-60.469727-27.09082-60.469727-60.489258c0-33.399414,27.071289-60.470703,60.469727-60.470703
		C302.250977,89.291016,329.322266,116.362305,329.322266,149.761719"/>
	<path fill="#6567AB" d="M174.543945,163.427734c0,33.398438-27.089844,60.469727-60.488281,60.469727
		s-60.469727-27.071289-60.469727-60.469727c0-33.399414,27.071289-60.470703,60.469727-60.470703
		S174.543945,130.02832,174.543945,163.427734"/>
	<polygon fill="#6567AB" points="373.618164,353.02832 373.618164,320.838867 475,282.145508 475,391.436523 	"/>
	<path fill="#6567AB" d="M179.796875,324.706055c0-12.282227,2.901367-23.860352,7.77832-34.34375
		c-15.008789-20.762695-39.264648-34.452148-66.686523-34.452148h-13.425781C62.110352,255.910156,25,293.000977,25,338.37207
		v72.336914h154.796875V324.706055z"/>
</g>
</svg>
