<?xml version="1.0" encoding="utf-8"?>
<!-- Generator: Adobe Illustrator 15.1.0, SVG Export Plug-In . SVG Version: 6.00 Build 0)  -->
<!DOCTYPE svg PUBLIC "-//W3C//DTD SVG 1.1//EN" "http://www.w3.org/Graphics/SVG/1.1/DTD/svg11.dtd">
<svg version="1.1" id="Calque_1" xmlns="http://www.w3.org/2000/svg" xmlns:xlink="http://www.w3.org/1999/xlink" x="0px" y="0px"
	 width="487.636719px" height="127.000977px" viewBox="0 0 487.636719 127.000977"
	 enable-background="new 0 0 487.636719 127.000977" xml:space="preserve">
<path fill="#1D1634" d="M187.009766,64.873535c-0.424805,0-0.769531-0.344238-0.769531-0.769043
	c0-4.341309-3.529297-7.871094-7.869141-7.871094c-4.34082,0-7.870117,3.529785-7.870117,7.871094
	c0,0.424805-0.345703,0.769043-0.770508,0.769043s-0.767578-0.344238-0.767578-0.769043
	c0-5.188965,4.219727-9.410156,9.408203-9.410156c5.186523,0,9.407227,4.221191,9.407227,9.410156
	C187.77832,64.529297,187.433594,64.873535,187.009766,64.873535"/>
<path fill="#B6B5D9" d="M205.630859,64.006348c0,6.460938-5.238281,11.69873-11.699219,11.69873
	c-6.461914,0-11.700195-5.237793-11.700195-11.69873c0-6.461426,5.238281-11.701172,11.700195-11.701172
	C200.392578,52.305176,205.630859,57.544922,205.630859,64.006348"/>
<path fill="#29265A" d="M203.836914,64.006348c0,5.469727-4.436523,9.903809-9.905273,9.903809
	c-5.469727,0-9.90625-4.434082-9.90625-9.903809c0-5.470215,4.436523-9.90625,9.90625-9.90625
	C199.400391,54.100098,203.836914,58.536133,203.836914,64.006348"/>
<path fill="#1D1634" d="M193.931641,54.099609c-5.469727,0-9.90625,4.436035-9.90625,9.905762
	c0,5.470215,4.436523,9.905273,9.90625,9.905273V54.099609z"/>
<path fill="#1D1634" d="M193.931641,76.474609c-6.875977,0-12.469727-5.594238-12.469727-12.468262
	c0-6.876953,5.59375-12.469727,12.469727-12.469727c6.875,0,12.467773,5.592773,12.467773,12.469727
	C206.399414,70.880371,200.806641,76.474609,193.931641,76.474609 M193.931641,53.074219
	c-6.027344,0-10.930664,4.904297-10.930664,10.932129c0,6.026855,4.90332,10.930176,10.930664,10.930176
	c6.026367,0,10.929688-4.90332,10.929688-10.930176C204.861328,57.978516,199.958008,53.074219,193.931641,53.074219"/>
<path fill="#2E2866" d="M172.714844,64.006348c0,5.469727-4.43457,9.903809-9.904297,9.903809
	c-5.470703,0-9.905273-4.434082-9.905273-9.903809c0-5.470215,4.43457-9.90625,9.905273-9.90625
	C168.280273,54.100098,172.714844,58.536133,172.714844,64.006348"/>
<path fill="#1D1634" d="M337.351562,45.755371c-0.460938,0-0.833984-0.370605-0.833984-0.82666
	c0-0.461914,0.373047-0.832031,0.833984-0.832031h5.326172c0.460938,0,0.833984,0.370117,0.833984,0.832031
	c0,0.456055-0.373047,0.82666-0.833984,0.82666H337.351562z"/>
<path fill="#1D1634" d="M326.695312,45.755371c-0.458984,0-0.832031-0.370605-0.832031-0.82666
	c0-0.461914,0.373047-0.832031,0.832031-0.832031h5.328125c0.455078,0,0.833984,0.370117,0.833984,0.832031
	c0,0.456055-0.378906,0.82666-0.833984,0.82666H326.695312z"/>
<path fill="#1D1634" d="M316.035156,45.755371c-0.460938,0-0.832031-0.370605-0.832031-0.82666
	c0-0.461914,0.371094-0.832031,0.832031-0.832031h5.328125c0.460938,0,0.832031,0.370117,0.832031,0.832031
	c0,0.456055-0.371094,0.82666-0.832031,0.82666H316.035156z"/>
<path fill="#1D1634" d="M305.378906,45.755371c-0.460938,0-0.832031-0.370605-0.832031-0.82666
	c0-0.461914,0.371094-0.832031,0.832031-0.832031h5.328125c0.460938,0,0.832031,0.370117,0.832031,0.832031
	c0,0.456055-0.371094,0.82666-0.832031,0.82666H305.378906z"/>
<path fill="#1D1634" d="M294.720703,45.755371c-0.460938,0-0.832031-0.370605-0.832031-0.82666
	c0-0.461914,0.371094-0.832031,0.832031-0.832031h5.327148c0.459961,0,0.832031,0.370117,0.832031,0.832031
	c0,0.456055-0.37207,0.82666-0.832031,0.82666H294.720703z"/>
<path fill="#1D1634" d="M284.064453,45.755371c-0.459961,0-0.833008-0.370605-0.833008-0.82666
	c0-0.461914,0.373047-0.832031,0.833008-0.832031h5.328125c0.456055,0,0.828125,0.370117,0.828125,0.832031
	c0,0.456055-0.37207,0.82666-0.828125,0.82666H284.064453z"/>
<path fill="#A5D2D0" d="M332.859375,50.431152c-0.195312,0-0.384766-0.076172-0.521484-0.213867
	c-0.136719-0.137207-0.21875-0.328125-0.21875-0.520996v-10.03418c0-0.196777,0.082031-0.388184,0.21875-0.524902
	c0.136719-0.137207,0.326172-0.214844,0.521484-0.214844h3.666016c0.197266,0,0.388672,0.077637,0.523438,0.214844
	c0.138672,0.136719,0.216797,0.328125,0.216797,0.524902v10.03418c0,0.19873-0.078125,0.383789-0.216797,0.520996
	c-0.138672,0.141602-0.326172,0.213867-0.523438,0.213867H332.859375z"/>
<path fill="#A5D2D0" d="M311.537109,50.555176c-0.193359,0-0.382812-0.077148-0.521484-0.213867
	c-0.136719-0.138184-0.21875-0.328125-0.21875-0.521973v-10.03418c0-0.197754,0.082031-0.388184,0.21875-0.523926
	c0.138672-0.13916,0.328125-0.21582,0.521484-0.21582h3.667969c0.197266,0,0.386719,0.07666,0.525391,0.21582
	c0.136719,0.135742,0.214844,0.326172,0.214844,0.523926v10.03418c0,0.19873-0.078125,0.383789-0.214844,0.521973
	c-0.142578,0.140625-0.328125,0.213867-0.525391,0.213867H311.537109z"/>
<path fill="#A5D2D0" d="M322.197266,50.493652c-0.191406,0-0.382812-0.076172-0.519531-0.214355
	c-0.138672-0.138672-0.21875-0.327637-0.21875-0.521973V39.723633c0-0.197266,0.080078-0.388184,0.21875-0.523926
	c0.136719-0.138184,0.328125-0.216309,0.519531-0.216309h3.667969c0.197266,0,0.386719,0.078125,0.525391,0.216309
	c0.136719,0.135742,0.212891,0.32666,0.212891,0.523926v10.033691c0,0.199219-0.076172,0.383301-0.212891,0.521973
	c-0.142578,0.141113-0.328125,0.214355-0.525391,0.214355H322.197266z"/>
<path fill="none" stroke="#FFFFFF" stroke-linecap="round" stroke-linejoin="round" stroke-miterlimit="10" d="
	M323.023438,40.294922h2.015625c0.275391,0,0.5,0.224121,0.5,0.5v7.891113"/>
<path fill="none" stroke="#FFFFFF" stroke-linecap="round" stroke-linejoin="round" stroke-miterlimit="10" d="
	M333.685547,40.294922h2.015625c0.277344,0,0.5,0.224121,0.5,0.5v7.891113"/>
<path fill="none" stroke="#FFFFFF" stroke-linecap="round" stroke-linejoin="round" stroke-miterlimit="10" d="
	M312.363281,40.294922h2.015625c0.275391,0,0.5,0.224121,0.5,0.5v7.891113"/>
<path fill="#72698D" d="M482.117188,52.124023c0.085938,0.134766,0.177734,0.27002,0.251953,0.413086
	C482.292969,52.394043,482.207031,52.257812,482.117188,52.124023"/>
<path fill="#72698D" d="M481.785156,51.654785h-0.007812c0.013672,0.01709,0.03125,0.033203,0.044922,0.050293
	C481.808594,51.689941,481.798828,51.670898,481.785156,51.654785"/>
<path fill="#72698D" d="M470.5625,52.847656c0.037109,0.035156,0.080078,0.063965,0.117188,0.100098
	C470.642578,52.911621,470.599609,52.882812,470.5625,52.847656"/>
<path fill="#72698D" d="M482.490234,52.786621c0.107422,0.233887,0.205078,0.473145,0.277344,0.723145
	C482.691406,53.260742,482.601562,53.020508,482.490234,52.786621"/>
<path fill="#29265A" d="M482.992188,54.929688c0-0.479004-0.085938-0.934082-0.212891-1.370117
	c0.083984,0.300781,0.142578,0.61377,0.169922,0.936035h-10.966797c-0.056641-0.087891-0.125-0.165039-0.185547-0.25
	c1.03125,1.443848,1.652344,3.19873,1.652344,5.108887v12.349121c2.455078,0,4.443359-1.989258,4.443359-4.444336
	c0-1.11084-0.408203-2.12793-1.078125-2.905762c1.455078-0.055176,2.621094-1.253906,2.621094-2.725098
	c0-0.619141-0.205078-1.189941-0.552734-1.646973C481.228516,59.497559,482.992188,57.42041,482.992188,54.929688"/>
<path fill="#72698D" d="M471.425781,53.748535c-0.091797-0.111816-0.191406-0.212891-0.287109-0.318848
	C471.234375,53.535645,471.333984,53.636719,471.425781,53.748535"/>
<g>
	<defs>
		<rect id="SVGID_1_" x="481.822266" y="51.705566" width="0.294922" height="0.417969"/>
	</defs>
	<clipPath id="SVGID_2_">
		<use xlink:href="#SVGID_1_"  overflow="visible"/>
	</clipPath>
	<path clip-path="url(#SVGID_2_)" fill="#463751" d="M481.822266,51.705566c0.107422,0.132812,0.199219,0.275879,0.294922,0.417969
		C482.023438,51.980469,481.927734,51.839355,481.822266,51.705566"/>
</g>
<g opacity="0.699997">
	<g>
		<defs>
			<rect id="SVGID_3_" x="471.425781" y="53.748535" width="0.371094" height="0.49707"/>
		</defs>
		<clipPath id="SVGID_4_">
			<use xlink:href="#SVGID_3_"  overflow="visible"/>
		</clipPath>
		<path clip-path="url(#SVGID_4_)" fill="#463751" d="M471.794922,54.245605c-0.119141-0.168945-0.238281-0.337402-0.371094-0.49707
			C471.556641,53.908203,471.675781,54.07666,471.794922,54.245605"/>
	</g>
</g>
<g opacity="0.699997">
	<g>
		<defs>
			<rect id="SVGID_5_" x="482.767578" y="53.509277" width="0.011719" height="0.050293"/>
		</defs>
		<clipPath id="SVGID_6_">
			<use xlink:href="#SVGID_5_"  overflow="visible"/>
		</clipPath>
		<path clip-path="url(#SVGID_6_)" fill="#463751" d="M482.767578,53.509277c0.003906,0.016113,0.007812,0.033203,0.011719,0.050293
			C482.775391,53.54248,482.769531,53.525391,482.767578,53.509277"/>
	</g>
</g>
<g opacity="0.699997">
	<g>
		<defs>
			<rect id="SVGID_7_" x="470.679688" y="52.947266" width="0.458984" height="0.482422"/>
		</defs>
		<clipPath id="SVGID_8_">
			<use xlink:href="#SVGID_7_"  overflow="visible"/>
		</clipPath>
		<path clip-path="url(#SVGID_8_)" fill="#463751" d="M470.679688,52.947266c0.162109,0.15332,0.308594,0.319336,0.458984,0.482422
			C470.988281,53.265625,470.841797,53.100586,470.679688,52.947266"/>
	</g>
</g>
<g opacity="0.699997">
	<g>
		<defs>
			<rect id="SVGID_9_" x="465.023438" y="46.925293" width="16.751953" height="5.922363"/>
		</defs>
		<clipPath id="SVGID_10_">
			<use xlink:href="#SVGID_9_"  overflow="visible"/>
		</clipPath>
		<path clip-path="url(#SVGID_10_)" fill="#463751" d="M481.775391,51.654785c-0.9375-1.141113-2.34375-1.880859-3.939453-1.880859
			c-0.072266,0-0.140625,0.00293-0.208984,0.004883c-0.978516-0.885742-2.279297-1.425781-3.701172-1.425781
			c-1.5625,0-2.974609,0.650879-3.976562,1.694824c0.001953-0.050781,0.003906-0.101074,0.003906-0.153809
			c0-1.180176-0.515625-2.230957-1.322266-2.968262h-3.607422v3.638184c2.130859,0.099121,4.0625,0.943848,5.539062,2.28418
			c-0.496094-0.454102-1.037109-0.861328-1.628906-1.193359H481.775391z"/>
	</g>
</g>
<g opacity="0.699997">
	<g>
		<defs>
			<rect id="SVGID_11_" x="482.369141" y="52.536621" width="0.119141" height="0.25"/>
		</defs>
		<clipPath id="SVGID_12_">
			<use xlink:href="#SVGID_11_"  overflow="visible"/>
		</clipPath>
		<path clip-path="url(#SVGID_12_)" fill="#463751" d="M482.369141,52.537109c0.044922,0.082031,0.082031,0.166992,0.119141,0.25
			C482.451172,52.703125,482.412109,52.619141,482.369141,52.537109"/>
	</g>
</g>
<path fill="#1D1634" d="M482.949219,54.495117c-0.027344-0.320801-0.085938-0.635254-0.169922-0.935059
	c-0.003906-0.01709-0.007812-0.035156-0.011719-0.050781c-0.072266-0.249023-0.169922-0.489258-0.279297-0.722168
	c-0.037109-0.083008-0.074219-0.167969-0.117188-0.25c-0.076172-0.144043-0.166016-0.277832-0.253906-0.413086
	c-0.095703-0.14209-0.1875-0.286133-0.294922-0.418945c-0.013672-0.01709-0.03125-0.033203-0.046875-0.049805h-12.841797
	c0.591797,0.332031,1.132812,0.737793,1.628906,1.192871c0.037109,0.03418,0.078125,0.062988,0.117188,0.099121
	c0.162109,0.152832,0.308594,0.317871,0.458984,0.48291c0.095703,0.105957,0.195312,0.207031,0.287109,0.317871
	c0.130859,0.160156,0.25,0.329102,0.371094,0.49707c0.060547,0.084961,0.128906,0.162109,0.185547,0.25H482.949219z"/>
<path fill="#9361A3" d="M482.859375,42.101074h-52.535156h-9.080078l-6.730469,2.731934
	c-2.640625,0-5.40625-0.593262-5.40625,2.044922s2.134766,4.776855,4.775391,4.776855h7.361328h9.080078h52.535156
	c2.636719,0,4.777344-2.138672,4.777344-4.776855S485.496094,42.101074,482.859375,42.101074"/>
<polygon fill="#A5D2D0" points="431.474609,106.805664 431.474609,115.278809 446.212891,115.278809 "/>
<polygon fill="#FFFFFF" points="465.271484,106.805664 465.271484,115.278809 450.53125,115.278809 "/>
<polygon fill="#29265A" points="443.21875,82.571289 441.427734,92.841309 448.371094,92.841309 448.371094,82.571289 "/>
<g opacity="0.199997">
	<g>
		<defs>
			<rect id="SVGID_13_" x="448.369141" y="82.571289" width="6.945312" height="10.27002"/>
		</defs>
		<clipPath id="SVGID_14_">
			<use xlink:href="#SVGID_13_"  overflow="visible"/>
		</clipPath>
		<polygon clip-path="url(#SVGID_14_)" fill="#72698D" points="453.521484,82.571289 448.371094,82.571289 448.371094,92.841309 
			455.314453,92.841309 		"/>
	</g>
</g>
<polygon fill="#4C4E9D" points="453.521484,82.571289 448.371094,82.571289 448.371094,92.841309 455.314453,92.841309 "/>
<path fill="#1D1634" d="M444.5625,96.913086c-0.193359,0-0.386719-0.073242-0.535156-0.222168
	c-0.296875-0.294922-0.296875-0.773926,0-1.070801c2.392578-2.391113,6.287109-2.393066,8.683594,0
	c0.294922,0.294922,0.296875,0.774902,0,1.070801c-0.292969,0.293945-0.773438,0.294922-1.070312,0
	c-1.804688-1.803711-4.740234-1.800781-6.542969,0C444.949219,96.839844,444.753906,96.913086,444.5625,96.913086"/>
<path fill="#1D1634" d="M437.123047,65.84375c-0.664062-0.662598-1.513672-0.983887-2.376953-0.989746
	c-0.871094,0.005859-1.716797,0.327148-2.380859,0.989746h0.003906c-0.791016,0.790039-2.070312,0.790039-2.857422,0
	c-0.787109-0.787598-0.787109-2.065918,0-2.85498c1.4375-1.441895,3.345703-2.170898,5.234375-2.170898
	c1.886719,0,3.789062,0.729004,5.234375,2.170898c0.787109,0.789062,0.787109,2.067383-0.003906,2.85498
	c-0.392578,0.39502-0.910156,0.594238-1.423828,0.594238C438.037109,66.437988,437.519531,66.23877,437.123047,65.84375"/>
<path fill="#29265A" d="M456.759766,65.845215c-0.787109-0.786133-0.787109-2.063965-0.003906-2.85498
	c1.441406-1.444336,3.353516-2.17334,5.238281-2.168945c1.886719-0.004395,3.789062,0.724609,5.232422,2.168945h0.003906
	c0.785156,0.786621,0.785156,2.064941-0.003906,2.85498c-0.789062,0.787109-2.066406,0.787109-2.853516,0
	c-0.662109-0.662109-1.515625-0.98291-2.378906-0.988281c-0.871094,0.005371-1.716797,0.326172-2.376953,0.984375
	c-0.390625,0.396973-0.912109,0.59668-1.429688,0.59668S457.15625,66.240234,456.759766,65.845215"/>
<path fill="#1D1634" d="M461.994141,60.821289L461.994141,60.821289c-1.884766-0.004395-3.796875,0.724609-5.238281,2.168945
	c-0.783203,0.791016-0.783203,2.068848,0.003906,2.85498c0.396484,0.39502,0.910156,0.592773,1.427734,0.592773
	s1.039062-0.199707,1.431641-0.59668c0.658203-0.658203,1.503906-0.979004,2.375-0.984375V60.821289z"/>
<path fill="#9361A3" d="M458.644531,39.710938h20.183594v-9.254883C478.828125,13.635254,465.189453,0,448.373047,0
	c-16.824219,0-30.460938,13.635254-30.460938,30.456055v9.254883H458.644531z"/>
<path fill="#823C8E" d="M448.373047,0.000488c-16.822266,0-30.460938,13.634766-30.460938,30.455078v9.255859h30.457031
	L448.373047,0.000488z"/>
<path fill="none" stroke="#C2A6CC" stroke-linecap="round" stroke-linejoin="round" stroke-miterlimit="10" d="
	M472.347656,30.456055c0-13.221191-10.755859-23.977051-23.974609-23.977051"/>
<path fill="#C2A6CC" d="M487.017578,44.568848c-0.816406-1.464844-2.363281-2.467773-4.158203-2.467773h-60.513672
	c-1.794922,0-11.806641,1.00293-12.619141,2.467773H487.017578z"/>
<path fill="#823C8E" d="M418.189453,46.87793c0-2.637695,2.136719-4.776855,4.777344-4.776855h-9.083984
	c-2.640625,0-4.775391,2.13916-4.775391,4.776855c0,2.638184,2.134766,4.776855,4.775391,4.776855h9.083984h59.892578
	c2.636719,0,4.777344-2.138672,4.777344-4.776855H418.189453z"/>
<path fill="#1D1634" d="M414.953125,51.654785c-0.740234,0.893066-1.205078,2.024902-1.205078,3.274902
	c0,2.490234,1.763672,4.568359,4.109375,5.052246c-0.347656,0.457031-0.552734,1.027832-0.552734,1.646973
	c0,1.470215,1.166016,2.669922,2.621094,2.724121c-0.675781,0.778809-1.082031,1.794922-1.082031,2.906738
	c0,2.455078,1.992188,4.444336,4.443359,4.444336V59.35498c2.822266-0.241211,5.037109-2.606934,5.037109-5.489258
	c0-0.292969-0.017578-0.57666-0.0625-0.855957c0.695312,0.571289,1.583984,0.914062,2.556641,0.914062
	c1.587891,0,2.951172-0.930176,3.607422-2.269043h-11.458984H414.953125z"/>
<rect x="444.351562" y="113.66748" fill="#823C8E" width="8.044922" height="8.047852"/>
<rect x="448.373047" y="113.66748" fill="#574790" width="4.023438" height="8.047852"/>
<path fill="#823C8E" d="M448.373047,121.71582c-2.091797,0-3.785156,1.695312-3.785156,3.783203v1.501953h7.570312v-1.501953
	C452.158203,123.411133,450.464844,121.71582,448.373047,121.71582"/>
<path fill="#574790" d="M448.373047,121.71582v5.285156h3.785156v-1.501953
	C452.158203,123.411133,450.464844,121.71582,448.373047,121.71582"/>
<rect x="448.373047" y="113.66748" fill="#C2A6CC" width="4.023438" height="8.047852"/>
<path fill="#C2A6CC" d="M448.373047,121.71582v5.285156h3.785156v-1.501953
	C452.158203,123.411133,450.464844,121.71582,448.373047,121.71582"/>
<path fill="#FFFFFF" d="M58.039062,114.562012l-7.138672,1.214844v-0.283203h-6.383789v-1.955566
	c0.329102-0.455078,0.744141-0.844238,1.248047-1.125c0.910156-0.507324,1.956055-0.629395,2.958008-0.347168
	c0.508789,0.147949,1.050781,0.083008,1.515625-0.176758c0.466797-0.262207,0.804688-0.686035,0.949219-1.199219
	c0.28418-1,0.939453-1.831055,1.84375-2.335938c0.910156-0.51123,1.959961-0.633301,2.956055-0.349121
	c0.515625,0.144043,1.056641,0.081055,1.521484-0.176758c0.46582-0.260254,0.803711-0.686035,0.947266-1.199219
	c0.28418-1,0.939453-1.831055,1.845703-2.335938c0.908203-0.506836,1.959961-0.628906,2.954102-0.347168
	c1.058594,0.306152,2.169922-0.314941,2.467773-1.376953c0.586914-2.064941,2.744141-3.272949,4.800781-2.682129
	c0.503906,0.14209,0.795898,0.664062,0.654297,1.166016c-0.144531,0.501953-0.669922,0.80127-1.166992,0.651367
	c-0.514648-0.144043-1.057617-0.081055-1.520508,0.177734c-0.466797,0.262207-0.803711,0.687988-0.947266,1.202148
	l-8.701172,11.518066C58.579102,114.550781,58.311523,114.51709,58.039062,114.562012"/>
<path fill="#1D1634" d="M10.460938,31.92627c-4.125977,4.125-6.678711,9.824219-6.678711,16.119141
	c-0.000977,5.833984,2.223633,11.669922,6.675781,16.121094c2.473633-2.472168,4.00293-5.88916,4.00293-9.662109
	c0-2.843262,2.304688-5.146973,5.147461-5.146973c13.144531,0,23.800781-10.65625,23.800781-23.80127H14.246094L10.460938,31.92627z
	"/>
<path fill="#29265A" d="M76.357422,33.815918c4.125977,4.124023,6.678711,9.82373,6.678711,16.118652
	c0.000977,5.833984-2.223633,11.669922-6.675781,16.121094c-2.472656-2.472168-4.00293-5.88916-4.00293-9.662109
	c0-2.842773-2.304688-5.146973-5.146484-5.146973c-13.145508,0-23.801758-10.655762-23.801758-23.800781h29.163086
	L76.357422,33.815918z"/>
<rect x="44.829102" y="116.961426" fill="#D98B81" width="4.605469" height="9.209961"/>
<rect x="40.224609" y="116.961426" fill="#CE6460" width="4.604492" height="9.209961"/>
<path fill="#C74149" d="M57.430664,126.978516l-7.996094-1.36084v-8.103027l7.996094-1.361816
	c0.924805-0.157227,1.769531,0.555664,1.769531,1.493652v7.839355C59.200195,126.42334,58.355469,127.135742,57.430664,126.978516"
	/>
<path fill="#9E252F" d="M32.227539,116.152832l7.996094,1.361328v8.103027l-7.996094,1.361816
	c-0.924805,0.157227-1.769531-0.555664-1.769531-1.494141v-7.838867
	C30.458008,116.708008,31.302734,115.996094,32.227539,116.152832"/>
<path fill="#1D1634" d="M37.34082,60.048828l-8.243164-2.576172c-1.180664-0.370605-2.46582-0.301758-3.601562,0.189941
	l-5.761719,2.498047c-0.111328,0.049316-0.167969,0.17334-0.130859,0.289062c0.039062,0.117188,0.150391,0.184082,0.276367,0.158203
	l4.46875-0.993164c0.641602-0.14209,1.313477-0.214844,1.992188-0.214844c3.430664,0,6.164062,1.845703,6.188477,1.861816
	c0.599609,0.425293,1.304688,0.648926,2.037109,0.648926c1.150391,0,2.233398-0.561035,2.898438-1.5
	c0.041992-0.062012,0.053711-0.140625,0.029297-0.211914C37.470703,60.126953,37.413086,60.070801,37.34082,60.048828"/>
<path fill="#D98B81" d="M43.370117,90.208008l8.927734,1.156738c-2.288086,2.289062-5.447266,3.704102-8.927734,3.704102V90.208008z
	"/>
<path fill="#CE6460" d="M43.370117,90.208008l-8.926758,1.156738c2.288086,2.289062,5.447266,3.704102,8.926758,3.704102V90.208008z
	"/>
<path fill="#C74149" d="M43.370117,89.406738c0.725586-0.006836,2.341797-0.969727,3.179688-0.969727
	c2.660156,0,7.071289,2.155762,7.071289,2.155762c-0.512695,0.513184-1.220703,0.831055-2.001953,0.831055l-6.24707-0.547852
	c-0.512695,0.513184-1.222656,0.830078-2.001953,0.830078V89.406738z"/>
<path fill="#9E252F" d="M43.370117,89.406738c-0.724609-0.006836-2.34082-0.969727-3.178711-0.969727
	c-2.660156,0-7.072266,2.155762-7.072266,2.155762c0.513672,0.513184,1.22168,0.831055,2.001953,0.831055l6.24707-0.547852
	c0.513672,0.513184,1.223633,0.830078,2.001953,0.830078V89.406738z"/>
<path fill="#1D1634" d="M49.400391,60.048828l8.243164-2.576172c1.180664-0.370605,2.46582-0.301758,3.601562,0.189941
	l5.761719,2.498047c0.111328,0.049316,0.167969,0.17334,0.130859,0.289062c-0.039062,0.117188-0.150391,0.184082-0.276367,0.158203
	l-4.46875-0.993164c-0.641602-0.14209-1.313477-0.214844-1.992188-0.214844c-3.430664,0-6.164062,1.845703-6.188477,1.861816
	c-0.599609,0.425293-1.304688,0.648926-2.037109,0.648926c-1.151367,0-2.234375-0.561035-2.898438-1.5
	c-0.041992-0.062012-0.053711-0.140625-0.029297-0.211914C49.270508,60.126953,49.328125,60.070801,49.400391,60.048828"/>
<rect x="11.374023" y="17.97168" fill="#915D2E" width="64.070312" height="6.228027"/>
<path fill="#6A4322" d="M79.732422,24.199707H6.837891L0,30.99707c8.290039,3.461914,17.198242,3.236816,24.899414,0.072754
	c11.426758-4.692871,24.646484-5.027832,36.945312,0.108887c8.289062,3.462402,17.197266,3.237305,24.898438,0.074219
	L79.732422,24.199707z"/>
<path fill="#6A4322" d="M43.40918,2.000488H24.415039c-6.31543,0-11.483398,5.167969-11.483398,11.483887v4.487305H43.40918
	V2.000488z"/>
<rect x="43.40918" y="17.97168" fill="#E0922F" width="32.035156" height="6.228027"/>
<path fill="#915D2E" d="M43.40918,2.000488H62.40332c6.317383,0,11.484375,5.167969,11.484375,11.483887v4.487305H43.40918V2.000488
	z"/>
<path fill="none" stroke="#FFFFFF" stroke-width="0.75" stroke-linecap="round" d="M58.191406,7.543457h4.212891
	c2.913086,0,5.344727,2.11084,5.844727,4.884766"/>
<path fill="#F0C431" d="M33.601562,18.45459c-2.907227,0-5.262695,1.177734-5.262695,2.630859s2.355469,2.630859,5.262695,2.630859
	l9.807617-2.630859L33.601562,18.45459z"/>
<path fill="#F0C431" d="M34.613281,26.160645c-2.054688,2.054688-2.887695,4.553711-1.861328,5.581543
	c1.02832,1.027344,3.527344,0.194336,5.582031-1.86084l5.075195-8.795898L34.613281,26.160645z"/>
<path fill="#F0C431" d="M40.777344,30.893555c0,2.90625,1.178711,5.263184,2.631836,5.263184
	c1.454102,0,2.631836-2.356934,2.631836-5.263184l-2.631836-9.808105L40.777344,30.893555z"/>
<path fill="#FFFFFF" d="M48.484375,29.881348c2.054688,2.055176,4.553711,2.888184,5.581055,1.861328
	c1.027344-1.02832,0.194336-3.526855-1.860352-5.582031l-8.795898-5.075195L48.484375,29.881348z"/>
<path fill="#FFFFFF" d="M53.216797,23.716797c2.90625,0,5.263672-1.177734,5.263672-2.630859s-2.357422-2.630859-5.263672-2.630859
	l-9.807617,2.630859L53.216797,23.716797z"/>
<path fill="#FFFFFF" d="M52.205078,16.01123c2.054688-2.055176,2.887695-4.554199,1.860352-5.582031
	c-1.027344-1.027344-3.526367-0.194336-5.581055,1.86084l-5.075195,8.795898L52.205078,16.01123z"/>
<path fill="#FFFFFF" d="M46.040039,11.277832c0-2.90625-1.177734-5.263184-2.630859-5.263184s-2.631836,2.356934-2.631836,5.263184
	l2.631836,9.808105L46.040039,11.277832z"/>
<path fill="#F0C431" d="M38.334961,12.289551c-2.055664-2.054688-4.554688-2.887695-5.582031-1.86084
	c-1.027344,1.02832-0.194336,3.526855,1.860352,5.582031l8.795898,5.075195L38.334961,12.289551z"/>
<path fill="#C74149" d="M43.40918,26.01709c2.723633,0,4.931641-2.208008,4.931641-4.932129
	c0-2.723145-2.208008-4.931152-4.931641-4.931152V26.01709z"/>
<path fill="#9E252F" d="M43.40918,16.153809c-2.722656,0-4.931641,2.208008-4.931641,4.932129
	c0,2.722656,2.208984,4.930664,4.931641,4.930664V16.153809z"/>
<path fill="#FEEE84" d="M31.618164,114.562012l7.139648,1.214844v-0.283203h6.383789v-1.955566
	c-0.329102-0.455078-0.744141-0.844238-1.248047-1.125c-0.910156-0.507324-1.956055-0.629395-2.958008-0.347168
	c-0.508789,0.147949-1.050781,0.083008-1.515625-0.176758c-0.467773-0.262207-0.804688-0.686035-0.949219-1.199219
	c-0.28418-1-0.939453-1.831055-1.84375-2.335938c-0.910156-0.51123-1.959961-0.633301-2.956055-0.349121
	c-0.515625,0.144043-1.056641,0.081055-1.521484-0.176758c-0.46582-0.260254-0.803711-0.686035-0.948242-1.199219
	c-0.283203-1-0.938477-1.831055-1.844727-2.335938c-0.908203-0.506836-1.959961-0.628906-2.954102-0.347168
	c-1.058594,0.306152-2.169922-0.314941-2.467773-1.376953c-0.586914-2.064941-2.744141-3.272949-4.800781-2.682129
	c-0.503906,0.14209-0.795898,0.664062-0.654297,1.166016c0.144531,0.501953,0.669922,0.80127,1.166992,0.651367
	c0.513672-0.144043,1.057617-0.081055,1.520508,0.177734c0.466797,0.262207,0.803711,0.687988,0.947266,1.202148l8.701172,11.518066
	C31.079102,114.550781,31.34668,114.51709,31.618164,114.562012"/>
<rect x="353.914062" y="47.515625" fill="#1D1634" width="8.636719" height="1.726074"/>
<rect x="271.59668" y="42.82959" fill="#1D1634" width="8.633789" height="4.193848"/>
<rect x="264.193359" y="40.606445" fill="#249796" width="8.635742" height="8.635254"/>
<rect x="264.193359" y="47.515625" fill="#1D1634" width="8.635742" height="1.726074"/>
<rect x="346.511719" y="42.828613" fill="#249796" width="5.798828" height="3.083984"/>
<rect x="346.511719" y="42.82959" fill="#A5D2D0" width="5.798828" height="1.47998"/>
<rect x="346.511719" y="45.912598" fill="#1D1634" width="8.636719" height="1.11084"/>
<rect x="352.310547" y="42.82959" fill="#1D1634" width="2.837891" height="4.193848"/>
<rect x="353.914062" y="40.606445" fill="#A5D2D0" width="8.636719" height="2.960938"/>
<rect x="353.914062" y="43.566406" fill="#249796" width="8.636719" height="3.948242"/>
<path fill="#FFFFFF" d="M340.355469,65.241211c0,7.106934-5.779297,12.887207-12.886719,12.887207
	s-12.886719-5.780273-12.886719-12.887207H340.355469z"/>
<path fill="#FEEE84" d="M337,65.239746c0,5.26416-4.267578,9.53125-9.533203,9.53125c-5.261719,0-9.53125-4.26709-9.53125-9.53125
	H337z"/>
<path fill="#F0C431" d="M334.203125,65.239746c0,3.720215-3.015625,6.736328-6.736328,6.736328
	c-3.71875,0-6.736328-3.016113-6.736328-6.736328H334.203125z"/>
<path fill="#C5384D" d="M330.091797,65.239746c0,1.449219-1.173828,2.624023-2.625,2.624023
	c-1.449219,0-2.623047-1.174805-2.623047-2.624023H330.091797z"/>
<path fill="#FFFFFF" d="M312.160156,65.241211c0,7.106934-5.779297,12.887207-12.885742,12.887207
	c-7.109375,0-12.886719-5.780273-12.886719-12.887207H312.160156z"/>
<path fill="#FEEE84" d="M308.804688,65.239746c0,5.26416-4.267578,9.53125-9.53125,9.53125
	c-5.264648,0-9.532227-4.26709-9.532227-9.53125H308.804688z"/>
<path fill="#F0C431" d="M306.009766,65.239746c0,3.720215-3.017578,6.736328-6.736328,6.736328
	c-3.719727,0-6.737305-3.016113-6.737305-6.736328H306.009766z"/>
<path fill="#C5384D" d="M301.897461,65.239746c0,1.449219-1.174805,2.624023-2.624023,2.624023
	s-2.624023-1.174805-2.624023-2.624023H301.897461z"/>
<path fill="#5DB5AE" d="M327.845703,121.570801h-9.212891c-2.896484,0-5.242188-2.337891-5.259766-5.22998
	c0-0.008789-0.001953-0.021973-0.001953-0.029785c0,0.003906,0,0.005859,0,0.007812v-0.009766
	c0,0.009766-0.001953,0.024902-0.001953,0.033691c-0.019531,2.89209-2.365234,5.230957-5.259766,5.230957h-9.211914
	l-13.158203-13.157715l12.625977,18.584961h10.625c1.730469,0,3.283203-0.73291,4.380859-1.901855
	c1.099609,1.166016,2.652344,1.898926,4.382812,1.898926h10.623047l7.529297-13.485352L327.845703,121.570801z"/>
<line fill="none" x1="313.371094" y1="114.345215" x2="313.371094" y2="114.335449"/>
<polygon fill="#A5D2D0" points="327.845703,121.570801 318.632812,121.570801 318.632812,126.998047 328.376953,126.998047 
	341.005859,108.413086 "/>
<path fill="#5DB5AE" d="M346.349609,19.515137l-4.710938,4.709961l-4.708984-4.709961l-4.712891,4.709961l-4.708984-4.709961
	l-4.710938,4.709961l-4.710938-4.709961l-4.712891,4.709961l-4.710938-4.709961l-4.710938,4.709961l-4.710938-4.709961
	l-4.709961,4.709961l-4.712891-4.709961l-4.709961,4.709961l-4.711914-4.709961l-0.001953,0.001953v33.049805l-6.000977-39.376953
	C274.392578,7.010254,279.402344,2,285.583008,2h55.579102c6.179688,0,11.191406,5.010254,11.191406,11.189941l-6.003906,39.376953
	V19.515137z"/>
<path fill="none" stroke="#FFFFFF" stroke-linecap="round" stroke-linejoin="round" d="M348.203125,12.283691
	c-0.453125-3.530273-3.480469-6.190918-7.041016-6.190918h-5.585938"/>
<path fill="#249796" d="M285.583008,2.000488c-6.180664,0-11.19043,5.009766-11.19043,11.188965l6.000977,39.376953V19.517578
	l0.001953-0.001953l4.711914,4.709961l4.709961-4.709961l4.711914,4.709961l4.710938-4.709961l4.710938,4.709961l4.710938-4.709961
	l4.710938,4.709961V2.000488H285.583008z"/>
<path fill="#5DB5AE" d="M290.217773,50.677734c-0.194336,0-0.384766-0.075684-0.522461-0.213867
	c-0.137695-0.137207-0.217773-0.327148-0.217773-0.520996V39.907715c0-0.195801,0.080078-0.387695,0.217773-0.523926
	c0.137695-0.137695,0.328125-0.214844,0.522461-0.214844h3.666016c0.198242,0,0.388672,0.077148,0.525391,0.214844
	c0.137695,0.13623,0.213867,0.328125,0.213867,0.523926v10.035156c0,0.198242-0.076172,0.383789-0.213867,0.520996
	c-0.140625,0.14209-0.327148,0.213867-0.525391,0.213867H290.217773z"/>
<path fill="#5DB5AE" d="M300.876953,50.616211c-0.193359,0-0.383789-0.075684-0.521484-0.213867
	c-0.136719-0.137207-0.216797-0.327148-0.216797-0.520996V39.846191c0-0.196777,0.080078-0.387695,0.216797-0.523926
	c0.137695-0.138184,0.328125-0.214844,0.521484-0.214844h3.666016c0.199219,0,0.388672,0.07666,0.525391,0.214844
	c0.138672,0.13623,0.214844,0.327148,0.214844,0.523926v10.035156c0,0.197754-0.076172,0.383789-0.214844,0.520996
	c-0.140625,0.143066-0.326172,0.213867-0.525391,0.213867H300.876953z"/>
<path fill="#5DB5AE" d="M304.542969,49.880859v-0.739746V49.880859z"/>
<path fill="#1D1634" d="M331.216797,94.435547c0-0.40918-0.333984-0.740234-0.740234-0.740234
	c-0.410156,0-0.742188,0.331055-0.742188,0.740234c0,2.493164-2.025391,4.52002-4.521484,4.52002h-2.017578
	c1.277344-1.100098,2.099609-2.708008,2.099609-4.52002c0-0.40918-0.332031-0.740234-0.738281-0.740234
	c-0.408203,0-0.740234,0.331055-0.740234,0.740234c0,2.493164-2.029297,4.52002-4.523438,4.52002h-11.841797
	c-2.494141,0-4.523438-2.026855-4.523438-4.52002c0-0.40918-0.330078-0.740234-0.740234-0.740234
	c-0.408203,0-0.739258,0.331055-0.739258,0.740234c0,1.812012,0.823242,3.419922,2.098633,4.52002h-2.017578
	c-2.492188,0-4.521484-2.026855-4.521484-4.52002c0-0.40918-0.332031-0.740234-0.741211-0.740234
	c-0.408203,0-0.740234,0.331055-0.740234,0.740234c0,3.310059,2.692383,6.000977,6.00293,6.000977h0.043945
	c-1.273438,1.102051-2.098633,2.709961-2.098633,4.522949c0,0.408203,0.331055,0.739258,0.740234,0.739258
	s0.741211-0.331055,0.741211-0.739258c0-2.494141,2.026367-4.522949,4.520508-4.522949h2.017578
	c-1.275391,1.102051-2.099609,2.709961-2.099609,4.522949c0,0.408203,0.332031,0.739258,0.740234,0.739258
	c0.410156,0,0.740234-0.331055,0.740234-0.739258c0-2.494141,2.029297-4.522949,4.523438-4.522949h3.945312
	c2.494141,0,4.523438,2.028809,4.523438,4.522949c0,0.408203,0.332031,0.739258,0.740234,0.739258
	c0.410156,0,0.742188-0.331055,0.742188-0.739258c0-1.812988-0.826172-3.420898-2.099609-4.522949h2.015625
	c2.494141,0,4.523438,2.028809,4.523438,4.522949c0,0.408203,0.332031,0.739258,0.738281,0.739258
	c0.410156,0,0.740234-0.331055,0.740234-0.739258c0-1.812988-0.822266-3.420898-2.095703-4.522949h0.041016
	C328.521484,100.436523,331.216797,97.745605,331.216797,94.435547"/>
<path fill="#B6B5D9" d="M174.509766,64.006348c0,6.460938-5.238281,11.69873-11.699219,11.69873
	s-11.701172-5.237793-11.701172-11.69873c0-6.461426,5.240234-11.701172,11.701172-11.701172
	S174.509766,57.544922,174.509766,64.006348"/>
<path fill="#915D2E" d="M202.899414,31.443848c0-0.42334-0.34375-0.76709-0.768555-0.76709
	c-0.428711,0-0.771484,0.34375-0.771484,0.76709v3.421875h-8.62793v-7.008789c0-0.424316-0.344727-0.769043-0.769531-0.769043
	c-0.428711,0-0.773438,0.344727-0.773438,0.769043v7.008789h-47.68457c0-19.255859,25.637695-34.865234,34.866211-34.865234
	c9.230469,0,34.865234,15.609375,34.865234,34.865234h-10.335938V31.443848z"/>
<path fill="#6A4322" d="M178.369141,34.864258c0,0-34.865234,0-34.865234,0.000977C143.503906,15.609375,169.141602,0,178.370117,0
	L178.369141,34.864258z"/>
<path fill="#E0922F" d="M213.580078,36.864746c1.299805,1.143066,2.137695,2.796875,2.137695,4.663086
	c0,0.424805-0.344727,0.769043-0.769531,0.769043c-0.427734,0-0.767578-0.344238-0.767578-0.769043
	c-0.007812-2.594238-2.108398-4.695312-4.703125-4.699219h-3.287109c1.323242,1.144043,2.177734,2.812988,2.177734,4.699219
	c0,0.424805-0.34375,0.769043-0.768555,0.769043c-0.428711,0-0.768555-0.344238-0.768555-0.769043
	c-0.003906-2.594238-2.107422-4.695312-4.697266-4.699219h-6.114258c1.322266,1.144043,2.177734,2.812988,2.177734,4.699219
	c0,0.424805-0.34375,0.769043-0.768555,0.769043c-0.422852,0-0.768555-0.344238-0.768555-0.769043
	c-0.003906-2.594238-2.103516-4.695312-4.699219-4.699219h-40.422852c-2.594727,0.003906-10.438477,1.452148-10.441406,4.047852
	c0.00293,2.595215-0.1875,3.960449,2.408203,3.965332l69.730469,0.082031c2.597656-0.003906,4.698242-0.79834,4.702148-3.394043
	C217.933594,39.052734,216.014648,37.046875,213.580078,36.864746"/>
<path fill="#574790" d="M162.810547,76.474609c-6.875977,0-12.469727-5.594238-12.469727-12.468262
	c0-6.876953,5.59375-12.469727,12.469727-12.469727c6.875,0,12.46875,5.592773,12.46875,12.469727
	C175.279297,70.880371,169.685547,76.474609,162.810547,76.474609 M162.810547,53.074219
	c-6.027344,0-10.931641,4.904297-10.931641,10.932129c0,6.026855,4.904297,10.930176,10.931641,10.930176
	c6.026367,0,10.929688-4.90332,10.929688-10.930176C173.740234,57.978516,168.836914,53.074219,162.810547,53.074219"/>
<path fill="#574790" d="M151.109375,64.774902h-5.639648c-0.424805,0-0.768555-0.344238-0.768555-0.769043
	c0-0.425293,0.34375-0.77002,0.768555-0.77002h5.639648c0.425781,0,0.769531,0.344727,0.769531,0.77002
	C151.878906,64.430664,151.535156,64.774902,151.109375,64.774902"/>
<path fill="#574790" d="M211.271484,64.774902h-5.639648c-0.425781,0-0.770508-0.344238-0.770508-0.769043
	c0-0.425293,0.344727-0.77002,0.770508-0.77002h5.639648c0.423828,0,0.769531,0.344727,0.769531,0.77002
	C212.041016,64.430664,211.695312,64.774902,211.271484,64.774902"/>
<path fill="#1D1634" d="M162.810547,76.474609c-6.875977,0-12.469727-5.594238-12.469727-12.468262
	c0-6.876953,5.59375-12.469727,12.469727-12.469727c6.875,0,12.46875,5.592773,12.46875,12.469727
	C175.279297,70.880371,169.685547,76.474609,162.810547,76.474609 M162.810547,53.074219
	c-6.027344,0-10.931641,4.904297-10.931641,10.932129c0,6.026855,4.904297,10.930176,10.931641,10.930176
	c6.026367,0,10.929688-4.90332,10.929688-10.930176C173.740234,57.978516,168.836914,53.074219,162.810547,53.074219"/>
<path fill="#29265A" d="M172.714844,64.006348c0,5.469727-4.43457,9.903809-9.904297,9.903809
	c-5.470703,0-9.905273-4.434082-9.905273-9.903809c0-5.470215,4.43457-9.90625,9.905273-9.90625
	C168.280273,54.100098,172.714844,58.536133,172.714844,64.006348"/>
<path fill="#1D1634" d="M162.810547,54.099609c-5.470703,0-9.905273,4.436035-9.905273,9.905762
	c0,5.470215,4.43457,9.905273,9.905273,9.905273V54.099609z"/>
<path fill="#1D1634" d="M151.109375,64.774902h-5.639648c-0.424805,0-0.768555-0.344238-0.768555-0.769043
	c0-0.425293,0.34375-0.77002,0.768555-0.77002h5.639648c0.425781,0,0.769531,0.344727,0.769531,0.77002
	C151.878906,64.430664,151.535156,64.774902,151.109375,64.774902"/>
<path fill="#1D1634" d="M211.271484,64.774902h-5.639648c-0.425781,0-0.770508-0.344238-0.770508-0.769043
	c0-0.425293,0.344727-0.77002,0.770508-0.77002h5.639648c0.423828,0,0.769531,0.344727,0.769531,0.77002
	C212.041016,64.430664,211.695312,64.774902,211.271484,64.774902"/>
<path fill="#915D2E" d="M215.717773,41.529785c-0.00293,0.423828-0.345703,0.76709-0.768555,0.76709
	c-0.426758,0-0.767578-0.343262-0.768555-0.76709h-5.811523c-0.001953,0.423828-0.345703,0.76709-0.769531,0.76709
	c-0.428711,0-0.766602-0.343262-0.767578-0.76709h-8.633789c-0.00293,0.423828-0.345703,0.76709-0.769531,0.76709
	c-0.422852,0-0.764648-0.343262-0.767578-0.76709h-39.313477c0-2.012207,1.100586-3.750977,2.717773-4.701172h-9.724609
	c-2.595703,0.003906-7.616211,2.10498-7.619141,4.701172c0.00293,2.595703-1.8125,3.307129,0.783203,3.312012l69.731445,0.082031
	c2.59668-0.005371,4.697266-0.79834,4.702148-3.394043H215.717773z"/>
<path fill="#6A4322" d="M151.539062,46.230469c-2.595703-0.004883-4.697266-2.10498-4.701172-4.700684
	c0.003906-2.596191,2.105469-4.697266,4.701172-4.701172h-8.033203c-2.595703,0.003906-4.697266,2.10498-4.700195,4.701172
	c0.00293,2.595703,2.104492,4.695801,4.700195,4.700684H151.539062z"/>
<path fill="#6A4322" d="M139.227539,43.452637c0.736328,1.632812,2.369141,2.774902,4.27832,2.777832h69.731445
	c1.90918-0.00293,3.542969-1.14502,4.279297-2.777832H139.227539z"/>
<path fill="#4C4E9D" d="M188.581055,93.898926c0,0,4.083984,2.400879,4.083984,4.460938
	c0,2.057129-0.742188,8.060059-5.383789,8.060059c-4.640625,0-6.49707-5.48877-6.49707-5.48877h-2.413086v20.928711h2.014648
	c4.756836,0,21.297852-7.647949,25.004883-17.674805c1.438477-11.228027,4.818359-32.915039,4.818359-32.915039l-8.168945,13.539062
	c1.113281,5.658691-5.992188,11.656738-5.992188,11.656738s-1.486328-5.316895-5.569336-7.204102
	c-4.084961-1.886719-8.858398-5.687012-8.858398-5.687012l-3.249023,0.001953v8.362305
	C179.173828,92.347168,182.614258,93.898926,188.581055,93.898926"/>
<g opacity="0.699997">
	<g>
		<defs>
			<rect id="SVGID_15_" x="205.195312" y="104.182617" width="0.196289" height="1.552734"/>
		</defs>
		<clipPath id="SVGID_16_">
			<use xlink:href="#SVGID_15_"  overflow="visible"/>
		</clipPath>
		<path clip-path="url(#SVGID_16_)" fill="#463751" d="M205.195312,105.734863
			c0.05957-0.487793,0.125977-1.012695,0.196289-1.551758l-0.000977,0.001953
			C205.321289,104.724121,205.253906,105.24707,205.195312,105.734863"/>
	</g>
</g>
<g opacity="0.699997">
	<g>
		<defs>
			<rect id="SVGID_17_" x="151.350586" y="104.185547" width="0.195312" height="1.549805"/>
		</defs>
		<clipPath id="SVGID_18_">
			<use xlink:href="#SVGID_17_"  overflow="visible"/>
		</clipPath>
		<path clip-path="url(#SVGID_18_)" fill="#463751" d="M151.545898,105.734863
			c-0.060547-0.486816-0.125977-1.010742-0.195312-1.549805C151.419922,104.724121,151.485352,105.248047,151.545898,105.734863"/>
	</g>
</g>
<path fill="#29265A" d="M180.385742,121.860352h-2.014648V127h1.948242c5.012695,0,23.577148-10.631836,24.875977-21.264648
	c0.05957-0.488281,0.125977-1.01123,0.195312-1.55127C201.68457,114.212402,185.143555,121.860352,180.385742,121.860352"/>
<path fill="#29265A" d="M176.355469,121.860352h2.015625v-20.929199h-2.411133c0,0-1.857422,5.489258-6.498047,5.489258
	s-5.383789-6.003418-5.383789-8.061035c0-2.059082,4.084961-4.459961,4.084961-4.459961
	c5.96582,0,9.407227-1.553223,10.208008-1.960449v-8.361816l-3.25-0.00293c0,0-4.774414,3.799805-8.858398,5.687012
	s-5.568359,7.205078-5.568359,7.205078s-7.106445-5.998047-5.993164-11.658203l-8.167969-13.539062
	c0,0,3.379883,21.688965,4.817383,32.916016v-0.001953C155.055664,114.211426,171.597656,121.860352,176.355469,121.860352"/>
<path fill="#72698D" d="M176.355469,121.860352c-4.757812,0-21.299805-7.648926-25.004883-17.677246v0.000977
	c0.069336,0.540039,0.135742,1.063965,0.195312,1.55127C152.844727,116.368164,171.40918,127,176.420898,127h1.950195v-5.139648
	H176.355469z"/>
<g opacity="0.699997">
	<g>
		<defs>
			<rect id="SVGID_19_" x="151.350586" y="104.182617" width="27.020508" height="22.817871"/>
		</defs>
		<clipPath id="SVGID_20_">
			<use xlink:href="#SVGID_19_"  overflow="visible"/>
		</clipPath>
		<path clip-path="url(#SVGID_20_)" fill="#463751" d="M176.355469,121.860352c-4.757812,0-21.299805-7.648926-25.004883-17.677246
			v0.000977c0.069336,0.540039,0.135742,1.063965,0.195312,1.55127C152.844727,116.368164,171.40918,127,176.420898,127h1.950195
			v-5.139648H176.355469z"/>
	</g>
</g>
<path fill="#1D1634" d="M176.355469,121.860352c-4.757812,0-21.299805-7.648926-25.004883-17.677246v0.000977
	c0.069336,0.540039,0.135742,1.063965,0.195312,1.55127C152.844727,116.368164,171.40918,127,176.420898,127h1.950195v-5.139648
	H176.355469z"/>
<path fill="#B6B5D9" d="M201.530273,64.774902c-0.424805,0-0.769531-0.344238-0.769531-0.769043
	c0-3.765137-3.063477-6.829102-6.829102-6.829102c-0.424805,0-0.768555-0.345215-0.768555-0.769043
	s0.34375-0.769043,0.768555-0.769043c4.614258,0,8.367188,3.753906,8.367188,8.367188
	C202.298828,64.430664,201.955078,64.774902,201.530273,64.774902"/>
<path fill="#B6B5D9" d="M170.408203,64.774902c-0.424805,0-0.769531-0.344238-0.769531-0.769043
	c0-3.765137-3.0625-6.829102-6.829102-6.829102c-0.423828,0-0.767578-0.345215-0.767578-0.769043
	s0.34375-0.769043,0.767578-0.769043c4.613281,0,8.367188,3.753906,8.367188,8.367188
	C171.176758,64.430664,170.832031,64.774902,170.408203,64.774902"/>
</svg>
