<svg version="1.1" id="Calque_1" xmlns="http://www.w3.org/2000/svg" x="0px" y="0px" width="250px" height="105px" viewBox="0 0 250 105">

<path fill="#1E1E1E" d="M159.704102,93.922852V80.136719c0-7.136719,3.959961-11.02832,10.527344-11.02832
	c6.71582,0,10.527344,3.891602,10.827148,10.931641h-6.166016c-0.200195-3.543945-1.704102-5.071289-4.711914-5.071289
	c-2.555664,0-4.111328,1.624023-4.111328,5.167969v13.786133c0,3.447266,1.555664,5.070312,4.162109,5.070312
	c3.057617,0,4.561523-1.526367,4.8125-4.970703h6.166016c-0.250977,6.992188-4.209961,10.832031-10.978516,10.832031
	C163.714844,104.854492,159.704102,101.014648,159.704102,93.922852"/>
<rect x="188.766602" y="69.796875" fill="#1E1E1E" width="6.166016" height="34.463867"/>
<path fill="#1E1E1E" d="M224.583984,69.797852v34.463867h-6.117188l-6.767578-14.964844
	c-1.052734-2.709961-2.306641-5.861328-3.258789-8.418945l-0.149414,0.148438
	c0.451172,3.887695,0.750977,9.745117,0.750977,13.34082v9.894531h-6.066406V69.797852h6.117188l7.319336,16.199219
	c0.902344,2.216797,1.955078,4.922852,2.805664,7.039062l0.151367-0.147461
	c-0.501953-3.889648-0.853516-9.453125-0.853516-12.604492V69.797852H224.583984z"/>
<path fill="#1E1E1E" d="M250,98.552734v5.708984h-18.148438V69.796875h17.646484v5.713867h-11.481445v8.517578h10.52832v5.512695
	h-10.52832v9.011719H250z M241.527344,66.501953h-4.3125L241.927734,60h5.164062L241.527344,66.501953z"/>
<polygon fill="#1E1E1E" points="3.108398,72.701172 3.108398,85.946289 14.989258,85.946289 14.989258,88.751953 
	3.108398,88.751953 3.108398,104.358398 0.000488,104.358398 0.000488,69.895508 15.842285,69.895508 15.842285,72.701172 "/>
<path fill="#1E1E1E" d="M20.116699,93.674805v-13.09668c0-6.938477,3.758789-11.321289,10.075684-11.321289
	c6.317383,0,10.076172,4.382812,10.076172,11.321289v13.09668C40.268555,100.618164,36.509766,105,30.192383,105
	C23.875488,105,20.116699,100.618164,20.116699,93.674805 M37.109375,93.674805v-13.09668
	c0-5.314453-2.35498-8.366211-6.916992-8.366211s-6.918945,3.051758-6.918945,8.366211v13.09668
	c0,5.320312,2.356934,8.370117,6.918945,8.370117S37.109375,98.995117,37.109375,93.674805"/>
<path fill="#1E1E1E" d="M54.017578,90.916992h-3.859863v13.441406h-3.10791V69.894531h8.020996
	c6.467773,0,10.026855,3.692383,10.026855,10.094727c0,6.004883-2.907715,9.845703-7.720703,10.731445L66,104.358398h-3.610352
	L54.017578,90.916992z M50.157715,88.0625h4.864258c4.561035,0,6.916992-2.805664,6.916992-7.876953
	c0-4.922852-2.355957-7.432617-6.868164-7.432617h-4.913086V88.0625z"/>
<path fill="#1E1E1E" d="M96.241699,69.894531v34.464844h-3.105957V86.142578c0-3.643555,0.100098-6.694336,0.299805-9.745117
	l-0.199707-0.052734c-0.902832,2.461914-2.307129,5.761719-3.61084,9.060547l-4.311035,10.832031h-3.108398L77.89502,85.405273
	c-1.304199-3.298828-2.708008-6.598633-3.610352-9.060547l-0.199707,0.052734
	c0.199707,3.050781,0.299805,6.101562,0.299805,9.745117v18.216797h-3.108887V69.894531h3.309082l6.268066,14.869141
	c0.901855,2.216797,2.154785,5.760742,2.805664,7.680664h0.202148c0.650879-1.919922,1.903809-5.463867,2.807129-7.680664
	l6.265625-14.869141H96.241699z"/>
<path fill="#1E1E1E" d="M117.164062,96.285156H106.03418l-2.055176,8.073242h-3.308105l9.225098-34.463867h3.40918
	l9.223145,34.463867h-3.309082L117.164062,96.285156z M116.461914,93.526367l-3.608887-14.274414
	c-0.550781-2.117188-1.052734-4.578125-1.204102-5.416016h-0.099609c-0.149414,0.837891-0.651367,3.298828-1.202148,5.416016
	l-3.609863,14.274414H116.461914z"/>
<polygon fill="#1E1E1E" points="140.837891,72.75293 133.119141,72.75293 133.119141,104.358398 130.009766,104.358398 
	130.009766,72.75293 122.289062,72.75293 122.289062,69.895508 140.837891,69.895508 "/>
<path fill="#343471" d="M128.994141,23.793945h-2.088867c-5.144043,0-9.57666,3.085938-11.616699,7.48291
	c-0.758301,1.633789-1.209961,3.433105-1.209961,5.342773V50h27.742676V36.619629
	C141.821289,29.565918,136.049805,23.793945,128.994141,23.793945"/>
<path fill="#343471" d="M137.339844,9.407715c0,5.195801-4.211914,9.408203-9.408203,9.408203
	c-5.195312,0-9.407227-4.212402-9.407227-9.408203s4.211914-9.408203,9.407227-9.408203
	C133.12793-0.000488,137.339844,4.211914,137.339844,9.407715"/>
<polygon fill="#6666D5" points="151.211914,69.894531 148.857422,80.353516 146.707031,80.353516 147.78125,69.894531 "/>
<path fill="#6666D5" d="M113.260742,11.532715c0,5.195801-4.211914,9.407715-9.407715,9.407715
	c-5.195312,0-9.407227-4.211914-9.407227-9.407715c0-5.196289,4.211914-9.408203,9.407227-9.408203
	C109.048828,2.124512,113.260742,6.336426,113.260742,11.532715"/>
<polygon fill="#6666D5" points="144.229492,41.025391 144.229492,36.018555 160,30.000488 160,47.000488 "/>
	
	<path 
		class="fill-main"
		d="
			M 114.078613, 36.620117
			c 0-1.910156,0.452148-3.709961,1.209961-5.342773
			c-2.335938-3.228027-6.106934-5.358398-10.373047-5.358398h-2.088867c-7.055176,0-12.827148,5.770996-12.827148,12.826172V50
			h24.079102V36.620117z"
		/>
</svg>
