<?xml version="1.0" encoding="utf-8"?>
<!-- Generator: Adobe Illustrator 15.1.0, SVG Export Plug-In . SVG Version: 6.00 Build 0)  -->
<!DOCTYPE svg PUBLIC "-//W3C//DTD SVG 1.1//EN" "http://www.w3.org/Graphics/SVG/1.1/DTD/svg11.dtd">
<svg version="1.1" id="Calque_1" xmlns="http://www.w3.org/2000/svg" xmlns:xlink="http://www.w3.org/1999/xlink" x="0px" y="0px"
	 width="14.193359px" height="10px" viewBox="0 0 14.193359 10" enable-background="new 0 0 14.193359 10" xml:space="preserve">
<g>
	<defs>
		<rect id="SVGID_1_" width="14.194336" height="10"/>
	</defs>
	<clipPath id="SVGID_2_">
		<use xlink:href="#SVGID_1_"  overflow="visible"/>
	</clipPath>
	<path clip-path="url(#SVGID_2_)" fill="#969696" d="M13.897461,1.561523c-0.164062-0.615234-0.645508-1.098633-1.254883-1.262695
		C11.535156,0,7.09668,0,7.09668,0S2.658203,0,1.55127,0.298828c-0.61084,0.164062-1.09082,0.647461-1.254883,1.262695
		C0.000488,2.675781,0.000488,5,0.000488,5s0,2.324219,0.295898,3.438477C0.460449,9.053711,0.94043,9.537109,1.55127,9.701172
		C2.658203,10,7.09668,10,7.09668,10s4.438477,0,5.545898-0.298828c0.609375-0.164062,1.09082-0.647461,1.254883-1.262695
		C14.193359,7.324219,14.193359,5,14.193359,5S14.193359,2.675781,13.897461,1.561523 M5.985352,7.110352v-4.22168L9.695312,5
		L5.985352,7.110352z"/>
</g>
</svg>
