<?xml version="1.0" encoding="utf-8"?>
<!-- Generator: Adobe Illustrator 15.1.0, SVG Export Plug-In . SVG Version: 6.00 Build 0)  -->
<!DOCTYPE svg PUBLIC "-//W3C//DTD SVG 1.1//EN" "http://www.w3.org/Graphics/SVG/1.1/DTD/svg11.dtd">
<svg version="1.1" id="Calque_1" xmlns="http://www.w3.org/2000/svg" xmlns:xlink="http://www.w3.org/1999/xlink" x="0px" y="0px"
	 width="30px" height="30px" viewBox="0 0 30 30" enable-background="new 0 0 30 30" xml:space="preserve">
<path d="M28.90625,7.96875c-0.333984-1.257812-1.318359-2.24707-2.566406-2.583008
	C24.076172,4.775391,15,4.775391,15,4.775391s-9.076172,0-11.339355,0.610352C2.411621,5.72168,1.427734,6.710938,1.094727,7.96875
	C0.487793,10.246094,0.487793,15,0.487793,15s0,4.753906,0.606934,7.03125c0.333008,1.257812,1.316895,2.24707,2.565918,2.583008
	C5.923828,25.224609,15,25.224609,15,25.224609s9.076172,0,11.339844-0.610352
	c1.248047-0.335938,2.232422-1.325195,2.566406-2.583008C29.511719,19.753906,29.511719,15,29.511719,15
	S29.511719,10.246094,28.90625,7.96875 M11.845703,19.31543V10.68457L19.431641,15L11.845703,19.31543z"/>
</svg>
