<?xml version="1.0" encoding="utf-8"?>
<!-- Generator: Adobe Illustrator 15.1.0, SVG Export Plug-In . SVG Version: 6.00 Build 0)  -->
<!DOCTYPE svg PUBLIC "-//W3C//DTD SVG 1.1//EN" "http://www.w3.org/Graphics/SVG/1.1/DTD/svg11.dtd">
<svg version="1.1" id="Calque_1" xmlns="http://www.w3.org/2000/svg" xmlns:xlink="http://www.w3.org/1999/xlink" x="0px" y="0px"
	 width="518.230469px" height="147px" viewBox="0 0 518.230469 147" enable-background="new 0 0 518.230469 147"
	 xml:space="preserve">
<path fill="#E0922F" d="M415.375,68.954102l25.623047-0.00293c6.798828,0,11.386719,0.00293,11.675781,0.00293
	c0.234375,0,4.820312-0.146484,11.619141-0.146484l25.625-0.141602h0.0625c16.464844,0,24.849609-8.132812,28.058594-12.371094
	c-0.271484-0.765625-0.806641-1.368164-1.580078-1.77832c-1.632812-0.869141-3.664062-0.208984-4.535156,1.424805
	c-0.007812-0.00293-0.009766,0.045898-0.169922,0.288086c-0.15625,0.240234-0.408203,0.626953-0.777344,1.09082
	c-0.736328,0.933594-1.916016,1.999023-3.619141,3.296875c-3.414062,2.582031-8.845703,5.048828-17.441406,5.048828h-37.271484
	H415.375c-8.595703,0-14.029297-2.462891-17.443359-5.044922c-1.701172-1.297852-2.880859-2.470703-3.619141-3.405273
	c-0.365234-0.463867-0.621094-0.78418-0.775391-1.024414c-0.158203-0.242188-0.164062-0.245117-0.169922-0.242188
	c-0.871094-1.633789-2.904297-2.244141-4.537109-1.375c-0.984375,0.523438-1.591797,1.476562-1.738281,2.50293
	c0.033203-0.22168,0.087891-0.436523,0.162109-0.647461C390.460938,60.666992,398.855469,68.954102,415.375,68.954102"/>
<path fill="#6A4322" d="M518.228516,57.791992c0.001953-0.035156-0.003906-0.068359-0.001953-0.103516
	c0.007812-0.195312,0.003906-0.389648-0.023438-0.580078c-0.003906-0.020508-0.009766-0.039062-0.011719-0.05957
	c-0.033203-0.205078-0.080078-0.408203-0.150391-0.604492c-0.001953-0.001953-0.001953-0.148438-0.001953-0.150391
	c-3.208984,4.239258-11.59375,12.37207-28.058594,12.37207h-0.0625l-25.625,0.141602
	c-6.798828,0-11.384766,0.074219-11.619141,0.074219c-0.289062,0-4.876953,0.033203-11.675781,0.033203L415.375,68.936523
	c-16.519531,0-24.914062-8.274414-28.121094-12.513672c-0.074219,0.211914-0.128906,0.43457-0.162109,0.65625
	c0,0.003906-0.001953,0.009766-0.001953,0.014648c-0.029297,0.204102-0.035156,0.414062-0.025391,0.624023
	c0,0.021484-0.001953,0.044922-0.001953,0.067383c0.011719,0.193359,0.050781,0.384766,0.095703,0.577148
	c0.009766,0.035156,0.011719,0.072266,0.021484,0.107422c0.0625,0.222656,0.148438,0.442383,0.261719,0.655273
	c0.193359,0.529297,7.689453,13.652344,27.933594,13.625977c11.087891-0.001953,22.173828-0.084961,29.335938-0.084961h15.869141
	c7.162109,0,18.248047,0.083008,29.335938,0.084961c20.246094,0.026367,27.738281-13.137695,27.935547-13.666992
	c0.111328-0.212891,0.197266-0.412109,0.259766-0.633789c0.011719-0.040039,0.013672-0.071289,0.023438-0.111328
	C518.177734,58.154297,518.214844,57.978516,518.228516,57.791992"/>
<polygon fill="#6A4322" points="483.539062,63.588867 490.419922,26.428711 452.646484,20 414.873047,26.428711 
	421.753906,63.588867 "/>
<polygon fill="#915D2E" points="483.539062,63.588867 490.419922,26.428711 452.646484,20 452.646484,63.588867 "/>
<path fill="none" stroke="#F0C431" stroke-linecap="round" stroke-linejoin="round" stroke-miterlimit="10" d="M475.78125,27.001953
	c-10.810547,0-19.609375,8.104492-19.609375,18.064453"/>
<polygon fill="#E0922F" points="452.644531,63.803711 452.644531,56.05957 486.326172,56.05957 484.896484,63.803711 "/>
<polygon fill="#915D2E" points="452.646484,56.05957 426.587891,56.05957 427.695312,63.803711 452.646484,63.803711 "/>
<polygon fill="#6A4322" points="427.984375,63.803711 426.550781,56.05957 418.966797,56.05957 420.400391,63.803711 "/>
<path fill="#1D1634" d="M444.675781,78.789062h-9.326172c-1.1875,0-2.148438-0.956055-2.148438-2.149414
	c0-0.327148-0.195312-0.625977-0.501953-0.748047c-0.302734-0.124023-0.652344-0.05957-0.880859,0.177734l-6.439453,6.4375
	c-0.232422,0.230469-0.300781,0.581055-0.173828,0.881836c0.123047,0.305664,0.421875,0.500977,0.75,0.500977h15.492188
	c0.226562,0,0.439453-0.09375,0.59375-0.255859l3.228516-3.481445c0.222656-0.235352,0.279297-0.578125,0.150391-0.874023
	S444.998047,78.789062,444.675781,78.789062 M479.912109,82.506836l-6.435547-6.4375
	c-0.232422-0.237305-0.580078-0.301758-0.884766-0.177734c-0.302734,0.12207-0.501953,0.420898-0.501953,0.748047
	c0,1.193359-0.957031,2.149414-2.144531,2.149414h-9.324219c-0.324219,0-0.617188,0.193359-0.746094,0.489258
	s-0.072266,0.638672,0.152344,0.874023l3.224609,3.481445c0.154297,0.162109,0.371094,0.255859,0.595703,0.255859h15.492188
	c0.326172,0,0.626953-0.199219,0.75-0.500977C480.214844,83.087891,480.146484,82.737305,479.912109,82.506836"/>
<path fill="#1D1634" d="M440.28125,122.047852c-0.339844,0-0.654297-0.213867-0.769531-0.551758
	c-0.142578-0.424805,0.085938-0.883789,0.509766-1.02832l4.847656-1.630859c0.167969-0.057617,0.349609-0.057617,0.517578,0
	l4.71875,1.589844h8.064453c0.447266,0,0.8125,0.362305,0.8125,0.810547c0,0.449219-0.365234,0.810547-0.8125,0.810547h-8.197266
	c-0.087891,0-0.175781-0.014648-0.259766-0.041016l-4.585938-1.545898l-4.587891,1.545898
	C440.453125,122.036133,440.367188,122.047852,440.28125,122.047852"/>
<path fill="#C5384D" d="M465.013672,121.237305c0-1.799805-1.462891-3.260742-3.263672-3.260742
	c-1.798828,0-3.261719,1.460938-3.261719,3.260742c0,1.800781,1.462891,3.261719,3.261719,3.261719
	C463.550781,124.499023,465.013672,123.038086,465.013672,121.237305"/>
<path fill="#1D1634" d="M461.75,125.30957c-2.244141,0-4.072266-1.827148-4.072266-4.072266
	c0-2.246094,1.828125-4.072266,4.072266-4.072266c2.246094,0,4.076172,1.826172,4.076172,4.072266
	C465.826172,123.482422,463.996094,125.30957,461.75,125.30957 M461.75,118.788086c-1.351562,0-2.451172,1.098633-2.451172,2.449219
	s1.099609,2.450195,2.451172,2.450195c1.353516,0,2.453125-1.099609,2.453125-2.450195S463.103516,118.788086,461.75,118.788086"/>
<path fill="#29265A" d="M450.017578,124.180664c0,0-2.025391,5.985352-7.083984,5.985352
	c-5.060547,0-5.869141-6.546875-5.869141-8.790039s4.451172-7.316406,4.451172-7.316406
	c6.507812,0,10.259766,2.121094,11.134766,1.677734h-0.001953v-3.001953l-3.544922-4.264648c0,0-5.205078,2.274414-9.65625,4.331055
	c-4.455078,2.058594-6.072266,6.509766-6.072266,6.509766s-7.746094-6.537109-6.533203-12.709961l-8.90625-14.764648
	c0,0,3.683594,23.651367,5.251953,35.891602C427.230469,138.661133,445.265625,147,450.451172,147h2.197266v-22.819336H450.017578z"
	/>
<path fill="#6567AB" d="M478.453125,106.602539c1.214844,6.170898-6.53125,12.709961-6.53125,12.709961
	s-1.619141-4.452148-6.072266-6.509766s-9.660156-4.331055-9.660156-4.331055l-3.541016,4.263672v3.000977h0.001953
	c0.875,0.444336,4.625-1.675781,11.130859-1.675781c0,0,4.451172,5.072266,4.451172,7.314453
	c0,2.243164-0.806641,8.790039-5.869141,8.790039c-5.058594,0-7.085938-5.983398-7.085938-5.983398h-2.628906v21.234375
	l2.195312-0.25c5.189453,0,23.220703-6.504883,27.263672-17.436523c1.570312-12.242188,5.251953-35.891602,5.251953-35.891602
	L478.453125,106.602539z"/>
<path fill="#574790" d="M452.648438,143.642578v3.356445h2.195312c5.189453,0,23.220703-8.337891,27.263672-19.270508
	C482.107422,127.728516,472.931641,143.799805,452.648438,143.642578"/>
<path fill="#1D1634" d="M452.648438,143.642578v3.356445h-2.197266c-5.185547,0-23.220703-8.337891-27.263672-19.270508
	C423.1875,127.728516,432.363281,143.799805,452.648438,143.642578"/>
<path fill="#29265A" d="M452.648438,143.642578v3.356445h2.195312c5.189453,0,23.220703-8.337891,27.263672-19.270508
	C482.107422,127.728516,472.931641,143.799805,452.648438,143.642578"/>
<path fill="#29265A" d="M190.577148,87.441406c-0.418945,0.422852-0.984375,0.65332-1.578125,0.65332
	c-0.599609-0.004883-1.157227-0.230469-1.582031-0.65332c-0.299805-0.304688-0.504883-0.679688-0.595703-1.083984
	c-0.037109-0.15918-0.056641-0.329102-0.056641-0.493164c0-0.166016,0.019531-0.333984,0.056641-0.495117
	c0.049805-0.214844,0.129883-0.421875,0.237305-0.613281c0.099609-0.169922,0.219727-0.332031,0.358398-0.473633l7.994141-7.990234
	c0.875977-0.868164,2.287109-0.868164,3.15625,0l5.914062,5.916992c0.875977,0.865234,0.869141,2.283203,0,3.154297
	c-0.307617,0.306641-0.682617,0.504883-1.077148,0.594727c-0.005859,0.001953-0.012695,0.004883-0.015625,0.004883
	c-0.008789,0-0.013672,0.00293-0.018555,0.00293c-0.152344,0.03418-0.310547,0.050781-0.467773,0.053711
	c-0.597656,0-1.15625-0.235352-1.580078-0.65625l-1.793945-1.793945c-0.719727-0.674805-1.621094-1.00293-2.536133-1.00293
	c-0.922852,0-1.822266,0.331055-2.547852,1.008789L190.577148,87.441406z"/>
<path fill="#5DB5AE" d="M183.120117,131.265625l-14.69043-0.001953c-5.750977,0-10.416016-4.660156-10.416016-10.413086v10.147461
	l9.560547,9.557617c8.585938,8.584961,22.503906,8.59668,31.092773,0.005859L183.120117,131.265625z"/>
<path fill="#A5D2D0" d="M197.813477,131.265625h-14.693359V147c5.625977,0.001953,11.25293-2.145508,15.546875-6.438477
	l9.560547-9.560547v-10.144531C208.227539,126.609375,203.563477,131.265625,197.813477,131.265625"/>
<path fill="#5DB5AE" d="M183.120117,147c5.625977,0.00293,11.253906-2.146484,15.546875-6.439453l3.548828-3.547852
	c-5.28125,5.264648-12.1875,7.894531-19.095703,7.891602V147z"/>
<path fill="#249796" d="M204.481445,82.209961l-5.913086-5.917969c-0.435547-0.433594-1.005859-0.650391-1.577148-0.650391v6.924805
	c0,0,1.818359,0.327148,2.537109,1.00293l1.793945,1.792969c0.422852,0.421875,0.982422,0.657227,1.579102,0.657227
	c0.15918-0.00293,0.317383-0.018555,0.467773-0.052734c0.005859,0,0.009766-0.00293,0.019531-0.00293
	c0.003906,0,0.009766-0.00293,0.015625-0.005859c0.395508-0.089844,0.769531-0.288086,1.077148-0.595703
	C205.350586,84.491211,205.358398,83.074219,204.481445,82.209961"/>
<path fill="#A5D2D0" d="M212.118164,61.262695l-3.797852-11.678711c-0.183594-0.526367-0.256836-1.055664-0.251953-1.551758
	c-0.004883-2.098633,1.333984-4.038086,3.416992-4.71582c0.510742-0.170898,1.040039-0.251953,1.546875-0.246094
	c2.09082-0.005859,4.032227,1.332031,4.71875,3.419922L216.625,46.866211l-1.125,0.367188
	c-0.359375-1.098633-1.378906-1.791992-2.467773-1.791992c-0.271484,0-0.535156,0.036133-0.798828,0.128906
	c-1.098633,0.349609-1.795898,1.369141-1.795898,2.461914c0,0.267578,0.042969,0.530273,0.130859,0.801758l3.800781,11.688477
	c0.360352,1.09668,1.376953,1.795898,2.466797,1.795898c0.259766,0,0.53125-0.041992,0.800781-0.131836
	c1.087891-0.347656,1.786133-1.373047,1.786133-2.459961c0-0.262695-0.040039-0.539062-0.12207-0.804688L215.5,47.233398
	l1.125-0.367188l1.125977-0.369141l3.806641,11.711914c0.155273,0.495117,0.237305,1.003906,0.237305,1.517578
	c0,2.09082-1.327148,4.029297-3.433594,4.719727c-0.50293,0.163086-1.016602,0.241211-1.525391,0.241211
	C214.743164,64.6875,212.800781,63.352539,212.118164,61.262695"/>
<path fill="#1D1634" d="M194.27832,123.639648c-0.042969,0-0.086914-0.005859-0.132812-0.011719l-7.330078-1.175781
	l-3.430664,1.141602c-0.171875,0.055664-0.357422,0.055664-0.527344,0l-3.433594-1.141602l-7.330078,1.175781
	c-0.268555,0.037109-0.533203-0.046875-0.724609-0.235352l-1.254883-1.253906c-0.326172-0.326172-0.326172-0.857422,0-1.183594
	c0.327148-0.327148,0.856445-0.327148,1.183594,0l0.953125,0.952148l7.109375-1.140625
	c0.135742-0.018555,0.268555-0.006836,0.397461,0.03418l3.362305,1.115234l3.362305-1.115234
	c0.12793-0.041016,0.263672-0.052734,0.396484-0.03418l7.110352,1.140625l0.952148-0.952148
	c0.325195-0.327148,0.856445-0.327148,1.182617,0c0.328125,0.326172,0.328125,0.857422,0,1.183594l-1.254883,1.253906
	C194.710938,123.549805,194.498047,123.639648,194.27832,123.639648"/>
<path fill="none" stroke="#FFFFFF" stroke-linecap="round" stroke-linejoin="round" d="M189.070312,140.929688
	c0-3.289062-2.664062-5.951172-5.950195-5.951172"/>
<polygon fill="#A5D2D0" points="211.513672,66.483398 205.84375,48.307617 198.200195,23.805664 203.203125,2.413086 192.884766,0 
	187.881836,21.396484 157.019531,53.736328 "/>
<polygon fill="#5DB5AE" points="198.042969,1.204102 192.884766,0 187.881836,21.396484 157.020508,53.736328 184.261719,60.111328 
	"/>
<polyline fill="none" stroke="#FFFFFF" stroke-linecap="round" stroke-linejoin="round" points="206.554688,61.869141 
	202.636719,49.308594 194.992188,24.808594 194.712891,23.933594 199.15918,4.922852 "/>
<path fill="#A5D2D0" d="M209.120117,73.833008c1.588867,0.395508,3.104492-0.089844,3.504883-1.675781
	c0.398438-1.583008-0.561523-3.201172-2.151367-3.598633l-39.336914-9.201172l-8.498047-1.986328l-5.452148-1.271484
	c-1.584961-0.405273-3.202148,0.557617-3.599609,2.146484c-0.401367,1.588867,0.652344,2.393555,2.241211,2.794922
	L209.120117,73.833008z"/>
<path fill="#5DB5AE" d="M212.625,72.157227c-0.400391,1.585938-1.636719,2.203125-3.225586,1.806641l-53.289062-12.462891
	c-1.588867-0.401367-2.925781-1.666016-2.522461-3.255859L212.625,72.157227z"/>
<path fill="#5DB5AE" d="M157.186523,56.099609c-1.584961-0.405273-3.202148,0.558594-3.598633,2.146484
	c-0.40332,1.588867,1.026367,2.435547,2.615234,2.836914l13.484375,4.022461
	c-1.587891-0.401367-2.551758-2.012695-2.152344-3.600586c0.398438-1.585938,2.014648-2.549805,3.601562-2.147461
	L157.186523,56.099609z"/>
<path fill="#249796" d="M183.120117,144.904297c-6.90918,0.00293-13.814453-2.626953-19.094727-7.891602l3.547852,3.547852
	c4.292969,4.292969,9.919922,6.442383,15.546875,6.439453V144.904297z"/>
<path fill="#1D1634" d="M175.662109,87.441406l-3.865234-3.866211c-0.726562-0.677734-1.626953-1.008789-2.547852-1.008789
	c-0.915039,0-1.818359,0.328125-2.538086,1.00293l-1.792969,1.793945c-0.424805,0.420898-0.982422,0.65625-1.579102,0.65625
	c-0.15918-0.00293-0.317383-0.019531-0.46875-0.053711c-0.003906,0-0.011719-0.00293-0.018555-0.00293
	c-0.00293,0-0.009766-0.00293-0.016602-0.004883c-0.395508-0.089844-0.769531-0.288086-1.077148-0.594727
	c-0.870117-0.871094-0.875-2.289062,0-3.154297l5.915039-5.916992c0.869141-0.868164,2.283203-0.868164,3.155273,0
	l7.994141,7.990234c0.140625,0.141602,0.259766,0.303711,0.357422,0.473633c0.109375,0.191406,0.19043,0.398438,0.239258,0.613281
	c0.037109,0.161133,0.057617,0.329102,0.057617,0.495117c0,0.164062-0.020508,0.333984-0.057617,0.493164
	c-0.089844,0.404297-0.295898,0.779297-0.59668,1.083984c-0.425781,0.422852-0.980469,0.648438-1.578125,0.65332
	C176.646484,88.094727,176.083984,87.864258,175.662109,87.441406"/>
<path fill="#249796" d="M211.485352,43.31543L211.485352,43.31543c-2.083008,0.679688-3.422852,2.617188-3.416992,4.716797
	c-0.005859,0.49707,0.068359,1.024414,0.251953,1.552734l3.797852,11.676758c0.682617,2.09082,2.625,3.425781,4.717773,3.425781
	c0.508789,0,1.022461-0.077148,1.525391-0.240234l-0.724609-2.261719c0,0-0.541016,0.133789-0.800781,0.133789
	c-1.089844,0-2.107422-0.699219-2.466797-1.797852l-3.800781-11.6875c-0.088867-0.272461-0.131836-0.535156-0.131836-0.801758
	c0-1.09375,0.698242-2.112305,1.796875-2.460938L211.485352,43.31543z"/>
<path fill="#249796" d="M157.186523,56.099609c-1.584961-0.405273-3.202148,0.558594-3.598633,2.146484
	c-0.40332,1.588867,0.55957,3.198242,2.148438,3.599609l5.454102,1.272461c-1.588867-0.397461-2.551758-2.012695-2.150391-3.599609
	c0.396484-1.585938,2.012695-2.547852,3.598633-2.147461L157.186523,56.099609z"/>
<path fill="#249796" d="M153.648438,59.884766c0.304688,0.935547,1.061523,1.702148,2.088867,1.960938l53.288086,12.463867
	c1.060547,0.263672,2.123047-0.086914,2.835938-0.813477L153.648438,59.884766z"/>
<path fill="#29265A" d="M45.707031,88.417969l-12.630859,6.010742c-1.736328,1.84668-2.81543,4.323242-2.853516,7.060547
	l-0.03125,2.282227c-0.013672,1.006836,0.791016,1.835938,1.797852,1.849609c1.009766,0.014648,1.834961-0.793945,1.849609-1.798828
	c0.081055-5.811523,4.859375-10.460938,10.673828-10.380859h3.130859v-4.389648L45.707031,88.417969z"/>
<polygon fill="#FEEE84" points="49.916992,133.180664 49.916992,130.394531 47.645508,130.394531 47.645508,147 49.916992,147 
	49.916992,137.727539 55.171875,137.727539 55.171875,133.180664 "/>
<polygon fill="#F0C431" points="45.373047,133.180664 45.373047,130.394531 47.645508,130.394531 47.645508,147 45.373047,147 
	45.373047,137.727539 40.118164,137.727539 40.118164,133.180664 "/>
<path fill="#1D1634" d="M21.12793,69.828125c-0.131836-0.182617-0.325195-0.600586-0.318359-1.050781
	c0-1.707031,0.698242-3.266602,1.816406-4.381836c1.116211-1.114258,2.671875-1.81543,4.383789-1.811523h14.757812
	c1.041016,0,1.885742,0.84375,1.885742,1.885742c0,1.036133-0.844727,1.884766-1.885742,1.884766H27.009766
	c-0.677734,0-1.271484,0.267578-1.719727,0.711914c-0.427734,0.427734-0.69043,0.995117-0.708008,1.644531
	c0.022461,0.632812-0.273438,1.262695-0.836914,1.638672c-0.321289,0.214844-0.686523,0.317383-1.045898,0.317383
	C22.088867,70.666992,21.491211,70.373047,21.12793,69.828125"/>
<path fill="#29265A" d="M51.432617,65.382812c-0.504883-0.912109-0.178711-2.05957,0.733398-2.564453l13.716797-7.613281
	c0.933594-0.619141,2.008789-0.920898,3.064453-0.920898c1.769531-0.003906,3.526367,0.852539,4.605469,2.427734
	c0.183594,0.260742,0.294922,0.566406,0.326172,0.884766l0.592773,6.110352c0.098633,1.040039-0.663086,1.958984-1.700195,2.05957
	c-1.03418,0.100586-1.956055-0.658203-2.058594-1.694336l-0.53418-5.53125c-0.341797-0.321289-0.780273-0.484375-1.231445-0.486328
	c-0.355469,0.00293-0.698242,0.101562-1.015625,0.317383l-0.155273,0.09375L53.99707,66.116211
	c-0.290039,0.161133-0.605469,0.236328-0.916016,0.236328C52.418945,66.352539,51.776367,66.003906,51.432617,65.382812"/>
<path fill="#1D1634" d="M62.836914,56.896484l-10.670898,5.921875c-0.912109,0.504883-1.238281,1.652344-0.733398,2.564453
	c0.34375,0.620117,0.986328,0.970703,1.648438,0.970703c0.310547,0,0.625977-0.076172,0.916016-0.237305l8.839844-4.90918V56.896484
	z"/>
<path fill="#1D1634" d="M21.927734,30.65918c0.001953-0.000977,0.004883-0.00293,0.006836-0.004883l-11.532227,9.90918
	c-1.733398,0-3.136719-1.40332-3.136719-3.135742c0,0-1.723633,6.216797,1.202148,8.726562
	C3.790039,46.154297,0,49.946289,0,54.623047c0,3.118164,2.526367,5.645508,5.645508,5.645508
	c3.120117,0,5.645508,2.527344,5.645508,5.646484h1.415039v-9.561523C12.706055,37.087891,28.379883,20,47.645508,20
	C37.601562,20,28.507812,24.074219,21.927734,30.65918 M12.436523,47.269531
	c-0.063477,0.242188-0.112305,0.489258-0.169922,0.733398C12.324219,47.758789,12.373047,47.511719,12.436523,47.269531
	 M12.030273,49.029297c-0.009766,0.044922-0.016602,0.09082-0.025391,0.136719
	C12.013672,49.121094,12.020508,49.074219,12.030273,49.029297 M11.479492,52.637695
	c-0.010742,0.097656-0.013672,0.198242-0.023438,0.296875C11.46582,52.835938,11.46875,52.735352,11.479492,52.637695"/>
<path fill="#4C4E9D" d="M86.821289,46.154297c2.927734-2.509766,1.204102-8.726562,1.204102-8.726562
	c0,1.732422-1.404297,3.135742-3.136719,3.135742l-11.53125-9.90918C66.777344,24.072266,57.6875,20,47.645508,20
	c19.264648,0,34.939453,17.087891,34.939453,36.353516v9.561523H84c0-3.119141,2.525391-5.646484,5.645508-5.646484
	c3.119141,0,5.645508-2.527344,5.645508-5.645508C95.291016,49.946289,91.500977,46.154297,86.821289,46.154297
	 M82.854492,47.269531c0.063477,0.242188,0.112305,0.489258,0.169922,0.733398
	C82.966797,47.758789,82.917969,47.511719,82.854492,47.269531 M83.260742,49.029297
	c0.009766,0.044922,0.015625,0.091797,0.024414,0.136719C83.276367,49.120117,83.270508,49.074219,83.260742,49.029297
	 M83.811523,52.637695c0.009766,0.097656,0.012695,0.198242,0.023438,0.296875
	C83.824219,52.835938,83.821289,52.735352,83.811523,52.637695"/>
<path fill="#915D2E" d="M60.447266,121.149414l-0.314453,0.314453c-3.422852,3.516602-7.943359,5.3125-12.487305,5.374023
	c-0.00293,0-0.006836,0-0.009766,0L47.625,132.286133c6.405273,0.011719,12.814453-2.418945,17.708984-7.296875l16.080078-16.021484
	C75.37207,114.984375,68.120117,119.036133,60.447266,121.149414"/>
<path fill="#6A4322" d="M35.158203,121.463867l-0.300781-0.300781c-7.693359-2.108398-14.964844-6.165039-21.019531-12.194336
	l16.078125,16.020508c4.895508,4.87793,11.305664,7.308594,17.708984,7.296875l-0.009766-5.450195
	C43.081055,126.767578,38.572266,124.973633,35.158203,121.463867"/>
<path fill="#915D2E" d="M60.447266,121.149414l-0.314453,0.314453c-3.422852,3.516602-7.943359,5.3125-12.487305,5.374023
	c-0.00293,0-0.006836,0-0.009766,0L47.625,132.286133c6.405273,0.011719,12.814453-2.418945,17.708984-7.296875l16.080078-16.021484
	C75.37207,114.984375,68.120117,119.036133,60.447266,121.149414"/>
<path fill="#6A4322" d="M35.158203,121.463867l-0.300781-0.300781c-7.693359-2.108398-14.964844-6.165039-21.019531-12.194336
	l16.078125,16.020508c4.895508,4.87793,11.305664,7.308594,17.708984,7.296875l-0.009766-5.450195
	C43.081055,126.767578,38.572266,124.973633,35.158203,121.463867"/>
<path fill="#29265A" d="M44.425781,105.945312v5.191406h-3.467773c-3.984375-0.053711-7.173828-3.330078-7.119141-7.314453
	c-0.014648,1.005859-0.84082,1.813477-1.849609,1.799805c-1.006836-0.013672-1.811523-0.84375-1.797852-1.849609
	c-0.047852,3.444336-2.880859,6.201172-6.326172,6.15332l10.992188,10.993164l0.300781,0.299805
	c3.414062,3.509766,7.923828,5.304688,12.457031,5.373047l0.010742-0.238281l0.009766,0.239258c0.00293,0,0.005859,0,0.009766,0
	v-3.959961v-16.6875H44.425781z"/>
<path fill="#6567AB" d="M65.099609,103.771484h-0.004883c0.014648,1.005859-0.791016,1.835938-1.798828,1.850586
	c-1.00293,0.013672-1.822266-0.787109-1.845703-1.785156c0.045898,3.977539-3.137695,7.246094-7.117188,7.300781h-3.467773
	v-5.193359h-3.219727v16.689453v3.959961c4.543945-0.0625,9.06543-1.858398,12.486328-5.374023l0.31543-0.31543l10.977539-10.978516
	C67.980469,109.973633,65.147461,107.217773,65.099609,103.771484"/>
<path fill="#4C4E9D" d="M49.580078,88.417969l12.629883,6.010742c1.736328,1.84668,2.81543,4.323242,2.853516,7.060547
	l0.03125,2.282227c0.013672,1.006836-0.791016,1.835938-1.797852,1.849609c-1.008789,0.014648-1.834961-0.793945-1.848633-1.798828
	c-0.081055-5.811523-4.860352-10.460938-10.674805-10.380859h-3.130859v-4.389648L49.580078,88.417969z"/>
<path fill="#29265A" d="M303.222656,51.130859l3.425781-2.079102l-2.980469-1.80957
	c1.707031-2.787109,2.804688-7.071289,2.804688-11.881836c0-8.404297-3.339844-15.21582-7.455078-15.21582
	c-4.117188,0-7.450195,6.811523-7.450195,15.21582c0,4.808594,1.088867,9.087891,2.798828,11.875l-2.987305,1.8125
	l3.530273,2.140625l-3.530273,2.143555l2.823242,1.712891c-9.510742,5.319336-17.042969,13.753906-21.169922,23.945312h0.542969
	c3.341797-7.743164,21.799805-13.666016,44.069336-13.666016V48.929688
	C312.619141,48.929688,307.777344,49.703125,303.222656,51.130859"/>
<path fill="#4C4E9D" d="M336.273438,20.144531c-4.119141,0-7.453125,6.810547-7.453125,15.21582
	c0,4.810547,1.095703,9.094727,2.802734,11.881836l-2.990234,1.810547l3.539062,2.142578l-0.007812,0.003906
	c1.398438,0.443359,2.767578,0.943359,4.109375,1.505859V20.144531z"/>
<path fill="#6567AB" d="M361.566406,77.444336c-4.246094-9.499023-11.488281-17.34082-20.513672-22.380859l2.859375-1.731445
	L340.375,51.188477l3.537109-2.140625l-2.988281-1.811523c1.705078-2.788086,2.802734-7.067383,2.802734-11.875
	c0-8.405273-3.341797-15.217773-7.453125-15.217773v32.561523c-1.341797-0.5625-2.710938-1.0625-4.109375-1.504883
	c-3.957031-1.250977-8.134766-2.009766-12.464844-2.192383c-0.685547-0.029297-1.361328-0.078125-2.054688-0.078125v16.394531
	c22.271484,0,40.728516,5.922852,44.070312,13.666016h0.542969C362.046875,78.464844,361.796875,77.959961,361.566406,77.444336"/>
<g>
	<defs>
		<rect id="SVGID_1_" x="318.052734" y="109.835938" width="42.191406" height="16.353516"/>
	</defs>
	<clipPath id="SVGID_2_">
		<use xlink:href="#SVGID_1_"  overflow="visible"/>
	</clipPath>
	<path clip-path="url(#SVGID_2_)" fill="#FFFFFF" d="M318.054688,109.835938l42.189453,4.301758
		c0,0-6.597656,11.425781-42.189453,12.051758V109.835938z"/>
</g>
<path fill="#B6B5D9" d="M318.054688,109.835938l42.189453,4.301758c0,0-6.597656,11.425781-42.189453,12.051758V109.835938z"/>
<path fill="#6567AB" d="M317.644531,109.835938l-42.189453,4.301758c0,0,6.597656,11.425781,42.189453,12.051758V109.835938z"/>
<path fill="#574790" d="M360.599609,113.74707c-0.134766-0.260742-0.388672-0.43457-0.681641-0.463867l-42.185547-4.302734
	c-0.021484-0.00293-0.042969,0-0.064453,0c-0.007812,0-0.013672-0.003906-0.023438-0.003906
	c-0.005859,0-0.011719,0.003906-0.021484,0.003906c-0.021484,0-0.042969-0.00293-0.064453,0l-42.192383,4.302734
	c-0.289062,0.029297-0.543945,0.203125-0.676758,0.463867c-0.132812,0.259766-0.124023,0.567383,0.020508,0.820312
	c0.279297,0.483398,7.25293,11.854492,42.920898,12.481445h0.013672h0.015625
	c35.669922-0.626953,42.638672-11.998047,42.917969-12.481445C360.722656,114.314453,360.730469,114.006836,360.599609,113.74707
	 M304.473633,112.042969l12.313477-1.254883v14.519531c-4.585938-0.104492-8.673828-0.392578-12.313477-0.814453V112.042969z
	 M302.755859,124.280273c-4.925781-0.651367-8.986328-1.546875-12.314453-2.544922v-8.261719l12.314453-1.254883V124.280273z
	 M318.505859,110.788086l12.310547,1.254883v12.450195c-3.638672,0.421875-7.728516,0.709961-12.310547,0.814453V110.788086z
	 M332.535156,112.21875l12.314453,1.254883v8.261719c-3.328125,0.998047-7.390625,1.893555-12.314453,2.544922V112.21875z
	 M288.724609,113.648438v7.539062c-6.754883-2.267578-10.115234-4.899414-11.571289-6.358398L288.724609,113.648438z
	 M346.568359,121.1875v-7.539062l11.566406,1.180664C356.675781,116.291016,353.318359,118.921875,346.568359,121.1875"/>
<path fill="#29265A" d="M278.81543,100.791016l-22.498047-8.508789l23.208008,6.328125
	c0.599609,0.197266,0.930664,0.842773,0.733398,1.441406c-0.157227,0.490234-0.607422,0.793945-1.091797,0.793945
	C279.050781,100.845703,278.93457,100.828125,278.81543,100.791016"/>
<path fill="#1D1634" d="M278.81543,100.791016l-22.498047-8.508789l23.941406,7.769531
	c-0.157227,0.490234-0.607422,0.793945-1.091797,0.793945C279.050781,100.845703,278.93457,100.828125,278.81543,100.791016"/>
<path fill="#29265A" d="M275.941406,104.081055l-21.764648-4.560547l22.116211,2.292969
	c0.624023,0.101562,1.048828,0.688477,0.955078,1.3125c-0.088867,0.56543-0.579102,0.969727-1.133789,0.966797
	C276.057617,104.092773,275.998047,104.089844,275.941406,104.081055"/>
<path fill="#1D1634" d="M275.941406,104.081055l-21.764648-4.560547l23.071289,3.605469
	c-0.088867,0.56543-0.579102,0.969727-1.133789,0.966797C276.057617,104.092773,275.998047,104.089844,275.941406,104.081055"/>
<path fill="#29265A" d="M256.648438,108.762695l19.946289-2.756836c0.629883-0.052734,1.18457,0.416016,1.235352,1.045898
	c0.054688,0.634766-0.420898,1.186523-1.053711,1.234375L256.648438,108.762695z"/>
<path fill="#1D1634" d="M256.648438,108.762695l21.181641-1.710938c0.054688,0.634766-0.420898,1.186523-1.053711,1.234375
	L256.648438,108.762695z"/>
<path fill="#4C4E9D" d="M355.761719,98.611328c-0.599609,0.196289-0.929688,0.84082-0.734375,1.44043l23.943359-7.770508
	L355.761719,98.611328z"/>
<path fill="#29265A" d="M355.027344,100.051758c0.15625,0.489258,0.609375,0.794922,1.091797,0.794922
	c0.117188,0,0.236328-0.018555,0.353516-0.055664l22.498047-8.509766L355.027344,100.051758z"/>
<path fill="#4C4E9D" d="M358.039062,103.125977l23.074219-3.605469l-22.115234,2.292969
	C358.371094,101.915039,357.943359,102.501953,358.039062,103.125977"/>
<path fill="#29265A" d="M359.169922,104.092773c0.060547,0,0.117188-0.00293,0.175781-0.011719l21.767578-4.560547
	l-23.074219,3.605469C358.128906,103.692383,358.621094,104.095703,359.169922,104.092773"/>
<path fill="#4C4E9D" d="M357.457031,107.051758l21.185547,1.710938l-19.951172-2.756836
	C358.066406,105.954102,357.511719,106.421875,357.457031,107.051758"/>
<path fill="#29265A" d="M358.507812,108.285156l20.134766,0.477539l-21.185547-1.710938
	C357.40625,107.685547,357.876953,108.237305,358.507812,108.285156"/>
<path fill="none" stroke="#FFFFFF" stroke-linecap="round" stroke-linejoin="round" d="M336.273438,22.541016
	c2.0625,0,5.060547,4.994141,5.060547,12.816406c0,1.776367-0.166016,3.515625-0.492188,5.171875"/>
<path fill="#030303" d="M317.644531,48.929688c0.693359,0,1.371094,0.048828,2.052734,0.078125
	C319.023438,48.957031,318.339844,48.929688,317.644531,48.929688"/>
<path fill="#574790" d="M299.018555,52.693359V20.143555c-4.112305,0-7.451172,6.8125-7.451172,15.217773
	c0,4.806641,1.094727,9.086914,2.798828,11.875l-2.988281,1.811523l3.537109,2.140625l-3.537109,2.143555l2.826172,1.712891
	c-9.512695,5.319336-17.044922,13.751953-21.171875,23.945312h0.542969c3.341797-7.743164,21.798828-13.666016,44.069336-13.666016
	V48.929688C311.037109,48.929688,304.750977,50.283203,299.018555,52.693359"/>
<path fill="#1D1634" d="M299.018555,52.597656V20.048828c-4.112305,0-7.451172,6.811523-7.451172,15.216797
	c0,4.806641,1.094727,9.086914,2.798828,11.875l-2.988281,1.811523l3.537109,2.141602l-3.537109,2.142578l2.826172,1.712891
	c-9.512695,5.319336-17.044922,13.751953-21.171875,23.945312h0.542969c3.341797-7.743164,21.798828-13.666016,44.069336-13.666016
	V48.833984C311.037109,48.833984,304.750977,50.1875,299.018555,52.597656"/>
<path fill="#030303" d="M361.566406,77.444336c0.230469,0.515625,0.480469,1.020508,0.691406,1.545898
	C362.042969,78.458984,361.814453,77.945312,361.566406,77.444336"/>
<path fill="none" stroke="#FFFFFF" stroke-linecap="round" stroke-linejoin="round" d="M346.302734,63.579102
	c-7.101562-6.095703-15.978516-9.760742-25.46875-10.438477"/>
<path fill="#1D1634" d="M360.599609,113.74707c-0.134766-0.260742-0.388672-0.43457-0.681641-0.463867l-42.185547-4.302734
	c-0.021484-0.00293-0.042969,0-0.064453,0c-0.007812,0-0.013672-0.003906-0.023438-0.003906
	c-0.005859,0-0.011719,0.003906-0.021484,0.003906c-0.021484,0-0.042969-0.00293-0.064453,0l-42.192383,4.302734
	c-0.289062,0.029297-0.543945,0.203125-0.676758,0.463867c-0.132812,0.259766-0.124023,0.567383,0.020508,0.820312
	c0.279297,0.483398,7.25293,11.854492,42.920898,12.481445h0.013672h0.015625
	c35.669922-0.626953,42.638672-11.998047,42.917969-12.481445C360.722656,114.314453,360.730469,114.006836,360.599609,113.74707
	 M304.473633,112.042969l12.313477-1.254883v14.519531c-4.585938-0.104492-8.673828-0.392578-12.313477-0.814453V112.042969z
	 M302.755859,124.280273c-4.925781-0.651367-8.986328-1.546875-12.314453-2.544922v-8.261719l12.314453-1.254883V124.280273z
	 M318.505859,110.788086l12.310547,1.254883v12.450195c-3.638672,0.421875-7.728516,0.709961-12.310547,0.814453V110.788086z
	 M332.535156,112.21875l12.314453,1.254883v8.261719c-3.328125,0.998047-7.390625,1.893555-12.314453,2.544922V112.21875z
	 M288.724609,113.648438v7.539062c-6.754883-2.267578-10.115234-4.899414-11.571289-6.358398L288.724609,113.648438z
	 M346.568359,121.1875v-7.539062l11.566406,1.180664C356.675781,116.291016,353.318359,118.921875,346.568359,121.1875"/>
</svg>
