<?xml version="1.0" encoding="utf-8"?>
<!-- Generator: Adobe Illustrator 15.1.0, SVG Export Plug-In . SVG Version: 6.00 Build 0)  -->
<!DOCTYPE svg PUBLIC "-//W3C//DTD SVG 1.1//EN" "http://www.w3.org/Graphics/SVG/1.1/DTD/svg11.dtd">
<svg version="1.1" id="Calque_1" xmlns="http://www.w3.org/2000/svg" xmlns:xlink="http://www.w3.org/1999/xlink" x="0px" y="0px"
	 width="518.230469px" height="417px" viewBox="0 0 518.230469 417" enable-background="new 0 0 518.230469 417"
	 xml:space="preserve">
<g>
	<defs>
		<rect id="SVGID_1_" width="518.230469" height="417"/>
	</defs>
	<clipPath id="SVGID_2_">
		<use xlink:href="#SVGID_1_"  overflow="visible"/>
	</clipPath>
	<g clip-path="url(#SVGID_2_)">
		<defs>
			<rect id="SVGID_3_" width="518.230469" height="417"/>
		</defs>
		<clipPath id="SVGID_4_">
			<use xlink:href="#SVGID_3_"  overflow="visible"/>
		</clipPath>
		<path clip-path="url(#SVGID_4_)" fill="#FF960A" d="M415.375,338.954102l25.624023-0.00293
			c6.798828,0,11.386719,0.00293,11.674805,0.00293c0.234375,0,4.820312-0.146484,11.620117-0.146484l25.625-0.141602h0.0625
			c16.463867,0,24.848633-8.132812,28.057617-12.371094c-0.270508-0.765625-0.806641-1.368164-1.579102-1.77832
			c-1.632812-0.869141-3.665039-0.208984-4.536133,1.424805c-0.006836-0.00293-0.009766,0.045898-0.169922,0.288086
			c-0.155273,0.240234-0.408203,0.626953-0.777344,1.09082c-0.736328,0.933594-1.915039,1.999023-3.618164,3.296875
			c-3.414062,2.582031-8.845703,5.048828-17.442383,5.048828h-37.271484H415.375c-8.595703,0-14.02832-2.462891-17.443359-5.044922
			c-1.700195-1.297852-2.879883-2.470703-3.619141-3.405273c-0.365234-0.463867-0.620117-0.78418-0.774414-1.024414
			c-0.15918-0.242188-0.164062-0.245117-0.170898-0.242188c-0.871094-1.633789-2.90332-2.244141-4.536133-1.375
			c-0.984375,0.523438-1.591797,1.476562-1.738281,2.50293c0.033203-0.22168,0.086914-0.436523,0.162109-0.647461
			C390.460938,330.666992,398.855469,338.954102,415.375,338.954102"/>
		<path clip-path="url(#SVGID_4_)" fill="#6A4012" d="M518.228516,327.791992c0.001953-0.035156-0.00293-0.068359-0.001953-0.103516
			c0.007812-0.195312,0.003906-0.389648-0.023438-0.580078c-0.00293-0.020508-0.008789-0.039062-0.011719-0.05957
			c-0.032227-0.205078-0.080078-0.408203-0.150391-0.604492c-0.000977-0.001953-0.001953-0.148438-0.001953-0.150391
			c-3.208984,4.239258-11.59375,12.37207-28.057617,12.37207h-0.0625l-25.625,0.141602
			c-6.799805,0-11.385742,0.074219-11.620117,0.074219c-0.288086,0-4.875977,0.033203-11.674805,0.033203L415.375,338.936523
			c-16.519531,0-24.914062-8.274414-28.120117-12.513672c-0.075195,0.211914-0.128906,0.43457-0.162109,0.65625
			c-0.000977,0.003906-0.001953,0.009766-0.00293,0.014648c-0.029297,0.204102-0.035156,0.414062-0.025391,0.624023
			c0.000977,0.021484-0.001953,0.044922-0.000977,0.067383c0.011719,0.193359,0.049805,0.384766,0.095703,0.577148
			c0.008789,0.035156,0.010742,0.072266,0.020508,0.107422c0.0625,0.222656,0.148438,0.442383,0.261719,0.655273
			c0.194336,0.529297,7.689453,13.652344,27.933594,13.625977c11.087891-0.001953,22.174805-0.084961,29.336914-0.084961h15.868164
			c7.163086,0,18.249023,0.083008,29.335938,0.084961c20.246094,0.026367,27.738281-13.137695,27.935547-13.666992
			c0.112305-0.212891,0.197266-0.412109,0.260742-0.633789c0.010742-0.040039,0.012695-0.071289,0.022461-0.111328
			C518.178711,328.154297,518.21582,327.978516,518.228516,327.791992"/>
		<path clip-path="url(#SVGID_4_)" fill="#170035" d="M191.283203,64.873047c-0.424805,0-0.769043-0.344238-0.769043-0.769043
			c0-4.341309-3.529785-7.871094-7.869629-7.871094c-4.340332,0-7.870117,3.529785-7.870117,7.871094
			c0,0.424805-0.345215,0.769043-0.77002,0.769043c-0.425293,0-0.768066-0.344238-0.768066-0.769043
			c0-5.188965,4.219727-9.410156,9.408203-9.410156c5.186523,0,9.407715,4.221191,9.407715,9.410156
			C192.052246,64.528809,191.70752,64.873047,191.283203,64.873047"/>
		<path clip-path="url(#SVGID_4_)" fill="#B6B6FD" d="M209.904785,64.005859c0,6.460938-5.23877,11.69873-11.699707,11.69873
			c-6.461914,0-11.700195-5.237793-11.700195-11.69873c0-6.461426,5.238281-11.701172,11.700195-11.701172
			C204.666016,52.304688,209.904785,57.544434,209.904785,64.005859"/>
		<path clip-path="url(#SVGID_4_)" fill="#231E5A" d="M208.110352,64.005859c0,5.469727-4.436035,9.903809-9.904785,9.903809
			c-5.470215,0-9.90625-4.434082-9.90625-9.903809c0-5.470215,4.436035-9.90625,9.90625-9.90625
			C203.674316,54.099609,208.110352,58.535645,208.110352,64.005859"/>
		<path clip-path="url(#SVGID_4_)" fill="#170035" d="M198.205078,54.099121c-5.469727,0-9.905762,4.436035-9.905762,9.905762
			c0,5.470215,4.436035,9.905273,9.905762,9.905273V54.099121z"/>
		<path clip-path="url(#SVGID_4_)" fill="#170035" d="M198.205078,76.474121c-6.875977,0-12.469727-5.594238-12.469727-12.468262
			c0-6.876953,5.59375-12.469727,12.469727-12.469727c6.875,0,12.468262,5.592773,12.468262,12.469727
			C210.67334,70.879883,205.080078,76.474121,198.205078,76.474121 M198.205078,53.07373
			c-6.026855,0-10.930664,4.904297-10.930664,10.932129c0,6.026855,4.903809,10.930176,10.930664,10.930176
			c6.026367,0,10.930176-4.90332,10.930176-10.930176C209.135254,57.978027,204.231445,53.07373,198.205078,53.07373"/>
		<path clip-path="url(#SVGID_4_)" fill="#260F69" d="M176.98877,64.005859c0,5.469727-4.43457,9.903809-9.904785,9.903809
			s-9.904785-4.434082-9.904785-9.903809c0-5.470215,4.43457-9.90625,9.904785-9.90625S176.98877,58.535645,176.98877,64.005859"/>
		<path clip-path="url(#SVGID_4_)" fill="#170035" d="M341.625,45.754883c-0.460938,0-0.833984-0.370605-0.833984-0.82666
			c0-0.461914,0.373047-0.832031,0.833984-0.832031h5.327148c0.459961,0,0.833008,0.370117,0.833008,0.832031
			c0,0.456055-0.373047,0.82666-0.833008,0.82666H341.625z"/>
		<path clip-path="url(#SVGID_4_)" fill="#170035" d="M330.969727,45.754883c-0.459961,0-0.833008-0.370605-0.833008-0.82666
			c0-0.461914,0.373047-0.832031,0.833008-0.832031h5.327148c0.456055,0,0.833984,0.370117,0.833984,0.832031
			c0,0.456055-0.37793,0.82666-0.833984,0.82666H330.969727z"/>
		<path clip-path="url(#SVGID_4_)" fill="#170035" d="M320.30957,45.754883c-0.461914,0-0.832031-0.370605-0.832031-0.82666
			c0-0.461914,0.370117-0.832031,0.832031-0.832031h5.327148c0.461914,0,0.832031,0.370117,0.832031,0.832031
			c0,0.456055-0.370117,0.82666-0.832031,0.82666H320.30957z"/>
		<path clip-path="url(#SVGID_4_)" fill="#170035" d="M309.65332,45.754883c-0.460938,0-0.832031-0.370605-0.832031-0.82666
			c0-0.461914,0.371094-0.832031,0.832031-0.832031h5.328125c0.459961,0,0.832031,0.370117,0.832031,0.832031
			c0,0.456055-0.37207,0.82666-0.832031,0.82666H309.65332z"/>
		<path clip-path="url(#SVGID_4_)" fill="#170035" d="M298.994141,45.754883c-0.460938,0-0.832031-0.370605-0.832031-0.82666
			c0-0.461914,0.371094-0.832031,0.832031-0.832031h5.327148c0.459961,0,0.832031,0.370117,0.832031,0.832031
			c0,0.456055-0.37207,0.82666-0.832031,0.82666H298.994141z"/>
		<path clip-path="url(#SVGID_4_)" fill="#170035" d="M288.337891,45.754883c-0.459961,0-0.833008-0.370605-0.833008-0.82666
			c0-0.461914,0.373047-0.832031,0.833008-0.832031h5.328125c0.456055,0,0.828125,0.370117,0.828125,0.832031
			c0,0.456055-0.37207,0.82666-0.828125,0.82666H288.337891z"/>
		<path clip-path="url(#SVGID_4_)" fill="#A5E4DB" d="M337.132812,50.430664c-0.194336,0-0.384766-0.076172-0.521484-0.213867
			c-0.136719-0.137207-0.21875-0.328125-0.21875-0.520996v-10.03418c0-0.196777,0.082031-0.388184,0.21875-0.524902
			c0.136719-0.137207,0.327148-0.214844,0.521484-0.214844h3.666016c0.198242,0,0.388672,0.077637,0.524414,0.214844
			c0.138672,0.136719,0.21582,0.328125,0.21582,0.524902v10.03418c0,0.19873-0.077148,0.383789-0.21582,0.520996
			c-0.139648,0.141602-0.326172,0.213867-0.524414,0.213867H337.132812z"/>
		<path clip-path="url(#SVGID_4_)" fill="#A5E4DB" d="M315.811523,50.554688c-0.194336,0-0.383789-0.077148-0.522461-0.213867
			c-0.136719-0.138184-0.217773-0.328125-0.217773-0.521973v-10.03418c0-0.197754,0.081055-0.388184,0.217773-0.523926
			c0.138672-0.13916,0.328125-0.21582,0.522461-0.21582h3.666992c0.198242,0,0.387695,0.07666,0.525391,0.21582
			c0.137695,0.135742,0.214844,0.326172,0.214844,0.523926v10.03418c0,0.19873-0.077148,0.383789-0.214844,0.521973
			c-0.141602,0.140625-0.327148,0.213867-0.525391,0.213867H315.811523z"/>
		<path clip-path="url(#SVGID_4_)" fill="#A5E4DB" d="M326.47168,50.493164c-0.192383,0-0.382812-0.076172-0.520508-0.214355
			c-0.138672-0.138672-0.21875-0.327637-0.21875-0.521973V39.723145c0-0.197266,0.080078-0.388184,0.21875-0.523926
			c0.137695-0.138184,0.328125-0.216309,0.520508-0.216309h3.667969c0.197266,0,0.386719,0.078125,0.524414,0.216309
			c0.136719,0.135742,0.213867,0.32666,0.213867,0.523926v10.033691c0,0.199219-0.077148,0.383301-0.213867,0.521973
			c-0.141602,0.141113-0.327148,0.214355-0.524414,0.214355H326.47168z"/>
		
			<path clip-path="url(#SVGID_4_)" fill="none" stroke="#FFFFFF" stroke-linecap="round" stroke-linejoin="round" stroke-miterlimit="10" d="
			M327.296875,40.294434h2.015625c0.276367,0,0.500977,0.224121,0.500977,0.5v7.891113"/>
		
			<path clip-path="url(#SVGID_4_)" fill="none" stroke="#FFFFFF" stroke-linecap="round" stroke-linejoin="round" stroke-miterlimit="10" d="
			M337.959961,40.294434h2.014648c0.277344,0,0.500977,0.224121,0.500977,0.5v7.891113"/>
		
			<path clip-path="url(#SVGID_4_)" fill="none" stroke="#FFFFFF" stroke-linecap="round" stroke-linejoin="round" stroke-miterlimit="10" d="
			M316.636719,40.294434h2.015625c0.276367,0,0.500977,0.224121,0.500977,0.5v7.891113"/>
		<polygon clip-path="url(#SVGID_4_)" fill="#6A4012" points="483.540039,333.588867 490.420898,296.428711 452.647461,290 
			414.874023,296.428711 421.753906,333.588867 		"/>
		<polygon clip-path="url(#SVGID_4_)" fill="#925A00" points="483.540039,333.588867 490.420898,296.428711 452.647461,290 
			452.647461,333.588867 		"/>
		
			<path clip-path="url(#SVGID_4_)" fill="none" stroke="#FFC80A" stroke-linecap="round" stroke-linejoin="round" stroke-miterlimit="10" d="
			M475.78125,297.001953c-10.810547,0-19.609375,8.104492-19.609375,18.064453"/>
		<polygon clip-path="url(#SVGID_4_)" fill="#FF960A" points="452.645508,333.803711 452.645508,326.05957 486.327148,326.05957 
			484.896484,333.803711 		"/>
		<polygon clip-path="url(#SVGID_4_)" fill="#925A00" points="452.647461,326.05957 426.587891,326.05957 427.696289,333.803711 
			452.647461,333.803711 		"/>
		<polygon clip-path="url(#SVGID_4_)" fill="#6A4012" points="427.985352,333.803711 426.551758,326.05957 418.967773,326.05957 
			420.400391,333.803711 		"/>
		<path clip-path="url(#SVGID_4_)" fill="#170035" d="M444.675781,348.789062h-9.325195
			c-1.188477,0-2.149414-0.956055-2.149414-2.149414c0-0.327148-0.195312-0.625977-0.501953-0.748047
			c-0.301758-0.124023-0.651367-0.05957-0.880859,0.177734l-6.438477,6.4375
			c-0.232422,0.230469-0.301758,0.581055-0.173828,0.881836c0.123047,0.305664,0.421875,0.500977,0.749023,0.500977h15.492188
			c0.226562,0,0.439453-0.09375,0.59375-0.255859l3.228516-3.481445c0.222656-0.235352,0.280273-0.578125,0.151367-0.874023
			S444.999023,348.789062,444.675781,348.789062 M479.912109,352.506836l-6.435547-6.4375
			c-0.232422-0.237305-0.579102-0.301758-0.884766-0.177734c-0.302734,0.12207-0.500977,0.420898-0.500977,0.748047
			c0,1.193359-0.958008,2.149414-2.145508,2.149414h-9.324219c-0.324219,0-0.616211,0.193359-0.746094,0.489258
			c-0.12793,0.295898-0.071289,0.638672,0.15332,0.874023l3.224609,3.481445c0.15332,0.162109,0.370117,0.255859,0.594727,0.255859
			h15.493164c0.326172,0,0.626953-0.199219,0.749023-0.500977C480.214844,353.087891,480.146484,352.737305,479.912109,352.506836"
			/>
		<path clip-path="url(#SVGID_4_)" fill="#170035" d="M440.28125,392.047852c-0.338867,0-0.654297-0.213867-0.768555-0.551758
			c-0.142578-0.424805,0.085938-0.883789,0.509766-1.02832l4.84668-1.630859c0.168945-0.057617,0.349609-0.057617,0.517578,0
			l4.71875,1.589844h8.06543c0.447266,0,0.8125,0.362305,0.8125,0.810547c0,0.449219-0.365234,0.810547-0.8125,0.810547h-8.197266
			c-0.088867,0-0.176758-0.014648-0.260742-0.041016l-4.585938-1.545898l-4.586914,1.545898
			C440.454102,392.036133,440.367188,392.047852,440.28125,392.047852"/>
		<path clip-path="url(#SVGID_4_)" fill="#C5364C" d="M465.013672,391.237305c0-1.799805-1.462891-3.260742-3.262695-3.260742
			c-1.798828,0-3.261719,1.460938-3.261719,3.260742c0,1.800781,1.462891,3.261719,3.261719,3.261719
			C463.550781,394.499023,465.013672,393.038086,465.013672,391.237305"/>
		<path clip-path="url(#SVGID_4_)" fill="#170035" d="M461.750977,395.30957c-2.244141,0-4.072266-1.827148-4.072266-4.072266
			c0-2.246094,1.828125-4.072266,4.072266-4.072266c2.246094,0,4.075195,1.826172,4.075195,4.072266
			C465.826172,393.482422,463.99707,395.30957,461.750977,395.30957 M461.750977,388.788086
			c-1.351562,0-2.451172,1.098633-2.451172,2.449219s1.099609,2.450195,2.451172,2.450195
			c1.352539,0,2.452148-1.099609,2.452148-2.450195S463.103516,388.788086,461.750977,388.788086"/>
		<path clip-path="url(#SVGID_4_)" fill="#231E5A" d="M450.018555,394.180664c0,0-2.025391,5.985352-7.084961,5.985352
			c-5.060547,0-5.869141-6.546875-5.869141-8.790039s4.452148-7.316406,4.452148-7.316406
			c6.506836,0,10.258789,2.121094,11.134766,1.677734h-0.00293v-3.001953l-3.543945-4.264648
			c0,0-5.205078,2.274414-9.657227,4.331055c-4.454102,2.058594-6.072266,6.509766-6.072266,6.509766
			s-7.746094-6.537109-6.532227-12.709961l-8.90625-14.764648c0,0,3.682617,23.651367,5.251953,35.891602
			C427.230469,408.661133,445.265625,417,450.451172,417h2.197266v-22.819336H450.018555z"/>
		<path clip-path="url(#SVGID_4_)" fill="#6666D5" d="M478.454102,376.602539
			c1.214844,6.170898-6.532227,12.709961-6.532227,12.709961s-1.619141-4.452148-6.071289-6.509766
			c-4.454102-2.057617-9.660156-4.331055-9.660156-4.331055l-3.541992,4.263672v3.000977h0.00293
			c0.874023,0.444336,4.625-1.675781,11.130859-1.675781c0,0,4.450195,5.072266,4.450195,7.314453
			c0,2.243164-0.806641,8.790039-5.868164,8.790039c-5.05957,0-7.085938-5.983398-7.085938-5.983398h-2.629883v21.234375
			l2.196289-0.25c5.188477,0,23.220703-6.504883,27.262695-17.436523c1.570312-12.242188,5.251953-35.891602,5.251953-35.891602
			L478.454102,376.602539z"/>
		<path clip-path="url(#SVGID_4_)" fill="#57468F" d="M452.648438,413.642578v3.356445h2.195312
			c5.189453,0,23.22168-8.337891,27.263672-19.270508C482.107422,397.728516,472.932617,413.799805,452.648438,413.642578"/>
		<path clip-path="url(#SVGID_4_)" fill="#170035" d="M452.648438,413.642578v3.356445h-2.196289
			c-5.186523,0-23.22168-8.337891-27.264648-19.270508C423.1875,397.728516,432.364258,413.799805,452.648438,413.642578"/>
		<path clip-path="url(#SVGID_4_)" fill="#231E5A" d="M452.648438,413.642578v3.356445h2.195312
			c5.189453,0,23.22168-8.337891,27.263672-19.270508C482.107422,397.728516,472.932617,413.799805,452.648438,413.642578"/>
		<path clip-path="url(#SVGID_4_)" fill="#231E5A" d="M190.577148,357.441406c-0.418945,0.422852-0.983887,0.65332-1.578125,0.65332
			c-0.599121-0.004883-1.156738-0.230469-1.582031-0.65332c-0.299805-0.304688-0.504883-0.679688-0.595703-1.083984
			c-0.037109-0.15918-0.056152-0.329102-0.056152-0.493164c0-0.166016,0.019043-0.333984,0.056152-0.495117
			c0.049805-0.214844,0.129883-0.421875,0.237793-0.613281c0.099121-0.169922,0.219238-0.332031,0.35791-0.473633l7.994141-7.990234
			c0.875977-0.868164,2.287109-0.868164,3.156738,0l5.914062,5.916992c0.875977,0.865234,0.869141,2.283203,0,3.154297
			c-0.307617,0.306641-0.682617,0.504883-1.077637,0.594727c-0.005371,0.001953-0.012207,0.004883-0.015137,0.004883
			c-0.009277,0-0.01416,0.00293-0.019043,0.00293c-0.151855,0.03418-0.310059,0.050781-0.467773,0.053711
			c-0.597168,0-1.15625-0.235352-1.580078-0.65625l-1.793945-1.793945c-0.719238-0.674805-1.621094-1.00293-2.536133-1.00293
			c-0.922852,0-1.822266,0.331055-2.547852,1.008789L190.577148,357.441406z"/>
		<path clip-path="url(#SVGID_4_)" fill="#56CCBB" d="M183.120117,401.265625l-14.689941-0.001953
			c-5.750977,0-10.416016-4.660156-10.416016-10.413086v10.147461l9.560059,9.557617
			c8.585938,8.584961,22.503906,8.59668,31.092773,0.005859L183.120117,401.265625z"/>
		<path clip-path="url(#SVGID_4_)" fill="#A5E4DB" d="M197.813477,401.265625h-14.692871V417
			c5.625977,0.001953,11.25293-2.145508,15.546875-6.438477l9.560059-9.560547v-10.144531
			C208.227539,396.609375,203.563477,401.265625,197.813477,401.265625"/>
		<path clip-path="url(#SVGID_4_)" fill="#56CCBB" d="M183.120117,417c5.625977,0.00293,11.253906-2.146484,15.546875-6.439453
			l3.549316-3.547852c-5.28125,5.264648-12.187988,7.894531-19.096191,7.891602V417z"/>
		<path clip-path="url(#SVGID_4_)" fill="#009696" d="M204.481445,352.209961l-5.913086-5.917969
			c-0.435547-0.433594-1.005859-0.650391-1.57666-0.650391v6.924805c0,0,1.817871,0.327148,2.537109,1.00293l1.793945,1.792969
			c0.422852,0.421875,0.981934,0.657227,1.578613,0.657227c0.15918-0.00293,0.317383-0.018555,0.468262-0.052734
			c0.005859,0,0.009766-0.00293,0.019043-0.00293c0.003906,0,0.009766-0.00293,0.016113-0.005859
			c0.39502-0.089844,0.769043-0.288086,1.07666-0.595703C205.350586,354.491211,205.358398,353.074219,204.481445,352.209961"/>
		<path clip-path="url(#SVGID_4_)" fill="#A5E4DB" d="M212.118164,331.262695l-3.797852-11.678711
			c-0.183105-0.526367-0.256836-1.055664-0.251953-1.551758c-0.004883-2.098633,1.333984-4.038086,3.416992-4.71582
			c0.510742-0.170898,1.040039-0.251953,1.546875-0.246094c2.09082-0.005859,4.032227,1.332031,4.719238,3.419922
			l-1.125977,0.375977l-1.125,0.367188c-0.359375-1.098633-1.379395-1.791992-2.468262-1.791992
			c-0.270996,0-0.535156,0.036133-0.798828,0.128906c-1.098145,0.349609-1.795898,1.369141-1.795898,2.461914
			c0,0.267578,0.042969,0.530273,0.130859,0.801758l3.800781,11.688477c0.360352,1.09668,1.376953,1.795898,2.467285,1.795898
			c0.259766,0,0.530762-0.041992,0.800781-0.131836c1.087891-0.347656,1.786133-1.373047,1.786133-2.459961
			c0-0.262695-0.040039-0.539062-0.12207-0.804688l-3.800781-11.688477l1.125-0.367188l1.125977-0.369141l3.806641,11.711914
			c0.155273,0.495117,0.237305,1.003906,0.237305,1.517578c0,2.09082-1.327148,4.029297-3.434082,4.719727
			c-0.50293,0.163086-1.016113,0.241211-1.524902,0.241211C214.743164,334.6875,212.80127,333.352539,212.118164,331.262695"/>
		<path clip-path="url(#SVGID_4_)" fill="#170035" d="M194.27832,393.639648c-0.042969,0-0.086914-0.005859-0.132812-0.011719
			l-7.330078-1.175781l-3.430176,1.141602c-0.171875,0.055664-0.35791,0.055664-0.527832,0l-3.433105-1.141602l-7.330078,1.175781
			c-0.269043,0.037109-0.533691-0.046875-0.725098-0.235352l-1.254883-1.253906c-0.326172-0.326172-0.326172-0.857422,0-1.183594
			c0.327148-0.327148,0.856934-0.327148,1.184082,0l0.953125,0.952148l7.108887-1.140625
			c0.135742-0.018555,0.269043-0.006836,0.397949,0.03418l3.361816,1.115234l3.362305-1.115234
			c0.12793-0.041016,0.263672-0.052734,0.396973-0.03418l7.109863,1.140625l0.952148-0.952148
			c0.325684-0.327148,0.856934-0.327148,1.183105,0c0.327637,0.326172,0.327637,0.857422,0,1.183594l-1.255371,1.253906
			C194.711426,393.549805,194.498047,393.639648,194.27832,393.639648"/>
		<path clip-path="url(#SVGID_4_)" fill="none" stroke="#FFFFFF" stroke-linecap="round" stroke-linejoin="round" d="
			M189.070801,410.929688c0-3.289062-2.664062-5.951172-5.950684-5.951172"/>
		<polygon clip-path="url(#SVGID_4_)" fill="#A5E4DB" points="211.51416,336.483398 205.84375,318.307617 198.200195,293.805664 
			203.203125,272.413086 192.884766,270 187.881836,291.396484 157.02002,323.736328 		"/>
		<polygon clip-path="url(#SVGID_4_)" fill="#56CCBB" points="198.043457,271.204102 192.885254,270 187.882324,291.396484 
			157.020508,323.736328 184.262207,330.111328 		"/>
		<polyline clip-path="url(#SVGID_4_)" fill="none" stroke="#FFFFFF" stroke-linecap="round" stroke-linejoin="round" points="
			206.554688,331.869141 202.636719,319.308594 194.992676,294.808594 194.712891,293.933594 199.159668,274.922852 		"/>
		<path clip-path="url(#SVGID_4_)" fill="#A5E4DB" d="M209.120605,343.833008
			c1.588867,0.395508,3.104004-0.089844,3.504883-1.675781c0.397949-1.583008-0.562012-3.201172-2.151855-3.598633
			l-39.336914-9.201172l-8.498047-1.986328l-5.452148-1.271484c-1.584961-0.405273-3.202148,0.557617-3.599121,2.146484
			c-0.401855,1.588867,0.652344,2.393555,2.241211,2.794922L209.120605,343.833008z"/>
		<path clip-path="url(#SVGID_4_)" fill="#56CCBB" d="M212.625488,342.157227
			c-0.400879,1.585938-1.636719,2.203125-3.225586,1.806641l-53.289062-12.462891
			c-1.589355-0.401367-2.92627-1.666016-2.522949-3.255859L212.625488,342.157227z"/>
		<path clip-path="url(#SVGID_4_)" fill="#56CCBB" d="M157.187012,326.099609
			c-1.585449-0.405273-3.202148,0.558594-3.599121,2.146484c-0.40332,1.588867,1.026855,2.435547,2.615723,2.836914
			l13.484375,4.022461c-1.588379-0.401367-2.552246-2.012695-2.152344-3.600586
			c0.397949-1.585938,2.01416-2.549805,3.601074-2.147461L157.187012,326.099609z"/>
		<path clip-path="url(#SVGID_4_)" fill="#009696" d="M183.120117,414.904297
			c-6.90918,0.00293-13.813965-2.626953-19.094727-7.891602l3.547852,3.547852
			c4.292969,4.292969,9.919922,6.442383,15.546875,6.439453V414.904297z"/>
		<path clip-path="url(#SVGID_4_)" fill="#170035" d="M175.662109,357.441406l-3.865234-3.866211
			c-0.726562-0.677734-1.626953-1.008789-2.547852-1.008789c-0.915039,0-1.817871,0.328125-2.538086,1.00293l-1.792969,1.793945
			c-0.424805,0.420898-0.981934,0.65625-1.579102,0.65625c-0.158691-0.00293-0.316895-0.019531-0.46875-0.053711
			c-0.003906,0-0.01123-0.00293-0.018066-0.00293c-0.00293,0-0.009766-0.00293-0.01709-0.004883
			c-0.39502-0.089844-0.769043-0.288086-1.07666-0.594727c-0.870117-0.871094-0.875-2.289062,0-3.154297l5.914551-5.916992
			c0.869141-0.868164,2.283203-0.868164,3.155273,0l7.994141,7.990234c0.140625,0.141602,0.259766,0.303711,0.35791,0.473633
			c0.108887,0.191406,0.189941,0.398438,0.23877,0.613281c0.037109,0.161133,0.058105,0.329102,0.058105,0.495117
			c0,0.164062-0.020996,0.333984-0.058105,0.493164c-0.089844,0.404297-0.295898,0.779297-0.59668,1.083984
			c-0.425293,0.422852-0.97998,0.648438-1.578125,0.65332C176.646973,358.094727,176.083984,357.864258,175.662109,357.441406"/>
		<path clip-path="url(#SVGID_4_)" fill="#009696" d="M211.485352,313.31543L211.485352,313.31543
			c-2.083008,0.679688-3.422363,2.617188-3.416992,4.716797c-0.005371,0.49707,0.068848,1.024414,0.251953,1.552734
			l3.797852,11.676758c0.683105,2.09082,2.625,3.425781,4.718262,3.425781c0.508789,0,1.021973-0.077148,1.524902-0.240234
			l-0.724121-2.261719c0,0-0.541016,0.133789-0.800781,0.133789c-1.090332,0-2.107422-0.699219-2.467285-1.797852l-3.800781-11.6875
			c-0.088379-0.272461-0.131348-0.535156-0.131348-0.801758c0-1.09375,0.698242-2.112305,1.796387-2.460938L211.485352,313.31543z"
			/>
		<path clip-path="url(#SVGID_4_)" fill="#009696" d="M157.187012,326.099609
			c-1.585449-0.405273-3.202148,0.558594-3.599121,2.146484c-0.40332,1.588867,0.560059,3.198242,2.148926,3.599609
			l5.454102,1.272461c-1.589355-0.397461-2.552246-2.012695-2.150879-3.599609
			c0.396973-1.585938,2.012695-2.547852,3.598633-2.147461L157.187012,326.099609z"/>
		<path clip-path="url(#SVGID_4_)" fill="#009696" d="M153.648438,329.884766
			c0.305176,0.935547,1.062012,1.702148,2.088867,1.960938l53.288086,12.463867
			c1.061035,0.263672,2.123047-0.086914,2.835938-0.813477L153.648438,329.884766z"/>
		<path clip-path="url(#SVGID_4_)" fill="#231E5A" d="M45.707031,358.417969l-12.630371,6.010742
			c-1.736816,1.84668-2.815918,4.323242-2.854004,7.060547l-0.030762,2.282227
			c-0.01416,1.006836,0.791016,1.835938,1.797852,1.849609c1.009277,0.014648,1.834961-0.793945,1.849121-1.798828
			c0.081055-5.811523,4.859863-10.460938,10.673828-10.380859h3.130859v-4.389648L45.707031,358.417969z"/>
		<polygon clip-path="url(#SVGID_4_)" fill="#FFEE81" points="49.91748,403.180664 49.91748,400.394531 47.645508,400.394531 
			47.645508,417 49.91748,417 49.91748,407.727539 55.172363,407.727539 55.172363,403.180664 		"/>
		<polygon clip-path="url(#SVGID_4_)" fill="#FFC80A" points="45.373535,403.180664 45.373535,400.394531 47.645508,400.394531 
			47.645508,417 45.373535,417 45.373535,407.727539 40.118652,407.727539 40.118652,403.180664 		"/>
		<path clip-path="url(#SVGID_4_)" fill="#170035" d="M21.12793,339.828125c-0.131836-0.182617-0.324707-0.600586-0.317871-1.050781
			c0-1.707031,0.697754-3.266602,1.815918-4.381836c1.116211-1.114258,2.671875-1.81543,4.383789-1.811523h14.758301
			c1.041016,0,1.885742,0.84375,1.885742,1.885742c0,1.036133-0.844727,1.884766-1.885742,1.884766H27.009766
			c-0.677734,0-1.270996,0.267578-1.719727,0.711914c-0.427246,0.427734-0.689941,0.995117-0.708008,1.644531
			c0.022949,0.632812-0.272949,1.262695-0.836914,1.638672c-0.321289,0.214844-0.686035,0.317383-1.045898,0.317383
			C22.088867,340.666992,21.491211,340.373047,21.12793,339.828125"/>
		<path clip-path="url(#SVGID_4_)" fill="#231E5A" d="M51.433105,335.382812c-0.504883-0.912109-0.178711-2.05957,0.73291-2.564453
			l13.717285-7.613281c0.933105-0.619141,2.008789-0.920898,3.063965-0.920898
			c1.77002-0.003906,3.526855,0.852539,4.605957,2.427734c0.183105,0.260742,0.294922,0.566406,0.326172,0.884766l0.592773,6.110352
			c0.098145,1.040039-0.663086,1.958984-1.700195,2.05957c-1.034668,0.100586-1.956543-0.658203-2.058594-1.694336l-0.53418-5.53125
			c-0.341797-0.321289-0.780762-0.484375-1.231934-0.486328c-0.35498,0.00293-0.698242,0.101562-1.015137,0.317383
			l-0.155762,0.09375l-13.779297,7.650391c-0.290039,0.161133-0.60498,0.236328-0.916016,0.236328
			C52.419434,336.352539,51.776367,336.003906,51.433105,335.382812"/>
		<path clip-path="url(#SVGID_4_)" fill="#170035" d="M62.837402,326.896484l-10.670898,5.921875
			c-0.912109,0.504883-1.238281,1.652344-0.733398,2.564453c0.343262,0.620117,0.986328,0.970703,1.647949,0.970703
			c0.311035,0,0.626465-0.076172,0.916016-0.237305l8.840332-4.90918V326.896484z"/>
		<path clip-path="url(#SVGID_4_)" fill="#170035" d="M21.928223,300.65918c0.001953-0.000977,0.004395-0.00293,0.006348-0.004883
			l-11.532227,9.90918c-1.73291,0-3.136719-1.40332-3.136719-3.135742c0,0-1.723145,6.216797,1.202637,8.726562
			c-4.677734,0-8.467773,3.791992-8.467773,8.46875c0,3.118164,2.525879,5.645508,5.64502,5.645508
			c3.120117,0,5.645996,2.527344,5.645996,5.646484h1.415039v-9.561523C12.706543,307.087891,28.380371,290,47.645508,290
			C37.601562,290,28.508301,294.074219,21.928223,300.65918 M12.436523,317.269531
			c-0.062988,0.242188-0.112305,0.489258-0.169922,0.733398C12.324219,317.758789,12.373535,317.511719,12.436523,317.269531
			 M12.030273,319.029297c-0.009766,0.044922-0.016113,0.09082-0.024902,0.136719
			C12.01416,319.121094,12.020508,319.074219,12.030273,319.029297 M11.479492,322.637695
			c-0.010254,0.097656-0.013184,0.198242-0.022949,0.296875C11.466309,322.835938,11.469238,322.735352,11.479492,322.637695"/>
		<path clip-path="url(#SVGID_4_)" fill="#4648AA" d="M86.821777,316.154297c2.927246-2.509766,1.204102-8.726562,1.204102-8.726562
			c0,1.732422-1.404297,3.135742-3.137207,3.135742l-11.530762-9.90918C66.777832,294.072266,57.687988,290,47.645996,290
			c19.264648,0,34.938965,17.087891,34.938965,36.353516v9.561523H84c0-3.119141,2.525879-5.646484,5.645996-5.646484
			c3.118652,0,5.64502-2.527344,5.64502-5.645508C95.291016,319.946289,91.500977,316.154297,86.821777,316.154297
			 M82.85498,317.269531c0.062988,0.242188,0.111816,0.489258,0.169922,0.733398
			C82.966797,317.758789,82.917969,317.511719,82.85498,317.269531 M83.260742,319.029297
			c0.010254,0.044922,0.016113,0.091797,0.024902,0.136719C83.276855,319.120117,83.270996,319.074219,83.260742,319.029297
			 M83.812012,322.637695c0.009766,0.097656,0.012695,0.198242,0.022949,0.296875
			C83.824707,322.835938,83.821777,322.735352,83.812012,322.637695"/>
		<path clip-path="url(#SVGID_4_)" fill="#925A00" d="M60.447754,391.149414l-0.314941,0.314453
			c-3.422363,3.516602-7.943359,5.3125-12.487305,5.374023c-0.00293,0-0.006836,0-0.009766,0l-0.010254,5.448242
			c6.405273,0.011719,12.813965-2.418945,17.708984-7.296875l16.080078-16.021484
			C75.372559,384.984375,68.120605,389.036133,60.447754,391.149414"/>
		<path clip-path="url(#SVGID_4_)" fill="#6A4012" d="M35.158691,391.463867l-0.300781-0.300781
			c-7.693359-2.108398-14.965332-6.165039-21.02002-12.194336l16.078613,16.020508
			c4.89502,4.87793,11.305176,7.308594,17.708984,7.296875l-0.009766-5.450195
			C43.081543,396.767578,38.572754,394.973633,35.158691,391.463867"/>
		<path clip-path="url(#SVGID_4_)" fill="#925A00" d="M60.447754,391.149414l-0.314941,0.314453
			c-3.422363,3.516602-7.943359,5.3125-12.487305,5.374023c-0.00293,0-0.006836,0-0.009766,0l-0.010254,5.448242
			c6.405273,0.011719,12.813965-2.418945,17.708984-7.296875l16.080078-16.021484
			C75.372559,384.984375,68.120605,389.036133,60.447754,391.149414"/>
		<path clip-path="url(#SVGID_4_)" fill="#6A4012" d="M35.158691,391.463867l-0.300781-0.300781
			c-7.693359-2.108398-14.965332-6.165039-21.02002-12.194336l16.078613,16.020508
			c4.89502,4.87793,11.305176,7.308594,17.708984,7.296875l-0.009766-5.450195
			C43.081543,396.767578,38.572754,394.973633,35.158691,391.463867"/>
		<path clip-path="url(#SVGID_4_)" fill="#231E5A" d="M44.425781,375.945312v5.191406h-3.467773
			c-3.983887-0.053711-7.17334-3.330078-7.119141-7.314453c-0.01416,1.005859-0.84082,1.813477-1.849121,1.799805
			c-1.006836-0.013672-1.812012-0.84375-1.797852-1.849609c-0.047852,3.444336-2.880859,6.201172-6.326172,6.15332
			l10.992188,10.993164l0.300781,0.299805c3.414062,3.509766,7.92334,5.304688,12.457031,5.373047l0.010254-0.238281
			l0.009766,0.239258c0.00293,0,0.006348,0,0.010254,0v-3.959961v-16.6875H44.425781z"/>
		<path clip-path="url(#SVGID_4_)" fill="#6666D5" d="M65.099609,373.771484h-0.004395
			c0.01416,1.005859-0.791016,1.835938-1.798828,1.850586c-1.00293,0.013672-1.822754-0.787109-1.846191-1.785156
			c0.046387,3.977539-3.137695,7.246094-7.116699,7.300781h-3.468262v-5.193359h-3.219727v16.689453v3.959961
			c4.543945-0.0625,9.065918-1.858398,12.486816-5.374023l0.314941-0.31543l10.978027-10.978516
			C67.980469,379.973633,65.147461,377.217773,65.099609,373.771484"/>
		<path clip-path="url(#SVGID_4_)" fill="#4648AA" d="M49.580078,358.417969l12.629883,6.010742
			c1.736816,1.84668,2.815918,4.323242,2.854004,7.060547l0.03125,2.282227c0.013672,1.006836-0.791016,1.835938-1.79834,1.849609
			c-1.008789,0.014648-1.834961-0.793945-1.848633-1.798828c-0.081055-5.811523-4.860352-10.460938-10.674316-10.380859h-3.130859
			v-4.389648L49.580078,358.417969z"/>
		<path clip-path="url(#SVGID_4_)" fill="#231E5A" d="M303.222656,321.130859l3.426758-2.079102l-2.981445-1.80957
			c1.707031-2.787109,2.804688-7.071289,2.804688-11.881836c0-8.404297-3.339844-15.21582-7.455078-15.21582
			c-4.117188,0-7.450195,6.811523-7.450195,15.21582c0,4.808594,1.088867,9.087891,2.798828,11.875l-2.987305,1.8125
			l3.530273,2.140625l-3.530273,2.143555l2.823242,1.712891c-9.510742,5.319336-17.042969,13.753906-21.169922,23.945312h0.542969
			c3.341797-7.743164,21.799805-13.666016,44.070312-13.666016v-16.394531
			C312.620117,318.929688,307.777344,319.703125,303.222656,321.130859"/>
		<path clip-path="url(#SVGID_4_)" fill="#4648AA" d="M336.273438,290.144531c-4.118164,0-7.452148,6.810547-7.452148,15.21582
			c0,4.810547,1.095703,9.094727,2.802734,11.881836l-2.991211,1.810547l3.540039,2.142578l-0.008789,0.003906
			c1.398438,0.443359,2.768555,0.943359,4.109375,1.505859V290.144531z"/>
		<path clip-path="url(#SVGID_4_)" fill="#6666D5" d="M361.567383,347.444336
			c-4.24707-9.499023-11.489258-17.34082-20.513672-22.380859l2.859375-1.731445l-3.537109-2.143555l3.537109-2.140625
			l-2.988281-1.811523c1.704102-2.788086,2.802734-7.067383,2.802734-11.875c0-8.405273-3.342773-15.217773-7.454102-15.217773
			v32.561523c-1.34082-0.5625-2.710938-1.0625-4.109375-1.504883c-3.957031-1.250977-8.134766-2.009766-12.464844-2.192383
			c-0.68457-0.029297-1.361328-0.078125-2.053711-0.078125v16.394531c22.271484,0,40.728516,5.922852,44.070312,13.666016h0.542969
			C362.047852,348.464844,361.796875,347.959961,361.567383,347.444336"/>
		<g clip-path="url(#SVGID_4_)">
			<g>
				<defs>
					<rect id="SVGID_5_" x="318.053711" y="379.835938" width="42.191406" height="16.353516"/>
				</defs>
				<clipPath id="SVGID_6_">
					<use xlink:href="#SVGID_5_"  overflow="visible"/>
				</clipPath>
				<path clip-path="url(#SVGID_6_)" fill="#FFFFFF" d="M318.054688,379.835938l42.19043,4.301758
					c0,0-6.598633,11.425781-42.19043,12.051758V379.835938z"/>
			</g>
		</g>
		<path clip-path="url(#SVGID_4_)" fill="#B6B6FD" d="M318.054688,379.835938l42.19043,4.301758
			c0,0-6.598633,11.425781-42.19043,12.051758V379.835938z"/>
		<path clip-path="url(#SVGID_4_)" fill="#6666D5" d="M317.645508,379.835938l-42.19043,4.301758
			c0,0,6.597656,11.425781,42.19043,12.051758V379.835938z"/>
		<path clip-path="url(#SVGID_4_)" fill="#57468F" d="M360.600586,383.74707c-0.134766-0.260742-0.388672-0.43457-0.681641-0.463867
			l-42.185547-4.302734c-0.022461-0.00293-0.042969,0-0.064453,0c-0.008789,0-0.014648-0.003906-0.023438-0.003906
			c-0.005859,0-0.012695,0.003906-0.021484,0.003906c-0.021484,0-0.043945-0.00293-0.064453,0l-42.193359,4.302734
			c-0.289062,0.029297-0.543945,0.203125-0.676758,0.463867c-0.132812,0.259766-0.124023,0.567383,0.020508,0.820312
			c0.279297,0.483398,7.25293,11.854492,42.920898,12.481445h0.014648h0.014648
			c35.669922-0.626953,42.638672-11.998047,42.918945-12.481445C360.722656,384.314453,360.731445,384.006836,360.600586,383.74707
			 M304.473633,382.042969l12.313477-1.254883v14.519531c-4.584961-0.104492-8.672852-0.392578-12.313477-0.814453V382.042969z
			 M302.755859,394.280273c-4.925781-0.651367-8.986328-1.546875-12.314453-2.544922v-8.261719l12.314453-1.254883V394.280273z
			 M318.505859,380.788086l12.311523,1.254883v12.450195c-3.639648,0.421875-7.729492,0.709961-12.311523,0.814453V380.788086z
			 M332.536133,382.21875l12.313477,1.254883v8.261719c-3.327148,0.998047-7.389648,1.893555-12.313477,2.544922V382.21875z
			 M288.724609,383.648438v7.539062c-6.754883-2.267578-10.115234-4.899414-11.571289-6.358398L288.724609,383.648438z
			 M346.568359,391.1875v-7.539062l11.567383,1.180664C356.676758,386.291016,353.318359,388.921875,346.568359,391.1875"/>
		<path clip-path="url(#SVGID_4_)" fill="#231E5A" d="M278.81543,370.791016l-22.498047-8.508789l23.208008,6.328125
			c0.599609,0.197266,0.930664,0.842773,0.733398,1.441406c-0.157227,0.490234-0.607422,0.793945-1.091797,0.793945
			C279.050781,370.845703,278.93457,370.828125,278.81543,370.791016"/>
		<path clip-path="url(#SVGID_4_)" fill="#170035" d="M278.81543,370.791016l-22.498047-8.508789l23.941406,7.769531
			c-0.157227,0.490234-0.607422,0.793945-1.091797,0.793945C279.050781,370.845703,278.93457,370.828125,278.81543,370.791016"/>
		<path clip-path="url(#SVGID_4_)" fill="#231E5A" d="M275.941406,374.081055l-21.76416-4.560547l22.115723,2.292969
			c0.624023,0.101562,1.048828,0.688477,0.955078,1.3125c-0.088867,0.56543-0.579102,0.969727-1.133789,0.966797
			C276.057617,374.092773,275.998047,374.089844,275.941406,374.081055"/>
		<path clip-path="url(#SVGID_4_)" fill="#170035" d="M275.941406,374.081055l-21.76416-4.560547l23.070801,3.605469
			c-0.088867,0.56543-0.579102,0.969727-1.133789,0.966797C276.057617,374.092773,275.998047,374.089844,275.941406,374.081055"/>
		<path clip-path="url(#SVGID_4_)" fill="#231E5A" d="M256.648438,378.762695l19.946289-2.756836
			c0.629883-0.052734,1.18457,0.416016,1.235352,1.045898c0.054688,0.634766-0.420898,1.186523-1.053711,1.234375
			L256.648438,378.762695z"/>
		<path clip-path="url(#SVGID_4_)" fill="#170035" d="M256.648438,378.762695l21.181641-1.710938
			c0.054688,0.634766-0.420898,1.186523-1.053711,1.234375L256.648438,378.762695z"/>
		<path clip-path="url(#SVGID_4_)" fill="#4648AA" d="M355.762695,368.611328c-0.599609,0.196289-0.930664,0.84082-0.734375,1.44043
			l23.942383-7.770508L355.762695,368.611328z"/>
		<path clip-path="url(#SVGID_4_)" fill="#231E5A" d="M355.02832,370.051758c0.155273,0.489258,0.609375,0.794922,1.091797,0.794922
			c0.117188,0,0.236328-0.018555,0.352539-0.055664l22.498047-8.509766L355.02832,370.051758z"/>
		<path clip-path="url(#SVGID_4_)" fill="#4648AA" d="M358.040039,373.125977l23.073242-3.605469l-22.115234,2.292969
			C358.371094,371.915039,357.944336,372.501953,358.040039,373.125977"/>
		<path clip-path="url(#SVGID_4_)" fill="#231E5A" d="M359.170898,374.092773c0.05957,0,0.116211-0.00293,0.175781-0.011719
			l21.766602-4.560547l-23.073242,3.605469C358.128906,373.692383,358.62207,374.095703,359.170898,374.092773"/>
		<path clip-path="url(#SVGID_4_)" fill="#4648AA" d="M357.458008,377.051758l21.18457,1.710938l-19.950195-2.756836
			C358.066406,375.954102,357.511719,376.421875,357.458008,377.051758"/>
		<path clip-path="url(#SVGID_4_)" fill="#231E5A" d="M358.507812,378.285156l20.134766,0.477539l-21.18457-1.710938
			C357.407227,377.685547,357.87793,378.237305,358.507812,378.285156"/>
		<path clip-path="url(#SVGID_4_)" fill="none" stroke="#FFFFFF" stroke-linecap="round" stroke-linejoin="round" d="
			M336.273438,292.541016c2.0625,0,5.060547,4.994141,5.060547,12.816406c0,1.776367-0.165039,3.515625-0.491211,5.171875"/>
		<path clip-path="url(#SVGID_4_)" d="M317.645508,318.929688c0.692383,0,1.370117,0.048828,2.052734,0.078125
			C319.024414,318.957031,318.34082,318.929688,317.645508,318.929688"/>
		<path clip-path="url(#SVGID_4_)" fill="#57468F" d="M299.018555,322.693359v-32.549805
			c-4.112305,0-7.451172,6.8125-7.451172,15.217773c0,4.806641,1.094727,9.086914,2.798828,11.875l-2.988281,1.811523
			l3.537109,2.140625l-3.537109,2.143555l2.826172,1.712891c-9.512695,5.319336-17.044922,13.751953-21.171875,23.945312h0.542969
			c3.341797-7.743164,21.798828-13.666016,44.070312-13.666016v-16.394531
			C311.037109,318.929688,304.750977,320.283203,299.018555,322.693359"/>
		<path clip-path="url(#SVGID_4_)" fill="#170035" d="M299.018555,322.597656v-32.548828
			c-4.112305,0-7.451172,6.811523-7.451172,15.216797c0,4.806641,1.094727,9.086914,2.798828,11.875l-2.988281,1.811523
			l3.537109,2.141602l-3.537109,2.142578l2.826172,1.712891c-9.512695,5.319336-17.044922,13.751953-21.171875,23.945312h0.542969
			c3.341797-7.743164,21.798828-13.666016,44.070312-13.666016v-16.394531
			C311.037109,318.833984,304.750977,320.1875,299.018555,322.597656"/>
		<path clip-path="url(#SVGID_4_)" d="M361.567383,347.444336c0.229492,0.515625,0.480469,1.020508,0.691406,1.545898
			C362.043945,348.458984,361.81543,347.945312,361.567383,347.444336"/>
		<path clip-path="url(#SVGID_4_)" fill="none" stroke="#FFFFFF" stroke-linecap="round" stroke-linejoin="round" d="
			M346.303711,333.579102c-7.101562-6.095703-15.978516-9.760742-25.469727-10.438477"/>
		<path clip-path="url(#SVGID_4_)" fill="#170035" d="M360.600586,383.74707c-0.134766-0.260742-0.388672-0.43457-0.681641-0.463867
			l-42.185547-4.302734c-0.022461-0.00293-0.042969,0-0.064453,0c-0.008789,0-0.014648-0.003906-0.023438-0.003906
			c-0.005859,0-0.012695,0.003906-0.021484,0.003906c-0.021484,0-0.043945-0.00293-0.064453,0l-42.193359,4.302734
			c-0.289062,0.029297-0.543945,0.203125-0.676758,0.463867c-0.132812,0.259766-0.124023,0.567383,0.020508,0.820312
			c0.279297,0.483398,7.25293,11.854492,42.920898,12.481445h0.014648h0.014648
			c35.669922-0.626953,42.638672-11.998047,42.918945-12.481445C360.722656,384.314453,360.731445,384.006836,360.600586,383.74707
			 M304.473633,382.042969l12.313477-1.254883v14.519531c-4.584961-0.104492-8.672852-0.392578-12.313477-0.814453V382.042969z
			 M302.755859,394.280273c-4.925781-0.651367-8.986328-1.546875-12.314453-2.544922v-8.261719l12.314453-1.254883V394.280273z
			 M318.505859,380.788086l12.311523,1.254883v12.450195c-3.639648,0.421875-7.729492,0.709961-12.311523,0.814453V380.788086z
			 M332.536133,382.21875l12.313477,1.254883v8.261719c-3.327148,0.998047-7.389648,1.893555-12.313477,2.544922V382.21875z
			 M288.724609,383.648438v7.539062c-6.754883-2.267578-10.115234-4.899414-11.571289-6.358398L288.724609,383.648438z
			 M346.568359,391.1875v-7.539062l11.567383,1.180664C356.676758,386.291016,353.318359,388.921875,346.568359,391.1875"/>
		<path clip-path="url(#SVGID_4_)" fill="#72688C" d="M486.391602,52.123535c0.085938,0.134766,0.177734,0.27002,0.251953,0.413086
			C486.566406,52.393555,486.480469,52.257324,486.391602,52.123535"/>
		<path clip-path="url(#SVGID_4_)" fill="#72688C" d="M486.05957,51.654297h-0.008789
			c0.013672,0.01709,0.03125,0.033203,0.045898,0.050293C486.082031,51.689453,486.072266,51.67041,486.05957,51.654297"/>
		<path clip-path="url(#SVGID_4_)" fill="#72688C" d="M474.835938,52.847168c0.038086,0.035156,0.080078,0.063965,0.117188,0.100098
			C474.916016,52.911133,474.874023,52.882324,474.835938,52.847168"/>
		<path clip-path="url(#SVGID_4_)" fill="#72688C" d="M486.763672,52.786133c0.107422,0.233887,0.206055,0.473145,0.277344,0.723145
			C486.96582,53.260254,486.875,53.02002,486.763672,52.786133"/>
		<path clip-path="url(#SVGID_4_)" fill="#231E5A" d="M487.266602,54.929199c0-0.479004-0.085938-0.934082-0.212891-1.370117
			c0.083984,0.300781,0.141602,0.61377,0.168945,0.936035h-10.96582c-0.056641-0.087891-0.125-0.165039-0.186523-0.25
			c1.03125,1.443848,1.65332,3.19873,1.65332,5.108887v12.349121c2.454102,0,4.443359-1.989258,4.443359-4.444336
			c0-1.11084-0.408203-2.12793-1.078125-2.905762c1.455078-0.055176,2.620117-1.253906,2.620117-2.725098
			c0-0.619141-0.205078-1.189941-0.551758-1.646973C485.50293,59.49707,487.266602,57.419922,487.266602,54.929199"/>
		<path clip-path="url(#SVGID_4_)" fill="#72688C" d="M475.699219,53.748047
			c-0.091797-0.111816-0.191406-0.212891-0.287109-0.318848C475.507812,53.535156,475.607422,53.63623,475.699219,53.748047"/>
		<g opacity="0.699997" clip-path="url(#SVGID_4_)">
			<g>
				<defs>
					<rect id="SVGID_7_" x="486.09668" y="51.705078" width="0.293945" height="0.417969"/>
				</defs>
				<clipPath id="SVGID_8_">
					<use xlink:href="#SVGID_7_"  overflow="visible"/>
				</clipPath>
				<path clip-path="url(#SVGID_8_)" fill="#453651" d="M486.09668,51.705078
					c0.107422,0.132812,0.199219,0.275879,0.294922,0.417969C486.297852,51.97998,486.202148,51.838867,486.09668,51.705078"/>
			</g>
		</g>
		<g opacity="0.699997" clip-path="url(#SVGID_4_)">
			<g>
				<defs>
					<rect id="SVGID_9_" x="475.699219" y="53.748047" width="0.371094" height="0.49707"/>
				</defs>
				<clipPath id="SVGID_10_">
					<use xlink:href="#SVGID_9_"  overflow="visible"/>
				</clipPath>
				<path clip-path="url(#SVGID_10_)" fill="#453651" d="M476.069336,54.245117
					c-0.120117-0.168945-0.238281-0.337402-0.371094-0.49707C475.831055,53.907715,475.949219,54.076172,476.069336,54.245117"/>
			</g>
		</g>
		<g opacity="0.699997" clip-path="url(#SVGID_4_)">
			<g>
				<defs>
					<rect id="SVGID_11_" x="487.041016" y="53.508789" width="0.012695" height="0.050293"/>
				</defs>
				<clipPath id="SVGID_12_">
					<use xlink:href="#SVGID_11_"  overflow="visible"/>
				</clipPath>
				<path clip-path="url(#SVGID_12_)" fill="#453651" d="M487.041016,53.508789
					c0.003906,0.016113,0.007812,0.033203,0.012695,0.050293C487.048828,53.541992,487.043945,53.524902,487.041016,53.508789"/>
			</g>
		</g>
		<g opacity="0.699997" clip-path="url(#SVGID_4_)">
			<g>
				<defs>
					<rect id="SVGID_13_" x="474.954102" y="52.946777" width="0.458008" height="0.482422"/>
				</defs>
				<clipPath id="SVGID_14_">
					<use xlink:href="#SVGID_13_"  overflow="visible"/>
				</clipPath>
				<path clip-path="url(#SVGID_14_)" fill="#453651" d="M474.954102,52.946777
					c0.161133,0.15332,0.307617,0.319336,0.458008,0.482422C475.261719,53.265137,475.115234,53.100098,474.954102,52.946777"/>
			</g>
		</g>
		<g opacity="0.699997" clip-path="url(#SVGID_4_)">
			<g>
				<defs>
					<rect id="SVGID_15_" x="469.296875" y="46.924805" width="16.75293" height="5.922363"/>
				</defs>
				<clipPath id="SVGID_16_">
					<use xlink:href="#SVGID_15_"  overflow="visible"/>
				</clipPath>
				<path clip-path="url(#SVGID_16_)" fill="#453651" d="M486.049805,51.654297
					c-0.938477-1.141113-2.344727-1.880859-3.939453-1.880859c-0.072266,0-0.141602,0.00293-0.208984,0.004883
					c-0.979492-0.885742-2.279297-1.425781-3.702148-1.425781c-1.5625,0-2.973633,0.650879-3.976562,1.694824
					c0.00293-0.050781,0.004883-0.101074,0.004883-0.153809c0-1.180176-0.515625-2.230957-1.322266-2.968262h-3.608398v3.638184
					c2.131836,0.099121,4.063477,0.943848,5.539062,2.28418c-0.496094-0.454102-1.037109-0.861328-1.628906-1.193359H486.049805z"/>
			</g>
		</g>
		<g opacity="0.699997" clip-path="url(#SVGID_4_)">
			<g>
				<defs>
					<rect id="SVGID_17_" x="486.643555" y="52.536133" width="0.119141" height="0.25"/>
				</defs>
				<clipPath id="SVGID_18_">
					<use xlink:href="#SVGID_17_"  overflow="visible"/>
				</clipPath>
				<path clip-path="url(#SVGID_18_)" fill="#453651" d="M486.643555,52.536621c0.043945,0.082031,0.081055,0.166992,0.119141,0.25
					C486.725586,52.702637,486.685547,52.618652,486.643555,52.536621"/>
			</g>
		</g>
		<path clip-path="url(#SVGID_4_)" fill="#170035" d="M487.222656,54.494629
			c-0.027344-0.320801-0.084961-0.635254-0.168945-0.935059c-0.004883-0.01709-0.008789-0.035156-0.012695-0.050781
			c-0.072266-0.249023-0.169922-0.489258-0.27832-0.722168c-0.038086-0.083008-0.074219-0.167969-0.118164-0.25
			c-0.075195-0.144043-0.166016-0.277832-0.253906-0.413086c-0.094727-0.14209-0.186523-0.286133-0.293945-0.418945
			c-0.014648-0.01709-0.03125-0.033203-0.046875-0.049805h-12.842773c0.591797,0.332031,1.132812,0.737793,1.628906,1.192871
			c0.038086,0.03418,0.079102,0.062988,0.118164,0.099121c0.161133,0.152832,0.307617,0.317871,0.458008,0.48291
			c0.095703,0.105957,0.195312,0.207031,0.287109,0.317871c0.130859,0.160156,0.250977,0.329102,0.371094,0.49707
			c0.061523,0.084961,0.129883,0.162109,0.186523,0.25H487.222656z"/>
		<path clip-path="url(#SVGID_4_)" fill="#985EB5" d="M487.132812,42.100586h-52.53418h-9.081055l-6.729492,2.731934
			c-2.641602,0-5.40625-0.593262-5.40625,2.044922s2.133789,4.776855,4.774414,4.776855h7.361328h9.081055h52.53418
			c2.636719,0,4.777344-2.138672,4.777344-4.776855S489.769531,42.100586,487.132812,42.100586"/>
		<polygon clip-path="url(#SVGID_4_)" fill="#A5E4DB" points="435.749023,106.805176 435.749023,115.27832 450.487305,115.27832 		
			"/>
		<polygon clip-path="url(#SVGID_4_)" fill="#FFFFFF" points="469.545898,106.805176 469.545898,115.27832 454.805664,115.27832 		
			"/>
		<polygon clip-path="url(#SVGID_4_)" fill="#231E5A" points="447.492188,82.570801 445.701172,92.84082 452.644531,92.84082 
			452.644531,82.570801 		"/>
		<g opacity="0.199997" clip-path="url(#SVGID_4_)">
			<g>
				<defs>
					<rect id="SVGID_19_" x="452.643555" y="82.570801" width="6.944336" height="10.27002"/>
				</defs>
				<clipPath id="SVGID_20_">
					<use xlink:href="#SVGID_19_"  overflow="visible"/>
				</clipPath>
				<polygon clip-path="url(#SVGID_20_)" fill="#72688C" points="457.794922,82.570801 452.644531,82.570801 452.644531,92.84082 
					459.587891,92.84082 				"/>
			</g>
		</g>
		<polygon clip-path="url(#SVGID_4_)" fill="#4648AA" points="457.794922,82.570801 452.644531,82.570801 452.644531,92.84082 
			459.587891,92.84082 		"/>
		<path clip-path="url(#SVGID_4_)" fill="#170035" d="M448.836914,96.912598c-0.194336,0-0.387695-0.073242-0.535156-0.222168
			c-0.296875-0.294922-0.296875-0.773926,0-1.070801c2.391602-2.391113,6.287109-2.393066,8.683594,0
			c0.294922,0.294922,0.296875,0.774902,0,1.070801c-0.293945,0.293945-0.774414,0.294922-1.070312,0
			c-1.804688-1.803711-4.740234-1.800781-6.543945,0C449.223633,96.839355,449.02832,96.912598,448.836914,96.912598"/>
		<path clip-path="url(#SVGID_4_)" fill="#170035" d="M441.397461,65.843262c-0.664062-0.662598-1.513672-0.983887-2.37793-0.989746
			c-0.871094,0.005859-1.716797,0.327148-2.379883,0.989746h0.003906c-0.791016,0.790039-2.070312,0.790039-2.857422,0
			c-0.788086-0.787598-0.788086-2.065918,0-2.85498c1.4375-1.441895,3.344727-2.170898,5.233398-2.170898
			c1.887695,0,3.789062,0.729004,5.235352,2.170898c0.786133,0.789062,0.786133,2.067383-0.004883,2.85498
			c-0.392578,0.39502-0.90918,0.594238-1.423828,0.594238C442.310547,66.4375,441.793945,66.238281,441.397461,65.843262"/>
		<path clip-path="url(#SVGID_4_)" fill="#231E5A" d="M461.03418,65.844727c-0.788086-0.786133-0.788086-2.063965-0.003906-2.85498
			c1.441406-1.444336,3.352539-2.17334,5.238281-2.168945c1.885742-0.004395,3.789062,0.724609,5.231445,2.168945h0.003906
			c0.785156,0.786621,0.785156,2.064941-0.003906,2.85498c-0.788086,0.787109-2.06543,0.787109-2.853516,0
			c-0.662109-0.662109-1.514648-0.98291-2.37793-0.988281c-0.871094,0.005371-1.717773,0.326172-2.376953,0.984375
			c-0.390625,0.396973-0.912109,0.59668-1.429688,0.59668S461.429688,66.239746,461.03418,65.844727"/>
		<path clip-path="url(#SVGID_4_)" fill="#170035" d="M466.268555,60.820801L466.268555,60.820801
			c-1.885742-0.004395-3.796875,0.724609-5.238281,2.168945c-0.78418,0.791016-0.78418,2.068848,0.003906,2.85498
			c0.395508,0.39502,0.910156,0.592773,1.427734,0.592773s1.038086-0.199707,1.430664-0.59668
			c0.658203-0.658203,1.504883-0.979004,2.375977-0.984375V60.820801z"/>
		<path clip-path="url(#SVGID_4_)" fill="#985EB5" d="M462.917969,39.710449h20.183594v-9.254883
			c0-16.820801-13.637695-30.456055-30.454102-30.456055c-16.824219,0-30.460938,13.635254-30.460938,30.456055v9.254883H462.917969
			z"/>
		<path clip-path="url(#SVGID_4_)" fill="#813A8D" d="M452.646484,0c-16.822266,0-30.460938,13.634766-30.460938,30.455078v9.255859
			h30.458008L452.646484,0z"/>
		
			<path clip-path="url(#SVGID_4_)" fill="none" stroke="#D3A3FB" stroke-linecap="round" stroke-linejoin="round" stroke-miterlimit="10" d="
			M476.621094,30.455566c0-13.221191-10.754883-23.977051-23.974609-23.977051"/>
		<path clip-path="url(#SVGID_4_)" fill="#D3A3FB" d="M491.291016,44.568359
			c-0.816406-1.464844-2.362305-2.467773-4.158203-2.467773h-60.512695c-1.795898,0-11.806641,1.00293-12.619141,2.467773
			H491.291016z"/>
		<path clip-path="url(#SVGID_4_)" fill="#813A8D" d="M422.463867,46.877441c0-2.637695,2.136719-4.776855,4.777344-4.776855
			h-9.083984c-2.641602,0-4.775391,2.13916-4.775391,4.776855c0,2.638184,2.133789,4.776855,4.775391,4.776855h9.083984h59.891602
			c2.636719,0,4.777344-2.138672,4.777344-4.776855H422.463867z"/>
		<path clip-path="url(#SVGID_4_)" fill="#170035" d="M419.227539,51.654297
			c-0.741211,0.893066-1.206055,2.024902-1.206055,3.274902c0,2.490234,1.764648,4.568359,4.109375,5.052246
			c-0.34668,0.457031-0.552734,1.027832-0.552734,1.646973c0,1.470215,1.166016,2.669922,2.62207,2.724121
			c-0.676758,0.778809-1.082031,1.794922-1.082031,2.906738c0,2.455078,1.991211,4.444336,4.443359,4.444336V59.354492
			c2.822266-0.241211,5.037109-2.606934,5.037109-5.489258c0-0.292969-0.018555-0.57666-0.063477-0.855957
			c0.695312,0.571289,1.584961,0.914062,2.556641,0.914062c1.588867,0,2.952148-0.930176,3.608398-2.269043h-11.458984H419.227539z"
			/>
		<rect x="448.625" y="113.666992" clip-path="url(#SVGID_4_)" fill="#813A8D" width="8.045898" height="8.047852"/>
		<rect x="452.647461" y="113.666992" clip-path="url(#SVGID_4_)" fill="#57468F" width="4.023438" height="8.047852"/>
		<path clip-path="url(#SVGID_4_)" fill="#813A8D" d="M452.646484,121.715332c-2.09082,0-3.78418,1.695312-3.78418,3.783203
			v1.501953h7.570312v-1.501953C456.432617,123.410645,454.739258,121.715332,452.646484,121.715332"/>
		<path clip-path="url(#SVGID_4_)" fill="#57468F" d="M452.646484,121.715332v5.285156h3.786133v-1.501953
			C456.432617,123.410645,454.739258,121.715332,452.646484,121.715332"/>
		<rect x="452.647461" y="113.666992" clip-path="url(#SVGID_4_)" fill="#D3A3FB" width="4.023438" height="8.047852"/>
		<path clip-path="url(#SVGID_4_)" fill="#D3A3FB" d="M452.646484,121.715332v5.285156h3.786133v-1.501953
			C456.432617,123.410645,454.739258,121.715332,452.646484,121.715332"/>
		<path clip-path="url(#SVGID_4_)" fill="#FFFFFF" d="M62.312988,114.561523l-7.138672,1.214844v-0.283203h-6.384277v-1.955566
			c0.329102-0.455078,0.744141-0.844238,1.248047-1.125c0.910156-0.507324,1.956055-0.629395,2.958008-0.347168
			c0.509277,0.147949,1.05127,0.083008,1.516113-0.176758c0.466797-0.262207,0.804199-0.686035,0.949219-1.199219
			c0.283691-1,0.938965-1.831055,1.84375-2.335938c0.910156-0.51123,1.959961-0.633301,2.956055-0.349121
			c0.515137,0.144043,1.056152,0.081055,1.520996-0.176758c0.46582-0.260254,0.804199-0.686035,0.947754-1.199219
			c0.28418-1,0.939453-1.831055,1.845215-2.335938c0.908203-0.506836,1.959961-0.628906,2.954102-0.347168
			c1.059082,0.306152,2.169922-0.314941,2.467773-1.376953c0.586914-2.064941,2.744141-3.272949,4.80127-2.682129
			c0.503906,0.14209,0.795898,0.664062,0.653809,1.166016c-0.144043,0.501953-0.669922,0.80127-1.166992,0.651367
			c-0.51416-0.144043-1.057129-0.081055-1.52002,0.177734c-0.466797,0.262207-0.803711,0.687988-0.947754,1.202148
			l-8.701172,11.518066C62.853027,114.550293,62.584961,114.516602,62.312988,114.561523"/>
		<path clip-path="url(#SVGID_4_)" fill="#170035" d="M14.734863,31.925781c-4.125977,4.125-6.679199,9.824219-6.679199,16.119141
			c-0.000977,5.833984,2.224121,11.669922,6.67627,16.121094c2.473145-2.472168,4.00293-5.88916,4.00293-9.662109
			c0-2.843262,2.304199-5.146973,5.146973-5.146973c13.14502,0,23.80127-10.65625,23.80127-23.80127H18.52002L14.734863,31.925781z"
			/>
		<path clip-path="url(#SVGID_4_)" fill="#231E5A" d="M80.631348,33.81543c4.125977,4.124023,6.678711,9.82373,6.678711,16.118652
			c0.000977,5.833984-2.223633,11.669922-6.675781,16.121094c-2.473145-2.472168-4.00293-5.88916-4.00293-9.662109
			c0-2.842773-2.305176-5.146973-5.146973-5.146973c-13.14502,0-23.80127-10.655762-23.80127-23.800781h29.163086
			L80.631348,33.81543z"/>
		<rect x="49.103027" y="116.960938" clip-path="url(#SVGID_4_)" fill="#D88A80" width="4.60498" height="9.209961"/>
		<rect x="44.498047" y="116.960938" clip-path="url(#SVGID_4_)" fill="#CE635F" width="4.60498" height="9.209961"/>
		<path clip-path="url(#SVGID_4_)" fill="#C74048" d="M61.70459,126.978027l-7.996094-1.36084v-8.103027l7.996094-1.361816
			c0.924805-0.157227,1.769043,0.555664,1.769043,1.493652v7.839355C63.473633,126.422852,62.629395,127.135254,61.70459,126.978027
			"/>
		<path clip-path="url(#SVGID_4_)" fill="#9D132C" d="M36.500977,116.152344l7.996094,1.361328v8.103027l-7.996094,1.361816
			c-0.924805,0.157227-1.769043-0.555664-1.769043-1.494141v-7.838867
			C34.731934,116.70752,35.576172,115.995605,36.500977,116.152344"/>
		<path clip-path="url(#SVGID_4_)" fill="#170035" d="M41.614746,60.04834l-8.243652-2.576172
			c-1.180176-0.370605-2.465332-0.301758-3.601074,0.189941l-5.762207,2.498047
			c-0.11084,0.049316-0.167969,0.17334-0.130859,0.289062c0.039062,0.117188,0.150879,0.184082,0.276855,0.158203l4.468262-0.993164
			c0.641602-0.14209,1.313965-0.214844,1.992676-0.214844c3.430176,0,6.164062,1.845703,6.187988,1.861816
			c0.600098,0.425293,1.305176,0.648926,2.037109,0.648926c1.150879,0,2.233887-0.561035,2.898926-1.5
			c0.041992-0.062012,0.053223-0.140625,0.029297-0.211914C41.744141,60.126465,41.687012,60.070312,41.614746,60.04834"/>
		<path clip-path="url(#SVGID_4_)" fill="#D88A80" d="M47.644043,90.20752l8.927246,1.156738
			c-2.288086,2.289062-5.447266,3.704102-8.927246,3.704102V90.20752z"/>
		<path clip-path="url(#SVGID_4_)" fill="#CE635F" d="M47.644043,90.20752l-8.926758,1.156738
			c2.288086,2.289062,5.446777,3.704102,8.926758,3.704102V90.20752z"/>
		<path clip-path="url(#SVGID_4_)" fill="#C74048" d="M47.644043,89.40625c0.725098-0.006836,2.341309-0.969727,3.179199-0.969727
			c2.660156,0,7.071777,2.155762,7.071777,2.155762c-0.512695,0.513184-1.220703,0.831055-2.001953,0.831055l-6.24707-0.547852
			c-0.512695,0.513184-1.222656,0.830078-2.001953,0.830078V89.40625z"/>
		<path clip-path="url(#SVGID_4_)" fill="#9D132C" d="M47.644043,89.40625c-0.724609-0.006836-2.34082-0.969727-3.178711-0.969727
			c-2.660156,0-7.072266,2.155762-7.072266,2.155762c0.513184,0.513184,1.221191,0.831055,2.001953,0.831055l6.24707-0.547852
			c0.513184,0.513184,1.223145,0.830078,2.001953,0.830078V89.40625z"/>
		<path clip-path="url(#SVGID_4_)" fill="#170035" d="M53.673828,60.04834l8.243652-2.576172
			c1.180176-0.370605,2.465332-0.301758,3.601074,0.189941l5.762207,2.498047c0.11084,0.049316,0.167969,0.17334,0.130859,0.289062
			c-0.039062,0.117188-0.150879,0.184082-0.276855,0.158203l-4.468262-0.993164
			c-0.64209-0.14209-1.313965-0.214844-1.992676-0.214844c-3.430176,0-6.164062,1.845703-6.188477,1.861816
			c-0.599609,0.425293-1.304688,0.648926-2.036621,0.648926c-1.151367,0-2.234375-0.561035-2.898926-1.5
			c-0.041992-0.062012-0.053223-0.140625-0.029297-0.211914C53.544434,60.126465,53.601562,60.070312,53.673828,60.04834"/>
		<rect x="15.647949" y="17.971191" clip-path="url(#SVGID_4_)" fill="#925A00" width="64.069824" height="6.228027"/>
		<path clip-path="url(#SVGID_4_)" fill="#6A4012" d="M84.005859,24.199219H11.111328l-6.837402,6.797363
			c8.290039,3.461914,17.198242,3.236816,24.899414,0.072754c11.426758-4.692871,24.645996-5.027832,36.944824,0.108887
			c8.289062,3.462402,17.197754,3.237305,24.898926,0.074219L84.005859,24.199219z"/>
		<path clip-path="url(#SVGID_4_)" fill="#6A4012" d="M47.683105,2H28.688965c-6.315918,0-11.483887,5.167969-11.483887,11.483887
			v4.487305h30.478027V2z"/>
		<rect x="47.683105" y="17.971191" clip-path="url(#SVGID_4_)" fill="#FF960A" width="32.034668" height="6.228027"/>
		<path clip-path="url(#SVGID_4_)" fill="#925A00" d="M47.683105,2h18.993652c6.317383,0,11.484375,5.167969,11.484375,11.483887
			v4.487305H47.683105V2z"/>
		<path clip-path="url(#SVGID_4_)" fill="none" stroke="#FFFFFF" stroke-width="0.75" stroke-linecap="round" d="
			M62.465332,7.542969h4.212402c2.913574,0,5.344727,2.11084,5.844727,4.884766"/>
		<path clip-path="url(#SVGID_4_)" fill="#FFC80A" d="M37.875,18.454102c-2.906738,0-5.262695,1.177734-5.262695,2.630859
			S34.968262,23.71582,37.875,23.71582l9.808105-2.630859L37.875,18.454102z"/>
		<path clip-path="url(#SVGID_4_)" fill="#FFC80A" d="M38.887207,26.160156c-2.055176,2.054688-2.888184,4.553711-1.861328,5.581543
			c1.02832,1.027344,3.527344,0.194336,5.582031-1.86084l5.075195-8.795898L38.887207,26.160156z"/>
		<path clip-path="url(#SVGID_4_)" fill="#FFC80A" d="M45.05127,30.893066c0,2.90625,1.178223,5.263184,2.631348,5.263184
			c1.454102,0,2.631836-2.356934,2.631836-5.263184l-2.631836-9.808105L45.05127,30.893066z"/>
		<path clip-path="url(#SVGID_4_)" fill="#FFFFFF" d="M52.757812,29.880859c2.054688,2.055176,4.553711,2.888184,5.581543,1.861328
			c1.027344-1.02832,0.194336-3.526855-1.86084-5.582031l-8.795898-5.075195L52.757812,29.880859z"/>
		<path clip-path="url(#SVGID_4_)" fill="#FFFFFF" d="M57.490723,23.716309c2.90625,0,5.263184-1.177734,5.263184-2.630859
			s-2.356934-2.630859-5.263184-2.630859l-9.808105,2.630859L57.490723,23.716309z"/>
		<path clip-path="url(#SVGID_4_)" fill="#FFFFFF" d="M56.478516,16.010742c2.055176-2.055176,2.888184-4.554199,1.86084-5.582031
			c-1.027832-1.027344-3.526855-0.194336-5.581543,1.86084l-5.075195,8.795898L56.478516,16.010742z"/>
		<path clip-path="url(#SVGID_4_)" fill="#FFFFFF" d="M50.313965,11.277344c0-2.90625-1.177734-5.263184-2.630859-5.263184
			s-2.631836,2.356934-2.631836,5.263184l2.631836,9.808105L50.313965,11.277344z"/>
		<path clip-path="url(#SVGID_4_)" fill="#FFC80A" d="M42.608398,12.289062c-2.055176-2.054688-4.554199-2.887695-5.582031-1.86084
			c-1.026855,1.02832-0.193848,3.526855,1.86084,5.582031l8.795898,5.075195L42.608398,12.289062z"/>
		<path clip-path="url(#SVGID_4_)" fill="#C74048" d="M47.683105,26.016602c2.723633,0,4.931641-2.208008,4.931641-4.932129
			c0-2.723145-2.208008-4.931152-4.931641-4.931152V26.016602z"/>
		<path clip-path="url(#SVGID_4_)" fill="#9D132C" d="M47.683105,16.15332c-2.723145,0-4.932129,2.208008-4.932129,4.932129
			c0,2.722656,2.208984,4.930664,4.932129,4.930664V16.15332z"/>
		<path clip-path="url(#SVGID_4_)" fill="#FFEE81" d="M35.89209,114.561523l7.13916,1.214844v-0.283203h6.384277v-1.955566
			c-0.329102-0.455078-0.744141-0.844238-1.248047-1.125c-0.910156-0.507324-1.956055-0.629395-2.958008-0.347168
			c-0.509277,0.147949-1.05127,0.083008-1.516113-0.176758c-0.467285-0.262207-0.804199-0.686035-0.949219-1.199219
			c-0.283691-1-0.938965-1.831055-1.84375-2.335938c-0.910156-0.51123-1.959961-0.633301-2.956055-0.349121
			c-0.515137,0.144043-1.056152,0.081055-1.520996-0.176758c-0.46582-0.260254-0.804199-0.686035-0.948242-1.199219
			c-0.283691-1-0.938965-1.831055-1.844727-2.335938c-0.908203-0.506836-1.959961-0.628906-2.954102-0.347168
			c-1.059082,0.306152-2.169922-0.314941-2.467773-1.376953c-0.587402-2.064941-2.744141-3.272949-4.80127-2.682129
			c-0.503906,0.14209-0.795898,0.664062-0.653809,1.166016c0.144043,0.501953,0.669922,0.80127,1.166992,0.651367
			c0.513672-0.144043,1.057129-0.081055,1.52002,0.177734c0.466797,0.262207,0.803711,0.687988,0.947754,1.202148
			l8.701172,11.518066C35.352539,114.550293,35.620117,114.516602,35.89209,114.561523"/>
		<rect x="358.188477" y="47.515137" clip-path="url(#SVGID_4_)" fill="#170035" width="8.635742" height="1.726074"/>
		<rect x="275.870117" y="42.829102" clip-path="url(#SVGID_4_)" fill="#170035" width="8.633789" height="4.193848"/>
		<rect x="268.466797" y="40.605957" clip-path="url(#SVGID_4_)" fill="#009696" width="8.635742" height="8.635254"/>
		<rect x="268.466797" y="47.515137" clip-path="url(#SVGID_4_)" fill="#170035" width="8.635742" height="1.726074"/>
		<rect x="350.785156" y="42.828125" clip-path="url(#SVGID_4_)" fill="#009696" width="5.798828" height="3.083984"/>
		<rect x="350.785156" y="42.829102" clip-path="url(#SVGID_4_)" fill="#A5E4DB" width="5.798828" height="1.47998"/>
		<rect x="350.785156" y="45.912109" clip-path="url(#SVGID_4_)" fill="#170035" width="8.636719" height="1.11084"/>
		<rect x="356.583984" y="42.829102" clip-path="url(#SVGID_4_)" fill="#170035" width="2.837891" height="4.193848"/>
		<rect x="358.188477" y="40.605957" clip-path="url(#SVGID_4_)" fill="#A5E4DB" width="8.635742" height="2.960938"/>
		<rect x="358.188477" y="43.565918" clip-path="url(#SVGID_4_)" fill="#009696" width="8.635742" height="3.948242"/>
		<path clip-path="url(#SVGID_4_)" fill="#FFFFFF" d="M344.629883,65.240723c0,7.106934-5.779297,12.887207-12.887695,12.887207
			c-7.107422,0-12.886719-5.780273-12.886719-12.887207H344.629883z"/>
		<path clip-path="url(#SVGID_4_)" fill="#FFEE81" d="M341.273438,65.239258c0,5.26416-4.267578,9.53125-9.532227,9.53125
			c-5.262695,0-9.532227-4.26709-9.532227-9.53125H341.273438z"/>
		<path clip-path="url(#SVGID_4_)" fill="#FFC80A" d="M338.477539,65.239258c0,3.720215-3.015625,6.736328-6.736328,6.736328
			c-3.71875,0-6.736328-3.016113-6.736328-6.736328H338.477539z"/>
		<path clip-path="url(#SVGID_4_)" fill="#C5364C" d="M334.365234,65.239258c0,1.449219-1.172852,2.624023-2.624023,2.624023
			c-1.450195,0-2.624023-1.174805-2.624023-2.624023H334.365234z"/>
		<path clip-path="url(#SVGID_4_)" fill="#FFFFFF" d="M316.433594,65.240723c0,7.106934-5.77832,12.887207-12.885742,12.887207
			c-7.109375,0-12.886719-5.780273-12.886719-12.887207H316.433594z"/>
		<path clip-path="url(#SVGID_4_)" fill="#FFEE81" d="M313.078125,65.239258c0,5.26416-4.267578,9.53125-9.53125,9.53125
			c-5.264648,0-9.532227-4.26709-9.532227-9.53125H313.078125z"/>
		<path clip-path="url(#SVGID_4_)" fill="#FFC80A" d="M310.283203,65.239258c0,3.720215-3.017578,6.736328-6.736328,6.736328
			c-3.719727,0-6.737305-3.016113-6.737305-6.736328H310.283203z"/>
		<path clip-path="url(#SVGID_4_)" fill="#C5364C" d="M306.170898,65.239258c0,1.449219-1.174805,2.624023-2.624023,2.624023
			s-2.624023-1.174805-2.624023-2.624023H306.170898z"/>
		<path clip-path="url(#SVGID_4_)" fill="#56CCBB" d="M332.120117,121.570312h-9.212891
			c-2.896484,0-5.243164-2.337891-5.260742-5.22998c0-0.008789-0.000977-0.021973-0.000977-0.029785
			c0,0.003906-0.000977,0.005859-0.000977,0.007812v-0.009766c0,0.009766-0.001953,0.024902-0.001953,0.033691
			c-0.019531,2.89209-2.364258,5.230957-5.258789,5.230957h-9.212891l-13.158203-13.157715l12.625977,18.584961h10.625
			c1.731445,0,3.28418-0.73291,4.381836-1.901855c1.099609,1.166016,2.651367,1.898926,4.381836,1.898926h10.624023
			l7.52832-13.485352L332.120117,121.570312z"/>
		<line clip-path="url(#SVGID_4_)" fill="#575757" x1="317.644531" y1="114.344727" x2="317.644531" y2="114.334961"/>
		<polygon clip-path="url(#SVGID_4_)" fill="#A5E4DB" points="332.120117,121.570312 322.907227,121.570312 322.907227,126.997559 
			332.651367,126.997559 345.279297,108.412598 		"/>
		<path clip-path="url(#SVGID_4_)" fill="#56CCBB" d="M350.624023,19.514648l-4.710938,4.709961l-4.709961-4.709961
			l-4.711914,4.709961l-4.709961-4.709961l-4.710938,4.709961l-4.710938-4.709961l-4.711914,4.709961l-4.710938-4.709961
			l-4.710938,4.709961l-4.711914-4.709961l-4.709961,4.709961l-4.712891-4.709961l-4.709961,4.709961l-4.711914-4.709961
			l-0.001953,0.001953v33.049805l-6.000977-39.376953c0-6.179688,5.009766-11.189941,11.19043-11.189941h55.580078
			c6.179688,0,11.19043,5.010254,11.19043,11.189941l-6.00293,39.376953V19.514648z"/>
		<path clip-path="url(#SVGID_4_)" fill="none" stroke="#FFFFFF" stroke-linecap="round" stroke-linejoin="round" d="
			M352.477539,12.283203c-0.454102-3.530273-3.481445-6.190918-7.041016-6.190918h-5.585938"/>
		<path clip-path="url(#SVGID_4_)" fill="#009696" d="M289.856445,2c-6.180664,0-11.19043,5.009766-11.19043,11.188965
			l6.000977,39.376953V19.51709l0.001953-0.001953l4.711914,4.709961l4.709961-4.709961l4.711914,4.709961l4.710938-4.709961
			l4.711914,4.709961l4.710938-4.709961l4.710938,4.709961V2H289.856445z"/>
		<path clip-path="url(#SVGID_4_)" fill="#56CCBB" d="M294.491211,50.677246c-0.194336,0-0.384766-0.075684-0.522461-0.213867
			c-0.137695-0.137207-0.217773-0.327148-0.217773-0.520996V39.907227c0-0.195801,0.080078-0.387695,0.217773-0.523926
			c0.137695-0.137695,0.328125-0.214844,0.522461-0.214844h3.666016c0.198242,0,0.388672,0.077148,0.525391,0.214844
			c0.137695,0.13623,0.213867,0.328125,0.213867,0.523926v10.035156c0,0.198242-0.076172,0.383789-0.213867,0.520996
			c-0.140625,0.14209-0.327148,0.213867-0.525391,0.213867H294.491211z"/>
		<path clip-path="url(#SVGID_4_)" fill="#56CCBB" d="M305.150391,50.615723c-0.193359,0-0.383789-0.075684-0.521484-0.213867
			c-0.136719-0.137207-0.216797-0.327148-0.216797-0.520996V39.845703c0-0.196777,0.080078-0.387695,0.216797-0.523926
			c0.137695-0.138184,0.328125-0.214844,0.521484-0.214844h3.666016c0.199219,0,0.389648,0.07666,0.526367,0.214844
			c0.138672,0.13623,0.214844,0.327148,0.214844,0.523926v10.035156c0,0.197754-0.076172,0.383789-0.214844,0.520996
			c-0.140625,0.143066-0.327148,0.213867-0.526367,0.213867H305.150391z"/>
		<path clip-path="url(#SVGID_4_)" fill="#56CCBB" d="M308.817383,49.880371v-0.739746V49.880371z"/>
		<path clip-path="url(#SVGID_4_)" fill="#170035" d="M335.490234,94.435059c0-0.40918-0.333008-0.740234-0.740234-0.740234
			c-0.410156,0-0.741211,0.331055-0.741211,0.740234c0,2.493164-2.026367,4.52002-4.522461,4.52002h-2.016602
			c1.276367-1.100098,2.099609-2.708008,2.099609-4.52002c0-0.40918-0.332031-0.740234-0.739258-0.740234
			c-0.408203,0-0.740234,0.331055-0.740234,0.740234c0,2.493164-2.02832,4.52002-4.522461,4.52002h-11.842773
			c-2.493164,0-4.522461-2.026855-4.522461-4.52002c0-0.40918-0.331055-0.740234-0.740234-0.740234
			s-0.740234,0.331055-0.740234,0.740234c0,1.812012,0.824219,3.419922,2.098633,4.52002h-2.017578
			c-2.492188,0-4.521484-2.026855-4.521484-4.52002c0-0.40918-0.332031-0.740234-0.741211-0.740234
			c-0.408203,0-0.740234,0.331055-0.740234,0.740234c0,3.310059,2.692383,6.000977,6.00293,6.000977h0.043945
			c-1.273438,1.102051-2.098633,2.709961-2.098633,4.522949c0,0.408203,0.331055,0.739258,0.740234,0.739258
			s0.741211-0.331055,0.741211-0.739258c0-2.494141,2.027344-4.522949,4.520508-4.522949h2.017578
			c-1.274414,1.102051-2.098633,2.709961-2.098633,4.522949c0,0.408203,0.331055,0.739258,0.740234,0.739258
			s0.740234-0.331055,0.740234-0.739258c0-2.494141,2.02832-4.522949,4.522461-4.522949h3.946289
			c2.494141,0,4.522461,2.028809,4.522461,4.522949c0,0.408203,0.333008,0.739258,0.740234,0.739258
			c0.410156,0,0.742188-0.331055,0.742188-0.739258c0-1.812988-0.826172-3.420898-2.099609-4.522949h2.016602
			c2.494141,0,4.523438,2.028809,4.523438,4.522949c0,0.408203,0.331055,0.739258,0.738281,0.739258
			c0.40918,0,0.740234-0.331055,0.740234-0.739258c0-1.812988-0.823242-3.420898-2.09668-4.522949h0.041016
			C332.795898,100.436035,335.490234,97.745117,335.490234,94.435059"/>
		<path clip-path="url(#SVGID_4_)" fill="#B6B6FD" d="M178.783203,64.005859c0,6.460938-5.238281,11.69873-11.699219,11.69873
			s-11.700684-5.237793-11.700684-11.69873c0-6.461426,5.239746-11.701172,11.700684-11.701172
			S178.783203,57.544434,178.783203,64.005859"/>
		<path clip-path="url(#SVGID_4_)" fill="#925A00" d="M207.172852,31.443359c0-0.42334-0.34375-0.76709-0.768066-0.76709
			c-0.428711,0-0.771973,0.34375-0.771973,0.76709v3.421875h-8.62793v-7.008789c0-0.424316-0.344727-0.769043-0.769043-0.769043
			c-0.428711,0-0.773926,0.344727-0.773926,0.769043v7.008789h-47.684082C147.777832,15.609375,173.415039,0,182.644043,0
			c9.22998,0,34.864746,15.609375,34.864746,34.865234h-10.335938V31.443359z"/>
		<path clip-path="url(#SVGID_4_)" fill="#6A4012" d="M182.643066,34.86377c0,0-34.865234,0-34.865234,0.000977
			c0-19.255859,25.637207-34.865234,34.866211-34.865234L182.643066,34.86377z"/>
		<path clip-path="url(#SVGID_4_)" fill="#FF960A" d="M217.854004,36.864258c1.299316,1.143066,2.137207,2.796875,2.137207,4.663086
			c0,0.424805-0.344238,0.769043-0.769043,0.769043c-0.428223,0-0.768066-0.344238-0.768066-0.769043
			c-0.007812-2.594238-2.10791-4.695312-4.703125-4.699219h-3.286621c1.322754,1.144043,2.177734,2.812988,2.177734,4.699219
			c0,0.424805-0.34375,0.769043-0.769043,0.769043c-0.428711,0-0.768066-0.344238-0.768066-0.769043
			c-0.003906-2.594238-2.10791-4.695312-4.697754-4.699219h-6.114258c1.322266,1.144043,2.178223,2.812988,2.178223,4.699219
			c0,0.424805-0.344238,0.769043-0.769043,0.769043c-0.422852,0-0.768066-0.344238-0.768066-0.769043
			c-0.003906-2.594238-2.104004-4.695312-4.699707-4.699219h-40.422363c-2.594727,0.003906-10.438965,1.452148-10.441895,4.047852
			c0.00293,2.595215-0.187012,3.960449,2.408203,3.965332l69.730957,0.082031c2.597168-0.003906,4.697754-0.79834,4.702148-3.394043
			C222.207031,39.052246,220.288086,37.046387,217.854004,36.864258"/>
		<path clip-path="url(#SVGID_4_)" fill="#57468F" d="M167.083984,76.474121c-6.875977,0-12.469238-5.594238-12.469238-12.468262
			c0-6.876953,5.593262-12.469727,12.469238-12.469727c6.875,0,12.46875,5.592773,12.46875,12.469727
			C179.552734,70.879883,173.958984,76.474121,167.083984,76.474121 M167.083984,53.07373
			c-6.027344,0-10.931152,4.904297-10.931152,10.932129c0,6.026855,4.903809,10.930176,10.931152,10.930176
			c6.026855,0,10.929688-4.90332,10.929688-10.930176C178.013672,57.978027,173.11084,53.07373,167.083984,53.07373"/>
		<path clip-path="url(#SVGID_4_)" fill="#57468F" d="M155.383301,64.774414h-5.639648
			c-0.425293,0-0.769043-0.344238-0.769043-0.769043c0-0.425293,0.34375-0.77002,0.769043-0.77002h5.639648
			c0.425293,0,0.769043,0.344727,0.769043,0.77002C156.152344,64.430176,155.808594,64.774414,155.383301,64.774414"/>
		<path clip-path="url(#SVGID_4_)" fill="#57468F" d="M215.54541,64.774414h-5.640137
			c-0.425781,0-0.77002-0.344238-0.77002-0.769043c0-0.425293,0.344238-0.77002,0.77002-0.77002h5.640137
			c0.423828,0,0.769043,0.344727,0.769043,0.77002C216.314453,64.430176,215.969238,64.774414,215.54541,64.774414"/>
		<path clip-path="url(#SVGID_4_)" fill="#170035" d="M167.083984,76.474121c-6.875977,0-12.469238-5.594238-12.469238-12.468262
			c0-6.876953,5.593262-12.469727,12.469238-12.469727c6.875,0,12.46875,5.592773,12.46875,12.469727
			C179.552734,70.879883,173.958984,76.474121,167.083984,76.474121 M167.083984,53.07373
			c-6.027344,0-10.931152,4.904297-10.931152,10.932129c0,6.026855,4.903809,10.930176,10.931152,10.930176
			c6.026855,0,10.929688-4.90332,10.929688-10.930176C178.013672,57.978027,173.11084,53.07373,167.083984,53.07373"/>
		<path clip-path="url(#SVGID_4_)" fill="#231E5A" d="M176.98877,64.005859c0,5.469727-4.43457,9.903809-9.904785,9.903809
			s-9.904785-4.434082-9.904785-9.903809c0-5.470215,4.43457-9.90625,9.904785-9.90625S176.98877,58.535645,176.98877,64.005859"/>
		<path clip-path="url(#SVGID_4_)" fill="#170035" d="M167.083984,54.099121c-5.470215,0-9.905273,4.436035-9.905273,9.905762
			c0,5.470215,4.435059,9.905273,9.905273,9.905273V54.099121z"/>
		<path clip-path="url(#SVGID_4_)" fill="#170035" d="M155.383301,64.774414h-5.639648
			c-0.425293,0-0.769043-0.344238-0.769043-0.769043c0-0.425293,0.34375-0.77002,0.769043-0.77002h5.639648
			c0.425293,0,0.769043,0.344727,0.769043,0.77002C156.152344,64.430176,155.808594,64.774414,155.383301,64.774414"/>
		<path clip-path="url(#SVGID_4_)" fill="#170035" d="M215.54541,64.774414h-5.640137
			c-0.425781,0-0.77002-0.344238-0.77002-0.769043c0-0.425293,0.344238-0.77002,0.77002-0.77002h5.640137
			c0.423828,0,0.769043,0.344727,0.769043,0.77002C216.314453,64.430176,215.969238,64.774414,215.54541,64.774414"/>
		<path clip-path="url(#SVGID_4_)" fill="#925A00" d="M219.991699,41.529297c-0.00293,0.423828-0.346191,0.76709-0.769043,0.76709
			c-0.426758,0-0.76709-0.343262-0.768066-0.76709h-5.812012c-0.001953,0.423828-0.345703,0.76709-0.769043,0.76709
			c-0.428711,0-0.76709-0.343262-0.768066-0.76709h-8.633789c-0.00293,0.423828-0.345215,0.76709-0.769043,0.76709
			c-0.422852,0-0.765137-0.343262-0.768066-0.76709h-39.312988c0-2.012207,1.100098-3.750977,2.717285-4.701172h-9.724121
			c-2.596191,0.003906-7.616211,2.10498-7.619141,4.701172c0.00293,2.595703-1.812988,3.307129,0.783203,3.312012
			l69.730957,0.082031c2.59668-0.005371,4.697754-0.79834,4.702148-3.394043H219.991699z"/>
		<path clip-path="url(#SVGID_4_)" fill="#6A4012" d="M155.8125,46.22998c-2.595703-0.004883-4.696777-2.10498-4.700684-4.700684
			c0.003906-2.596191,2.10498-4.697266,4.700684-4.701172h-8.032715c-2.596191,0.003906-4.697266,2.10498-4.700195,4.701172
			c0.00293,2.595703,2.104004,4.695801,4.700195,4.700684H155.8125z"/>
		<path clip-path="url(#SVGID_4_)" fill="#6A4012" d="M143.500977,43.452148c0.736816,1.632812,2.369629,2.774902,4.278809,2.777832
			h69.730957c1.90918-0.00293,3.542969-1.14502,4.279297-2.777832H143.500977z"/>
		<path clip-path="url(#SVGID_4_)" fill="#4648AA" d="M192.85498,93.898438c0,0,4.083984,2.400879,4.083984,4.460938
			c0,2.057129-0.742676,8.060059-5.383789,8.060059s-6.49707-5.48877-6.49707-5.48877h-2.413086v20.928711h2.01416
			c4.756836,0,21.297852-7.647949,25.004883-17.674805c1.438965-11.228027,4.818359-32.915039,4.818359-32.915039
			l-8.168457,13.539062c1.113281,5.658691-5.992676,11.656738-5.992676,11.656738s-1.486328-5.316895-5.569336-7.204102
			c-4.084961-1.886719-8.85791-5.687012-8.85791-5.687012l-3.249023,0.001953v8.362305
			C183.447266,92.34668,186.888184,93.898438,192.85498,93.898438"/>
		<g opacity="0.699997" clip-path="url(#SVGID_4_)">
			<g>
				<defs>
					<rect id="SVGID_21_" x="209.46875" y="104.182129" width="0.196289" height="1.552734"/>
				</defs>
				<clipPath id="SVGID_22_">
					<use xlink:href="#SVGID_21_"  overflow="visible"/>
				</clipPath>
				<path clip-path="url(#SVGID_22_)" fill="#453651" d="M209.46875,105.734375
					c0.060059-0.487793,0.126465-1.012695,0.196289-1.551758l-0.000977,0.001953
					C209.595215,104.723633,209.527832,105.246582,209.46875,105.734375"/>
			</g>
		</g>
		<g opacity="0.699997" clip-path="url(#SVGID_4_)">
			<g>
				<defs>
					<rect id="SVGID_23_" x="155.624023" y="104.185059" width="0.195801" height="1.549805"/>
				</defs>
				<clipPath id="SVGID_24_">
					<use xlink:href="#SVGID_23_"  overflow="visible"/>
				</clipPath>
				<path clip-path="url(#SVGID_24_)" fill="#453651" d="M155.819336,105.734375
					c-0.060059-0.486816-0.125977-1.010742-0.194824-1.549805C155.693359,104.723633,155.759277,105.247559,155.819336,105.734375"
					/>
			</g>
		</g>
		<path clip-path="url(#SVGID_4_)" fill="#231E5A" d="M184.65918,121.859863h-2.01416v5.139648h1.947754
			c5.013184,0,23.577148-10.631836,24.875977-21.264648c0.060059-0.488281,0.126465-1.01123,0.195312-1.55127
			C205.958008,114.211914,189.416992,121.859863,184.65918,121.859863"/>
		<path clip-path="url(#SVGID_4_)" fill="#231E5A" d="M180.629395,121.859863h2.015137v-20.929199h-2.411133
			c0,0-1.856934,5.489258-6.498047,5.489258c-4.640625,0-5.383789-6.003418-5.383789-8.061035
			c0-2.059082,4.084961-4.459961,4.084961-4.459961c5.96582,0,9.407227-1.553223,10.208008-1.960449V83.57666l-3.25-0.00293
			c0,0-4.773926,3.799805-8.85791,5.687012s-5.568848,7.205078-5.568848,7.205078s-7.105957-5.998047-5.993164-11.658203
			l-8.167969-13.539062c0,0,3.379883,21.688965,4.817871,32.916016v-0.001953
			C159.32959,114.210938,175.871582,121.859863,180.629395,121.859863"/>
		<path clip-path="url(#SVGID_4_)" fill="#72688C" d="M180.629395,121.859863c-4.757812,0-21.299805-7.648926-25.004883-17.677246
			v0.000977c0.068848,0.540039,0.135254,1.063965,0.194824,1.55127c1.299316,10.632812,19.863281,21.264648,24.875,21.264648
			h1.950195v-5.139648H180.629395z"/>
		<g opacity="0.699997" clip-path="url(#SVGID_4_)">
			<g>
				<defs>
					<rect id="SVGID_25_" x="155.624023" y="104.182129" width="27.020996" height="22.817871"/>
				</defs>
				<clipPath id="SVGID_26_">
					<use xlink:href="#SVGID_25_"  overflow="visible"/>
				</clipPath>
				<path clip-path="url(#SVGID_26_)" fill="#453651" d="M180.629395,121.859863
					c-4.757812,0-21.299805-7.648926-25.004883-17.677246v0.000977c0.068848,0.540039,0.135254,1.063965,0.194824,1.55127
					c1.299316,10.632812,19.863281,21.264648,24.875,21.264648h1.950195v-5.139648H180.629395z"/>
			</g>
		</g>
		<path clip-path="url(#SVGID_4_)" fill="#170035" d="M180.629395,121.859863c-4.757812,0-21.299805-7.648926-25.004883-17.677246
			v0.000977c0.068848,0.540039,0.135254,1.063965,0.194824,1.55127c1.299316,10.632812,19.863281,21.264648,24.875,21.264648
			h1.950195v-5.139648H180.629395z"/>
		<path clip-path="url(#SVGID_4_)" fill="#B6B6FD" d="M205.803711,64.774414c-0.424316,0-0.769043-0.344238-0.769043-0.769043
			c0-3.765137-3.063965-6.829102-6.829102-6.829102c-0.425293,0-0.769043-0.345215-0.769043-0.769043
			s0.34375-0.769043,0.769043-0.769043c4.61377,0,8.366699,3.753906,8.366699,8.367188
			C206.572266,64.430176,206.228516,64.774414,205.803711,64.774414"/>
		<path clip-path="url(#SVGID_4_)" fill="#B6B6FD" d="M174.681641,64.774414c-0.424316,0-0.769043-0.344238-0.769043-0.769043
			c0-3.765137-3.062988-6.829102-6.829102-6.829102c-0.423828,0-0.768066-0.345215-0.768066-0.769043
			s0.344238-0.769043,0.768066-0.769043c4.612793,0,8.367188,3.753906,8.367188,8.367188
			C175.450684,64.430176,175.105469,64.774414,174.681641,64.774414"/>
	</g>
</g>
</svg>
